<svg fill="#9AA5B1" xmlns="http://www.w3.org/2000/svg" viewBox="0 0 512 512" style="enable-background:new 0 0 512 512" xml:space="preserve"><path d="M301 344a56 56 0 0 1-45 23v16c22 0 44-11 57-29l-12-10zM304 78c-13-17-30-26-48-26s-35 9-48 26c-12 16-18 38-18 61 0 22 6 44 18 60 13 17 30 26 48 26s35-9 48-26c12-16 18-38 18-60 0-23-6-45-18-61zm-48 132c-28 0-51-32-51-71s23-72 51-72 51 32 51 72-23 71-51 71z"/><circle cx="201.1" cy="64.3" r="7.8"/><circle cx="310.9" cy="64.3" r="7.8"/><circle cx="201.1" cy="213.8" r="7.8"/><circle cx="310.9" cy="213.8" r="7.8"/><path d="M386 62h-42l-13-21c-20-26-46-41-75-41s-55 15-75 41l-13 21h-42c-15 0-26 11-26 26v151c0 16 7 31 19 42l-2 9v29h36c2 20 9 39 21 54l-26 139h216l-26-139c12-15 19-34 21-54h36v-29l-2-9c12-11 19-26 19-42V88c0-15-11-26-26-26zm-41 434H167l20-109a103 103 0 0 0 138 0l20 109zm-89-98c-46 0-83-35-87-79h174c-4 44-41 79-87 79zm123-95H133v-13c0-7 6-13 13-13h220c7 0 13 6 13 13v13zm18-196h-24v16h24v116c0 11-5 22-13 29-5-4-11-7-18-7H146c-7 0-13 3-18 7-8-7-13-18-13-29V123h24v-16h-24V88c0-6 5-11 11-11h36c-7 19-11 40-11 62 0 46 17 90 47 115l10-12c-26-22-41-61-41-103 0-68 40-123 89-123s89 55 89 123c0 42-15 81-41 103l10 12c30-25 47-69 47-115 0-22-4-43-11-62h36c6 0 11 5 11 11v19z"/></svg>
