<svg fill="#9AA5B1" xmlns="http://www.w3.org/2000/svg" viewBox="0 0 512 512" style="enable-background:new 0 0 511.994 511.994" xml:space="preserve"><path d="M131 146c2 2 5 3 8 3s5-1 7-3c4-4 4-11 0-15L50 35a11 11 0 0 0-15 15l96 96zM81 20l98 83c10 11 16 24 15 37 0 19 9 39 30 65a11 11 0 1 0 16-14c-22-28-24-42-24-51 0-19-8-38-23-52L95 4a11 11 0 0 0-14 16zM503 457 356 311a11 11 0 0 0-15 15l147 146a11 11 0 0 1-16 16L312 327a11 11 0 0 0-15 15l160 161a32 32 0 0 0 46-46zM505 47c0-18-6-32-17-44-4-4-10-4-15-1L20 456a32 32 0 0 0 23 54c8 0 16-3 22-9l136-136c52-52 75-59 87-60 24-2 44-11 59-26 68-67 158-166 158-232zM287 283c-26 2-56 22-101 67L50 486a11 11 0 1 1-15-15L479 27c3 5 5 12 5 20 0 65-114 180-152 217a69 69 0 0 1-45 19zM144 216c12 1 28 9 47 24a11 11 0 0 0 15-1c4-5 3-12-1-15-24-19-43-28-60-29-13-1-31-5-44-19L18 89a11 11 0 0 0-15 14l83 88c14 15 34 23 58 25z"/></svg>
