<svg fill="#9AA5B1" xmlns="http://www.w3.org/2000/svg" viewBox="0 0 512 512" style="enable-background:new 0 0 512 512" xml:space="preserve"><path d="M90 366h334v16H90z"/><path d="M421 183c-16 0-29 13-29 29v139h16V212c0-7 5-13 13-13h75v232c0 7-6 13-13 13H29c-7 0-13-6-13-13V199h75c8 0 13 6 13 13v139h16v-22h211v-15H120V212c0-16-13-29-29-29H0v248c0 16 13 29 29 29h454c16 0 29-13 29-29V183h-91zM396 470h52v16h-52zM432 26H82c-16 0-29 13-29 29v113h16V55c0-7 6-13 13-13h350c7 0 13 6 13 13v113h16V55c0-16-13-29-29-29zM64 470h53v16H64z"/><path d="M196 170a24 24 0 0 0-45 0h-14v16h14a24 24 0 0 0 45 0h14v-16h-14zm-23 16a8 8 0 1 1 0-16 8 8 0 0 1 0 16zM363 170a24 24 0 0 0-45 0h-14v16h14a24 24 0 0 0 45 0h14v-16h-14zm-22 16a8 8 0 1 1 0-16 8 8 0 0 1 0 16zM53 366h16v16H53zM446 366h16v16h-16zM71 230h15v16H71zM34 230h16v16H34zM462 230h16v16h-16zM426 230h16v16h-16zM352 314h16v15h-16z"/></svg>
