<svg xmlns="http://www.w3.org/2000/svg" viewBox="0 0 512 512" style="enable-background:new 0 0 512 512" xml:space="preserve" fill="#9AA5B1"><path d="M419.232 354.345V33.964C419.232 15.236 403.996 0 385.267 0H126.733c-18.728 0-33.964 15.236-33.964 33.964v444.071c0 18.728 15.236 33.964 33.964 33.964h258.535c18.728 0 33.964-15.236 33.964-33.964V374.624h-15.208v103.412c0 10.342-8.414 18.756-18.756 18.756H126.733c-10.342 0-18.756-8.414-18.756-18.756V198.72h296.048v155.625h15.207zM107.976 183.512V33.964c0-10.342 8.414-18.756 18.756-18.756h258.535c10.342 0 18.756 8.414 18.756 18.756v119.129H297.57v15.208h106.453v15.211H107.976z"/><path d="M224.56 153.093h52.731v15.208H224.56zM148.534 324.947v-85.669h12.67V224.07h-27.878v100.877zM133.326 160.697h15.208v-55.249h12.67V90.24h-27.878z"/></svg>
