<svg xmlns="http://www.w3.org/2000/svg" viewBox="0 0 512 512" style="enable-background:new 0 0 512 512" xml:space="preserve" fill="#9AA5B1"><path d="M478 49H34C15 49 0 64 0 83v312c0 19 15 34 34 34h17v34h69v-34h34v-15H34c-10 0-19-8-19-19V83c0-10 9-19 19-19h444c10 0 19 9 19 19v312c0 11-9 19-19 19H175v15h217v34h69v-34h17c19 0 34-15 34-34V83c0-19-15-34-34-34zM66 429h39v19H66v-19zm380 19h-39v-19h39v19z"/><path d="M379 155v-55H51v279h328V175h-15v188H66V115h298v40zM438 155a28 28 0 1 0 0-55 28 28 0 0 0 0 55zm0-40a13 13 0 1 1 0 25 13 13 0 0 1 0-25zM438 226a28 28 0 1 0 0-55 28 28 0 0 0 0 55zm0-40a13 13 0 1 1 0 25 13 13 0 0 1 0-25z"/><path d="M287 136 98 326l-11-11 189-190zM269 209l-46 46-11-11 46-46zM200 256l11 10-86 87-11-11zM333 219l10 11-123 123-10-11zM87 219l83-83 11 10-83 84zM398 248h18v15h-18zM429 248h18v15h-18zM460 248h18v15h-18zM398 275h18v15h-18zM429 275h18v15h-18zM460 275h18v15h-18zM398 303h18v15h-18zM429 303h18v15h-18zM460 303h18v15h-18zM398 333h80v15h-80zM398 363h80v16h-80z"/></svg>
