<svg xmlns="http://www.w3.org/2000/svg" viewBox="0 0 490 490" style="enable-background:new 0 0 490 490" xml:space="preserve" fill="#9AA5B1"><path d="M470 0H20C9 0 0 9 0 20v450c0 11 9 20 20 20h450c11 0 20-9 20-20V20c0-11-9-20-20-20zM255 60h40V40h-40V20h215v20h-40v20h40v125H255V60zM20 60h40V40H20V20h215v20h-40v20h40v125H20V60zm0 185h40v-20H20v-20h215v20h-40v20h40v155H20V245zm450 225H20v-50h450v50zm-215-70V245h40v-20h-40v-20h215v20h-40v20h40v155H255z"/><path d="M35 435h80v20H35zM290 435h165v20H290zM130 435h20v20h-20zM170 435h20v20h-20zM210 435h20v20h-20zM250 435h20v20h-20zM125 40a60 60 0 1 0 0 120 60 60 0 0 0 0-120zm0 100a40 40 0 1 1 0-80 40 40 0 0 1 0 80zM125 225a80 80 0 1 0 0 160 80 80 0 0 0 0-160zm0 140a60 60 0 1 1 0-120 60 60 0 0 1 0 120zM365 40a60 60 0 1 0 0 120 60 60 0 0 0 0-120zm0 100a40 40 0 1 1 0-80 40 40 0 0 1 0 80zM365 225a80 80 0 1 0 0 160 80 80 0 0 0 0-160zm0 140a60 60 0 1 1 0-120 60 60 0 0 1 0 120z"/><path d="M355 295h20v20h-20zM355 265h20v20h-20zM355 325h20v20h-20zM325 295h20v20h-20zM385 295h20v20h-20zM115 295h20v20h-20zM115 90h20v20h-20zM355 90h20v20h-20zM115 265h20v20h-20zM115 325h20v20h-20zM85 295h20v20H85zM145 295h20v20h-20z"/></svg>
