<svg xmlns="http://www.w3.org/2000/svg" viewBox="0 0 490 490" style="enable-background:new 0 0 490 490" xml:space="preserve" fill="#9AA5B1"><path d="M470 133H289c-3-13-12-24-25-30l78-83-14-13-83 87-83-87-14 13 78 83c-13 6-22 17-25 30H20c-11 0-20 9-20 20v320c0 6 4 10 10 10h470c6 0 10-4 10-10V153c0-11-9-20-20-20zm-225-15c10 0 19 7 23 15h-46c4-8 13-15 23-15zM20 153h345v270H20V153zm450 310H20v-20h450v20zm0-40h-85V153h85v270z"/><path d="M340 168H45c-6 0-10 5-10 10v220c0 6 4 10 10 10h295c6 0 10-4 10-10V178c0-5-4-10-10-10zm-10 220H55V188h275v200z"/><path d="M90 223h15v-20H80c-6 0-10 5-10 10v45h20v-35zM70 273h20v20H70zM428 343a28 28 0 1 0-1-55 28 28 0 0 0 1 55zm0-35c4 0 7 4 7 8s-3 7-7 7-8-3-8-7 3-8 8-8zM428 408a28 28 0 1 0-1-55 28 28 0 0 0 1 55zm0-35c4 0 7 4 7 8s-3 7-7 7-8-3-8-7 3-8 8-8zM405 253h45v20h-45zM405 213h45v20h-45zM405 173h45v20h-45z"/></svg>
