<svg xmlns="http://www.w3.org/2000/svg" viewBox="0 0 512.031 512.031" style="enable-background:new 0 0 512.031 512.031" xml:space="preserve" fill="#9AA5B1"><path d="M434.575 0H77.457C58.727 0 43.49 15.237 43.49 33.966v146.005h15.209V33.966c0-10.343 8.415-18.758 18.758-18.758h357.118c10.343 0 18.758 8.414 18.758 18.758v444.099c0 10.343-8.415 18.758-18.758 18.758H77.457c-10.343 0-18.758-8.415-18.758-18.758V200.251H43.49v277.814c0 18.729 15.237 33.966 33.966 33.966h357.118c18.729 0 33.966-15.237 33.966-33.966V33.966C468.541 15.236 453.304 0 434.575 0z"/><path d="M109.549 308.247c0 80.762 65.704 146.466 146.466 146.466s146.466-65.704 146.466-146.466S336.778 161.78 256.016 161.78s-146.467 65.705-146.467 146.467zm277.724 0c0 72.376-58.882 131.258-131.257 131.258s-131.258-58.883-131.258-131.258 58.882-131.258 131.258-131.258 131.257 58.882 131.257 131.258z"/><path d="M140.996 308.247c0 63.422 51.598 115.019 115.02 115.019s115.02-51.598 115.02-115.019c0-63.423-51.598-115.021-115.02-115.021s-115.02 51.598-115.02 115.021zm214.83 0c0 55.036-44.775 99.811-99.811 99.811s-99.811-44.775-99.811-99.811 44.775-99.812 99.811-99.812 99.811 44.775 99.811 99.812z"/><path d="m288.21 236.178-67.413 67.414-10.754-10.754 67.414-67.414zM183.945 340.443l-10.754-10.755 26.046-26.046 10.754 10.755zM338.847 286.813 234.59 391.07l-10.754-10.755 104.257-104.257zM71.373 119.67h369.285v-15.209H228.135V27.883h-15.209v76.578H71.373z"/><path d="M258.394 42.604v46.647h103.767V42.604H258.394zm88.558 31.437h-73.349V57.812h73.349v16.229zM109.677 44.637h18.249v15.209h-18.249zM140.773 44.637h18.249v15.209h-18.249zM171.86 44.637h18.249v15.209H171.86zM109.677 72.013h18.249v15.209h-18.249zM140.773 72.013h18.249v15.209h-18.249zM171.86 72.013h18.249v15.209H171.86z"/></svg>
