<svg xmlns="http://www.w3.org/2000/svg" viewBox="0 0 512 512" style="enable-background:new 0 0 512 512" xml:space="preserve" fill="#9AA5B1"><path d="M360 444c-4-1-9 2-10 6l-8 34a9 9 0 1 0 16 4l9-34c1-4-2-9-7-10zM256 273l3-1 94-38a9 9 0 0 0-6-16l-91 37-239-99v-2a9 9 0 0 0-17 0v8c0 4 2 7 5 8l248 102 3 1zM358 360c-3-4-8-5-12-3-16 8-43 17-81 18v-76a9 9 0 0 0-18 0v76c-105-3-140-67-145-78v-58a9 9 0 0 0-17 0v60l1 3c1 4 38 91 170 91 46 0 79-12 98-21 4-2 6-7 4-12zM384 452c-5 0-9 4-9 9v25a9 9 0 1 0 18 0v-25c0-5-4-9-9-9z"/><path d="M503 145c-4 0-8 4-8 9v2l-102 43v-16l114-47a9 9 0 0 0 0-16L259 18h-6L5 120a9 9 0 0 0 0 16l248 102a8 8 0 0 0 6 0l90-37a9 9 0 1 0-7-16l-86 36-225-93 225-93 225 93-98 41-94-35 1-6c0-14-15-26-34-26s-34 12-34 26 15 26 34 26c9 0 16-3 22-6l97 36v210a26 26 0 1 0 18 0v-48c24-19 33-43 33-45l1-2v-60a9 9 0 1 0-17 0v58c-2 4-7 15-17 26V217l114-47c3-1 5-4 5-8v-8c0-5-4-9-9-9zm-247-8c-10 0-17-6-17-9s7-9 17-9 17 6 17 9-7 9-17 9zm128 290a9 9 0 1 1 0-17 9 9 0 0 1 0 17zM418 450a9 9 0 1 0-17 4l9 34a9 9 0 0 0 16-4l-8-34z"/></svg>
