<svg fill="#9AA5B1" xmlns="http://www.w3.org/2000/svg" viewBox="0 0 470 470" style="enable-background:new 0 0 470 470" xml:space="preserve"><path d="M463 271c-5 0-8 3-8 7v23H15v-23a8 8 0 0 0-15 0v183c0 4 3 8 8 8h455c4 0 7-4 7-8V278c0-4-3-7-7-7zm-8 60H68a8 8 0 0 0 0 15h387v108H15V346h23a8 8 0 0 0 0-15H15v-15h440v15z"/><path d="M189 284a7 7 0 0 0 11-1l83-102a8 8 0 0 0-12-10l-83 102c-2 4-2 8 1 11zM226 273a8 8 0 0 0 12 10l83-102 1-2c9-8 22-8 31 0l20 21a21 21 0 0 1-1 32l-50 40a7 7 0 1 0 10 12l49-41 3-2c12-12 14-31 5-46 20-18 46-27 73-27a8 8 0 0 0 0-15c-30 0-59 10-81 30l63-64a7 7 0 1 0-11-10l-63 63c20-23 30-51 30-82a8 8 0 0 0-15 0c0 28-10 54-28 74a36 36 0 0 0-48 7l-1 2-82 100zM37 286c5 0 8-4 8-8V96h106v182a8 8 0 0 0 15 0V91l29-39 21 29h-20a8 8 0 0 0 0 15h27v90a8 8 0 0 0 15 0V89l-2-5-34-48V9c0-4-3-8-7-8H73c-4 0-7 4-7 8v27L31 84l-1 5v189c0 4 3 8 7 8zM81 16h106v15H81V16zm-4 30h103l-25 35H52l25-35zM433 286c4 0 7-4 7-8v-12c0-16-10-30-25-36a8 8 0 0 0-5 15c9 3 15 11 15 21v12c0 4 3 8 8 8z"/></svg>
