<svg fill="#9AA5B1" xmlns="http://www.w3.org/2000/svg" viewBox="0 0 512 512" style="enable-background:new 0 0 512 512" xml:space="preserve"><path d="M53 154c-5 0-10 4-10 10v184c0 6 5 10 10 10 56 0 101-45 101-100v-4c0-55-45-100-101-100zm81 104c0 41-31 74-70 79V175c39 5 70 38 70 79v4zM358 258c0 55 45 100 101 100 5 0 10-4 10-10V164c0-6-5-10-10-10-56 0-101 45-101 100v4zm20-4c0-41 31-74 70-79v162c-39-5-70-38-70-79v-4zM256 203a53 53 0 1 0 0 106 53 53 0 0 0 0-106zm0 85a32 32 0 1 1 0-65 32 32 0 0 1 0 65z"/><path d="M509 136 376 3c-2-2-4-3-7-3H143c-3 0-5 1-7 3L3 136c-2 2-3 4-3 7v226c0 3 1 5 3 7l133 133c2 2 4 3 7 3h226c3 0 5-1 7-3l133-133c2-2 3-4 3-7V143c0-3-1-5-3-7zm-17 229L365 492H147L20 365V147L147 20h218l127 127v218z"/><path d="m191 48-4 1-15 12c-2 1-3 4-3 6 0 3 2 7 5 7l3-2 4-4v69c0 4 4 6 9 6 4 0 8-2 8-6V53c0-3-4-5-7-5zM242 48c-17 0-31 8-31 30v36c0 21 14 29 31 29s30-8 30-29V78c0-22-13-30-30-30zm13 66c0 10-5 15-13 15-9 0-14-5-14-15V78c0-10 5-15 14-15 8 0 13 5 13 15v36zM314 48c-17 0-30 8-30 30v36c0 21 13 29 30 29s31-8 31-29V78c0-22-14-30-31-30zm14 66c0 10-5 15-14 15-8 0-13-5-13-15V78c0-10 5-15 13-15 9 0 14 5 14 15v36zM191 368l-4 1-15 12c-2 1-3 4-3 6 0 4 2 7 5 7l3-1 4-4v69c0 3 4 5 9 5 4 0 8-2 8-5v-84c0-4-4-6-7-6zM242 368c-17 0-31 8-31 30v36c0 22 14 30 31 30s30-8 30-30v-36c0-22-13-30-30-30zm13 66c0 10-5 15-13 15-9 0-14-5-14-15v-36c0-10 5-15 14-15 8 0 13 5 13 15v36zM314 368c-17 0-30 8-30 30v36c0 22 13 30 30 30s31-8 31-30v-36c0-22-14-30-31-30zm14 66c0 10-5 15-14 15-8 0-13-5-13-15v-36c0-10 5-15 13-15 9 0 14 5 14 15v36zM325 285c-5-3-11-1-14 4a64 64 0 1 1-55-97 10 10 0 1 0 0-20 85 85 0 1 0 73 127c3-5 1-11-4-14zM330 246c-5 0-10 4-10 10v5a10 10 0 1 0 20 2v-7c0-6-4-10-10-10z"/></svg>
