<svg fill="#9AA5B1" xmlns="http://www.w3.org/2000/svg" viewBox="0 0 60 60" style="enable-background:new 0 0 60 60" xml:space="preserve"><path d="M59 16V2H1v14H0v37c0 3 2 5 5 5h50c3 0 5-2 5-5V16h-1zm-2 0-6-7 5-5h1v12zm-46 0V8L6 4h48l-5 4v8H11zm-5 0 3-4v4H6zm45-4 3 4h-3v-4zM3 4h1l5 5-5 7H3V4zm55 49c0 2-1 3-3 3H5c-2 0-3-1-3-3V18h56v35z"/><path d="m42 24-1 1v6a11 11 0 0 1-22 0v-6a1 1 0 1 0-2 0v6a13 13 0 0 0 26 0v-6l-1-1z"/><path d="M20 25a1 1 0 1 0 2 0 4 4 0 0 0-8 0 1 1 0 1 0 2 0 2 2 0 0 1 4 0zM42 21c-2 0-4 2-4 4a1 1 0 1 0 2 0 2 2 0 0 1 4 0 1 1 0 1 0 2 0c0-2-2-4-4-4z"/></svg>
