<svg fill="#9AA5B1" xmlns="http://www.w3.org/2000/svg" viewBox="0 0 449.4 449.4" style="enable-background:new 0 0 449.381 449.381" xml:space="preserve"><path d="m361 358 21-97c2-9 1-19-1-29l-24-102c-5-23-25-39-49-39h-43l15-69c16 3 31 9 46 17a8 8 0 0 0 6-14C265-9 185-8 117 28a8 8 0 0 0 7 13c15-8 31-14 47-18l14 68h-43c-24 0-45 16-50 39L68 232c-2 10-2 20 0 29l21 97c2 12 10 21 20 27l-25 54a7 7 0 1 0 13 6l27-56 4 1h2l-19 49a8 8 0 0 0 14 6l9-24h181l9 24a8 8 0 1 0 14-6l-18-49h1l5-1 26 56a7 7 0 1 0 14-6l-26-54c10-6 18-15 21-27zM266 18l-16 73h-49l-16-72c27-5 54-5 81-1zm44 388H140l6-16h158l6 16zm11-31H128c-12 0-22-9-25-20l-20-97c-2-7-2-15 0-22l23-102c4-17 19-28 36-28h166c17 0 31 11 35 28l24 102v22l-21 97c-2 11-13 20-25 20z"/><path d="M337 138c-4-15-17-25-32-25H144c-15 0-28 10-31 25l-18 75a34 34 0 0 0 33 42h193a34 34 0 0 0 33-42l-17-75zm-89-10v7c0 13-10 23-23 23s-24-10-24-23v-7h47zm88 104c-4 5-9 8-15 8H128a19 19 0 0 1-18-24l17-75c2-8 9-13 17-13h42v7a39 39 0 0 0 77 0v-7h42c8 0 15 5 17 13l18 75c1 6 0 12-4 16zM139 296a30 30 0 1 0 0 60 30 30 0 0 0 0-60zm0 45a15 15 0 1 1 0-30 15 15 0 0 1 0 30zM310 296a30 30 0 1 0 0 60 30 30 0 0 0 0-60zm0 45a15 15 0 1 1 0-30 15 15 0 0 1 0 30z"/></svg>
