<svg width="432" height="300" viewBox="0 0 432 300" fill="none" xmlns="http://www.w3.org/2000/svg">
<path d="M111.249 67.6658L111.24 67.6661C111.225 67.6667 111.211 67.6634 111.198 67.6567L111.191 67.653C109.987 67.0428 108.751 66.499 107.488 66.0242C106.235 65.5481 104.937 65.0869 103.675 64.7171L103.778 64.732L103.759 64.7325C103.728 64.7334 103.696 64.7294 103.666 64.7204L103.641 64.7127C96.972 62.6208 90.0473 61.4545 83.061 61.2465C79.5791 61.1433 76.0941 61.2544 72.6259 61.5792L62.1135 62.4673C55.103 63.0329 48.0793 63.4372 41.059 63.8841C34.037 64.3096 27.0181 64.771 20.0092 65.3547L20.1592 64.8178C21.3994 65.719 22.534 66.7573 23.5414 67.913C24.5382 69.0824 25.3877 70.3696 26.0709 71.7459C26.732 73.1313 27.256 74.578 27.6354 76.0655C27.9947 77.556 28.2253 79.0747 28.3245 80.6047C28.495 83.6625 28.2893 86.7297 27.7122 89.7375C27.1663 92.7584 26.3096 95.7149 25.1557 98.5597L24.321 97.4853C29.2526 96.5536 34.1828 95.6137 39.1209 94.7182L53.9292 91.9996L53.1202 92.7288L53.2274 92.411L53.1948 92.4974C53.9113 90.2306 55.3869 88.2799 57.3732 86.9736C59.3473 85.6707 61.6888 85.0387 64.0504 85.1715C66.4221 85.3239 68.6723 86.275 70.4342 87.87C70.6643 88.0544 70.872 88.2651 71.0531 88.4978L71.6253 89.1703C71.9684 89.6442 72.2848 90.1368 72.5729 90.646C72.8467 91.151 73.0336 91.6703 73.2663 92.1823C73.3747 92.4398 73.4928 92.6946 73.5924 92.9544L73.8367 93.7481C75.0152 97.9457 75.4683 102.314 75.1762 106.664C74.9824 110.955 74.3802 115.219 73.3776 119.396L72.6374 118.653L82.5921 116.571L92.5673 114.577C92.5924 114.572 92.6185 114.577 92.64 114.591C92.6615 114.605 92.6768 114.626 92.6825 114.651C92.6882 114.676 92.6839 114.702 92.6706 114.724C92.6572 114.746 92.6359 114.762 92.6111 114.768L82.7728 117.349L72.9169 119.855C72.8177 119.88 72.7138 119.88 72.6148 119.854C72.5158 119.829 72.4248 119.779 72.3502 119.709C72.2756 119.639 72.2199 119.551 72.1882 119.454C72.1564 119.356 72.1497 119.253 72.1686 119.152L72.1765 119.112C72.9719 114.99 73.4263 110.809 73.5348 106.612C73.7136 102.47 73.1869 98.327 71.9771 94.3613L71.7437 93.6369C71.6506 93.4032 71.5408 93.1779 71.4406 92.9479C71.2283 92.4981 71.05 92.0139 70.8131 91.5917C70.5447 91.1996 70.3344 90.7633 70.0297 90.4022L69.5631 89.8689C69.4196 89.6815 69.2513 89.5145 69.063 89.3722C67.6361 88.1148 65.8268 87.3752 63.9277 87.2729C62.0197 87.1634 60.1272 87.6706 58.5298 88.7196C56.9389 89.7691 55.7485 91.3245 55.1511 93.1343L55.1184 93.2212C55.1134 93.246 55.1057 93.2702 55.0956 93.2933L55.0296 93.4433C54.9626 93.5934 54.8598 93.7247 54.7302 93.8258C54.6006 93.9268 54.4481 93.9945 54.2862 94.0228L39.4416 96.5359C34.4953 97.3844 29.541 98.1884 24.5884 99.0007C24.4509 99.0232 24.3099 99.0083 24.1802 98.9574C24.0505 98.9065 23.937 98.8216 23.8515 98.7116C23.766 98.6016 23.7118 98.4706 23.6946 98.3323C23.6773 98.1941 23.6977 98.0538 23.7535 97.9261C24.9304 95.2066 25.8482 92.3822 26.4946 89.4903C27.1669 86.594 27.4693 83.6242 27.3945 80.6519C27.3458 79.1703 27.1701 77.6957 26.8693 76.2442C26.5505 74.7981 26.0714 73.3921 25.4407 72.0523C24.7979 70.719 23.9942 69.4696 23.0475 68.3319C22.0857 67.2027 20.9999 66.1855 19.8105 65.2993L19.8022 65.2929C19.755 65.2562 19.7199 65.206 19.7017 65.149C19.6834 65.092 19.6828 65.0308 19.6999 64.9735C19.717 64.9161 19.751 64.8652 19.7975 64.8276C19.844 64.7899 19.9008 64.7671 19.9605 64.7623C26.9706 64.1928 33.971 63.5052 40.9677 62.7738C47.9663 62.0651 54.9614 61.3138 61.9698 60.7237L72.4855 59.8785C76.0251 59.5765 79.5815 59.5221 83.1287 59.7155C86.6743 59.9119 90.2001 60.3751 93.6761 61.1013C97.1489 61.804 100.56 62.783 103.877 64.0289L103.759 64.0092L103.778 64.0097L103.805 64.0105C103.831 64.0113 103.856 64.0161 103.88 64.0246C105.195 64.4941 106.425 65.0159 107.676 65.5751C108.921 66.1308 110.128 66.7678 111.289 67.482L111.24 67.469L111.249 67.4693C111.275 67.4703 111.299 67.4811 111.316 67.4994C111.334 67.5177 111.344 67.5422 111.344 67.5676C111.344 67.593 111.334 67.6174 111.316 67.6357C111.299 67.654 111.275 67.6648 111.249 67.6658L111.249 67.6658ZM154.237 93.8661C153.677 91.0596 152.553 88.3961 150.932 86.0373C150.124 84.9064 149.194 83.8675 148.159 82.9393C147.111 82.0235 145.987 81.1976 144.801 80.4705C142.363 79.0452 139.762 77.9195 137.054 77.1178C134.309 76.2863 131.501 75.6749 128.659 75.2892L128.604 75.2838C127.632 75.0131 126.664 74.7239 125.699 74.4163C126.711 74.4661 127.719 74.5382 128.723 74.6267L128.669 74.6214C131.637 74.4917 134.609 74.7746 137.5 75.462C140.436 76.1232 143.244 77.2585 145.815 78.8233C148.436 80.4025 150.618 82.6151 152.16 85.2578C153.644 87.8766 154.363 90.8589 154.237 93.8661Z" fill="#18181B"/>
<path d="M61.1891 85.772C62.9011 85.1093 64.6323 84.5323 66.3754 84.009C68.117 83.4786 69.8675 82.9888 71.6272 82.5396C73.3816 82.0668 75.1553 81.681 76.9222 81.2642C78.6987 80.8915 80.472 80.5018 82.2621 80.1887L82.6758 80.1164L82.9358 80.3149C83.6697 80.8819 84.3468 81.5187 84.9578 82.2164C85.5641 82.8803 86.1211 83.5875 86.6244 84.3325C87.1289 85.0683 87.5816 85.8384 87.9792 86.637C88.38 87.4271 88.7189 88.247 88.993 89.0895C88.4803 88.372 87.9522 87.6774 87.409 87.0058C86.858 86.3352 86.302 85.6661 85.7221 85.0589C85.1301 84.4433 84.5244 83.8477 83.8951 83.2869C83.2803 82.7462 82.6364 82.2395 81.9663 81.7691L82.6397 81.8952C80.8851 82.3656 79.1138 82.7603 77.3472 83.1784C75.5706 83.5506 73.8009 83.9539 72.0118 84.2701C70.2286 84.6127 68.4357 84.912 66.6332 85.1678C64.8328 85.4336 63.0206 85.6457 61.1891 85.772ZM36.2656 63.7195C38.3642 65.6603 40.0156 68.0344 41.1052 70.677C42.2446 73.3192 42.9634 76.1233 43.2356 78.9878C43.4633 81.8452 43.288 84.7205 42.7149 87.5291C42.6457 87.8781 42.5926 88.2298 42.51 88.5751L42.2168 89.6008L41.6012 91.6344C41.1042 92.9599 40.5225 94.2524 39.9126 95.5135C40.1111 94.1066 40.4389 92.7581 40.6672 91.3936L40.9552 89.343L41.1139 88.3264C41.1566 87.9866 41.1695 87.6427 41.1988 87.3019C41.2463 86.6185 41.3008 85.9386 41.3725 85.2616C41.4233 84.583 41.3966 83.9006 41.4131 83.2224C41.4436 81.8683 41.3992 80.5136 41.2802 79.1644C41.0308 76.4666 40.4936 73.8032 39.6777 71.2197C38.8557 68.5878 37.7096 66.0684 36.2656 63.7195Z" fill="#18181B"/>
<path d="M89.5225 84.1644C90.9908 83.6161 92.4683 83.0771 93.9552 82.566C93.8728 83.1729 93.8294 83.7843 93.825 84.3967C92.5519 84.7963 91.2695 85.1773 89.9778 85.549C89.1043 85.7999 88.2308 86.0508 87.348 86.3017C87.2272 86.1158 87.1064 85.9393 86.9856 85.772C86.8648 85.5954 86.7346 85.4282 86.6231 85.2702C87.5896 84.8892 88.556 84.5268 89.5225 84.1644ZM104.168 81.0234C103.034 81.4137 101.919 81.804 100.785 82.185H100.776C100.423 81.626 100.012 81.1058 99.5494 80.6331L99.9675 80.4937C101.222 80.0848 102.477 79.676 103.731 79.2764C103.88 79.9083 104.038 80.4937 104.168 81.0234ZM97.7838 74.8995C99.6516 74.2955 101.519 73.6914 103.397 73.106C103.194 73.7298 103.096 74.383 103.109 75.0389C101.538 75.5965 99.949 76.1261 98.3692 76.6651C94.8658 77.8081 91.3439 78.9325 87.794 79.9455C86.1492 80.4287 84.4951 80.8902 82.8317 81.3301C80.9174 81.8412 79.0031 82.3244 77.0609 82.7426C77.8322 82.3987 78.6035 82.0549 79.3841 81.7204C79.3934 81.7204 79.3934 81.7204 79.4026 81.7111C82.0232 80.596 84.681 79.5644 87.3387 78.5701C90.7956 77.2692 94.2897 76.0797 97.7838 74.8995ZM112.401 71.6098C112.243 71.6749 112.085 71.7399 111.927 71.7957C111.521 71.4558 111.063 71.1828 110.571 70.9872C111.072 70.8478 111.574 70.7084 112.076 70.5691C112.197 70.9593 112.308 71.3125 112.401 71.6098ZM24.4564 98.2394C3.47678 79.0908 19.9883 65.0623 19.9883 65.0623C34.6516 75.6801 24.4564 98.2394 24.4564 98.2394ZM72.7755 119.25C55.4634 124.414 54.1086 93.0097 54.1086 93.0097C54.1289 92.9453 54.1494 92.8813 54.1701 92.8177C56.7731 84.822 67.9304 83.7878 71.7795 91.2639C76.9955 101.395 72.7755 119.25 72.7755 119.25ZM85.8341 115.5C82.9668 122.565 80.0333 129.557 77.3339 136.614C74.5752 143.584 72.2505 150.718 70.3731 157.975C69.9301 159.756 69.59 161.561 69.3543 163.381C69.0982 165.143 69.1061 166.933 69.3779 168.692C69.5206 169.52 69.8014 170.318 70.2086 171.052C70.6239 171.75 71.1995 172.339 71.8877 172.77C73.4588 173.566 75.2451 173.834 76.9805 173.532C80.6664 172.893 84.2126 171.615 87.4601 169.758C88.2848 169.301 89.1107 168.85 89.9252 168.373L92.3329 166.875C93.9577 165.911 95.4804 164.783 97.0391 163.724C98.5922 162.654 100.069 161.475 101.583 160.36L103.783 158.587C104.515 157.997 105.268 157.435 105.974 156.813C107.394 155.579 108.872 154.421 110.252 153.146L112.357 151.277L114.408 149.349C117.131 146.769 119.751 144.086 122.267 141.302C124.801 138.539 127.233 135.684 129.607 132.781C134.367 126.961 138.8 120.881 142.884 114.568C144.933 111.406 146.899 108.184 148.782 104.904C150.668 101.627 152.473 98.2883 154.117 94.8663L154.487 94.9978C152.263 102.344 149.265 109.434 145.545 116.147C141.872 122.913 137.633 129.356 132.873 135.406C128.062 141.433 122.721 147.017 116.913 152.091L114.733 153.986L112.492 155.809C111.008 157.034 109.454 158.174 107.901 159.309C106.346 160.44 104.73 161.49 103.129 162.55C101.481 163.544 99.8765 164.596 98.2011 165.534C96.5278 166.475 94.8765 167.445 93.17 168.316C91.4784 169.211 89.7917 170.112 88.0632 170.948C84.6205 172.727 80.9486 174.021 77.1517 174.795C75.1269 175.222 73.0193 175.01 71.1204 174.187C70.1401 173.695 69.2919 172.976 68.6469 172.088C68.0405 171.211 67.5774 170.243 67.275 169.22C66.7392 167.259 66.504 165.228 66.5775 163.196C66.6311 161.226 66.8288 159.262 67.1688 157.321C67.8627 153.506 68.8804 149.757 70.2108 146.114C71.4855 142.48 72.9425 138.928 74.5242 135.44C75.2987 133.689 76.1409 131.97 76.9887 130.256C77.8295 128.539 78.7161 126.845 79.6288 125.166C81.4477 121.806 83.365 118.5 85.488 115.314L85.8341 115.5ZM39.6466 69.1322C44.9983 68.3268 50.3645 67.7148 55.7356 67.1708C61.1059 66.6145 66.4847 66.1728 71.8651 65.7533C77.2483 65.3705 82.6332 65.0122 88.0267 64.7679C93.4193 64.5114 98.817 64.3246 104.229 64.3324C98.8777 65.1402 93.5115 65.7532 88.1404 66.2968C82.77 66.8525 77.3912 67.2942 72.0106 67.7113C66.6272 68.0918 61.2423 68.45 55.8488 68.6937C50.4562 68.9496 45.0585 69.1376 39.6466 69.1322Z" fill="#18181B"/>
<path d="M105.376 159.286C104.607 152.461 103.867 145.625 103.204 138.782L102.95 136.216L102.823 134.933C102.81 134.833 102.806 134.703 102.786 134.627C102.763 134.566 102.744 134.504 102.73 134.441C102.666 134.269 102.592 134.101 102.511 133.937C101.752 132.5 100.757 131.063 99.8339 129.628C97.9496 126.756 96.1322 123.812 94.5078 120.747C93.7041 119.209 92.9469 117.641 92.2851 116.023C91.6304 114.384 91.0814 112.752 90.5129 111.141C89.371 107.906 88.2392 104.668 87.1496 101.415L85.4963 96.5424L85.0829 95.3241C84.9218 94.8631 84.8138 94.3852 84.761 93.8997C84.6458 92.9122 84.785 91.9116 85.1654 90.9931C85.544 90.0154 86.2639 89.2079 87.192 88.7202C88.1514 88.2989 89.2345 88.2554 90.2246 88.5986C91.9272 89.2374 93.481 90.2183 94.79 91.4807L93.7684 92.0545C93.5321 90.3974 93.3804 88.7293 93.314 87.0567C93.2818 86.222 93.2766 85.378 93.3102 84.5425C93.3809 83.7002 93.4147 82.8442 93.5568 82.0083C93.679 81.118 93.9968 80.2658 94.4874 79.5129C94.78 79.09 95.2119 78.7835 95.7076 78.6467C96.1837 78.549 96.677 78.5762 97.1395 78.7256C98.8085 79.2931 100.209 80.457 101.073 81.9939L100.776 81.8323H100.785L100.978 81.8334L101.08 81.9907C101.651 82.9056 102.167 83.8532 102.627 84.8287C102.841 85.2925 103.091 85.7384 103.376 86.162C103.552 86.3703 103.55 86.3674 103.8 86.3819C103.878 86.3899 103.957 86.3736 104.026 86.3353C104.095 86.297 104.151 86.2385 104.186 86.1677C104.359 85.7227 104.429 85.2441 104.389 84.7682C104.376 84.2463 104.335 83.7255 104.266 83.208C104.133 82.1618 103.927 81.1262 103.65 80.1086C103.367 79.0726 103.139 78.0223 102.967 76.9623C102.772 75.8781 102.757 74.7691 102.923 73.6801C103.027 73.1155 103.236 72.5756 103.541 72.0889C103.861 71.5968 104.297 71.1913 104.812 70.9086C105.827 70.4116 106.957 70.1939 108.084 70.2778L108.026 70.2805C108.507 70.2342 108.992 70.2502 109.469 70.328C109.94 70.4042 110.402 70.5347 110.844 70.717C111.737 71.0914 112.512 71.7026 113.084 72.4847L113.048 72.4429C113.122 72.5216 113.165 72.6247 113.17 72.7329L113.163 74.3175L112.436 72.9073L112.427 72.889L112.417 72.8714L112.402 72.8269C111.1 69.377 110.224 65.7817 109.791 62.12C109.699 61.1714 109.712 60.2155 109.829 59.2697C109.917 58.2151 110.374 57.2252 111.12 56.4742C111.555 56.0975 112.087 55.8503 112.656 55.7605C113.207 55.6961 113.765 55.753 114.292 55.9272C115.233 56.28 116.093 56.8195 116.82 57.5132C118.186 58.8112 119.386 60.2728 120.394 61.8649C121.41 63.4118 122.343 65.0112 123.19 66.6565C124.954 69.919 126.347 73.3694 127.34 76.9428C128.287 80.4809 129.181 83.9866 130.396 87.3698C131.621 90.711 133.099 94.0731 135.451 96.5098C136.542 97.7054 138.004 98.4979 139.602 98.7594C140.422 98.8448 141.25 98.8112 142.061 98.6595C142.924 98.5404 143.779 98.365 144.62 98.1343C146.307 97.6774 147.934 97.0216 149.466 96.1808C150.981 95.353 152.381 94.3294 153.63 93.1366L154.633 92.1405L155.167 93.3593C155.747 94.7287 156.099 96.1834 156.209 97.666C156.33 99.1037 156.278 100.55 156.056 101.976C155.583 104.796 154.563 107.496 153.052 109.924C152.302 111.157 151.389 112.284 150.339 113.273C149.27 114.223 148.103 115.055 146.857 115.756C145.631 116.445 144.374 117.017 143.223 117.659C142.099 118.203 141.137 119.033 140.434 120.065C139.848 121.184 139.538 122.427 139.53 123.69C139.44 125.034 139.389 126.389 139.373 127.749C139.339 130.468 139.391 133.196 139.488 135.922C139.593 138.649 139.699 141.377 139.876 144.102C140.069 146.822 140.219 149.561 140.677 152.241L140.496 152.283C139.912 149.593 139.642 146.868 139.326 144.149C139.038 141.427 138.775 138.701 138.595 135.968C138.414 133.235 138.277 130.498 138.226 127.751C138.2 126.377 138.211 124.998 138.259 123.613C138.235 122.136 138.569 120.674 139.232 119.353C140.038 118.094 141.162 117.068 142.489 116.38C143.713 115.669 144.938 115.084 146.083 114.411C147.209 113.75 148.261 112.971 149.222 112.087C150.146 111.182 150.943 110.156 151.593 109.038C152.936 106.785 153.828 104.292 154.218 101.699C154.412 100.42 154.454 99.1236 154.341 97.8356C154.242 96.5881 153.949 95.3636 153.475 94.2056L155.013 94.4283C152.241 97.0906 148.841 99.0083 145.129 100.003C144.213 100.258 143.28 100.453 142.338 100.587C141.857 100.639 141.416 100.73 140.901 100.749L140.128 100.772C139.87 100.757 139.611 100.727 139.352 100.702C137.313 100.4 135.442 99.4037 134.053 97.881C131.348 94.992 129.906 91.4529 128.658 87.9832C127.444 84.4842 126.573 80.9022 125.671 77.3876C125.442 76.5121 125.212 75.6404 124.935 74.8141C124.653 73.9716 124.334 73.1322 124.001 72.2976C123.334 70.6281 122.598 68.979 121.795 67.3667C121.002 65.7539 120.124 64.184 119.166 62.6636C118.245 61.1559 117.151 59.7612 115.906 58.5082C115.328 57.9209 114.64 57.4539 113.882 57.1342C113.543 57.0112 113.183 56.9606 112.824 56.9856C112.487 57.0308 112.168 57.1677 111.903 57.3815C111.354 57.9371 111.013 58.665 110.938 59.4426C110.808 60.305 110.773 61.1791 110.833 62.0491C111.171 65.6484 111.947 69.193 113.144 72.6042L113.12 72.5424L113.129 72.561L112.395 72.7354C112.394 72.7825 112.403 72.8292 112.42 72.8728C112.438 72.9164 112.465 72.9558 112.499 72.9885L112.462 72.9465C111.987 72.2559 111.33 71.7097 110.564 71.3678C109.794 71.0298 108.954 70.8865 108.116 70.9505L108.079 70.954L108.057 70.9533C107.051 70.8662 106.04 71.0461 105.125 71.4749C104.701 71.717 104.337 72.0519 104.061 72.4547C103.784 72.8574 103.603 73.3175 103.53 73.8004C103.369 74.8203 103.376 75.8596 103.552 76.877C103.712 77.9211 103.927 78.956 104.196 79.9774C104.48 81.0147 104.699 82.0688 104.852 83.1334C104.929 83.6708 104.978 84.212 104.998 84.7546C105.053 85.3431 104.962 85.936 104.731 86.4804C104.636 86.6386 104.504 86.7709 104.345 86.8654C104.187 86.9599 104.007 87.0137 103.823 87.0221C103.638 87.0304 103.455 86.9929 103.288 86.9131C103.122 86.8333 102.978 86.7135 102.869 86.5645C102.55 86.1108 102.27 85.6309 102.032 85.1299C101.572 84.1839 101.058 83.2656 100.491 82.3795L100.785 82.5378L100.776 82.5378L100.585 82.539L100.48 82.376C99.7077 81.0018 98.4414 79.9732 96.9381 79.4994C96.6321 79.3673 96.2893 79.3478 95.9702 79.4443C95.6512 79.5407 95.3766 79.747 95.1951 80.0266C94.8105 80.6798 94.5713 81.4083 94.4936 82.1624C94.3838 82.9582 94.3796 83.7593 94.3344 84.562C94.3263 85.3771 94.3559 86.1852 94.4119 86.9991C94.5258 88.6244 94.721 90.243 94.9968 91.8488L95.2816 93.5039L93.9751 92.4227C92.7756 91.3267 91.3685 90.4824 89.8371 89.9397C89.1846 89.7207 88.4736 89.7558 87.8459 90.038C87.2592 90.392 86.8129 90.9378 86.5825 91.5831C86.3106 92.2618 86.2168 92.9988 86.3101 93.724C86.3535 94.0922 86.4389 94.4541 86.5648 94.8028L86.99 96.0187L88.6908 100.882C89.8372 104.12 90.9412 107.373 92.0355 110.629C92.5896 112.261 93.1192 113.891 93.7209 115.446C94.3408 117.013 95.0598 118.548 95.8283 120.061C97.3737 123.087 99.1667 125.991 100.967 128.91C101.856 130.388 102.791 131.801 103.591 133.424C103.695 133.647 103.785 133.876 103.86 134.109C103.895 134.255 103.926 134.402 103.952 134.549C103.973 134.683 103.971 134.77 103.981 134.883L104.072 136.165L104.253 138.729C104.751 145.568 105.171 152.413 105.561 159.27L105.376 159.286Z" fill="#18181B"/>
<path d="M116.573 82.742L112.35 72.901L113.219 72.572L116.573 82.742Z" fill="#18181B"/>
<path d="M254.17 49.1235C250.744 50.575 247.174 51.7954 243.598 52.9151C240.005 54.0233 236.352 54.9316 232.658 55.6357C228.943 56.3962 225.16 56.7731 221.369 56.7605C219.445 56.743 217.527 56.5462 215.64 56.1727C213.695 55.8022 211.834 55.0819 210.147 54.0467L210.229 54.0938C207.393 52.6784 204.541 51.2929 201.72 49.8462L200.779 49.3635L201.345 48.5483C201.413 48.4388 201.499 48.3411 201.598 48.2587C201.645 48.2139 201.697 48.1729 201.751 48.1361C201.836 48.0773 201.937 48.0004 202.012 47.9606C202.169 47.8746 202.336 47.7683 202.485 47.7046C202.792 47.5531 203.095 47.4232 203.393 47.3099C203.993 47.0762 204.588 46.869 205.186 46.6918C206.378 46.3138 207.577 46.0279 208.776 45.7475C211.174 45.1944 213.58 44.7266 215.994 44.3441C218.407 43.9386 220.823 43.5827 223.242 43.2544C225.659 42.912 228.081 42.6267 230.501 42.3235L230.174 42.504L235.123 36.8394C236.776 34.9487 238.368 33.0293 240.077 31.1596C243.528 27.4603 247.526 24.3123 251.931 21.8257C254.142 20.5965 256.439 19.5294 258.804 18.633C261.179 17.761 263.61 17.0479 266.08 16.4983C271.029 15.2397 276.156 14.8332 281.241 15.2965C286.389 15.9326 291.296 17.8453 295.516 20.8605C299.714 23.9201 303.134 27.9239 305.499 32.5486C306.671 34.8592 307.584 37.2917 308.223 39.8023L308.637 41.7C308.752 42.3285 308.863 42.9524 308.958 43.5825C309.159 44.8393 309.322 46.1032 309.447 47.3741C309.72 49.9253 309.782 52.4946 309.634 55.056C309.495 57.6565 309.021 60.2283 308.223 62.7071L307.902 63.671L306.932 63.3793L293.822 59.4384L280.676 55.6114C276.294 54.3359 271.901 53.0982 267.489 51.9427C265.287 51.3479 263.077 50.7872 260.86 50.2604C259.747 50.0296 258.64 49.7318 257.52 49.5554L255.841 49.2545L254.17 49.1235ZM254.124 48.9226L255.875 48.9408L257.584 49.1362C258.729 49.2569 259.846 49.4966 260.98 49.6714C263.232 50.0846 265.479 50.5267 267.712 51.0201C272.178 52.0113 276.623 53.0845 281.058 54.1954C285.494 55.3034 289.904 56.5024 294.317 57.6933C298.726 58.899 303.137 60.0903 307.528 61.3732L306.237 62.0453C307.71 57.4761 307.7 52.4668 307.256 47.5897C307.139 46.3649 306.983 45.1424 306.789 43.9223C306.698 43.3128 306.59 42.702 306.48 42.0976L306.095 40.3206C305.523 37.9618 304.696 35.6722 303.629 33.4923C301.463 29.1215 298.3 25.3207 294.396 22.3962C290.457 19.4947 285.868 17.6001 281.03 16.8773C276.118 16.297 271.144 16.5355 266.311 17.5832C261.407 18.4574 256.672 20.1052 252.285 22.4648C247.898 24.8428 243.935 27.9313 240.558 31.6049C237.274 35.3533 234.144 39.3032 230.972 43.178L230.852 43.3247L230.644 43.3587C228.242 43.7498 225.838 44.1262 223.444 44.5532C221.048 44.9662 218.658 45.4065 216.281 45.8941C213.902 46.3763 211.534 46.8921 209.194 47.4712C208.026 47.7637 206.863 48.0826 205.732 48.4375C205.163 48.6083 204.607 48.806 204.074 49.0157C203.803 49.1195 203.547 49.2312 203.308 49.3508C203.176 49.4072 203.089 49.4713 202.978 49.5292C202.937 49.5533 202.898 49.5795 202.86 49.6077C202.839 49.6212 202.822 49.6335 202.834 49.626C202.847 49.604 202.8 49.6799 202.926 49.4977L202.551 48.2001C205.39 49.6107 208.198 51.0827 211.022 52.5247L211.067 52.5477L211.104 52.5719C214.034 54.4811 217.78 55.0312 221.405 55.1613C223.245 55.2063 225.086 55.1518 226.921 54.9983C228.763 54.8655 230.605 54.6429 232.439 54.3569C236.112 53.8074 239.745 52.9738 243.364 52.0775C246.988 51.1675 250.55 50.1097 254.124 48.9226Z" fill="#18181B"/>
<path d="M276.815 20.8331C275.055 22.9004 273.252 24.9098 271.441 26.9084L266.013 32.8947C264.204 34.8866 262.409 36.8909 260.629 38.9076C258.862 40.9368 257.114 42.9778 255.378 45.0667C256.667 42.6741 258.145 40.3883 259.798 38.2312C261.424 36.0553 263.191 33.9952 264.995 31.9728C266.824 29.9718 268.71 28.0261 270.677 26.1628C272.629 24.281 274.678 22.502 276.815 20.8331ZM286.211 21.8222C287.667 24.4629 288.954 27.1931 290.065 29.9962C291.194 32.7918 292.18 35.6418 293.024 38.5463C293.861 41.4526 294.513 44.4089 294.977 47.3973C295.439 50.3886 295.567 53.4219 295.361 56.4416C295.035 53.4678 294.555 50.513 293.922 47.5891C293.28 44.6779 292.525 41.7937 291.705 38.9258C290.895 36.0537 289.977 33.2106 289.061 30.3619C288.119 27.5222 287.19 24.6714 286.211 21.8222ZM230.573 42.8411C232.197 42.8635 233.818 42.9771 235.429 43.1812C237.035 43.3619 238.627 43.6216 240.216 43.8967C241.801 44.1969 243.382 44.5142 244.949 44.9102C246.529 45.2858 248.086 45.7509 249.614 46.303C247.99 46.2823 246.369 46.1694 244.758 45.9649C243.151 45.7839 241.559 45.5242 239.971 45.2475C238.386 44.9455 236.805 44.6282 235.238 44.2319C233.658 43.8559 232.101 43.3916 230.573 42.8411ZM230.573 55.313C230.599 56.692 230.526 58.0686 230.428 59.4474C230.339 60.839 230.141 62.2214 229.834 63.5817C229.683 64.3166 229.405 65.0199 229.015 65.6607C228.664 66.1852 228.322 66.7983 227.981 67.382C227.295 68.561 226.632 69.7607 225.97 70.9595C224.633 73.3498 223.317 75.752 222.024 78.166C221.39 79.3775 220.733 80.5777 220.125 81.7963C219.82 82.4044 219.53 83.0181 219.246 83.6274C219.108 83.9328 218.975 84.2392 218.861 84.5413C218.81 84.6893 218.749 84.8449 218.719 84.9771C218.7 85.0328 218.688 85.0906 218.681 85.1492C218.679 85.1602 218.67 85.2155 218.67 85.1912C218.67 85.1681 218.664 85.1454 218.653 85.1252C218.642 85.105 218.626 85.088 218.606 85.0759L218.354 84.8989C218.823 85.0102 219.305 85.0556 219.786 85.0337C220.3 85.0133 220.812 84.9445 221.313 84.8281C221.824 84.7084 222.326 84.5572 222.818 84.3754C223.315 84.1859 223.801 83.9695 224.274 83.7271L224.343 83.6921L224.389 83.7012C224.872 83.7925 225.324 84.002 225.706 84.3109C226.071 84.6181 226.331 85.0308 226.452 85.4922C226.271 85.0747 225.966 84.7232 225.578 84.4859C225.208 84.2527 224.788 84.1128 224.352 84.0784L224.468 84.0526C223.556 84.6847 222.56 85.1856 221.509 85.5406C220.97 85.7147 220.415 85.8375 219.853 85.9073C219.257 85.9896 218.653 85.9696 218.064 85.8482L217.895 85.8106L217.812 85.671C217.746 85.5588 217.7 85.436 217.677 85.3081C217.669 85.2371 217.668 85.1655 217.675 85.0944C217.678 84.9815 217.693 84.8692 217.719 84.7595C217.757 84.5726 217.804 84.3879 217.861 84.206C217.969 83.8581 218.089 83.5255 218.214 83.197C218.464 82.5408 218.747 81.9058 219.033 81.2747C219.611 80.0151 220.207 78.7705 220.846 77.5483C222.102 75.0931 223.444 72.6888 224.827 70.3066C225.529 69.1212 226.244 67.9442 226.981 66.7744C227.357 66.1872 227.725 65.6226 228.173 65.0293C228.518 64.507 228.779 63.9333 228.946 63.3295C229.681 60.7 230.224 58.0209 230.573 55.313Z" fill="#18181B"/>
<path d="M234.035 88.9178C230.079 82.8182 224.371 85.4921 224.371 85.4921C224.371 85.4921 222.166 115.789 235.684 116.613C245.971 117.241 254.823 110.993 261.047 104.266C264.271 100.764 266.311 96.3369 266.879 91.6111C267.723 84.7106 268.992 74.2857 269.314 71.2784C269.808 66.6625 271.679 54.5764 278.381 55.313C278.381 55.313 292.393 55.4524 285.14 79.686C285.14 79.686 283.162 94.8525 296.02 93.0391C296.02 93.0391 293.382 85.4558 296.844 79.686C300.306 73.9161 304.858 66.6215 304.643 61.614C304.643 61.614 259.258 48.1988 254.147 49.0231C257.293 50.6835 259.823 53.3089 261.366 56.5135C262.909 59.7181 263.383 63.3331 262.72 66.8273C261.212 76.6269 253.96 89.7777 250.594 95.4801C250.061 96.3897 249.291 97.1377 248.366 97.6446C247.441 98.1514 246.396 98.3982 245.342 98.3586C243.393 98.2803 241.157 97.9949 240.093 97.1605C237.992 95.5119 234.035 88.9178 234.035 88.9178Z" fill="#0073A8"/>
<path d="M233.55 59.8546C234.513 59.1127 235.616 58.5719 236.793 58.2642C237.99 57.9275 239.24 57.8231 240.477 57.9569C241.741 58.108 242.943 58.5872 243.964 59.3467C244.957 60.0881 245.719 61.0959 246.162 62.2531C245.329 61.4701 244.397 60.7978 243.392 60.2529C242.427 59.7605 241.382 59.4443 240.306 59.3192C239.205 59.1971 238.094 59.1951 236.992 59.3133C235.866 59.431 234.728 59.6158 233.55 59.8546ZM272.446 76.7186C274.656 77.5852 277.213 77.4874 278.85 76.0366C279.676 75.305 280.334 74.405 280.783 73.3972C281.265 72.3612 281.652 71.2831 281.937 70.1765C282.575 67.945 282.952 65.6472 283.06 63.3291C283.111 62.1655 283.082 60.9999 282.973 59.8404C282.918 59.2574 282.834 58.6776 282.72 58.1033C282.668 57.813 282.595 57.5302 282.518 57.2453C282.457 56.9571 282.34 56.6838 282.172 56.4417C282.587 56.8859 282.898 57.4158 283.084 57.9938C283.305 58.5584 283.49 59.1365 283.637 59.7246C283.918 60.907 284.084 62.1138 284.132 63.3281C284.221 65.7647 283.926 68.2001 283.26 70.5455C282.599 72.8239 281.638 75.3458 279.496 76.8873C278.442 77.6418 277.159 78.0065 275.866 77.9189C274.638 77.8376 273.455 77.4226 272.446 76.7186ZM256.454 108.666C257.262 109.159 258.009 109.746 258.68 110.415C259.354 111.065 259.976 111.767 260.539 112.516C261.11 113.272 261.602 114.084 262.007 114.94C262.48 115.802 262.671 116.791 262.555 117.767C262.159 116.952 261.666 116.187 261.087 115.49C260.543 114.774 259.974 114.07 259.439 113.338C258.895 112.611 258.365 111.867 257.859 111.098C257.332 110.323 256.862 109.51 256.454 108.666ZM296.02 93.0391C296.893 94.3903 297.689 95.7901 298.403 97.2318C298.764 97.9212 299.121 98.6017 299.523 99.2501C299.92 99.9329 300.405 100.561 300.966 101.117C300.093 100.995 299.29 100.575 298.693 99.9283C298.082 99.3292 297.574 98.6342 297.188 97.8709C296.8 97.1296 296.501 96.3449 296.298 95.5333C296.076 94.7215 295.982 93.8799 296.02 93.0391Z" fill="#18181B"/>
<path d="M316.136 89.5728C316.136 89.5728 300.236 90.7344 297.551 97.0814L298.034 97.9921L299.809 97.0814C308.34 92.8346 313.162 98.4753 307.234 99.4696C301.296 100.455 265.937 116.652 265.937 116.652C250.604 120.992 241.617 144.307 241.617 144.307C244.089 143.248 246.608 142.3 249.107 141.287C251.672 140.46 254.218 139.568 256.811 138.834C262.017 137.364 267.326 136.286 272.692 135.609C278.069 134.917 283.499 134.749 288.908 135.107C290.256 135.256 291.603 135.34 292.951 135.535C294.28 135.767 295.627 135.925 296.947 136.241C299.601 136.763 302.186 137.589 304.65 138.704C302.087 137.937 299.458 137.412 296.798 137.133C295.478 136.929 294.14 136.864 292.821 136.743C291.492 136.659 290.163 136.613 288.834 136.548C283.513 136.467 278.193 136.768 272.915 137.449L268.957 137.96L265.017 138.657L263.047 138.983L261.095 139.41C259.785 139.698 258.484 139.977 257.174 140.246C254.572 140.85 251.988 141.538 249.377 142.161C246.794 142.867 244.229 143.648 241.617 144.307C201.398 150.905 162.155 175.633 159.525 174.973C156.886 174.314 154.572 153.544 154.572 148.201C154.572 142.867 153.587 132.766 145.67 132.766C137.761 132.766 138.746 139.689 138.746 139.689C153.587 143.648 119.297 146.621 109.075 147.931C98.8526 149.251 104.456 145.302 104.456 145.302C104.456 145.302 101.492 142.133 98.3136 146.073C97.3218 147.344 96.6531 148.836 96.365 150.423C96.0769 152.009 96.1779 153.641 96.6595 155.18C97.6724 158.562 99.1685 163.692 100.172 167.716C101.826 174.314 107.755 221.79 109.734 226.409C111.714 231.018 152.593 243.22 239.638 236.956C246.691 235.85 253.717 234.68 260.742 233.509C267.758 232.31 274.774 231.083 281.734 229.661C285.219 228.964 288.704 228.24 292.152 227.413C295.618 226.623 299.056 225.746 302.467 224.783C305.879 223.824 309.241 222.695 312.54 221.4C315.881 220.198 318.992 218.435 321.74 216.187C320.529 217.512 319.14 218.663 317.614 219.607C316.104 220.582 314.533 221.46 312.912 222.236C309.657 223.752 306.311 225.065 302.894 226.167C296.072 228.335 289.131 230.11 282.106 231.483C275.09 232.877 268.04 234.029 260.956 234.94C253.875 235.878 246.766 236.566 239.638 236.956C239.638 236.956 236.469 256.22 234.815 273.551H358.799C358.669 256.629 358.641 234.206 359.162 214.04C360.147 175.141 359.162 156.834 359.162 156.834C357.379 156.637 355.618 156.276 353.902 155.756C352.183 155.264 350.501 154.678 348.819 154.074C345.464 152.866 342.193 151.454 338.941 150.004C335.707 148.526 332.51 146.984 329.36 145.32C326.21 143.675 323.096 141.938 320.086 140.023C323.44 141.25 326.721 142.616 329.982 144.019C333.244 145.404 336.469 146.872 339.712 148.313L349.367 152.736C352.61 154.167 355.779 155.71 359.162 156.834C359.162 156.834 375.48 164.259 376.967 145.46C378.444 126.67 360.639 86.1159 316.136 89.5728ZM322.985 150.626C324.625 152.175 326.056 153.93 327.241 155.849C327.826 156.806 328.328 157.819 328.858 158.823C329.313 159.854 329.685 160.913 330.112 161.964C330.314 162.49 330.476 163.03 330.596 163.58L331.023 165.216C331.311 166.303 331.523 167.408 331.655 168.524L331.878 170.197L331.99 171.033L332.027 171.87L332.138 175.224L332.166 176.061L332.11 176.897L331.99 178.57C331.915 179.685 331.841 180.791 331.72 181.897C331.348 184.09 330.995 186.283 330.521 188.448C329.917 190.585 329.332 192.713 328.663 194.813C328.932 192.611 329.276 190.446 329.62 188.281C329.88 186.106 330.029 183.922 330.28 181.757L330.363 178.495L330.41 176.869L330.438 176.061L330.382 175.252L330.215 172.009L330.177 171.201L330.057 170.401L329.815 168.803C329.27 164.531 327.977 160.388 325.996 156.564C324.97 154.669 323.742 152.89 322.334 151.258C320.93 149.588 319.286 148.135 317.456 146.946C319.508 147.825 321.382 149.072 322.985 150.626ZM346.412 112.991C345.747 114.39 344.608 115.51 343.197 116.15C342.498 116.469 341.766 116.706 341.013 116.856C340.261 116.963 339.504 117.028 338.745 117.052C337.993 117.014 337.231 117.014 336.487 116.921L334.276 116.559C333.541 116.41 332.835 116.197 332.11 116.011L330.019 115.444C328.656 115.088 327.268 114.84 325.866 114.7C323.026 114.436 320.167 114.426 317.326 114.673C311.583 115.191 305.892 116.179 300.311 117.628C297.504 118.334 294.698 119.096 291.919 119.923C289.122 120.713 286.371 121.624 283.602 122.544C288.867 120.007 294.327 117.897 299.929 116.234C305.545 114.501 311.325 113.358 317.177 112.823C320.139 112.588 323.116 112.632 326.07 112.953C327.557 113.145 329.027 113.452 330.466 113.873L334.601 115.147L336.673 115.593C337.37 115.713 338.067 115.741 338.764 115.834C339.461 115.881 340.158 115.825 340.846 115.806C341.527 115.715 342.197 115.55 342.844 115.314C344.158 114.862 345.269 113.956 345.975 112.758C346.34 112.15 346.616 111.493 346.793 110.807C347.002 110.113 347.115 109.394 347.128 108.669C347.289 110.148 347.042 111.643 346.412 112.991H346.412Z" fill="#18181B"/>
<path d="M182.601 273.554C200.899 273.023 219.198 272.667 237.497 272.486C246.646 272.36 255.796 272.332 264.945 272.257L292.393 272.181L319.842 272.253C328.991 272.33 338.14 272.354 347.29 272.482C365.589 272.662 383.887 273.019 402.186 273.554C383.887 274.088 365.589 274.446 347.29 274.626C338.14 274.754 328.991 274.778 319.842 274.855L292.393 274.927L264.945 274.851C255.796 274.777 246.646 274.749 237.497 274.622C219.198 274.441 200.899 274.085 182.601 273.554ZM236.632 69.806C240.219 69.806 240.225 64.2303 236.632 64.2303C233.044 64.2303 233.038 69.806 236.632 69.806Z" fill="#18181B"/>
</svg>
