<svg width="551" height="324" viewBox="0 0 551 324" fill="none" xmlns="http://www.w3.org/2000/svg">
<path d="M487.752 179.79C487.102 178.939 486.532 178.04 485.962 177.129C474.972 159.85 426.952 168.04 426.952 168.04C421.522 209.699 412.072 204.79 410.322 202.169C408.572 199.55 405.412 173.82 403.322 170.32C397.282 169.79 384.942 169.879 384.942 169.879C373.032 170.16 361.832 180.64 350.812 197.709C339.792 214.769 320.362 229.209 320.362 229.209C320.362 229.209 326.132 229.739 328.232 242.34C329.522 242.739 333.392 241.03 336.212 239.649C338.728 238.419 341.534 237.903 344.322 238.16C348.862 238.58 355.392 240.029 360.612 244.969C361.254 245.568 361.936 246.123 362.652 246.629C363.312 246.259 363.682 246.009 363.682 246.009C374.442 241.549 380.742 226.06 380.742 226.06C379.87 224.112 379.361 222.021 379.242 219.89C379.072 217.768 379.102 215.635 379.332 213.519C379.562 211.449 379.722 209.399 379.782 207.34C379.887 205.262 379.797 203.18 379.513 201.12C380.37 203.076 380.858 205.175 380.952 207.31C381.099 209.429 381.056 211.558 380.822 213.669C380.592 215.729 380.462 217.78 380.412 219.85C380.338 221.925 380.449 224.003 380.743 226.06C381.346 231.587 382.653 237.014 384.632 242.209C387.475 243.151 390.407 243.798 393.382 244.14C394.846 244.306 396.321 244.353 397.792 244.28C399.3 244.196 400.801 244.035 402.292 243.8C400.947 244.606 399.466 245.161 397.922 245.439C397.15 245.589 396.368 245.682 395.582 245.719C394.795 245.73 394.007 245.7 393.222 245.629C391.661 245.46 390.129 245.09 388.662 244.529C387.2 243.985 385.838 243.201 384.632 242.209C385.475 244.522 386.593 246.725 387.962 248.769C395.38 249.197 402.65 251.019 409.392 254.14C411.102 254.93 412.672 255.989 414.252 256.769C415.861 257.572 417.546 258.212 419.282 258.68C422.778 259.631 426.38 260.141 430.002 260.199C431.842 260.259 433.592 260.16 435.492 260.1C437.36 260.079 439.226 260.169 441.082 260.37C444.763 260.749 448.432 261.169 452.072 261.81C453.462 262.05 454.842 262.31 456.222 262.58C455.583 261.711 455.033 260.78 454.582 259.8C453.88 258.323 453.353 256.769 453.013 255.169C452.663 253.571 452.452 251.945 452.382 250.31C452.292 248.661 452.355 247.007 452.572 245.37L452.582 245.32L452.602 245.249C453.151 243.475 453.49 241.643 453.612 239.79C453.767 237.91 453.787 236.022 453.672 234.14C453.542 232.255 453.312 230.379 452.982 228.519C452.622 226.689 452.142 224.779 451.882 222.85C451.358 219.003 451.238 215.111 451.523 211.239C451.622 209.31 451.822 207.379 452.112 205.479C452.379 203.572 452.743 201.68 453.202 199.81C452.728 203.612 452.468 207.438 452.422 211.27C452.367 215.073 452.645 218.874 453.253 222.629C453.382 223.57 453.612 224.489 453.802 225.41L454.422 228.25C454.791 230.168 455.035 232.109 455.152 234.06C455.448 237.969 454.997 241.899 453.822 245.64C453.574 247.177 453.447 248.732 453.442 250.29C453.431 251.874 453.555 253.456 453.812 255.02C454.064 256.588 454.466 258.128 455.013 259.62C455.398 260.667 455.883 261.675 456.463 262.629C458.632 263.07 460.782 263.57 462.912 264.16C466.494 265.096 469.936 266.497 473.152 268.33C469.829 266.766 466.331 265.605 462.733 264.87C460.882 264.439 459.019 264.066 457.142 263.749C457.137 263.744 457.13 263.741 457.122 263.739C455.393 263.439 453.652 263.18 451.902 262.949C448.263 262.479 444.612 262.07 440.963 261.78C439.154 261.61 437.338 261.54 435.523 261.57C433.753 261.629 431.813 261.76 429.973 261.699C426.223 261.623 422.5 261.065 418.893 260.04C417.082 259.51 415.327 258.807 413.652 257.939C412.812 257.53 411.993 256.979 411.223 256.53C410.453 256.06 409.683 255.57 408.872 255.169C405.639 253.472 402.233 252.124 398.713 251.149C395.192 250.095 391.599 249.299 387.963 248.77L379.693 249.56C379.948 249.911 380.135 250.308 380.243 250.729C382.372 257.62 379.303 284.61 379.303 284.61C391.112 293.269 456.483 306.66 456.483 306.66C498.622 313.749 499.013 276.33 499.013 276.33C506.552 209.18 491.732 184.949 487.752 179.79ZM435.022 248.239C434.25 248.389 433.468 248.482 432.682 248.519C431.895 248.53 431.107 248.5 430.322 248.43C428.761 248.26 427.229 247.89 425.762 247.33C424.3 246.785 422.938 246.001 421.732 245.009C424.575 245.952 427.507 246.598 430.482 246.939C431.946 247.106 433.421 247.153 434.892 247.08C436.399 246.996 437.901 246.835 439.392 246.6C438.047 247.406 436.566 247.961 435.022 248.239V248.239Z" fill="#18181B"/>
<path d="M403.234 170.367C402.946 169.933 402.626 169.521 402.276 169.135C401.928 168.755 401.545 168.409 401.132 168.099C400.723 167.797 400.281 167.541 399.815 167.336C399.366 167.135 398.889 167.006 398.4 166.953L398.556 166.923C397.552 167.406 396.491 167.76 395.399 167.978C394.289 168.217 393.146 168.254 392.024 168.088C390.858 167.916 389.759 167.436 388.84 166.697C387.995 165.941 387.254 165.076 386.636 164.126C385.429 162.296 384.355 160.382 383.424 158.398C382.485 156.428 381.641 154.436 380.854 152.389L381.662 152.923C380.73 153.018 379.79 152.875 378.929 152.508C378.427 152.272 378.004 151.897 377.709 151.427C377.438 150.973 377.277 150.462 377.237 149.935C377.19 149.031 377.319 148.126 377.616 147.271C377.876 146.455 378.22 145.668 378.642 144.923C379.432 143.766 379.803 142.374 379.693 140.978C379.63 140.298 379.443 139.635 379.141 139.023L378.596 138.002C378.407 137.64 378.224 137.272 378.054 136.896C377.7 136.143 377.418 135.359 377.212 134.553C376.986 133.768 376.804 132.972 376.665 132.167C376.491 131.369 376.437 130.551 376.337 129.742C376.305 128.926 376.255 128.111 376.299 127.296C376.367 124.016 377.17 120.794 378.648 117.866C378.699 117.767 378.777 117.685 378.873 117.63C378.969 117.574 379.079 117.546 379.19 117.551C379.301 117.555 379.409 117.591 379.5 117.654C379.592 117.717 379.663 117.804 379.707 117.906L379.716 117.929C380.937 120.747 382.494 123.407 384.355 125.85C386.208 128.317 388.434 130.48 390.952 132.263C393.464 134.049 396.333 135.271 399.361 135.843C402.385 136.4 405.492 136.317 408.481 135.598L408.503 135.594C408.573 135.578 408.646 135.582 408.714 135.606C408.782 135.631 408.842 135.674 408.886 135.731C410.093 137.391 410.933 139.289 411.352 141.298C411.797 143.261 412.025 145.267 412.03 147.28C412.041 149.283 411.898 151.284 411.603 153.266C411.251 155.147 411.119 157.062 411.208 158.974C411.299 160.822 411.798 162.626 412.671 164.257C413.542 165.828 414.874 167.094 416.486 167.886C418.13 168.653 419.945 168.976 421.753 168.823C423.604 168.673 425.416 168.207 427.11 167.444C427.273 167.373 427.452 167.346 427.629 167.367C427.806 167.387 427.974 167.454 428.117 167.56C428.259 167.666 428.371 167.808 428.441 167.972C428.512 168.135 428.538 168.314 428.516 168.491L428.515 168.504C427.78 174.878 426.639 181.198 425.097 187.425C424.298 190.569 423.247 193.643 421.956 196.618C421.293 198.138 420.478 199.587 419.525 200.943C419.026 201.643 418.46 202.291 417.836 202.881C417.187 203.516 416.425 204.025 415.588 204.379C414.692 204.763 413.702 204.873 412.744 204.692C411.795 204.498 410.923 204.032 410.233 203.353C409.864 203.003 409.57 202.583 409.368 202.117C409.207 201.715 409.07 201.303 408.959 200.884C408.734 200.084 408.565 199.298 408.396 198.509C407.736 195.361 407.282 192.206 406.779 189.058L405.298 179.623C405.044 178.052 404.778 176.484 404.471 174.926C404.222 173.367 403.807 171.838 403.234 170.367L403.228 170.353C403.217 170.329 403.216 170.302 403.225 170.278C403.233 170.254 403.251 170.234 403.274 170.222C403.297 170.211 403.324 170.208 403.348 170.216C403.373 170.224 403.394 170.241 403.406 170.264C404.103 171.714 404.627 173.241 404.967 174.814C405.364 176.362 405.719 177.919 406.062 179.477C406.755 182.592 407.339 185.726 407.966 188.848C408.581 191.971 409.218 195.094 409.92 198.169C410.102 198.933 410.289 199.7 410.514 200.429C410.616 200.777 410.738 201.119 410.88 201.453C411.003 201.716 411.18 201.95 411.398 202.142C411.852 202.581 412.429 202.872 413.053 202.976C413.676 203.079 414.316 202.989 414.888 202.719C416.148 202.046 417.206 201.051 417.955 199.835C418.795 198.558 419.517 197.206 420.111 195.798C421.322 192.912 422.3 189.934 423.036 186.891C424.523 180.741 425.681 174.516 426.507 168.242L427.911 169.303C425.995 170.132 423.951 170.626 421.867 170.762C419.728 170.908 417.588 170.492 415.66 169.554C413.722 168.578 412.136 167.022 411.124 165.103C410.171 163.229 409.647 161.167 409.59 159.065C409.537 157.039 409.726 155.014 410.153 153.033C410.51 151.131 410.72 149.204 410.783 147.27C410.853 145.343 410.705 143.414 410.341 141.521C410.012 139.653 409.303 137.872 408.256 136.291L408.66 136.422C405.553 137.066 402.35 137.093 399.233 136.502C397.68 136.199 396.168 135.719 394.725 135.071C393.278 134.442 391.895 133.675 390.596 132.78C388.008 130.978 385.691 128.814 383.718 126.354C381.7 123.916 379.987 121.241 378.617 118.387L379.686 118.45C378.431 121.234 377.808 124.262 377.861 127.315C377.867 128.839 378.026 130.358 378.336 131.849C378.481 132.596 378.667 133.335 378.893 134.062C379.093 134.781 379.353 135.481 379.67 136.157C379.827 136.498 379.997 136.836 380.174 137.172C380.352 137.518 380.534 137.813 380.747 138.237C381.147 139.041 381.396 139.912 381.483 140.806C381.619 142.585 381.147 144.356 380.144 145.831C379.406 147.023 378.991 148.387 378.94 149.789C378.936 150.042 379.003 150.29 379.134 150.506C379.265 150.723 379.454 150.897 379.679 151.011C380.277 151.26 380.927 151.36 381.572 151.302L381.583 151.302C381.756 151.294 381.926 151.342 382.07 151.438C382.213 151.534 382.322 151.674 382.38 151.836C383.096 153.834 383.904 155.83 384.765 157.781C385.595 159.737 386.564 161.631 387.666 163.448C388.191 164.33 388.83 165.139 389.565 165.856C390.316 166.501 391.225 166.936 392.199 167.115C394.258 167.442 396.367 167.179 398.283 166.357L398.324 166.34C398.361 166.326 398.4 166.321 398.439 166.326C398.999 166.412 399.54 166.589 400.041 166.851C400.529 167.1 400.987 167.402 401.407 167.753C401.816 168.107 402.19 168.5 402.523 168.926C402.85 169.349 403.146 169.796 403.406 170.264C403.413 170.275 403.417 170.288 403.418 170.301C403.42 170.314 403.419 170.327 403.416 170.34C403.412 170.352 403.407 170.364 403.399 170.375C403.391 170.385 403.381 170.394 403.369 170.4C403.346 170.412 403.32 170.415 403.295 170.409C403.27 170.403 403.249 170.388 403.234 170.367Z" fill="#18181B"/>
<path d="M379.566 151.876C379.362 153.467 379.149 155.045 378.983 156.625C378.826 158.205 378.675 159.782 378.626 161.359C378.548 162.926 378.614 164.498 378.82 166.053C378.923 166.824 379.129 167.577 379.435 168.291C379.722 169.025 380.2 169.668 380.82 170.155C380.087 169.778 379.482 169.192 379.082 168.471C378.686 167.75 378.392 166.977 378.21 166.174C377.867 164.584 377.736 162.955 377.818 161.33C377.883 159.72 378.068 158.118 378.369 156.535C378.651 154.954 379.051 153.397 379.566 151.876ZM379.085 118.216C378.879 117.856 378.748 117.459 378.701 117.048C378.654 116.636 378.691 116.22 378.81 115.823L378.975 115.228L379.233 114.676C379.323 114.494 379.405 114.304 379.503 114.126L379.842 113.626C380.294 112.958 380.805 112.333 381.37 111.759C381.943 111.203 382.552 110.69 383.15 110.158C385.672 108.251 388.373 106.593 391.215 105.207C392.633 104.534 394.067 103.89 395.5 103.25C396.949 102.655 398.408 102.081 399.869 101.516C401.334 100.98 402.822 100.517 404.301 100.025C405.049 99.8004 405.771 99.5448 406.571 99.3236C407.347 99.1153 408.132 98.948 408.926 98.8226C412.076 98.3043 415.298 98.4356 418.396 99.2083C421.481 99.9857 424.332 101.497 426.709 103.612C429.053 105.761 430.984 108.32 432.408 111.163C433.837 113.994 434.93 116.984 435.663 120.07L435.678 120.153C436.45 124.388 437.809 128.495 439.715 132.355C440.656 134.281 441.745 136.131 442.973 137.887C444.181 139.648 445.545 141.296 447.048 142.812L449.426 145.015C450.282 145.763 451.086 146.569 451.833 147.425C453.363 149.115 454.624 151.029 455.574 153.101C457.544 157.194 458.036 161.842 456.969 166.257C456.962 166.282 456.947 166.303 456.925 166.317C456.904 166.33 456.878 166.335 456.853 166.33C456.828 166.325 456.806 166.31 456.791 166.29C456.776 166.269 456.77 166.243 456.774 166.218L456.775 166.207C457.056 164.051 456.969 161.864 456.518 159.737C456.109 157.631 455.368 155.603 454.322 153.729C453.808 152.798 453.237 151.9 452.61 151.04C451.968 150.192 451.271 149.387 450.524 148.63C449.794 147.856 449.013 147.131 448.185 146.463L445.644 144.263C442.381 141.111 439.731 137.38 437.831 133.26C436.885 131.22 436.084 129.116 435.435 126.963C434.762 124.808 434.272 122.601 433.971 120.364L433.985 120.446C433.388 117.444 432.495 114.508 431.321 111.681C430.145 108.849 428.42 106.279 426.244 104.119C425.125 103.074 423.879 102.174 422.536 101.439C421.183 100.721 419.736 100.195 418.238 99.8762C415.238 99.2783 412.143 99.352 409.176 100.092C408.44 100.262 407.715 100.471 407.001 100.717C406.315 100.959 405.587 101.273 404.862 101.549L400.494 103.183C399.061 103.761 397.623 104.328 396.177 104.876L391.926 106.703C389.126 107.959 386.427 109.428 383.852 111.097C383.25 111.555 382.628 111.999 382.044 112.481C381.471 112.97 380.938 113.502 380.448 114.073L380.082 114.503C379.976 114.655 379.887 114.816 379.787 114.973L379.496 115.451L379.294 115.964C379.005 116.643 378.989 117.408 379.248 118.1L379.258 118.121C379.268 118.144 379.269 118.17 379.262 118.193C379.254 118.217 379.237 118.237 379.215 118.249C379.193 118.261 379.168 118.264 379.143 118.258C379.119 118.252 379.098 118.237 379.085 118.216V118.216ZM381.559 137.537C382.942 136.542 384.451 135.736 386.047 135.139C386.845 134.832 387.664 134.586 388.498 134.403C389.338 134.19 390.212 134.15 391.068 134.285C390.251 134.461 389.449 134.704 388.671 135.011L386.335 135.895C384.772 136.482 383.212 137.087 381.559 137.537ZM385.934 143.126C386.249 143.115 386.547 142.983 386.766 142.756C386.985 142.53 387.107 142.227 387.107 141.912C387.107 141.598 386.985 141.295 386.766 141.068C386.547 140.842 386.249 140.709 385.934 140.698C385.619 140.709 385.321 140.842 385.102 141.068C384.884 141.295 384.761 141.598 384.761 141.912C384.761 142.227 384.884 142.53 385.102 142.756C385.321 142.983 385.619 143.115 385.934 143.126ZM383.976 157.833C384.585 157.852 385.194 157.835 385.801 157.783C386.392 157.729 386.976 157.657 387.555 157.547C388.133 157.434 388.71 157.305 389.288 157.147C389.868 156.991 390.45 156.818 391.068 156.663C390.608 157.1 390.083 157.463 389.511 157.738C388.937 158.017 388.329 158.221 387.702 158.342C386.439 158.615 385.12 158.434 383.976 157.833ZM379.472 281.024C376.466 279.917 373.374 279.055 370.228 278.446C367.131 277.815 363.95 277.714 360.819 278.146L359.667 278.34L358.541 278.646C357.794 278.854 357.061 279.107 356.344 279.403C354.911 280.02 353.537 280.766 352.239 281.632C350.917 282.499 349.662 283.492 348.186 284.349C346.707 285.179 345.116 285.79 343.462 286.163C341.819 286.553 340.133 286.723 338.445 286.669C336.678 286.671 334.936 286.248 333.366 285.437C332.933 285.173 332.547 284.838 332.223 284.447C331.933 284.091 331.754 283.831 331.501 283.54C331.024 282.991 330.473 282.513 329.863 282.119C328.522 281.34 327.106 280.697 325.636 280.201C324.05 279.698 322.529 279.008 321.106 278.146C320.385 277.659 319.751 277.053 319.231 276.355C318.976 276.026 318.747 275.711 318.501 275.42C318.381 275.269 318.253 275.14 318.124 274.994C317.983 274.827 317.821 274.66 317.701 274.492C316.746 273.167 315.869 271.788 315.075 270.361C314.272 268.958 313.472 267.559 312.705 266.136L312.939 266.309L310.88 265.86C310.169 265.738 309.471 265.547 308.796 265.289C307.444 264.724 306.257 263.826 305.345 262.678C304.846 262.104 304.504 261.411 304.351 260.666C304.292 260.273 304.317 259.872 304.424 259.49C304.531 259.108 304.718 258.752 304.972 258.447C305.458 257.874 306.053 257.403 306.722 257.061C307.391 256.719 308.122 256.513 308.871 256.455C309.595 256.414 310.322 256.443 311.041 256.544L313.136 256.695C314.535 256.783 315.933 256.849 317.333 256.892C320.13 256.978 322.93 256.958 325.711 256.784C328.472 256.641 331.216 256.257 333.91 255.635C335.213 255.326 336.474 254.864 337.669 254.259C338.229 253.967 338.75 253.605 339.22 253.183C339.692 252.751 340.12 252.273 340.499 251.757C340.816 251.399 341.014 250.95 341.065 250.475C341.049 250.372 341.032 250.332 340.9 250.219C340.704 250.093 340.489 249.997 340.264 249.936C339.014 249.682 337.727 249.665 336.47 249.884C335.827 249.974 335.193 250.113 334.572 250.301C334.319 250.376 334.074 250.479 333.844 250.608L333.628 250.748C333.534 250.813 333.439 250.866 333.344 250.92C333.158 251.024 332.966 251.117 332.769 251.198C332.035 251.49 331.268 251.69 330.485 251.791C330.109 251.844 329.735 251.882 329.362 251.908C328.931 251.947 328.496 251.931 328.068 251.86C327.163 251.707 326.325 251.283 325.665 250.646C325.036 250.015 324.58 249.234 324.341 248.376C323.922 246.732 324.143 244.99 324.959 243.503C325.364 242.674 326.004 241.982 326.8 241.515C327.065 241.375 327.353 241.281 327.65 241.24C327.824 241.217 328 241.215 328.174 241.235C328.264 241.245 328.354 241.262 328.442 241.284L328.555 241.314L328.568 241.312C328.773 241.332 328.979 241.319 329.179 241.273C330.465 240.978 331.719 240.556 332.923 240.014C333.555 239.745 334.186 239.464 334.814 239.17L335.753 238.725C336.091 238.564 336.433 238.413 336.782 238.271C338.175 237.712 339.64 237.351 341.134 237.199C342.611 237.066 344.098 237.117 345.562 237.352C346.993 237.548 348.41 237.835 349.805 238.212C352.614 238.952 355.284 240.141 357.713 241.733C358.918 242.541 360.046 243.458 361.082 244.472C362.083 245.393 363.153 246.236 364.283 246.992C369.104 249.803 374.67 251.072 380.233 250.629L380.242 250.628C380.268 250.627 380.293 250.635 380.313 250.652C380.332 250.669 380.345 250.693 380.347 250.718C380.35 250.744 380.342 250.77 380.326 250.79C380.31 250.81 380.287 250.824 380.261 250.827C374.574 251.7 368.757 250.708 363.68 247.998C362.438 247.248 361.257 246.4 360.149 245.463C357.079 242.737 353.37 240.829 349.366 239.918C348.037 239.598 346.689 239.363 345.33 239.215C344.011 239.036 342.674 239.024 341.351 239.18C340.047 239.333 338.769 239.666 337.556 240.168C337.254 240.296 336.957 240.432 336.662 240.577L335.702 241.046C335.06 241.355 334.411 241.655 333.755 241.945C332.404 242.58 330.988 243.063 329.531 243.386C329.042 243.489 328.538 243.489 328.049 243.388L327.932 243.361C327.894 243.352 327.925 243.36 327.918 243.358L327.928 243.36C327.933 243.361 327.934 243.359 327.926 243.36C327.875 243.37 327.826 243.389 327.78 243.414C327.374 243.69 327.049 244.069 326.839 244.512C326.284 245.514 326.123 246.687 326.387 247.802C326.525 248.305 326.782 248.768 327.138 249.15C327.491 249.501 327.942 249.736 328.431 249.826C328.697 249.874 328.968 249.886 329.237 249.861C329.566 249.844 329.891 249.816 330.212 249.775C330.825 249.707 331.428 249.563 332.006 249.346C332.135 249.297 332.261 249.238 332.382 249.172C332.44 249.143 332.496 249.111 332.551 249.075L332.779 248.931C333.159 248.712 333.565 248.54 333.987 248.42C334.714 248.21 335.457 248.058 336.208 247.964C337.732 247.725 339.287 247.784 340.789 248.138C341.24 248.269 341.666 248.478 342.045 248.756C342.282 248.939 342.479 249.168 342.625 249.429C342.771 249.691 342.863 249.979 342.895 250.276C342.936 250.789 342.835 251.303 342.605 251.764C342.432 252.143 342.214 252.5 341.957 252.828C341.495 253.438 340.968 253.998 340.388 254.497C339.798 255.001 339.148 255.428 338.453 255.77C337.122 256.404 335.72 256.878 334.278 257.181C331.476 257.758 328.625 258.059 325.765 258.078C322.929 258.138 320.103 258.041 317.287 257.861C315.879 257.769 314.473 257.653 313.07 257.513L310.967 257.288C310.295 257.184 309.614 257.145 308.934 257.173C308.278 257.214 307.636 257.385 307.046 257.674C306.455 257.964 305.928 258.367 305.493 258.86C305.291 259.093 305.141 259.365 305.052 259.66C304.964 259.955 304.94 260.265 304.981 260.57C305.111 261.208 305.4 261.803 305.823 262.298C306.662 263.367 307.769 264.197 309.03 264.703C309.672 264.941 310.335 265.115 311.011 265.222L313.08 265.626C313.128 265.635 313.172 265.654 313.212 265.682C313.251 265.709 313.284 265.745 313.308 265.787L313.315 265.798C314.863 268.59 316.602 271.272 318.52 273.825C318.641 273.98 318.769 274.093 318.892 274.23C319.036 274.379 319.197 274.531 319.335 274.689C319.623 275.001 319.882 275.327 320.133 275.623C320.601 276.201 321.163 276.695 321.796 277.084C323.166 277.827 324.618 278.407 326.123 278.812C327.728 279.274 329.278 279.911 330.746 280.71C331.501 281.173 332.187 281.741 332.783 282.396C333.067 282.703 333.361 283.097 333.587 283.357C333.789 283.576 334.021 283.765 334.278 283.917C335.593 284.561 337.041 284.889 338.506 284.875C340.04 284.923 341.575 284.78 343.074 284.448C344.568 284.129 346.009 283.595 347.35 282.862C348.665 282.113 349.983 281.155 351.368 280.282C352.77 279.392 354.25 278.633 355.791 278.014C356.575 277.728 357.375 277.488 358.187 277.296L359.404 277.02L360.64 276.862C363.913 276.528 367.22 276.775 370.408 277.591C373.549 278.387 376.61 279.474 379.549 280.839C379.572 280.849 379.591 280.868 379.601 280.892C379.611 280.915 379.611 280.942 379.602 280.966C379.593 280.99 379.575 281.009 379.552 281.021C379.529 281.032 379.502 281.033 379.478 281.025L379.472 281.024Z" fill="#18181B"/>
<path d="M313.007 265.966C314.955 265.799 316.902 265.721 318.849 265.657C320.797 265.582 322.744 265.572 324.691 265.562L327.612 265.583C328.616 265.583 329.615 265.72 330.581 265.993C332.431 266.65 334.234 267.43 335.979 268.329C335.039 268.06 334.118 267.742 333.187 267.45C332.289 267.104 331.368 266.82 330.432 266.597C329.505 266.406 328.559 266.323 327.612 266.349L324.691 266.371C322.744 266.36 320.797 266.35 318.849 266.276C316.902 266.211 314.955 266.133 313.007 265.966ZM313.997 267.708C315.306 268.717 316.557 269.794 317.8 270.881C318.443 271.404 319.014 272.02 319.64 272.455C320.271 272.909 320.979 273.247 321.729 273.452C322.452 273.669 323.289 273.702 324.114 273.855C324.936 273.991 325.75 274.169 326.553 274.388C328.197 274.733 329.725 275.494 330.991 276.599C330.311 276.146 329.564 275.803 328.778 275.58C328.003 275.332 327.213 275.137 326.413 274.995C325.61 274.856 324.809 274.711 323.999 274.613C323.163 274.533 322.332 274.406 321.511 274.231C320.671 273.991 319.883 273.597 319.187 273.07C318.545 272.527 317.938 271.945 317.369 271.327C316.22 270.15 315.08 268.962 313.997 267.708ZM295.594 241.818C294.949 240.51 294.16 239.279 293.244 238.146L293.398 238.246C291.864 238.005 290.434 237.319 289.286 236.273C288.688 235.668 288.319 234.873 288.244 234.025C288.206 233.604 288.225 233.18 288.3 232.764C288.402 232.368 288.526 231.978 288.671 231.595C289.371 230.104 290.604 228.928 292.127 228.3C292.889 227.938 293.719 227.74 294.562 227.717C295.471 227.712 296.358 227.991 297.101 228.515L295.785 228.935C295.986 228.39 296.261 227.876 296.603 227.406C296.927 226.946 297.306 226.528 297.732 226.16C298.593 225.425 299.614 224.902 300.714 224.635C301.776 224.38 302.876 224.323 303.959 224.467L304.732 224.566C305.033 224.611 305.33 224.684 305.617 224.785C306.151 224.967 306.663 225.209 307.143 225.506C308.955 226.677 310.404 228.331 311.328 230.281C312.234 232.127 312.893 234.085 313.29 236.103L311.403 236.219C311.566 234.935 311.953 233.689 312.545 232.538C313.135 231.352 314.015 230.334 315.102 229.578C316.214 228.85 317.507 228.449 318.834 228.421C319.152 228.408 319.469 228.417 319.785 228.449L320.258 228.479C320.443 228.487 320.626 228.517 320.804 228.568C321.443 228.758 322.045 229.052 322.588 229.438C324.536 230.968 325.975 233.052 326.718 235.414C327.503 237.651 328.012 239.975 328.233 242.335C327.714 240.06 326.969 237.842 326.011 235.714C325.138 233.639 323.7 231.85 321.861 230.552C321.426 230.285 320.955 230.084 320.461 229.956C320.356 229.93 320.247 229.92 320.139 229.926L319.731 229.922C318.428 229.857 317.14 230.225 316.068 230.969C315.266 231.637 314.608 232.46 314.133 233.39C313.658 234.32 313.377 235.336 313.306 236.377L313.306 236.384C313.281 236.609 313.178 236.819 313.014 236.975C312.849 237.132 312.635 237.225 312.409 237.238C312.182 237.251 311.959 237.183 311.777 237.046C311.596 236.91 311.47 236.714 311.42 236.493C311.037 234.654 310.418 232.872 309.578 231.192C308.793 229.577 307.599 228.195 306.116 227.184C305.762 226.959 305.384 226.774 304.989 226.634C304.814 226.568 304.632 226.52 304.448 226.491L303.76 226.394C302.891 226.269 302.007 226.297 301.148 226.479C300.325 226.65 299.554 227.013 298.897 227.538C298.255 228.06 297.745 228.726 297.41 229.482L297.369 229.578C297.283 229.78 297.121 229.939 296.917 230.021C296.713 230.103 296.486 230.101 296.284 230.015C296.216 229.986 296.152 229.948 296.094 229.902C295.602 229.568 295.03 229.372 294.436 229.335C293.843 229.297 293.25 229.42 292.72 229.69C291.485 230.126 290.451 230.995 289.808 232.136C289.474 232.67 289.313 233.294 289.344 233.923C289.376 234.552 289.599 235.156 289.984 235.655C290.932 236.675 292.152 237.402 293.5 237.75L293.534 237.76C293.584 237.775 293.627 237.807 293.655 237.85C294.479 239.078 295.132 240.413 295.594 241.818ZM288.846 241.138C288.31 240.034 287.359 239.188 286.2 238.783C285.074 238.461 283.871 238.552 282.806 239.039C282.293 239.197 281.833 239.49 281.473 239.888C281.113 240.286 280.868 240.773 280.762 241.299C280.713 242.399 281.013 243.487 281.618 244.408C282.227 245.424 282.953 246.367 283.779 247.217C283.979 247.437 284.191 247.638 284.399 247.844L285.077 248.436C285.561 248.854 286.029 249.281 286.492 249.71C288.347 251.427 290.08 253.229 291.809 255.058C291.939 255.195 292.025 255.368 292.055 255.555L292.065 255.618C292.179 256.2 292.368 256.764 292.629 257.297C293.177 258.439 293.955 259.456 294.916 260.282C295.404 260.724 295.891 261.02 296.543 261.52C297.739 262.458 298.747 263.612 299.516 264.922C300.29 266.21 300.864 267.607 301.217 269.068L301.171 268.925C301.627 270.187 302.483 271.265 303.608 271.996C304.81 272.697 306.175 273.072 307.566 273.083C309.026 273.115 310.484 272.964 311.906 272.634C313.36 272.317 314.787 271.883 316.172 271.337C314.872 272.102 313.497 272.732 312.069 273.22C310.619 273.728 309.107 274.038 307.574 274.139C305.963 274.256 304.35 273.934 302.905 273.21C302.175 272.805 301.52 272.278 300.966 271.653C300.431 271.023 299.984 270.323 299.64 269.571L299.622 269.525L299.594 269.428C299.224 268.176 298.678 266.982 297.971 265.884C297.272 264.799 296.392 263.842 295.369 263.054C294.91 262.702 294.197 262.26 293.64 261.764C293.053 261.271 292.519 260.717 292.047 260.113C291.565 259.507 291.155 258.847 290.824 258.147C290.474 257.415 290.232 256.637 290.106 255.836L290.362 256.396C288.687 254.575 286.959 252.78 285.226 251.026C284.789 250.591 284.349 250.161 283.902 249.748L283.194 249.083C282.965 248.843 282.734 248.604 282.523 248.356C281.658 247.366 280.915 246.277 280.309 245.111C279.603 243.887 279.336 242.458 279.552 241.062C279.63 240.695 279.769 240.343 279.961 240.021C280.168 239.717 280.402 239.432 280.661 239.171L281.53 238.573L282.463 238.19C283.738 237.739 285.136 237.779 286.383 238.303C286.967 238.581 287.487 238.976 287.911 239.464C288.335 239.951 288.653 240.522 288.846 241.138Z" fill="#18181B"/>
<path d="M291.085 255.727C290.78 254.621 290.801 253.449 291.146 252.354C291.312 251.783 291.606 251.256 292.005 250.815C292.201 250.589 292.443 250.407 292.714 250.281C292.985 250.155 293.28 250.087 293.579 250.083C293.135 250.361 292.766 250.745 292.506 251.2C292.253 251.64 292.055 252.11 291.917 252.599C291.597 253.588 291.402 254.635 291.085 255.727ZM293.448 238C294.136 237.831 294.697 237.713 295.293 237.596C295.916 237.456 296.551 237.374 297.189 237.35C296.756 237.899 296.136 238.269 295.447 238.39C295.105 238.47 294.75 238.477 294.406 238.41C294.061 238.343 293.735 238.203 293.448 238ZM297.099 229.207C297.087 230.076 297.201 230.941 297.438 231.777C297.647 232.611 298.092 233.368 298.72 233.956C299.051 234.236 299.437 234.445 299.852 234.571C300.268 234.697 300.705 234.736 301.136 234.687C301.585 234.65 302.03 234.577 302.466 234.467L303.753 234.002L302.506 234.586C302.068 234.739 301.618 234.856 301.161 234.935C300.687 235.029 300.2 235.026 299.727 234.925C299.255 234.825 298.808 234.63 298.413 234.351C297.639 233.753 297.054 232.944 296.729 232.021C296.382 231.122 296.169 230.176 296.099 229.215C296.093 229.149 296.1 229.082 296.12 229.019C296.14 228.956 296.172 228.897 296.215 228.846C296.258 228.796 296.31 228.754 296.369 228.724C296.428 228.694 296.493 228.675 296.559 228.67C296.625 228.665 296.691 228.673 296.754 228.694C296.817 228.715 296.876 228.748 296.926 228.791C296.976 228.835 297.017 228.888 297.046 228.947C297.076 229.007 297.093 229.071 297.098 229.137C297.099 229.153 297.099 229.168 297.099 229.183L297.099 229.207Z" fill="#18181B"/>
<path d="M301.127 234.856C301.821 235.913 302.434 237.021 302.961 238.171C303.551 239.328 303.954 240.571 304.157 241.854C304.214 242.093 304.327 242.314 304.488 242.499C304.649 242.684 304.853 242.828 305.081 242.917C305.604 243.18 306.165 243.359 306.744 243.449C307.335 243.557 307.941 243.563 308.534 243.465C309.145 243.413 309.713 243.127 310.119 242.666C309.966 242.956 309.755 243.211 309.498 243.415C309.241 243.619 308.945 243.767 308.628 243.85C307.996 244.037 307.336 244.111 306.678 244.068C306.007 244.039 305.347 243.88 304.735 243.601C304.378 243.461 304.064 243.232 303.821 242.935C303.578 242.639 303.416 242.285 303.35 241.908C303.149 240.71 302.826 239.536 302.387 238.404L301.127 234.856ZM313.338 236.137C313.559 237.699 314.055 239.209 314.802 240.598C314.989 240.93 315.202 241.247 315.438 241.546C315.739 241.906 316.004 242.293 316.232 242.703C316.461 243.118 316.645 243.557 316.779 244.011C316.917 244.49 316.981 244.887 317.077 245.283C317.125 245.636 317.221 245.981 317.364 246.307C317.559 246.602 317.806 246.859 318.092 247.066C318.374 247.287 318.697 247.45 319.043 247.545C319.388 247.64 319.749 247.665 320.105 247.62C320.854 247.464 321.528 247.058 322.015 246.468C322.562 245.86 323.029 245.184 323.402 244.456L323.381 244.521C323.63 243.343 323.797 242.15 323.878 240.95C323.987 239.745 323.906 238.53 323.64 237.35C323.994 238.519 324.163 239.736 324.142 240.957C324.148 242.181 324.067 243.405 323.899 244.618C323.897 244.637 323.892 244.654 323.884 244.671L323.878 244.683C323.536 245.489 323.089 246.247 322.549 246.938C321.994 247.7 321.195 248.25 320.285 248.497C319.806 248.597 319.311 248.601 318.831 248.509C318.35 248.417 317.892 248.23 317.484 247.959C317.064 247.698 316.695 247.362 316.396 246.968C316.232 246.75 316.112 246.502 316.044 246.238L315.857 245.614C315.688 244.847 315.394 244.113 314.987 243.442C314.779 243.126 314.542 242.83 314.279 242.559C313.964 242.216 313.676 241.85 313.418 241.462C312.438 239.933 311.742 238.239 311.364 236.462C311.335 236.334 311.331 236.201 311.353 236.071C311.374 235.942 311.422 235.817 311.491 235.706C311.561 235.595 311.652 235.498 311.759 235.422C311.866 235.345 311.987 235.291 312.116 235.262C312.244 235.232 312.376 235.228 312.506 235.25C312.636 235.272 312.76 235.319 312.871 235.389C312.983 235.458 313.079 235.55 313.156 235.657C313.232 235.764 313.286 235.885 313.316 236.013C313.321 236.037 313.326 236.061 313.33 236.085L313.338 236.137ZM311.492 253.66C311.532 253.66 311.562 253.669 311.602 253.669L311.692 253.729L311.492 253.66Z" fill="#18181B"/>
<path d="M331.782 252.31C314.602 249.699 298.412 243.04 294.392 241.31C293.696 241.005 292.951 240.825 292.192 240.78C288.532 240.59 287.272 241.78 286.932 243.01C286.78 243.604 286.823 244.231 287.055 244.798C287.288 245.366 287.697 245.843 288.222 246.16L306.092 257.399L306.102 257.39C307.002 256.307 308.045 255.352 309.202 254.55C308.78 255.438 308.26 256.276 307.652 257.05C309.316 256.593 311.073 256.6 312.732 257.07C333.422 259.03 338.622 254.709 338.622 254.709C336.402 252.64 331.782 252.31 331.782 252.31ZM316.692 250.6L320.892 253.66L311.262 252.219L302.592 246.41L316.692 250.6ZM322.092 255.79C318.512 255.459 314.942 255.05 311.372 254.649C311.302 254.637 311.235 254.613 311.172 254.58C307.872 252.59 304.582 250.58 301.322 248.52L296.432 245.41C294.832 244.34 293.202 243.31 291.612 242.21C293.322 243.11 295.002 244.06 296.692 244.979L301.722 247.85C305.042 249.74 308.322 251.699 311.602 253.669C315.122 254.1 318.662 254.54 322.182 255.04C325.732 255.54 329.292 256.06 332.832 256.68C329.242 256.459 325.662 256.129 322.092 255.79H322.092Z" fill="#0073A8"/>
<path d="M311.692 253.729L311.492 253.66C311.532 253.66 311.562 253.669 311.602 253.669L311.692 253.729Z" fill="white"/>
<path d="M189.871 110.279C189.871 110.279 187.304 108.738 184.907 111.477C184.907 111.477 180.628 105.397 162.482 110.662C162.482 110.662 164.879 115.243 166.59 115.243C168.302 115.243 163.338 123.118 158.716 122.776C158.716 122.776 150.842 134.245 156.833 145.372C162.738 156.339 166.981 159.822 172.838 152.709C173.018 152.488 173.218 152.285 173.436 152.103C175.121 150.714 182.578 144.938 185.221 149.245C185.784 150.201 185.945 151.342 185.669 152.417C184.463 157.47 178.822 176.08 162.482 168.653C162.482 168.653 143.44 161.512 147.932 144.596C148.412 142.875 149.108 141.223 150.004 139.677C150.868 138.099 151.401 136.36 151.569 134.569C151.737 132.777 151.538 130.97 150.983 129.258C150.295 126.817 148.742 124.711 146.614 123.331C144.552 122.044 141.833 121.469 139.773 125.067C138.92 126.564 138.471 128.256 138.469 129.978C138.465 131.555 138.758 133.488 140.057 134.416L138.469 137.497C137.605 135.74 136.5 134.111 135.187 132.659C132.987 130.431 131.574 127.547 131.162 124.443C130.581 119.52 131.281 112.169 137.147 103.603C137.147 103.603 145.021 87.8541 159.743 88.1965C174.465 88.5388 187.132 92.476 189.871 110.279Z" fill="#0073A8"/>
<path d="M165.221 130.821C167.778 130.236 170.406 130.02 173.024 130.178C174.343 130.244 175.652 130.442 176.931 130.771C178.236 131.051 179.449 131.657 180.456 132.533C179.293 131.993 178.051 131.643 176.777 131.497C175.519 131.316 174.249 131.184 172.968 131.127C170.408 130.968 167.835 130.956 165.221 130.821ZM189.871 130.577C188.935 130.861 188.069 131.339 187.328 131.978C186.976 132.268 186.69 132.629 186.488 133.036C186.286 133.444 186.171 133.89 186.153 134.345C186.222 135.278 186.467 136.19 186.874 137.033L187.994 139.784C188.829 141.647 189.314 143.646 189.425 145.684C189.423 146.221 189.325 146.753 189.134 147.255C188.929 147.763 188.594 148.208 188.163 148.546C187.287 149.098 186.252 149.343 185.221 149.245C186.188 149.162 187.108 148.794 187.865 148.187C188.175 147.856 188.409 147.461 188.551 147.029C188.692 146.598 188.737 146.141 188.683 145.69C188.609 144.737 188.416 143.797 188.107 142.892C187.819 141.965 187.475 141.047 187.109 140.132C186.757 139.21 186.377 138.294 186.034 137.35C185.87 136.873 185.704 136.398 185.575 135.896C185.415 135.376 185.361 134.83 185.416 134.289C185.473 133.752 185.648 133.233 185.929 132.771C186.21 132.309 186.589 131.914 187.04 131.615C187.888 131.048 188.858 130.692 189.871 130.577Z" fill="#18181B"/>
<path d="M189.871 110.279C190.192 112.198 190.431 114.127 190.587 116.066C190.765 118.003 190.875 119.945 190.917 121.893C190.948 123.84 190.919 125.791 190.766 127.744C190.677 129.734 190.233 131.693 189.454 133.526C189.442 133.549 189.428 133.57 189.411 133.589C188.81 134.236 188.246 134.916 187.722 135.626C187.461 135.982 187.23 136.358 187.029 136.75C186.806 137.132 186.717 137.578 186.775 138.017C186.638 137.575 186.663 137.1 186.846 136.675C187.003 136.247 187.194 135.832 187.418 135.434C187.865 134.641 188.382 133.89 188.962 133.189L188.92 133.251C189.251 132.375 189.472 131.462 189.577 130.531C189.726 129.592 189.786 128.634 189.856 127.678C189.969 125.76 189.989 123.831 190 121.901C190 118.038 189.915 114.167 189.871 110.279ZM179.6 143.831C179.42 144.203 179.274 144.59 179.164 144.989C179.053 145.357 179.029 145.745 179.093 146.125C179.146 146.5 179.31 146.851 179.564 147.133C179.833 147.444 180.132 147.728 180.456 147.981C180.249 147.919 180.045 147.846 179.846 147.762C179.652 147.655 179.469 147.529 179.301 147.386C178.947 147.08 178.709 146.663 178.625 146.204C178.565 145.748 178.633 145.285 178.821 144.867C178.997 144.466 179.264 144.111 179.6 143.831ZM140.057 134.416C140.649 135.16 141.122 135.991 141.458 136.881C141.638 137.335 141.768 137.807 141.846 138.289C141.888 138.542 141.905 138.798 141.896 139.054L141.891 139.251L141.903 139.358C141.899 139.428 141.914 139.497 141.947 139.559C142.094 139.872 142.353 140.118 142.673 140.249C143.054 140.443 143.454 140.595 143.868 140.701C144.747 140.938 145.651 141.07 146.562 141.092C145.663 141.445 144.688 141.561 143.731 141.431C143.231 141.38 142.742 141.255 142.28 141.059C142.008 140.953 141.76 140.795 141.549 140.593C141.338 140.391 141.17 140.149 141.053 139.882C140.992 139.731 140.962 139.57 140.965 139.407L140.961 139.167L140.969 139.017C140.979 138.81 140.975 138.602 140.955 138.396C140.917 137.957 140.848 137.522 140.75 137.093C140.556 136.213 140.3 135.329 140.057 134.416ZM138.469 137.497C138.087 138.882 137.548 140.218 136.863 141.481C136.193 142.762 135.384 143.966 134.45 145.07C133.516 146.195 132.408 147.163 131.169 147.939C129.926 148.709 128.503 149.142 127.042 149.194C128.379 148.792 129.636 148.159 130.755 147.323C131.849 146.481 132.846 145.518 133.726 144.454C134.63 143.39 135.466 142.271 136.228 141.102C136.996 139.928 137.758 138.738 138.469 137.497ZM151.013 177.554C152.094 177.08 153.117 176.481 154.061 175.771C154.997 175.072 155.884 174.311 156.718 173.492C157.578 172.699 158.349 171.811 159.15 170.942L160.315 169.596C160.695 169.137 161.073 168.674 161.491 168.231C161.252 168.786 160.975 169.323 160.699 169.862C160.386 170.377 160.078 170.901 159.734 171.399C159.04 172.399 158.25 173.329 157.377 174.177C156.5 175.032 155.521 175.776 154.462 176.391C153.412 177.029 152.234 177.426 151.013 177.554Z" fill="#18181B"/>
<path d="M133.887 144.761C133.035 143.499 131.981 142.385 130.768 141.465C130.516 141.242 130.21 141.088 129.88 141.018C129.55 140.948 129.208 140.964 128.887 141.066C128.319 141.452 127.911 142.031 127.74 142.696C127.507 143.405 127.338 144.134 127.237 144.873C127.186 145.241 127.141 145.624 127.108 145.978C127.11 146.315 127.139 146.71 127.173 147.079C127.32 148.588 127.6 150.082 128.009 151.543C128.763 154.514 129.933 157.364 131.486 160.008C133.059 162.651 134.941 165.097 137.092 167.295C138.17 168.386 139.291 169.436 140.429 170.46C141.61 171.434 142.739 172.481 143.969 173.376C144.562 173.856 145.216 174.244 145.836 174.683C146.492 175.06 147.122 175.488 147.805 175.809C149.125 176.526 150.529 177.076 151.985 177.447C154.893 178.218 157.983 177.894 160.668 176.536C163.365 175.096 165.631 172.964 167.233 170.359C167.239 170.348 167.249 170.339 167.261 170.336C167.273 170.332 167.286 170.333 167.297 170.339C167.307 170.345 167.315 170.355 167.319 170.367C167.323 170.378 167.322 170.391 167.317 170.402C165.924 173.231 163.735 175.591 161.019 177.191C159.627 177.98 158.097 178.494 156.511 178.703C154.921 178.891 153.309 178.788 151.755 178.4C150.212 178.034 148.727 177.456 147.341 176.685C146.634 176.333 145.991 175.878 145.32 175.472C144.69 175.008 144.024 174.59 143.426 174.087C142.174 173.146 141.077 172.047 139.918 171.015C139.326 170.512 138.825 169.911 138.283 169.358C137.76 168.785 137.194 168.253 136.708 167.647C134.681 165.304 132.841 162.807 131.203 160.177C129.536 157.548 128.208 154.719 127.251 151.756C126.784 150.258 126.479 148.713 126.341 147.149C126.315 146.748 126.291 146.375 126.3 145.94C126.346 145.528 126.401 145.145 126.465 144.751C126.59 143.964 126.789 143.191 127.057 142.441C127.177 142.028 127.379 141.642 127.65 141.307C127.922 140.972 128.257 140.694 128.637 140.49C129.064 140.323 129.536 140.313 129.969 140.463C130.363 140.598 130.731 140.799 131.057 141.059C132.253 142.078 133.242 143.318 133.968 144.712C133.971 144.717 133.973 144.723 133.974 144.73C133.975 144.736 133.974 144.742 133.973 144.748C133.971 144.754 133.968 144.76 133.964 144.765C133.961 144.769 133.956 144.774 133.95 144.777C133.94 144.782 133.927 144.784 133.916 144.781C133.904 144.778 133.894 144.771 133.887 144.761Z" fill="#18181B"/>
<path d="M136.779 140.73C135.25 139.789 133.546 139.171 131.769 138.913C130.019 138.593 128.213 138.917 126.683 139.824C125.961 140.326 125.354 140.975 124.903 141.728L123.35 143.959C122.322 145.475 121.171 146.904 119.908 148.231C119.879 148.26 119.844 148.283 119.805 148.297C119.766 148.312 119.725 148.318 119.684 148.316L119.661 148.314C113.263 147.936 106.844 147.784 100.442 147.827C97.24 147.854 94.0415 147.982 90.8615 148.232C87.7059 148.406 84.5815 148.949 81.5518 149.848L81.4982 149.862L81.4249 149.878C79.748 150.307 78.1507 151.002 76.6939 151.937C75.9361 152.396 75.2069 152.901 74.5103 153.449L73.4549 154.261C73.1143 154.546 72.7933 154.857 72.4615 155.154C69.8182 157.57 67.4698 160.289 65.4653 163.256C61.4419 169.24 58.1535 175.687 55.6709 182.457C55.0572 184.156 54.3852 185.833 53.819 187.548L52.1987 192.724C51.6503 194.428 51.16 196.234 50.5213 197.96C49.9003 199.702 49.1737 201.388 48.4781 203.061L46.3365 208.089L45.2213 210.594C44.8412 211.461 44.4176 212.307 43.952 213.131C43.8575 213.285 43.7501 213.43 43.6312 213.566C43.699 213.569 43.7049 213.413 43.7087 213.475C43.6978 213.573 43.7019 213.672 43.7209 213.768C43.7922 214.122 43.9142 214.464 44.0832 214.783C44.4569 215.497 44.9558 216.137 45.5562 216.674C46.7824 217.776 48.3158 218.477 49.9513 218.683L49.3084 220.244C48.2997 219.456 47.345 218.601 46.4506 217.686C45.9605 217.192 45.5331 216.64 45.1782 216.042C45.0712 215.847 44.9863 215.641 44.925 215.428C44.8927 215.287 44.8709 215.144 44.8597 215.001C44.8596 214.812 44.8918 214.625 44.9547 214.447C45.0264 214.256 45.1417 214.084 45.2913 213.945C45.3608 213.881 45.4339 213.82 45.5102 213.763C45.5765 213.725 45.641 213.695 45.7082 213.663C45.9333 213.559 46.1735 213.493 46.4198 213.465C47.1233 213.414 47.8305 213.464 48.52 213.613C49.1643 213.73 49.781 213.886 50.3953 214.048L52.2268 214.63L53.9983 215.34C58.6255 217.428 62.7293 220.2 67.0014 222.639C71.2457 225.117 75.6353 227.338 80.1464 229.29C84.6725 231.217 89.2984 232.901 94.0043 234.335L94.0099 234.336C94.1389 234.376 94.2505 234.459 94.326 234.571C94.4016 234.683 94.4367 234.817 94.4256 234.952C94.0181 239.55 93.853 244.166 93.931 248.782C93.9629 251.077 94.1591 253.367 94.5179 255.634C94.6885 256.74 95.0063 257.818 95.463 258.84C95.6754 259.301 95.9934 259.704 96.3911 260.018C96.4929 260.063 96.5916 260.11 96.6901 260.162C96.7941 260.194 96.905 260.193 97.0113 260.217C97.2504 260.246 97.5768 260.229 97.8554 260.236L125.675 260.312C134.948 260.358 144.221 260.307 153.493 260.296L181.312 260.202L180.992 260.344C182.886 258.349 184.959 256.532 187.185 254.916C189.406 253.276 191.819 251.913 194.37 250.856C196.949 249.771 199.719 249.215 202.516 249.221C203.935 249.246 205.346 249.451 206.714 249.83L210.568 251.122C211.856 251.54 213.148 251.947 214.442 252.324C215.687 252.744 216.974 253.022 218.281 253.153C219.732 253.317 221.136 253.772 222.406 254.492C223.075 254.849 223.679 255.315 224.193 255.872C224.481 256.18 224.704 256.542 224.848 256.938C224.993 257.334 225.056 257.754 225.035 258.175C225.071 258.892 225.046 259.611 224.962 260.323C224.873 261.151 224.524 261.929 223.963 262.545C223.36 263.141 222.565 263.503 221.72 263.569C220.977 263.648 220.226 263.625 219.488 263.499C218.786 263.388 218.091 263.23 217.41 263.025L215.465 262.437C214.843 262.259 214.211 262.121 213.572 262.024C213.042 261.915 212.496 261.921 211.968 262.04L212.161 260.716C214.734 262.518 217.756 263.573 220.892 263.762C222.477 263.847 224.066 263.756 225.631 263.49C227.247 263.27 228.85 262.999 230.478 262.727C231.298 262.598 232.113 262.455 233.014 262.397C233.508 262.356 234.006 262.385 234.492 262.484C235.078 262.609 235.608 262.922 236.002 263.374C236.341 263.777 236.6 264.24 236.767 264.739C237.244 266.08 237.316 267.531 236.972 268.912C236.73 269.828 236.299 270.684 235.706 271.424C235.114 272.165 234.373 272.773 233.532 273.21C231.956 274.019 230.24 274.523 228.476 274.693L229.246 274.114C228.834 275.053 228.323 275.947 227.722 276.778C227.124 277.617 226.428 278.382 225.649 279.056C224.83 279.742 223.898 280.281 222.895 280.649C221.863 280.997 220.772 281.135 219.686 281.056L220.509 280.718C218.838 282.665 217.198 284.576 215.316 286.417C215.076 286.646 214.822 286.876 214.539 287.105C214.248 287.326 213.944 287.529 213.627 287.711C213.033 288.046 212.416 288.338 211.78 288.585C210.54 289.067 209.259 289.434 207.952 289.682C205.364 290.164 202.721 290.286 200.1 290.043C199.446 289.998 198.801 289.892 198.151 289.818L196.225 289.481L194.42 289.185L192.582 288.994C187.581 288.736 182.567 288.898 177.592 289.478C172.583 289.985 167.588 290.741 162.618 291.621C160.152 292.059 157.71 292.639 155.222 293.187C152.744 293.738 150.258 294.273 147.766 294.777C142.778 295.773 137.769 296.68 132.73 297.402C122.654 298.898 112.487 299.702 102.302 299.808C101.029 299.814 99.756 299.861 98.4831 299.831L94.6645 299.745C92.1179 299.727 89.5766 299.546 87.035 299.395C84.4902 299.287 81.9589 298.992 79.4249 298.745C78.1522 298.604 76.9056 298.527 75.6076 298.325C74.3223 298.126 73.0499 297.851 71.797 297.502C66.7361 296.137 62.1455 293.413 58.5226 289.625C54.8949 285.816 52.601 280.932 51.9852 275.708C50.8702 265.583 50.4224 255.444 50.1685 245.3C49.9471 235.156 49.9193 225.013 50.0853 214.871C50.0855 214.845 50.0963 214.82 50.1152 214.801C50.1342 214.782 50.1597 214.772 50.1862 214.772C50.2128 214.773 50.2381 214.783 50.2567 214.802C50.2752 214.821 50.2855 214.847 50.2853 214.873C50.3278 225.011 50.5612 235.144 50.9857 245.273C51.4342 255.39 51.9877 265.526 53.2454 275.545C53.8911 280.47 56.1198 285.052 59.5958 288.6C63.0594 292.151 67.4264 294.688 72.2261 295.94C73.4185 296.261 74.6288 296.511 75.8507 296.69C77.0601 296.869 78.3472 296.941 79.5948 297.068C82.1084 297.291 84.6175 297.562 87.1414 297.648C89.6616 297.775 92.1802 297.934 94.7052 297.929L98.49 297.982C99.7515 298.001 101.013 297.943 102.275 297.927L106.059 297.85L109.84 297.655C112.362 297.555 114.877 297.334 117.393 297.131C119.912 296.968 122.416 296.632 124.928 296.388C127.432 296.076 129.939 295.767 132.435 295.393C137.433 294.668 142.403 293.758 147.355 292.76C149.831 292.255 152.3 291.718 154.771 291.164C157.232 290.617 159.724 290.021 162.249 289.567C167.261 288.67 172.297 287.899 177.376 287.374C182.477 286.769 187.622 286.618 192.75 286.922L194.693 287.134L196.638 287.463L198.456 287.79C199.065 287.86 199.671 287.964 200.282 288.01C202.715 288.247 205.169 288.147 207.575 287.712C208.76 287.493 209.924 287.167 211.051 286.737C211.598 286.528 212.13 286.28 212.642 285.996C212.875 285.863 213.099 285.716 213.315 285.557C213.526 285.388 213.743 285.194 213.963 284.987C215.716 283.291 217.397 281.361 219.034 279.469C219.13 279.358 219.249 279.27 219.382 279.212C219.516 279.153 219.662 279.125 219.808 279.129L219.856 279.131C220.671 279.191 221.49 279.091 222.266 278.836C223.051 278.549 223.782 278.129 224.426 277.596C225.087 277.026 225.678 276.381 226.187 275.672C226.704 274.964 227.146 274.205 227.507 273.406L227.509 273.401C227.577 273.247 227.683 273.113 227.817 273.012C227.952 272.912 228.11 272.848 228.277 272.826C229.791 272.689 231.265 272.27 232.626 271.593C233.252 271.282 233.804 270.842 234.248 270.302C234.691 269.762 235.015 269.134 235.198 268.459C235.378 267.779 235.416 267.069 235.309 266.373C235.242 265.729 235.017 265.112 234.653 264.577C234.51 264.398 234.307 264.277 234.081 264.237C233.76 264.176 233.432 264.158 233.107 264.184C232.367 264.222 231.558 264.349 230.755 264.469C229.139 264.721 227.499 264.981 225.857 265.188C224.176 265.451 222.471 265.528 220.773 265.419C217.31 265.177 213.985 263.966 211.177 261.925L211.162 261.914C211.052 261.832 210.966 261.722 210.914 261.595C210.862 261.468 210.846 261.33 210.867 261.194C210.889 261.059 210.947 260.932 211.035 260.827C211.124 260.723 211.239 260.644 211.369 260.601C212.158 260.365 212.993 260.332 213.798 260.504C214.501 260.618 215.197 260.776 215.879 260.979L217.829 261.59C218.447 261.784 219.077 261.935 219.715 262.043C220.945 262.253 222.284 262.23 222.941 261.544C223.635 260.867 223.678 259.53 223.646 258.194C223.652 258.042 223.646 257.889 223.628 257.738C223.626 257.627 223.602 257.518 223.556 257.418C223.468 257.177 223.333 256.957 223.16 256.768C222.751 256.324 222.272 255.951 221.743 255.663C220.647 255.03 219.438 254.619 218.183 254.454C216.786 254.302 215.411 253.994 214.083 253.534C212.773 253.137 211.477 252.713 210.185 252.279L206.324 250.94C205.074 250.589 203.786 250.392 202.489 250.355C199.839 250.325 197.211 250.826 194.759 251.828C189.804 253.925 185.335 257.023 181.633 260.927L181.619 260.941C181.579 260.981 181.531 261.014 181.478 261.036C181.425 261.058 181.369 261.069 181.312 261.069L153.495 260.975C144.223 260.964 134.951 260.913 125.679 260.959L97.8636 261.035C97.5634 261.03 97.3076 261.053 96.9709 261.026C96.7912 261.011 96.613 260.981 96.4378 260.939L95.9503 260.713C95.4203 260.326 94.9937 259.815 94.7085 259.224C94.1992 258.135 93.8394 256.983 93.6388 255.798C93.2396 253.489 93.0066 251.155 92.9416 248.813C92.7983 244.157 92.9007 239.496 93.2486 234.85L93.6697 235.467C88.898 234.085 84.2042 232.447 79.6085 230.56C75.0183 228.647 70.5474 226.459 66.22 224.009C61.8734 221.62 57.7361 218.846 53.3277 216.888L51.6561 216.226L49.9528 215.692C49.3715 215.542 48.7887 215.397 48.2163 215.296C47.6962 215.185 47.1637 215.142 46.6325 215.169C46.5615 215.188 46.4374 215.203 46.4546 215.212L46.443 215.21C46.4607 215.205 46.4767 215.195 46.4888 215.182C46.4972 215.155 46.5554 215.115 46.5657 215.055C46.5958 214.818 46.5646 215.04 46.6967 215.222C46.9824 215.681 47.3205 216.106 47.7042 216.488C48.542 217.336 49.435 218.128 50.3772 218.859L50.3854 218.865C50.5357 218.984 50.6431 219.148 50.6912 219.333C50.7392 219.518 50.7252 219.714 50.6513 219.89C50.5774 220.067 50.4477 220.214 50.282 220.309C50.1164 220.405 49.924 220.444 49.7343 220.42C47.7365 220.175 45.8613 219.325 44.3609 217.983C43.6017 217.307 42.9703 216.499 42.497 215.599C42.239 215.115 42.056 214.594 41.954 214.054C41.8875 213.704 41.8967 213.343 41.9811 212.997C42.0503 212.739 42.1791 212.502 42.3572 212.303C42.377 212.247 42.3638 212.298 42.4281 212.181C42.8208 211.504 43.2189 210.645 43.5946 209.844L44.7094 207.374L46.867 202.382C47.5751 200.703 48.2966 199.052 48.9043 197.373C49.5363 195.691 50.0065 193.988 50.5793 192.235L52.2442 187.014C52.8259 185.282 53.5152 183.585 54.1456 181.869C56.7097 174.992 60.093 168.448 64.2224 162.38C65.2747 160.868 66.4031 159.41 67.6031 158.013C68.8258 156.625 70.1345 155.316 71.5216 154.092C71.8708 153.788 72.2082 153.471 72.5673 153.178L73.6826 152.341C74.4226 151.775 75.1962 151.255 75.999 150.782C77.6176 149.77 79.3948 149.036 81.2563 148.611L81.1298 148.641C84.2716 147.744 87.5082 147.22 90.7725 147.081C93.9958 146.869 97.2185 146.782 100.437 146.796C106.876 146.809 113.298 147.136 119.711 147.647L119.464 147.73C120.719 146.46 121.869 145.089 122.904 143.633L124.498 141.446C124.999 140.656 125.662 139.98 126.442 139.462C127.231 138.953 128.13 138.639 129.064 138.545C129.979 138.436 130.905 138.454 131.815 138.599C133.623 138.9 135.351 139.569 136.891 140.565C136.913 140.579 136.929 140.601 136.935 140.627C136.941 140.652 136.936 140.679 136.922 140.702C136.908 140.724 136.886 140.74 136.86 140.746C136.835 140.752 136.808 140.748 136.785 140.734L136.779 140.73Z" fill="#18181B"/>
<path d="M89.8176 157.697C91.0643 158.051 92.1957 158.727 93.0973 159.658C94.0264 160.574 94.7695 161.661 95.2856 162.859C95.8028 164.051 96.0936 165.328 96.1431 166.626C96.1679 167.265 96.1351 167.905 96.0453 168.538C95.9364 169.166 95.7704 169.783 95.5492 170.381C95.3273 169.762 95.2272 169.165 95.0642 168.582C94.8893 168.002 94.7844 167.425 94.59 166.873C94.2798 165.777 93.8995 164.703 93.4515 163.656C93.0021 162.615 92.4766 161.608 91.8794 160.644C91.2538 159.62 90.5652 158.636 89.8176 157.697ZM94.1797 181.663C94.5649 186.102 94.7529 190.54 94.8715 194.977C95.0025 199.415 95.0165 203.852 95.0079 208.288C94.9619 212.725 94.8907 217.161 94.7032 221.596C94.5282 226.032 94.2821 230.467 93.8372 234.901C93.4495 230.462 93.2605 226.024 93.1425 221.586C93.012 217.149 92.998 212.712 93.0091 208.275C93.0576 203.839 93.1286 199.403 93.3167 194.967C93.4923 190.532 93.7373 186.097 94.1797 181.663ZM185.728 152.336C189.391 154.628 192.986 157.015 196.514 159.497C198.28 160.736 200.031 161.998 201.768 163.282L204.353 165.256C204.806 165.596 205.233 165.969 205.63 166.374L206.244 167.015L206.761 167.671C208.101 169.398 209.323 171.214 210.419 173.106C211.524 174.969 212.599 176.845 213.644 178.734C215.71 182.527 217.838 186.279 220.027 189.988C221.122 191.844 222.238 193.688 223.375 195.519L225.075 198.265C225.58 199.163 226.178 200.004 226.862 200.774C227.587 201.484 228.449 202.189 229.2 203.073C230.089 204 230.624 205.209 230.713 206.49C230.645 207.803 230.073 209.039 229.116 209.941C228.706 210.354 228.276 210.746 227.827 211.116C227.424 211.44 227.033 211.781 226.651 212.132C225.881 212.839 225.173 213.581 224.453 214.38C223.72 215.19 222.961 215.976 222.19 216.753C220.636 218.305 218.984 219.759 217.247 221.104C215.476 222.476 213.547 223.632 211.503 224.547C210.43 225.001 209.303 225.313 208.15 225.475C206.939 225.655 205.703 225.547 204.542 225.161C204.356 225.105 204.198 224.983 204.098 224.817L204.092 224.807C203.341 223.563 202.52 222.323 201.688 221.11C200.858 219.891 199.988 218.701 199.079 217.54C198.167 216.389 197.191 215.288 196.158 214.244C195.163 213.169 193.944 212.326 192.588 211.774L192.58 211.772C192.557 211.763 192.537 211.746 192.525 211.724C192.513 211.701 192.511 211.675 192.517 211.651C192.524 211.627 192.54 211.606 192.561 211.593C192.583 211.579 192.608 211.575 192.633 211.58C194.115 211.962 195.485 212.69 196.631 213.705C197.807 214.655 198.909 215.694 199.926 216.812C201.972 219.027 203.852 221.391 205.551 223.882L205.102 223.528C207.006 223.916 208.986 223.628 210.701 222.713C212.573 221.821 214.333 220.71 215.943 219.403C217.612 218.108 219.208 216.721 220.723 215.249C221.489 214.516 222.248 213.771 222.981 213.003C223.725 212.221 224.526 211.423 225.364 210.695C225.785 210.329 226.217 209.973 226.662 209.633C227.066 209.296 227.449 209.008 227.787 208.665C228.442 208.101 228.87 207.318 228.991 206.462C228.939 205.574 228.585 204.73 227.988 204.071C227.375 203.283 226.602 202.569 225.85 201.712C225.652 201.488 225.467 201.253 225.296 201.008L224.862 200.274L224.082 198.843L222.557 195.988C221.551 194.08 220.524 192.186 219.475 190.306C217.371 186.547 215.153 182.851 212.75 179.276C210.369 175.707 207.953 172.093 205.372 168.794L204.885 168.185L204.376 167.665C204.027 167.292 203.649 166.947 203.244 166.635L200.731 164.638L195.654 160.652C192.263 157.998 188.915 155.28 185.611 152.498C185.591 152.482 185.579 152.459 185.576 152.434C185.573 152.409 185.579 152.383 185.594 152.363C185.609 152.342 185.631 152.328 185.656 152.323C185.681 152.318 185.707 152.323 185.728 152.337L185.728 152.336Z" fill="#18181B"/>
<path d="M199.115 184.63C197.365 191.209 195.712 197.803 194.331 204.424C193.621 207.706 193.125 211.03 192.846 214.376C192.752 215.985 192.742 217.762 192.601 219.483C192.463 221.239 192.169 222.979 191.723 224.683C190.672 228.05 188.988 231.186 186.762 233.923C185.733 235.295 184.643 236.622 183.622 237.955C183.131 238.616 182.633 239.273 182.192 239.982C181.719 240.665 181.292 241.384 180.867 242.105C179.192 245.031 177.695 248.056 176.383 251.163C174.999 254.257 173.805 257.436 172.639 260.636C174.124 253.948 176.429 247.469 179.502 241.347C180.296 239.799 181.205 238.313 182.221 236.902C183.23 235.508 184.263 234.177 185.236 232.801C187.284 230.227 188.831 227.291 189.797 224.147C190.226 222.563 190.514 220.945 190.656 219.311C190.815 217.645 190.81 216.018 190.963 214.235C191.32 210.809 191.939 207.414 192.814 204.082C194.493 197.469 196.598 190.971 199.115 184.63ZM228.377 209.395C230.577 211.104 232.662 212.924 234.78 214.619C235.315 215.032 235.849 215.438 236.372 215.794L237.244 216.313C237.564 216.516 237.87 216.729 238.16 216.952C239.283 217.857 240.316 218.868 241.245 219.971C243.09 222.155 244.541 224.643 245.532 227.324C246.571 229.98 246.864 232.869 246.381 235.679C246.089 232.98 245.318 230.354 244.104 227.926C242.921 225.531 241.448 223.292 239.718 221.258C238.885 220.236 237.963 219.291 236.962 218.433C236.72 218.218 236.471 218.021 236.221 217.837L235.354 217.235C234.784 216.794 234.244 216.315 233.737 215.802C231.756 213.836 229.962 211.691 228.377 209.395ZM206.298 224.643C208.265 227.28 209.609 230.329 210.229 233.56C210.299 233.972 210.358 234.388 210.413 234.805C210.452 235.209 210.456 235.686 210.507 236.033C210.584 236.74 210.753 237.434 211.008 238.097C211.566 239.515 212.281 240.865 213.14 242.124C213.99 243.426 214.926 244.671 215.94 245.851C216.43 246.459 216.972 247.023 217.493 247.607C218.058 248.144 218.573 248.742 219.155 249.263C221.373 251.516 224.03 253.289 226.961 254.473C225.329 254.307 223.74 253.844 222.274 253.107C220.809 252.361 219.423 251.469 218.136 250.446C215.546 248.404 213.295 245.964 211.467 243.218C210.539 241.813 209.785 240.299 209.223 238.712C208.951 237.861 208.796 236.978 208.76 236.086C208.734 235.635 208.745 235.31 208.745 234.914L208.688 233.768C208.33 230.628 207.525 227.555 206.298 224.643ZM228.377 250.307C228.576 249.019 229.023 247.781 229.692 246.662C230.348 245.531 231.145 244.487 232.064 243.556C232.994 242.642 234.026 241.838 235.139 241.159C235.692 240.822 236.263 240.516 236.85 240.243C237.449 239.997 238.048 239.758 238.659 239.558C237.598 240.294 236.552 241.001 235.559 241.771C234.569 242.531 233.626 243.352 232.737 244.228C231.86 245.111 231.05 246.058 230.314 247.062C229.563 248.077 228.914 249.164 228.377 250.307Z" fill="#18181B"/>
<path d="M231.986 252.59C234.208 249.038 236.642 245.623 239.274 242.364C240.591 240.73 241.959 239.135 243.379 237.577C244.823 236.028 246.353 234.561 247.961 233.182C249.6 231.743 251.444 230.556 253.433 229.661C254.508 229.208 255.667 228.986 256.833 229.01C258.029 229.041 259.197 229.375 260.228 229.981C262.148 231.218 263.617 233.042 264.418 235.181C264.834 236.199 265.136 237.26 265.316 238.346C265.538 239.469 265.516 240.627 265.249 241.74L264.929 241.039C267.179 242.186 269.345 243.43 271.494 244.723C273.638 246.018 275.754 247.361 277.793 248.821C279.876 250.24 281.807 251.873 283.553 253.691C284.436 254.629 285.185 255.685 285.78 256.828C286.433 258.046 286.587 259.47 286.211 260.799L286.222 260.763C285.939 261.863 285.33 262.853 284.475 263.603C284.011 263.975 283.47 264.241 282.892 264.382C282.313 264.523 281.711 264.535 281.127 264.419C280.044 264.198 279.015 263.768 278.096 263.154C277.213 262.577 276.38 261.928 275.603 261.215L276.943 260.636C276.906 262.007 276.612 263.359 276.078 264.622C275.554 265.898 274.77 267.051 273.776 268.007C272.78 268.948 271.614 269.69 270.339 270.194C269.8 270.427 269.274 270.691 268.765 270.984C268.531 271.118 268.306 271.268 268.092 271.431C268.011 271.493 267.936 271.561 267.866 271.635C267.812 271.681 267.827 271.736 267.875 271.557L267.535 270.6C268.159 271.141 268.674 271.795 269.054 272.527C269.46 273.279 269.672 274.12 269.672 274.975C269.672 275.829 269.46 276.67 269.054 277.422C268.686 278.137 268.2 278.784 267.618 279.339C266.448 280.44 264.962 281.147 263.37 281.36C262.631 281.449 261.886 281.484 261.141 281.464C260.34 281.463 259.544 281.336 258.782 281.089L259.49 281.091C257.161 281.812 254.767 282.306 252.343 282.564C249.924 282.811 247.486 282.798 245.07 282.525C243.813 282.405 242.578 282.114 241.4 281.658C240.745 281.405 240.153 281.014 239.663 280.511C239.173 280.008 238.797 279.405 238.562 278.744C238.216 277.419 238.375 276.014 239.009 274.801C239.292 274.213 239.658 273.67 240.096 273.187C240.564 272.604 241.235 272.219 241.974 272.11L241.891 272.119C242.24 272.067 242.592 272.038 242.944 272.031C243.291 272.024 243.638 272.036 243.983 272.069C244.688 272.126 245.378 272.31 246.018 272.613L245.502 273.215C245.184 272.651 244.936 272.05 244.762 271.426C244.584 270.805 244.504 270.16 244.525 269.514C244.548 268.862 244.733 268.226 245.062 267.662C245.396 267.119 245.85 266.659 246.389 266.318C246.411 266.303 246.438 266.298 246.464 266.303C246.49 266.308 246.513 266.323 246.528 266.346C246.541 266.367 246.546 266.392 246.542 266.417C246.538 266.442 246.525 266.464 246.506 266.48C246.037 266.844 245.658 267.31 245.398 267.842C245.151 268.366 245.034 268.942 245.058 269.52C245.086 270.102 245.204 270.675 245.41 271.219C245.609 271.763 245.872 272.282 246.194 272.764C246.243 272.836 246.268 272.921 246.265 273.008C246.262 273.095 246.231 273.179 246.177 273.247C246.123 273.316 246.049 273.365 245.965 273.389C245.882 273.412 245.793 273.409 245.711 273.378L245.679 273.366C245.113 273.159 244.518 273.045 243.916 273.028C243.609 273.017 243.302 273.024 242.996 273.049C242.695 273.072 242.397 273.114 242.102 273.175L242.062 273.181L242.019 273.185C241.6 273.33 241.237 273.603 240.982 273.966C240.65 274.379 240.379 274.838 240.177 275.329C239.75 276.253 239.678 277.301 239.974 278.275C240.161 278.719 240.441 279.118 240.795 279.444C241.15 279.771 241.57 280.017 242.028 280.166C243.071 280.517 244.155 280.727 245.253 280.789C247.54 280.964 249.839 280.893 252.111 280.579C254.379 280.298 256.615 279.801 258.789 279.096C259.01 279.022 259.249 279.02 259.472 279.09L259.497 279.098C260.672 279.357 261.883 279.406 263.075 279.243C264.226 279.095 265.301 278.59 266.15 277.799C266.983 277.074 267.506 276.056 267.609 274.956C267.614 274.43 267.491 273.911 267.251 273.442C267.005 272.95 266.673 272.504 266.273 272.126L266.201 272.06C266.081 271.95 265.992 271.808 265.945 271.651C265.898 271.494 265.893 271.328 265.933 271.169C266.012 270.838 266.181 270.535 266.421 270.294C266.568 270.141 266.728 270.001 266.898 269.875C267.186 269.662 267.488 269.469 267.801 269.297C268.386 268.976 268.988 268.688 269.606 268.435C270.682 268.042 271.672 267.444 272.521 266.674C273.355 265.9 274.028 264.968 274.501 263.932C274.981 262.893 275.27 261.777 275.353 260.636L275.357 260.577C275.366 260.426 275.418 260.281 275.507 260.159C275.596 260.038 275.718 259.944 275.858 259.889C275.999 259.834 276.152 259.821 276.3 259.851C276.448 259.881 276.584 259.952 276.693 260.057C277.384 260.735 278.126 261.358 278.913 261.921C279.65 262.477 280.486 262.886 281.377 263.125C281.782 263.234 282.206 263.252 282.618 263.178C283.031 263.103 283.421 262.937 283.761 262.692C284.462 262.128 284.979 261.368 285.246 260.509L285.257 260.472C285.608 259.383 285.522 258.201 285.018 257.174C284.518 256.072 283.843 255.058 283.019 254.171C281.341 252.355 279.471 250.727 277.441 249.315C273.349 246.496 268.99 244.085 264.428 242.115C264.305 242.061 264.205 241.965 264.145 241.844C264.085 241.724 264.068 241.587 264.098 241.455L264.108 241.414C264.259 240.476 264.214 239.518 263.977 238.598C263.761 237.632 263.438 236.694 263.013 235.8C262.25 234.035 260.972 232.542 259.345 231.518C258.542 231.082 257.649 230.837 256.736 230.801C255.823 230.766 254.914 230.942 254.08 231.314C252.251 232.121 250.549 233.188 249.025 234.482C247.425 235.775 245.897 237.155 244.449 238.615C242.974 240.064 241.547 241.57 240.16 243.117C237.405 246.225 234.723 249.418 232.15 252.704C232.143 252.714 232.133 252.723 232.121 252.73C232.11 252.736 232.097 252.741 232.084 252.743C232.071 252.744 232.058 252.744 232.045 252.74C232.033 252.737 232.021 252.731 232.01 252.723C231.991 252.708 231.977 252.686 231.973 252.662C231.968 252.637 231.973 252.612 231.986 252.59Z" fill="#18181B"/>
<path d="M252.068 237.355C252.079 239.206 252.314 241.049 252.77 242.843C253.006 243.692 253.382 244.495 253.882 245.22C254.354 245.902 255.065 246.381 255.874 246.564C256.709 246.764 257.58 246.754 258.41 246.536C259.271 246.336 260.088 245.977 260.817 245.476C262.332 244.424 263.641 243.102 264.679 241.577C263.943 243.352 262.771 244.912 261.27 246.111C260.497 246.755 259.589 247.218 258.613 247.464C257.637 247.71 256.619 247.734 255.632 247.534C254.602 247.283 253.704 246.654 253.115 245.772C252.579 244.934 252.205 244.003 252.014 243.027C251.673 241.15 251.691 239.225 252.068 237.355ZM266.79 255.043C268.691 255.112 270.54 255.682 272.15 256.696C272.961 257.187 273.713 257.77 274.391 258.434C275.069 259.089 275.659 259.829 276.148 260.636C275.437 260.02 274.752 259.408 274.025 258.853C273.309 258.292 272.56 257.775 271.781 257.306C271.005 256.831 270.2 256.406 269.37 256.034C268.532 255.65 267.67 255.319 266.79 255.043ZM245.848 272.989C246.29 273.435 246.798 273.809 247.355 274.097C247.896 274.411 248.446 274.706 249.002 274.994C250.113 275.566 251.242 276.113 252.376 276.651C254.638 277.749 256.927 278.798 259.139 280.094C256.654 279.515 254.24 278.662 251.943 277.552C250.786 277.002 249.671 276.37 248.604 275.662C247.483 275.007 246.538 274.09 245.848 272.989ZM263.48 259.38C263.872 259.594 264.214 259.888 264.484 260.243C264.64 260.432 264.752 260.652 264.813 260.89C264.874 261.127 264.882 261.374 264.836 261.615C264.694 262.092 264.397 262.508 263.992 262.797C263.626 263.078 263.226 263.311 262.801 263.491C262.606 263.573 262.417 263.669 262.236 263.778C262.064 263.862 261.899 263.958 261.74 264.064L261.309 264.443C261.179 264.584 261.059 264.735 260.951 264.893C260.495 265.528 260.222 266.276 260.161 267.055C260.048 267.824 260.163 268.61 260.494 269.313C260.824 270.017 261.355 270.607 262.02 271.01C262.184 271.121 262.365 271.204 262.556 271.254C262.745 271.316 262.929 271.4 263.125 271.452C263.529 271.53 263.939 271.58 264.351 271.6C264.774 271.611 265.198 271.597 265.62 271.556C266.041 271.482 266.468 271.419 266.904 271.363C266.502 271.522 266.09 271.675 265.672 271.816C265.244 271.934 264.809 272.026 264.369 272.09C263.916 272.128 263.461 272.131 263.008 272.097C262.779 272.057 262.553 272.005 262.33 271.94C262.098 271.896 261.875 271.817 261.667 271.706C260.784 271.305 260.068 270.608 259.645 269.736C259.235 268.87 259.07 267.908 259.167 266.955C259.264 266.002 259.619 265.094 260.195 264.328C260.341 264.137 260.501 263.958 260.675 263.791L261.245 263.344C261.647 263.113 262.069 262.921 262.508 262.771C263.272 262.596 263.939 262.132 264.369 261.477C264.433 261.298 264.456 261.107 264.438 260.918C264.419 260.729 264.358 260.546 264.261 260.383C264.056 260.009 263.793 259.67 263.48 259.38Z" fill="#18181B"/>
<path d="M255.378 240.208C255.494 240.733 255.655 241.248 255.858 241.747C256.026 242.221 256.325 242.637 256.721 242.947C256.918 243.088 257.144 243.184 257.382 243.229C257.62 243.274 257.865 243.267 258.1 243.208C258.358 243.161 258.612 243.096 258.861 243.013C259.111 242.917 259.357 242.806 259.623 242.718C259.415 242.897 259.185 243.053 258.961 243.223C258.71 243.357 258.45 243.472 258.182 243.565C257.894 243.663 257.587 243.693 257.286 243.653C256.984 243.612 256.696 243.503 256.444 243.333C255.984 242.957 255.658 242.443 255.514 241.867C255.362 241.328 255.316 240.764 255.378 240.208ZM256.291 239.558C256.827 239.406 257.383 239.331 257.941 239.336C258.509 239.339 259.073 239.429 259.614 239.603C260.177 239.788 260.669 240.144 261.02 240.622C261.323 241.118 261.427 241.711 261.312 242.281C261.248 241.758 261.046 241.261 260.727 240.841C260.384 240.465 259.944 240.192 259.455 240.051C258.428 239.741 257.363 239.575 256.291 239.558ZM263.937 269.651C264.134 269.245 264.436 268.898 264.811 268.647C265.011 268.508 265.236 268.411 265.474 268.362C265.712 268.313 265.958 268.312 266.196 268.36C266.651 268.506 267.05 268.788 267.339 269.168C267.458 269.362 267.583 269.548 267.685 269.744C267.761 269.954 267.85 270.155 267.909 270.366C267.616 270.033 267.358 269.7 267.065 269.411C266.794 269.134 266.457 268.932 266.086 268.822C265.715 268.735 265.325 268.785 264.989 268.964C264.611 269.148 264.257 269.379 263.937 269.651ZM246.381 271.867C246.407 271.084 246.607 270.316 246.966 269.62C247.061 269.425 247.195 269.251 247.359 269.109C247.524 268.967 247.716 268.861 247.923 268.796C248.142 268.754 248.368 268.762 248.583 268.819C248.798 268.876 248.998 268.981 249.167 269.126C249.497 269.375 249.776 269.683 249.992 270.035C250.212 270.408 250.286 270.849 250.2 271.273C250.082 271.656 249.882 272.008 249.613 272.304C249.344 272.601 249.014 272.835 248.644 272.989C249.241 272.557 249.665 271.926 249.84 271.21C249.871 270.877 249.794 270.542 249.619 270.255C249.422 269.965 249.174 269.712 248.887 269.51C248.775 269.399 248.638 269.314 248.488 269.264C248.338 269.213 248.179 269.197 248.021 269.216C247.709 269.32 247.444 269.532 247.274 269.814C246.881 270.453 246.58 271.144 246.381 271.867ZM234.182 266.073C234.135 266.855 233.916 267.617 233.539 268.304C233.439 268.497 233.3 268.667 233.132 268.805C232.964 268.942 232.769 269.044 232.56 269.103C232.34 269.14 232.115 269.126 231.901 269.063C231.687 269 231.49 268.89 231.325 268.74C231.002 268.483 230.731 268.168 230.524 267.81C230.314 267.432 230.251 266.989 230.348 266.567C230.476 266.188 230.686 265.841 230.962 265.552C231.239 265.263 231.575 265.037 231.949 264.892C231.341 265.309 230.9 265.928 230.707 266.64C230.667 266.972 230.736 267.309 230.903 267.6C231.092 267.896 231.333 268.155 231.615 268.364C231.724 268.478 231.859 268.566 232.007 268.621C232.156 268.676 232.315 268.696 232.473 268.68C232.788 268.585 233.058 268.38 233.236 268.102C233.645 267.474 233.964 266.791 234.182 266.073ZM241.341 279.009C241.545 278.469 241.832 277.965 242.192 277.513C242.375 277.274 242.595 277.065 242.844 276.894C242.987 276.787 243.153 276.717 243.329 276.69C243.505 276.662 243.685 276.678 243.853 276.736C244.152 276.906 244.376 277.18 244.482 277.506C244.589 277.785 244.656 278.077 244.683 278.374C244.753 278.947 244.727 279.528 244.607 280.094C244.546 279.537 244.451 278.984 244.323 278.439C244.262 278.179 244.182 277.924 244.084 277.676C243.97 277.458 243.834 277.222 243.661 277.171C243.337 276.993 242.831 277.395 242.461 277.758C242.067 278.156 241.693 278.574 241.341 279.009Z" fill="#18181B"/>
<path d="M228.372 252.649L224.332 257.1C224.332 257.1 224.362 262.79 221.482 263.03C221.482 263.03 220.022 264.35 221.062 264.62C221.992 264.85 225.342 264.02 226.792 264.189C226.792 264.189 233.662 262.83 234.832 263.57C235.184 263.808 235.48 264.12 235.7 264.485C235.919 264.849 236.056 265.257 236.102 265.68L236.662 265.62L258.332 266.91L267.732 252.649L228.372 252.649ZM256.292 262.629L225.882 262.12L229.852 255.729H260.322L256.292 262.629ZM203.452 263.032C204.624 262.178 205.949 261.557 207.356 261.204C208.785 260.836 210.266 260.708 211.737 260.825C211.869 260.836 211.991 260.898 212.078 260.999C212.164 261.099 212.206 261.23 212.196 261.362C212.186 261.494 212.125 261.617 212.025 261.703C211.924 261.79 211.794 261.833 211.662 261.824C211.641 261.822 211.621 261.819 211.6 261.815C210.235 261.546 208.834 261.505 207.455 261.694C206.047 261.879 204.688 262.333 203.452 263.032ZM211.669 273.362C214.482 273.414 217.296 273.512 220.11 273.78C220.806 273.842 221.534 273.955 222.207 274.034C222.886 274.107 223.571 274.121 224.252 274.074C225.602 273.983 226.927 273.665 228.172 273.134L228.205 273.119C228.326 273.066 228.464 273.063 228.588 273.111C228.712 273.159 228.811 273.254 228.865 273.375C228.918 273.497 228.921 273.635 228.873 273.758C228.825 273.882 228.73 273.982 228.609 274.035L228.581 274.047C227.203 274.549 225.749 274.812 224.282 274.824C223.557 274.831 222.834 274.773 222.12 274.653C221.401 274.525 220.746 274.381 220.046 274.275C217.278 273.845 214.472 273.58 211.669 273.362ZM213.837 281.122C214.791 280.779 215.755 280.458 216.729 280.162C217.714 279.851 218.719 279.605 219.736 279.425C219.868 279.404 220.002 279.436 220.11 279.514C220.218 279.592 220.291 279.709 220.312 279.841C220.333 279.972 220.301 280.107 220.223 280.215C220.145 280.323 220.028 280.395 219.896 280.417C219.87 280.421 219.843 280.423 219.816 280.423H219.807C218.812 280.434 217.819 280.51 216.834 280.651C215.834 280.78 214.834 280.94 213.837 281.122ZM217.603 255.854C218.115 256.385 218.717 256.821 219.38 257.143C220.053 257.453 220.758 257.687 221.483 257.84C221.1 257.929 220.704 257.949 220.314 257.9C219.919 257.847 219.533 257.736 219.171 257.569C218.815 257.385 218.491 257.146 218.211 256.86C217.931 256.578 217.722 256.233 217.603 255.854ZM232.867 273.537C232.602 273.539 232.347 273.434 232.159 273.248C231.97 273.061 231.864 272.807 231.863 272.542C231.861 272.277 231.966 272.022 232.152 271.834C232.339 271.645 232.593 271.539 232.858 271.537L245.525 271.418C245.657 271.414 245.789 271.437 245.912 271.485C246.035 271.533 246.147 271.606 246.241 271.698C246.335 271.791 246.41 271.901 246.46 272.023C246.511 272.145 246.536 272.276 246.535 272.408C246.536 272.54 246.511 272.67 246.462 272.792C246.413 272.914 246.341 273.025 246.249 273.119C246.157 273.212 246.047 273.287 245.926 273.339C245.805 273.39 245.675 273.417 245.544 273.418L232.876 273.537H232.867ZM267.676 273.213C267.411 273.213 267.156 273.108 266.968 272.921C266.781 272.733 266.675 272.479 266.675 272.214C266.675 271.949 266.78 271.694 266.967 271.507C267.155 271.319 267.409 271.213 267.674 271.213L302.592 271.167H302.594C302.859 271.167 303.113 271.272 303.301 271.46C303.489 271.647 303.594 271.901 303.595 272.167C303.595 272.432 303.49 272.686 303.302 272.874C303.115 273.062 302.86 273.167 302.595 273.167L267.677 273.213H267.676ZM499.488 272.905C499.223 272.905 498.969 272.799 498.781 272.612C498.593 272.425 498.488 272.17 498.488 271.905C498.488 271.64 498.593 271.385 498.78 271.198C498.968 271.01 499.222 270.905 499.487 270.905L531.583 270.866H531.583C531.849 270.865 532.103 270.971 532.291 271.158C532.478 271.345 532.584 271.6 532.584 271.865C532.584 272.13 532.479 272.385 532.292 272.572C532.104 272.76 531.85 272.865 531.585 272.866L499.49 272.905H499.488ZM316.692 272.389H314.318C314.255 272.389 314.194 272.364 314.149 272.32C314.104 272.276 314.078 272.215 314.077 272.152C314.076 272.121 314.082 272.09 314.094 272.061C314.105 272.032 314.122 272.006 314.144 271.984C314.166 271.962 314.192 271.945 314.22 271.933C314.249 271.921 314.28 271.914 314.311 271.914H316.692C316.724 271.914 316.755 271.92 316.784 271.932C316.813 271.944 316.839 271.961 316.861 271.983C316.883 272.005 316.901 272.032 316.913 272.061C316.925 272.089 316.931 272.12 316.931 272.152C316.931 272.183 316.925 272.214 316.913 272.243C316.901 272.272 316.883 272.298 316.861 272.32C316.839 272.342 316.813 272.36 316.784 272.371C316.755 272.383 316.724 272.389 316.692 272.389ZM8.41651 275.63C8.1513 275.631 7.89646 275.527 7.70805 275.341C7.51964 275.154 7.41311 274.9 7.41188 274.635C7.41065 274.37 7.51482 274.115 7.70149 273.926C7.88815 273.738 8.14202 273.631 8.40724 273.63L52.4346 273.221C52.6976 273.226 52.9488 273.331 53.1366 273.515C53.3243 273.699 53.4343 273.948 53.4439 274.211C53.4451 274.343 53.4205 274.473 53.3714 274.595C53.3223 274.717 53.2496 274.828 53.1576 274.921C53.0657 275.015 52.9561 275.09 52.8352 275.141C52.7143 275.193 52.5845 275.22 52.4531 275.221L8.42579 275.63H8.41651ZM174.465 137.212C174.835 137.199 175.185 137.043 175.442 136.777C175.699 136.511 175.843 136.156 175.843 135.785C175.843 135.415 175.699 135.06 175.442 134.794C175.185 134.528 174.835 134.372 174.465 134.359C174.095 134.372 173.745 134.528 173.487 134.794C173.23 135.06 173.087 135.415 173.087 135.785C173.087 136.156 173.23 136.511 173.487 136.777C173.745 137.043 174.095 137.199 174.465 137.212ZM246.577 109.542L234.899 109.977C231.068 110.093 227.279 110.186 223.512 110.257C219.751 110.309 216.002 110.368 212.269 110.326C208.533 110.298 204.798 110.131 201.026 110.027L201.581 109.472C201.521 111.627 201.424 113.782 201.395 115.937C201.342 118.092 201.34 120.247 201.327 122.402C201.324 126.712 201.415 131.023 201.536 135.333L201.026 134.823L210.346 134.564C210.441 134.561 210.535 134.577 210.624 134.611C210.713 134.645 210.794 134.697 210.862 134.763L210.89 134.789L214.449 138.212H213.225L216.667 134.672C216.75 134.586 216.849 134.518 216.958 134.471C217.068 134.424 217.186 134.399 217.305 134.398L217.328 134.398C222.215 134.357 227.102 134.257 231.988 134.266C234.432 134.254 236.875 134.264 239.318 134.296L246.648 134.389L245.704 135.333C245.771 131.132 245.892 126.931 246.066 122.643L246.577 109.542ZM246.719 109.401L247.23 122.161C247.404 126.494 247.525 130.913 247.592 135.333C247.596 135.579 247.501 135.817 247.33 135.994C247.158 136.171 246.923 136.273 246.677 136.277H246.674L246.648 136.277L239.318 136.37C236.875 136.399 234.431 136.409 231.988 136.4C227.102 136.409 222.215 136.308 217.328 136.268L217.99 135.994L214.449 139.436L214.428 139.456C214.348 139.534 214.254 139.595 214.15 139.636C214.047 139.678 213.936 139.698 213.825 139.696C213.713 139.695 213.603 139.671 213.501 139.627C213.399 139.583 213.306 139.519 213.228 139.439L213.225 139.436L209.802 135.877L210.346 136.102L201.026 135.843L200.998 135.843C200.866 135.839 200.741 135.783 200.651 135.688C200.561 135.592 200.512 135.464 200.516 135.333V135.333C200.637 131.023 200.728 126.712 200.725 122.402C200.712 120.247 200.71 118.092 200.657 115.937C200.628 113.782 200.531 111.627 200.471 109.472C200.469 109.401 200.481 109.33 200.506 109.264C200.531 109.198 200.569 109.137 200.618 109.086C200.667 109.034 200.725 108.993 200.79 108.964C200.855 108.935 200.924 108.919 200.995 108.917H200.996L201.026 108.916C204.857 108.812 208.726 108.645 212.595 108.617C216.465 108.575 220.32 108.635 224.162 108.687C227.999 108.757 231.814 108.85 235.586 108.966L246.719 109.401ZM380.748 61.7044L363.559 62.0018L346.517 62.2166L312.667 62.4544L295.828 62.3951L278.997 62.1822C267.766 62.0098 256.478 61.9275 245.196 61.9559L245.518 61.6338L245.578 74.5643L245.727 87.4949L245.196 86.9642C255.14 86.8287 265.083 86.7005 275.026 86.6316L304.856 86.4671C314.799 86.3902 324.743 86.4786 334.686 86.4764C344.629 86.4642 354.573 86.5948 364.516 86.6744L364.53 86.6746C364.743 86.6765 364.947 86.7629 365.096 86.9148L368.556 90.4371H367.458L370.988 86.9849L371.001 86.972C371.067 86.9078 371.145 86.8573 371.23 86.8232C371.316 86.7892 371.407 86.7723 371.499 86.7735L380.818 86.909L380.233 87.4949C380.301 83.251 380.356 79.0074 380.474 74.7068L380.748 61.7044ZM380.889 61.563L381.163 74.4214C381.28 78.7415 381.336 83.1182 381.404 87.4949C381.406 87.6479 381.348 87.7955 381.241 87.9053C381.135 88.0151 380.989 88.0782 380.836 88.0806H380.836L380.818 88.0808L371.499 88.2163L372.009 88.0052L368.556 91.5352C368.414 91.6807 368.22 91.7638 368.016 91.766C367.812 91.7683 367.616 91.6896 367.47 91.5472L367.469 91.546L367.458 91.5352L363.936 88.0752L364.516 88.3155C354.573 88.395 344.629 88.5257 334.686 88.5135C324.743 88.5113 314.799 88.5996 304.856 88.5227L275.026 88.3582C265.083 88.2893 255.139 88.1612 245.196 88.0256H245.183C245.114 88.0248 245.046 88.0104 244.983 87.9833C244.919 87.9562 244.862 87.9168 244.814 87.8675C244.766 87.8182 244.728 87.7599 244.703 87.696C244.677 87.6321 244.664 87.5637 244.665 87.4949L244.814 74.5642L244.874 61.6338C244.874 61.5483 244.908 61.4664 244.968 61.406C245.029 61.3455 245.111 61.3115 245.196 61.3113C256.518 61.3399 267.833 61.2576 279.206 61.0852L296.281 60.8723L313.347 60.8128L347.309 61.0508L364.172 61.2654L380.889 61.563ZM286.577 6.51737C279.244 6.72611 272.036 6.87137 264.869 6.99637C257.687 7.14554 250.591 7.21219 243.497 7.26687C236.406 7.32254 229.362 7.27811 222.303 7.12015C215.241 6.9993 208.145 6.80228 201.026 6.76687L201.346 6.44681C201.343 8.60181 201.313 10.7569 201.337 12.9119L201.376 19.3772C201.381 23.6875 201.486 27.9976 201.549 32.3079L201.026 31.7844L210.346 31.6099C210.433 31.6082 210.52 31.6237 210.602 31.6557C210.683 31.6877 210.758 31.7354 210.821 31.7962L210.84 31.8145L214.386 35.2495H213.288L216.735 31.7146C216.81 31.6379 216.899 31.5767 216.997 31.5345C217.095 31.4924 217.201 31.4701 217.308 31.469L217.328 31.4688L234.658 31.3181C240.435 31.2722 246.212 31.23 251.988 31.239C263.541 31.2337 275.095 31.4026 286.648 31.5564L285.897 32.3079L286.204 19.5613L286.577 6.51737ZM286.719 6.37602L287.092 19.1932L287.4 32.3079C287.404 32.5025 287.331 32.691 287.197 32.8318C287.062 32.9726 286.878 33.0543 286.683 33.0589L286.675 33.0591L286.648 33.0594C275.095 33.2132 263.541 33.3821 251.988 33.3768C246.212 33.386 240.435 33.3436 234.658 33.2979L217.328 33.147L217.921 32.9014L214.387 36.3484L214.371 36.3638C214.226 36.5054 214.03 36.5836 213.827 36.581C213.624 36.5785 213.431 36.4955 213.289 36.3504L213.288 36.3484L209.852 32.8016L210.346 33.0059L201.026 32.8313L201.009 32.8311C200.941 32.8301 200.874 32.8157 200.812 32.7888C200.75 32.762 200.694 32.7231 200.647 32.6745C200.6 32.6259 200.563 32.5685 200.538 32.5056C200.513 32.4427 200.501 32.3755 200.502 32.3079C200.565 27.9976 200.671 23.6875 200.676 19.3772L200.715 12.9119C200.739 10.7569 200.709 8.60185 200.706 6.44682C200.706 6.36184 200.74 6.28036 200.8 6.22026C200.86 6.16016 200.941 6.12636 201.026 6.12626C208.177 6.09086 215.352 5.89384 222.56 5.77326C229.772 5.61506 236.998 5.57087 244.177 5.62626C251.354 5.68119 258.528 5.74784 265.616 5.89701C272.719 6.02177 279.782 6.16728 286.719 6.37601V6.37602Z" fill="#18181B"/>
</svg>
