<svg width="320" height="273" viewBox="0 0 320 273" fill="none" xmlns="http://www.w3.org/2000/svg">
<path d="M188.924 72.1363C188.924 72.1363 186.356 70.5956 183.96 73.3345C183.96 73.3345 179.68 67.2537 161.534 72.5195C161.534 72.5195 163.931 77.1006 165.643 77.1006C167.355 77.1006 162.39 84.9751 157.768 84.6327C157.768 84.6327 149.894 96.102 155.885 107.229C161.791 118.196 166.033 121.679 171.89 114.566C172.07 114.345 172.27 114.142 172.489 113.96C174.173 112.571 181.631 106.795 184.274 111.102C184.837 112.059 184.998 113.199 184.722 114.275C183.515 119.327 177.874 137.937 161.534 130.51C161.534 130.51 142.493 123.369 146.984 106.453C147.464 104.732 148.161 103.08 149.057 101.534C149.921 99.9558 150.453 98.2174 150.621 96.4257C150.79 94.6341 150.59 92.8269 150.036 91.115C149.347 88.6745 147.794 86.5679 145.667 85.1882C143.604 83.9016 140.885 83.3264 138.825 86.924C137.973 88.4207 137.524 90.113 137.521 91.8354C137.517 93.4119 137.811 95.3454 139.109 96.2732L137.521 99.3545C136.657 97.597 135.553 95.9684 134.239 94.5159C132.04 92.2881 130.627 89.4038 130.215 86.3003C129.633 81.3772 130.333 74.0264 136.199 65.4601C136.199 65.4601 144.074 49.7112 158.796 50.0536C173.517 50.396 186.185 54.3331 188.924 72.1363Z" fill="#0073A8"/>
<path d="M164.273 92.6783C166.831 92.0934 169.458 91.8769 172.076 92.0354C173.395 92.1009 174.704 92.2995 175.983 92.6279C177.288 92.908 178.501 93.5143 179.509 94.3901C178.346 93.85 177.104 93.5002 175.83 93.354C174.571 93.1731 173.301 93.0415 172.021 92.9842C169.461 92.8254 166.888 92.8132 164.273 92.6783ZM188.924 92.4339C187.988 92.7185 187.121 93.1959 186.38 93.8354C186.029 94.1251 185.743 94.4857 185.541 94.8935C185.338 95.3013 185.224 95.7471 185.206 96.202C185.275 97.1353 185.519 98.0471 185.927 98.8896L187.046 101.642C187.881 103.504 188.366 105.504 188.478 107.541C188.476 108.078 188.377 108.61 188.187 109.112C187.982 109.62 187.647 110.065 187.215 110.403C186.339 110.955 185.305 111.2 184.274 111.102C185.24 111.019 186.161 110.651 186.917 110.045C187.228 109.713 187.462 109.318 187.603 108.887C187.745 108.455 187.79 107.998 187.735 107.547C187.662 106.594 187.468 105.654 187.16 104.749C186.872 103.822 186.528 102.904 186.161 101.989C185.81 101.067 185.429 100.151 185.087 99.207C184.923 98.7305 184.756 98.2554 184.628 97.7529C184.468 97.2335 184.414 96.6872 184.468 96.1465C184.526 95.6087 184.701 95.0902 184.982 94.6279C185.262 94.1656 185.642 93.771 186.092 93.4722C186.94 92.9054 187.911 92.5494 188.924 92.4339Z" fill="#18181B"/>
<path d="M188.924 72.1362C189.245 74.055 189.483 75.9841 189.639 77.9234C189.818 79.8598 189.928 81.8018 189.97 83.7496C190 85.6973 189.971 87.6485 189.819 89.6011C189.73 91.5914 189.285 93.5497 188.506 95.3835C188.495 95.4063 188.48 95.4273 188.463 95.446C187.862 96.0928 187.298 96.773 186.774 97.4833C186.514 97.839 186.282 98.2149 186.082 98.6074C185.859 98.9896 185.769 99.4352 185.828 99.8738C185.691 99.4325 185.715 98.9567 185.898 98.5321C186.055 98.1038 186.247 97.6889 186.471 97.2912C186.918 96.4985 187.435 95.7472 188.015 95.0462L187.972 95.1084C188.304 94.2326 188.525 93.3187 188.63 92.3882C188.778 91.4493 188.838 90.4907 188.909 89.5354C189.022 87.6177 189.042 85.6885 189.053 83.7582C189.053 79.8947 188.968 76.0241 188.924 72.1362ZM178.653 105.688C178.472 106.06 178.326 106.447 178.217 106.846C178.105 107.214 178.081 107.603 178.145 107.982C178.199 108.357 178.363 108.708 178.617 108.99C178.886 109.301 179.184 109.585 179.509 109.838C179.301 109.776 179.098 109.703 178.898 109.619C178.705 109.512 178.522 109.387 178.353 109.243C178 108.937 177.761 108.52 177.677 108.061C177.617 107.605 177.685 107.142 177.874 106.724C178.05 106.323 178.316 105.968 178.653 105.688ZM139.109 96.2731C139.702 97.0168 140.175 97.8484 140.51 98.7379C140.691 99.192 140.821 99.6642 140.899 100.146C140.941 100.399 140.958 100.655 140.949 100.912L140.944 101.109L140.955 101.216C140.951 101.285 140.966 101.355 140.999 101.416C141.146 101.729 141.406 101.975 141.726 102.106C142.106 102.3 142.507 102.452 142.92 102.559C143.799 102.796 144.704 102.927 145.614 102.949C144.715 103.302 143.741 103.418 142.783 103.288C142.284 103.237 141.795 103.112 141.332 102.916C141.06 102.811 140.812 102.652 140.601 102.45C140.391 102.248 140.222 102.007 140.106 101.739C140.044 101.589 140.014 101.427 140.017 101.264L140.014 101.024L140.021 100.874C140.032 100.667 140.027 100.46 140.007 100.253C139.969 99.8145 139.901 99.3791 139.802 98.95C139.608 98.0705 139.353 97.1862 139.109 96.2731ZM137.521 99.3544C137.139 100.739 136.6 102.076 135.916 103.338C135.245 104.619 134.436 105.823 133.502 106.927C132.569 108.052 131.461 109.021 130.221 109.796C128.978 110.566 127.556 110.999 126.094 111.051C127.432 110.649 128.688 110.016 129.807 109.18C130.902 108.338 131.899 107.375 132.779 106.311C133.683 105.248 134.518 104.128 135.281 102.96C136.048 101.785 136.81 100.595 137.521 99.3544ZM150.065 139.411C151.147 138.937 152.17 138.338 153.113 137.628C154.049 136.929 154.937 136.168 155.771 135.35C156.631 134.556 157.401 133.668 158.202 132.799L159.368 131.453C159.747 130.994 160.126 130.532 160.543 130.088C160.305 130.643 160.028 131.18 159.751 131.719C159.438 132.235 159.13 132.758 158.786 133.256C158.092 134.256 157.303 135.187 156.43 136.034C155.552 136.889 154.573 137.633 153.514 138.249C152.464 138.886 151.287 139.283 150.065 139.411Z" fill="#18181B"/>
<path d="M132.939 106.618C132.088 105.356 131.034 104.242 129.821 103.322C129.568 103.099 129.262 102.945 128.932 102.875C128.603 102.805 128.26 102.822 127.939 102.923C127.371 103.309 126.964 103.888 126.793 104.553C126.559 105.262 126.391 105.991 126.29 106.731C126.239 107.098 126.193 107.481 126.16 107.835C126.162 108.172 126.192 108.568 126.226 108.936C126.373 110.445 126.653 111.939 127.062 113.4C127.815 116.372 128.986 119.222 130.538 121.865C132.111 124.508 133.993 126.954 136.144 129.152C137.222 130.243 138.344 131.293 139.481 132.317C140.663 133.291 141.792 134.338 143.021 135.233C143.615 135.713 144.269 136.102 144.888 136.54C145.544 136.917 146.174 137.346 146.857 137.666C148.177 138.383 149.582 138.934 151.038 139.304C153.946 140.076 157.036 139.751 159.72 138.393C162.418 136.953 164.684 134.821 166.285 132.216C166.291 132.205 166.301 132.197 166.313 132.193C166.325 132.189 166.338 132.19 166.349 132.196C166.36 132.202 166.368 132.212 166.371 132.224C166.375 132.236 166.375 132.248 166.37 132.26C164.977 135.088 162.788 137.448 160.071 139.048C158.68 139.837 157.15 140.351 155.564 140.56C153.973 140.748 152.361 140.645 150.807 140.257C149.264 139.891 147.779 139.313 146.394 138.542C145.686 138.19 145.044 137.736 144.373 137.329C143.743 136.865 143.076 136.447 142.479 135.944C141.226 135.003 140.129 133.904 138.97 132.872C138.379 132.369 137.878 131.769 137.335 131.215C136.812 130.642 136.246 130.111 135.76 129.504C133.734 127.161 131.893 124.664 130.256 122.034C128.589 119.405 127.261 116.576 126.304 113.613C125.837 112.115 125.532 110.57 125.394 109.006C125.368 108.605 125.344 108.232 125.353 107.797C125.398 107.385 125.454 107.002 125.517 106.608C125.643 105.822 125.841 105.049 126.109 104.299C126.23 103.885 126.432 103.499 126.703 103.164C126.974 102.829 127.309 102.551 127.689 102.347C128.116 102.18 128.589 102.17 129.022 102.32C129.416 102.455 129.784 102.656 130.11 102.916C131.306 103.935 132.294 105.175 133.021 106.569C133.024 106.574 133.026 106.58 133.027 106.587C133.027 106.593 133.027 106.599 133.025 106.605C133.024 106.611 133.021 106.617 133.017 106.622C133.013 106.627 133.008 106.631 133.003 106.634C132.992 106.639 132.98 106.641 132.968 106.638C132.957 106.635 132.946 106.628 132.939 106.618ZM88.8701 119.554C90.1168 119.908 91.2482 120.584 92.1498 121.515C93.079 122.431 93.822 123.518 94.3381 124.717C94.8553 125.908 95.1461 127.186 95.1956 128.484C95.2204 129.122 95.1876 129.762 95.0978 130.395C94.989 131.023 94.8229 131.64 94.6017 132.238C94.3798 131.619 94.2797 131.022 94.1168 130.439C93.9418 129.859 93.8369 129.282 93.6425 128.73C93.3323 127.634 92.9521 126.56 92.5041 125.513C92.0546 124.472 91.5291 123.465 90.9319 122.501C90.3063 121.477 89.6178 120.493 88.8701 119.554ZM93.2322 143.52C93.6175 147.959 93.8054 152.397 93.924 156.834C94.055 161.272 94.0689 165.709 94.0604 170.145C94.0144 174.582 93.9433 179.018 93.7558 183.454C93.5808 187.889 93.3347 192.324 92.8898 196.758C92.5021 192.319 92.3131 187.881 92.1951 183.443C92.0646 179.006 92.0506 174.569 92.0616 170.133C92.1101 165.696 92.1812 161.26 92.3693 156.824C92.5448 152.389 92.7898 147.954 93.2322 143.52ZM184.781 114.194C188.443 116.485 192.038 118.872 195.566 121.354C197.332 122.593 199.083 123.855 200.82 125.139L203.405 127.113C203.858 127.453 204.285 127.827 204.682 128.231L205.297 128.872L205.814 129.528C207.153 131.255 208.376 133.071 209.472 134.963C210.576 136.826 211.651 138.702 212.697 140.591C214.763 144.385 216.89 148.136 219.079 151.845C220.174 153.701 221.29 155.545 222.427 157.376L224.128 160.122C224.632 161.02 225.231 161.861 225.914 162.631C226.639 163.342 227.502 164.046 228.252 164.931C229.142 165.857 229.677 167.066 229.765 168.347C229.698 169.66 229.126 170.896 228.168 171.798C227.759 172.211 227.329 172.603 226.879 172.973C226.477 173.297 226.086 173.638 225.703 173.989C224.933 174.696 224.225 175.438 223.505 176.237C222.772 177.047 222.013 177.833 221.243 178.61C219.688 180.163 218.037 181.616 216.299 182.961C214.528 184.333 212.6 185.489 210.555 186.405C209.483 186.858 208.356 187.17 207.203 187.332C205.992 187.512 204.756 187.405 203.594 187.019C203.409 186.963 203.251 186.84 203.151 186.675L203.144 186.664C202.394 185.42 201.572 184.18 200.741 182.967C199.91 181.748 199.041 180.558 198.132 179.397C197.219 178.246 196.244 177.145 195.21 176.101C194.215 175.026 192.997 174.183 191.64 173.632L191.633 173.629C191.609 173.621 191.589 173.603 191.577 173.581C191.566 173.559 191.563 173.533 191.57 173.508C191.576 173.484 191.592 173.463 191.614 173.45C191.635 173.436 191.661 173.432 191.686 173.437C193.168 173.819 194.538 174.547 195.684 175.562C196.859 176.512 197.961 177.551 198.979 178.669C201.025 180.884 202.905 183.248 204.603 185.739L204.154 185.385C206.058 185.773 208.039 185.485 209.753 184.571C211.625 183.678 213.385 182.567 214.996 181.261C216.664 179.965 218.26 178.578 219.775 177.106C220.542 176.373 221.3 175.629 222.034 174.86C222.777 174.078 223.579 173.28 224.417 172.552C224.838 172.186 225.269 171.83 225.715 171.49C226.119 171.153 226.502 170.865 226.84 170.522C227.495 169.958 227.923 169.175 228.044 168.319C227.992 167.431 227.638 166.587 227.04 165.928C226.427 165.14 225.654 164.426 224.903 163.569C224.705 163.345 224.52 163.11 224.348 162.865L223.915 162.131L223.135 160.7L221.61 157.845C220.604 155.938 219.576 154.044 218.527 152.163C216.423 148.404 214.205 144.708 211.803 141.133C209.421 137.564 207.005 133.95 204.425 130.652L203.937 130.042L203.428 129.522C203.079 129.149 202.701 128.804 202.297 128.492L199.783 126.495L194.707 122.509C191.315 119.855 187.968 117.137 184.663 114.355C184.644 114.339 184.631 114.316 184.628 114.291C184.625 114.266 184.632 114.24 184.646 114.22C184.661 114.199 184.684 114.185 184.708 114.18C184.733 114.175 184.759 114.18 184.781 114.194V114.194Z" fill="#18181B"/>
<path d="M198.168 146.487C196.417 153.066 194.764 159.66 193.384 166.281C192.673 169.563 192.177 172.887 191.899 176.233C191.804 177.842 191.795 179.619 191.653 181.34C191.516 183.096 191.222 184.836 190.775 186.54C189.725 189.907 188.041 193.044 185.814 195.78C184.785 197.152 183.695 198.479 182.675 199.812C182.184 200.474 181.686 201.13 181.245 201.839C180.772 202.522 180.345 203.241 179.919 203.962C178.244 206.888 176.747 209.913 175.435 213.02C174.051 216.114 172.858 219.294 171.691 222.493C173.176 215.805 175.482 209.327 178.555 203.204C179.348 201.656 180.257 200.17 181.274 198.759C182.282 197.365 183.315 196.034 184.288 194.658C186.336 192.084 187.883 189.148 188.85 186.004C189.279 184.421 189.566 182.802 189.709 181.168C189.868 179.502 189.863 177.875 190.016 176.092C190.373 172.666 190.992 169.271 191.867 165.939C193.546 159.326 195.65 152.828 198.168 146.487ZM273.612 235.57C273.214 235.571 272.833 235.413 272.551 235.132C272.27 234.851 272.111 234.469 272.111 234.071C272.111 233.673 272.269 233.292 272.55 233.01C272.831 232.729 273.212 232.571 273.61 232.57L308.528 232.524H308.53C308.727 232.524 308.922 232.563 309.104 232.638C309.286 232.713 309.452 232.824 309.591 232.963C309.73 233.102 309.841 233.268 309.917 233.449C309.992 233.631 310.031 233.826 310.031 234.023C310.031 234.22 309.993 234.415 309.917 234.598C309.842 234.78 309.732 234.945 309.592 235.084C309.453 235.224 309.288 235.334 309.106 235.41C308.924 235.485 308.729 235.524 308.532 235.524L273.614 235.57H273.612Z" fill="#18181B"/>
<path d="M51.4816 234.575L7.45459 234.991L7.48292 237.991L51.5099 237.575L51.4816 234.575Z" fill="#18181B"/>
<path d="M173.518 99.0691C173.888 99.0564 174.238 98.9005 174.495 98.6343C174.752 98.3682 174.896 98.0126 174.896 97.6426C174.896 97.2726 174.752 96.917 174.495 96.6508C174.238 96.3847 173.888 96.2288 173.518 96.2161C173.148 96.2288 172.798 96.3847 172.54 96.6508C172.283 96.917 172.14 97.2726 172.14 97.6426C172.14 98.0126 172.283 98.3682 172.54 98.6343C172.798 98.9005 173.148 99.0564 173.518 99.0691ZM211.272 246.952C216.314 250.389 221.987 252.791 227.963 254.02C230.931 254.592 233.956 254.809 236.974 254.666C239.986 254.503 242.969 253.997 245.866 253.157C251.651 251.395 257.11 248.699 262.024 245.174C263.258 244.341 264.424 243.413 265.511 242.396C266.597 241.367 267.619 240.273 268.573 239.121C270.481 236.816 272.131 234.31 273.495 231.647L273.399 232.051L273.4 232.042L273.4 232.02C273.402 231.888 273.434 231.757 273.494 231.639C274.673 229.324 275.636 226.906 276.371 224.415C277.102 221.912 277.574 219.341 277.78 216.743L277.784 216.688L277.79 216.653C277.805 216.602 277.787 216.626 277.804 216.719L277.796 216.562C278.207 211.301 277.467 206.014 275.628 201.068C273.75 196.13 270.842 191.649 267.098 187.922C263.397 184.259 259 181.375 254.166 179.44C249.332 177.505 244.159 176.559 238.953 176.657C233.747 176.755 228.613 177.896 223.855 180.011C219.098 182.127 214.812 185.174 211.252 188.974C207.682 192.788 204.903 197.271 203.076 202.166C201.256 207.124 200.411 212.387 200.586 217.665C200.586 217.679 200.584 217.692 200.579 217.705C200.574 217.718 200.567 217.729 200.558 217.739C200.548 217.749 200.537 217.757 200.525 217.762C200.513 217.768 200.499 217.771 200.486 217.771C200.46 217.771 200.435 217.762 200.415 217.744C200.396 217.727 200.383 217.703 200.38 217.678C199.743 212.324 200.255 206.896 201.881 201.756C203.52 196.561 206.24 191.772 209.862 187.705C213.495 183.606 217.948 180.316 222.933 178.047C227.928 175.784 233.349 174.612 238.833 174.611C244.281 174.557 249.68 175.651 254.678 177.821C259.676 179.99 264.161 183.188 267.842 187.205C271.488 191.17 274.33 195.803 276.213 200.849C278.093 205.904 279.001 211.269 278.89 216.661L278.882 216.504C278.904 216.625 278.902 216.75 278.876 216.87L278.886 216.781C278.813 219.483 278.458 222.171 277.828 224.8C277.207 227.44 276.296 230.004 275.112 232.444L275.206 232.042L275.206 232.051C275.208 232.186 275.179 232.318 275.119 232.439L275.111 232.456C273.726 235.271 271.995 237.901 269.957 240.286C268.944 241.479 267.859 242.61 266.709 243.673C265.539 244.724 264.292 245.686 262.979 246.552C257.887 250.128 252.221 252.806 246.225 254.47C240.202 256.106 233.872 256.261 227.776 254.921C221.76 253.487 216.103 250.832 211.155 247.122C211.134 247.106 211.119 247.082 211.114 247.056C211.11 247.029 211.116 247.002 211.131 246.98C211.146 246.958 211.169 246.943 211.196 246.937C211.222 246.932 211.249 246.938 211.272 246.952L211.272 246.952Z" fill="#18181B"/>
<path d="M220.093 180.881C219.819 181.617 219.588 182.362 219.356 183.104C219.128 183.848 218.905 184.591 218.705 185.34C218.482 186.08 218.303 186.834 218.126 187.589L217.546 189.832L217.576 189.644C217.574 189.729 217.557 189.813 217.527 189.893C217.491 189.99 217.435 190.079 217.364 190.154C217.292 190.229 217.206 190.289 217.111 190.331C217.015 190.372 216.913 190.394 216.809 190.395L217.538 189.841C217.116 192.013 216.596 194.15 216.153 196.308C215.747 198.474 215.339 200.641 214.996 202.823C214.64 205.003 214.286 207.185 213.987 209.384C213.647 211.578 213.325 213.782 212.943 215.992C212.743 213.759 212.677 211.517 212.745 209.277C212.783 207.035 212.937 204.797 213.205 202.57C213.485 200.346 213.822 198.123 214.311 195.93C214.534 194.829 214.833 193.743 215.141 192.662C215.449 191.58 215.734 190.494 216.068 189.422L216.797 188.868C216.696 188.869 216.596 188.891 216.503 188.931C216.41 188.971 216.326 189.03 216.256 189.103C216.187 189.177 216.133 189.263 216.097 189.358C216.068 189.435 216.052 189.517 216.05 189.599L216.079 189.411C216.632 187.931 217.142 186.446 217.798 185.008C218.435 183.565 219.203 182.184 220.093 180.881ZM258.908 180.881C260.27 183.227 261.396 185.703 262.268 188.273C262.752 189.544 263.096 190.856 263.513 192.15C263.884 193.456 264.193 194.778 264.533 196.095C265.719 201.395 266.481 206.782 266.812 212.204C267.154 217.614 267.158 223.041 266.825 228.452C266.659 231.153 266.356 233.844 266.097 236.533C265.682 239.208 265.323 241.884 264.846 244.542C264.89 241.835 265.062 239.149 265.158 236.46L265.326 228.399C265.313 227.056 265.306 225.715 265.316 224.374L265.322 222.363L265.251 220.354L265.145 216.338L264.896 212.33C264.578 206.988 263.969 201.668 263.07 196.393L262.298 192.454C261.988 191.155 261.739 189.834 261.373 188.547C260.752 185.931 259.928 183.368 258.908 180.881ZM238.623 233.711C239.241 233.09 239.767 232.383 240.183 231.611C240.173 232.511 240.153 233.401 240.133 234.301C240.003 240.801 239.753 247.301 239.383 253.801C239.013 247.301 238.763 240.801 238.633 234.301C238.633 234.101 238.623 233.911 238.623 233.711ZM238.893 227.281C238.893 227.281 239.553 226.491 240.273 225.451C240.263 226.461 240.253 227.481 240.233 228.491C239.887 227.989 239.428 227.575 238.893 227.281ZM240.343 213.831V215.751L240.313 220.461C239.681 220.513 239.057 220.637 238.453 220.831C238.443 219.131 238.433 217.441 238.423 215.751V213.831C238.463 201.141 238.643 188.461 239.383 175.771C240.113 188.461 240.303 201.141 240.343 213.831Z" fill="#18181B"/>
<path d="M203.916 198.536C209.472 196.067 215.287 194.228 221.252 193.054C227.225 191.833 233.302 191.188 239.399 191.127C242.449 191.036 245.495 191.28 248.538 191.45C250.054 191.619 251.565 191.84 253.076 192.032C253.831 192.138 254.589 192.216 255.34 192.346L257.576 192.826C263.541 194.023 269.338 195.941 274.841 198.536C273.38 198.12 271.931 197.688 270.494 197.24L268.336 196.576C267.614 196.367 266.867 196.24 266.135 196.068L261.748 195.047C260.275 194.765 258.788 194.552 257.311 194.301L255.095 193.938C254.353 193.84 253.605 193.782 252.861 193.701C251.371 193.557 249.884 193.385 248.393 193.263C245.401 193.153 242.415 192.925 239.42 193.046C233.424 193.098 227.441 193.592 221.517 194.524L217.078 195.292C215.609 195.603 214.128 195.879 212.663 196.219C209.715 196.845 206.809 197.645 203.916 198.536ZM238.493 236.952L247.69 235.765C250.733 235.336 253.769 234.88 256.785 234.333C259.806 233.814 262.814 233.202 265.817 232.558C267.305 232.183 268.805 231.845 270.314 231.513L271.452 231.279L272.571 230.988C273.319 230.797 274.077 230.62 274.843 230.452C274.154 230.808 273.457 231.154 272.751 231.489C272.051 231.836 271.334 232.143 270.601 232.412C269.145 232.959 267.681 233.501 266.203 234.006C263.226 234.94 260.191 235.681 257.119 236.224C250.977 237.356 244.704 237.602 238.493 236.952ZM200.373 214.792C202.343 214.672 204.313 214.571 206.283 214.492C205.745 214.635 205.218 214.812 204.703 215.022C203.253 214.952 201.813 214.872 200.373 214.792ZM278.393 214.792C271.893 215.162 265.393 215.412 258.893 215.542C252.703 215.682 246.523 215.731 240.343 215.752H238.423C237.643 215.752 236.873 215.742 236.093 215.742C236.173 214.912 235.763 214.362 234.603 214.302C233.581 214.274 232.583 214.606 231.783 215.242C231.603 215.382 231.403 215.532 231.173 215.702C225.103 215.662 219.036 215.545 212.973 215.352C212.948 215.136 212.88 214.928 212.774 214.739C212.667 214.55 212.524 214.384 212.353 214.252C221.043 213.952 229.733 213.862 238.423 213.832H240.343C246.523 213.852 252.703 213.902 258.893 214.042C265.393 214.162 271.893 214.412 278.393 214.792Z" fill="#18181B"/>
<path d="M216.813 189.622C216.813 189.623 216.813 189.624 216.812 189.625C216.812 189.627 216.811 189.628 216.81 189.629C216.809 189.63 216.808 189.63 216.807 189.631C216.805 189.631 216.804 189.632 216.803 189.632C215.877 191.38 215.156 193.229 214.653 195.142C214.643 195.162 214.643 195.192 214.633 195.212C213.883 198.102 214.253 198.632 213.263 201.481C212.703 203.092 212.203 204.021 212.483 205.352C212.749 206.189 213.087 207.002 213.493 207.782C213.613 208.032 213.733 208.302 213.873 208.602C214.563 210.122 214.733 210.481 214.583 210.942C214.393 211.502 213.953 211.572 213.143 212.062C212.857 212.228 212.586 212.419 212.333 212.632C211.853 212.993 211.41 213.401 211.013 213.852C208.015 213.82 205.063 214.59 202.463 216.082C201.843 216.432 201.173 216.782 200.453 217.152H200.443C200.413 216.722 200.403 216.292 200.383 215.862C200.373 215.502 200.373 215.152 200.373 214.792C200.366 209.18 201.573 203.633 203.913 198.532L203.923 198.522H203.933C204.873 196.455 205.998 194.477 207.293 192.612C211.643 188.372 216.333 186.172 217.893 186.182C218.062 186.166 218.23 186.216 218.363 186.322C218.713 186.672 217.873 187.632 216.813 189.622ZM278.393 214.792C278.393 215.122 278.393 215.452 278.373 215.782C278.373 216.062 278.353 216.332 278.343 216.612C278.343 216.662 278.333 216.712 278.333 216.762C278.331 217.052 278.314 217.343 278.283 217.632C277.93 222.629 276.609 227.509 274.393 232.002C274.365 232.019 274.335 232.032 274.303 232.042V232.052C274.041 232.176 273.761 232.257 273.473 232.292C273.137 232.326 272.797 232.288 272.476 232.181C272.156 232.074 271.861 231.901 271.613 231.672C271.603 231.662 271.593 231.642 271.573 231.632C270.763 230.742 271.413 229.502 271.153 227.642C270.933 226.102 270.123 225.012 268.513 222.842C267.812 221.845 267.029 220.908 266.173 220.042C265.583 219.472 265.033 219.122 264.643 219.282C264.153 219.502 264.003 220.542 264.183 221.302C264.453 222.442 265.373 222.542 265.573 223.462C265.843 224.672 264.613 226.072 263.563 226.712C262.977 227.106 262.298 227.342 261.594 227.396C260.889 227.451 260.183 227.321 259.543 227.022C258.103 226.182 258.143 224.392 257.373 224.392C256.763 224.402 256.223 225.522 256.133 226.402C256.062 226.952 256.156 227.511 256.404 228.008C256.651 228.504 257.041 228.917 257.523 229.192C258.513 229.612 259.153 228.742 260.313 229.192C260.66 229.306 260.971 229.509 261.215 229.781C261.459 230.053 261.627 230.384 261.703 230.742C261.753 231.692 260.453 232.432 258.763 233.372C256.833 234.442 256.233 234.392 253.963 235.542C253.743 235.652 253.543 235.752 253.353 235.852C252.465 236.26 251.632 236.778 250.873 237.392C249.313 238.672 249.463 239.242 247.933 240.492C246.934 241.419 245.704 242.061 244.373 242.352C243.163 242.552 242.913 242.182 240.813 242.042C240.337 242.007 239.86 241.997 239.383 242.012C238.464 242.024 237.546 242.084 236.633 242.192C235.564 242.297 234.505 242.481 233.463 242.742C238.823 240.012 239.533 235.882 237.303 234.902C237.303 234.902 243.643 230.092 238.893 227.282C238.893 227.282 246.573 218.142 237.903 221.002C237.182 221.249 236.496 221.588 235.863 222.012C235.593 222.182 235.283 222.392 234.933 222.612L233.903 219.992V219.982C235.933 217.222 237.293 214.432 234.603 214.302C233.581 214.274 232.583 214.607 231.783 215.242C231.163 215.712 230.273 216.372 229.153 217.132L226.883 214.792C226.364 213.948 226.046 212.997 225.953 212.012C225.911 210.924 226.096 209.84 226.495 208.828C226.895 207.816 227.5 206.898 228.273 206.132C229.698 204.622 231.522 203.547 233.533 203.032C235.11 202.421 236.814 202.208 238.493 202.412C238.773 202.462 239.073 202.522 239.383 202.602C240.363 202.832 241.373 203.172 241.893 203.342C242.777 203.743 243.718 204.006 244.683 204.122C245.943 204.182 246.293 203.802 246.843 204.122C247.533 204.502 247.423 205.302 247.933 207.212C248.443 209.102 248.863 210.702 249.943 211.082C250.753 211.362 251.193 210.702 252.113 211.082C252.713 211.332 252.713 211.692 253.653 212.632C254.483 213.452 254.903 213.862 255.513 214.022C256.094 214.154 256.702 214.107 257.256 213.885C257.81 213.664 258.283 213.279 258.613 212.782C258.733 212.572 258.953 212.132 258.763 210.312C258.533 208.012 258.423 206.862 257.683 206.132C256.783 205.242 256.083 205.892 253.963 205.202C251.533 204.412 251.713 203.312 249.013 202.262C247.203 201.562 246.723 201.892 245.303 201.022C244.153 200.322 242.693 199.022 242.973 198.232C243.283 197.392 245.283 198.042 246.073 196.842C246.693 195.912 245.833 195.002 246.533 193.742C246.943 193.022 247.793 192.332 248.393 192.512C249.053 192.702 248.803 193.772 249.633 195.142C250.401 196.313 251.549 197.185 252.883 197.612C253.893 197.982 255.143 198.442 256.133 197.772C257.013 197.182 257.503 195.832 257.063 195.142C256.493 194.252 254.763 195.012 254.273 194.212C254.192 194.02 254.151 193.814 254.153 193.606C254.155 193.398 254.199 193.192 254.283 193.002C254.412 192.559 254.648 192.155 254.971 191.825C255.294 191.495 255.693 191.25 256.133 191.112C256.643 191.032 257.163 191.222 260.163 193.742C260.323 193.882 260.483 194.012 260.623 194.132L260.633 194.142C262.223 195.492 262.513 195.792 263.103 195.762C263.298 195.749 263.491 195.705 263.673 195.632C263.989 195.499 264.28 195.313 264.533 195.082C265.24 194.392 265.804 193.57 266.193 192.662C266.703 191.482 266.503 191.002 266.813 190.802C267.533 190.342 270.103 191.882 272.803 194.652C273.559 195.903 274.241 197.199 274.843 198.532C276.805 202.792 277.977 207.373 278.303 212.052C278.333 212.502 278.353 212.962 278.373 213.422C278.383 213.872 278.393 214.332 278.393 214.792ZM164.274 8.93201C164.833 11.2068 165.264 13.5114 165.563 15.8348C165.893 18.1431 166.106 20.4599 166.298 22.7784C166.451 25.0997 166.58 27.4229 166.593 29.7546C166.638 32.0968 166.55 34.4398 166.328 36.772C165.766 34.4977 165.335 32.1931 165.036 29.8694C164.706 27.5611 164.493 25.2443 164.304 22.9256C164.153 20.6041 164.024 18.2809 164.012 15.9492C163.967 13.6071 164.054 11.2643 164.274 8.93201ZM178.693 38.692C179.226 36.3208 179.889 33.9805 180.678 31.6816C181.432 29.382 182.294 27.1261 183.178 24.8787C184.096 22.6452 185.038 20.4211 186.088 18.2405C187.112 16.0362 188.257 13.8901 189.518 11.812C188.986 14.1839 188.325 16.5246 187.535 18.8235C186.781 21.1229 185.918 23.3788 185.032 25.6253C184.112 27.8579 183.17 30.082 182.12 32.2624C181.095 34.4664 179.951 36.6128 178.693 38.692ZM142.362 14.212C143.6 16.0805 144.726 18.0206 145.735 20.0222C146.768 21.9986 147.693 24.0216 148.598 26.0537C149.468 28.1007 150.316 30.1576 151.057 32.261C151.832 34.364 152.481 36.5115 153.001 38.692C151.761 36.8247 150.633 34.8849 149.625 32.883C148.593 30.9063 147.667 28.8833 146.765 26.8503C145.897 24.8023 145.049 22.7454 144.309 20.6418C143.534 18.5388 142.884 16.3918 142.362 14.212ZM49.2283 176.785C48.3337 176.558 47.4231 176.398 46.5043 176.309C46.0695 176.254 45.6278 176.298 45.2125 176.438C44.8193 176.58 44.9433 177.012 45.1609 177.388C45.6687 178.138 46.2766 178.815 46.9678 179.401C47.6419 180.021 48.3565 180.612 49.0825 181.166C49.1478 181.216 49.1907 181.289 49.2016 181.371C49.2126 181.452 49.1907 181.535 49.1409 181.6C49.1072 181.643 49.0632 181.676 49.0129 181.697C48.9627 181.718 48.9079 181.726 48.8539 181.719C46.962 181.509 45.1795 180.726 43.7455 179.474C43.0186 178.846 42.4153 178.089 41.9665 177.24C41.7296 176.799 41.5605 176.325 41.4649 175.834C41.4095 175.549 41.4153 175.255 41.482 174.971C41.5312 174.79 41.6208 174.622 41.7442 174.48C41.7823 174.411 41.8181 174.388 41.8751 174.28C42.7096 172.761 43.4216 171.044 44.1462 169.396L46.274 164.385C46.9875 162.71 47.7102 161.056 48.322 159.361C48.9515 157.666 49.4625 155.949 50.0542 154.216L51.7894 149.035C52.3795 147.313 53.1024 145.637 53.7518 143.937C56.3508 137.126 59.6788 130.616 63.6778 124.52C65.697 121.462 68.0805 118.66 70.7758 116.177C71.1161 115.868 71.4477 115.549 71.7958 115.249L72.8865 114.4C73.6098 113.825 74.3675 113.295 75.1555 112.812C76.7374 111.779 78.486 111.026 80.3241 110.587L80.2217 110.612C83.3468 109.681 86.5705 109.121 89.8263 108.942C93.0466 108.68 96.2721 108.597 99.4917 108.594C102.712 108.595 105.929 108.658 109.144 108.782C112.359 108.934 115.566 109.127 118.777 109.389L118.44 109.503C119.682 108.231 120.828 106.867 121.867 105.423L123.472 103.246C123.986 102.45 124.66 101.77 125.451 101.248C127.094 100.312 129.027 100.02 130.874 100.428C132.678 100.752 134.397 101.442 135.924 102.456C135.93 102.46 135.935 102.465 135.939 102.471C135.943 102.477 135.946 102.484 135.948 102.491C135.949 102.498 135.949 102.505 135.948 102.512C135.947 102.52 135.944 102.526 135.94 102.532C135.931 102.544 135.918 102.552 135.904 102.555C135.889 102.558 135.874 102.555 135.862 102.548C134.318 101.627 132.602 101.031 130.82 100.797C129.081 100.502 127.294 100.837 125.78 101.743C125.071 102.244 124.476 102.89 124.034 103.637L122.493 105.88C121.468 107.409 120.315 108.847 119.046 110.18C119.006 110.22 118.958 110.251 118.905 110.271C118.852 110.291 118.795 110.299 118.738 110.296L118.708 110.294C115.515 110.099 112.307 109.971 109.105 109.885C105.902 109.784 102.698 109.731 99.4967 109.746C96.2949 109.755 93.0985 109.887 89.9146 110.086C86.7498 110.223 83.6118 110.728 80.564 111.591L80.4965 111.609L80.4612 111.616C78.7602 112.029 77.1344 112.706 75.643 113.622C74.8698 114.07 74.1248 114.565 73.4122 115.104L72.3312 115.902C71.9848 116.187 71.6533 116.491 71.3134 116.784C70.6206 117.358 69.9617 117.971 69.34 118.621C68.7216 119.276 68.0623 119.894 67.4755 120.579C66.3271 121.97 65.1254 123.324 64.1167 124.83C59.9605 130.783 56.6159 137.263 54.1713 144.099C53.5795 145.815 52.9153 147.503 52.3838 149.237L50.8218 154.448C50.289 156.171 49.8369 157.963 49.2008 159.677C48.5955 161.408 47.8791 163.094 47.1851 164.769C46.4935 166.451 45.7508 168.112 45.0148 169.777C44.2535 171.444 43.5603 173.089 42.6232 174.745C42.5464 174.87 42.4594 174.989 42.363 175.101C42.3694 175.157 42.3222 175.12 42.3211 175.21C42.2883 175.371 42.2873 175.537 42.3181 175.698C42.3945 176.1 42.5298 176.489 42.7198 176.852C43.1176 177.617 43.6441 178.307 44.2763 178.894C45.5667 180.087 47.191 180.858 48.9317 181.104L48.7031 181.657C47.971 181.062 47.2714 180.447 46.5988 179.789C45.9004 179.14 45.2982 178.395 44.8106 177.575C44.6848 177.345 44.6103 177.09 44.5923 176.828C44.5927 176.678 44.6392 176.532 44.7254 176.409C44.8116 176.287 44.9334 176.194 45.0743 176.143C45.5451 175.999 46.0433 175.969 46.5279 176.055C47.4522 176.193 48.3647 176.401 49.2574 176.678C49.2644 176.68 49.271 176.683 49.2767 176.688C49.2824 176.692 49.2872 176.698 49.2907 176.704C49.2942 176.711 49.2965 176.718 49.2973 176.725C49.2981 176.732 49.2974 176.74 49.2954 176.747C49.2912 176.76 49.282 176.772 49.2695 176.779C49.2571 176.786 49.2423 176.788 49.2283 176.785Z" fill="#18181B"/>
<path d="M240.19 225.395C240.631 224.743 241.024 224.06 241.367 223.352C241.535 223.004 241.669 222.64 241.768 222.266C241.883 221.921 241.89 221.549 241.786 221.201C241.715 221.049 241.603 220.921 241.463 220.831C241.322 220.74 241.159 220.691 240.992 220.689C240.619 220.647 240.242 220.659 239.873 220.725C239.11 220.863 238.362 221.075 237.64 221.358C236.925 221.661 236.246 222.043 235.616 222.498C234.958 222.941 234.283 223.366 233.602 223.78C232.918 224.191 232.227 224.592 231.509 224.956C230.783 225.355 230.007 225.655 229.202 225.85C229.127 225.865 229.05 225.856 228.98 225.825C228.911 225.793 228.854 225.74 228.817 225.674C228.78 225.607 228.765 225.531 228.774 225.455C228.783 225.379 228.816 225.309 228.868 225.253L228.885 225.235C230.552 223.499 232.106 221.657 233.538 219.722L233.449 219.991L233.449 219.982C233.448 219.889 233.476 219.799 233.53 219.723L233.537 219.713C233.981 219.089 234.404 218.452 234.776 217.8C235.155 217.19 235.426 216.521 235.579 215.82C235.673 215.138 235.454 214.931 234.762 214.834C234.084 214.775 233.404 214.914 232.803 215.233C232.488 215.398 232.192 215.596 231.918 215.822C231.605 216.067 231.288 216.297 230.97 216.524C230.33 216.976 229.708 217.451 229.053 217.885C227.751 218.763 226.421 219.596 225.05 220.368C222.309 221.95 219.388 223.197 216.35 224.084C214.802 224.511 213.215 224.78 211.613 224.887C209.979 224.972 208.342 224.809 206.757 224.404C206.638 224.373 206.529 224.312 206.439 224.227C206.349 224.143 206.282 224.037 206.243 223.921C206.204 223.804 206.195 223.679 206.217 223.558C206.238 223.436 206.289 223.322 206.365 223.225L206.377 223.211L210.174 218.455L212.039 216.114C212.119 216 212.173 215.868 212.195 215.73C212.218 215.592 212.208 215.45 212.168 215.316C212.132 215.19 212.068 215.073 211.979 214.976C211.926 214.92 211.868 214.87 211.805 214.825C211.754 214.786 211.698 214.754 211.639 214.729C211.492 214.669 211.334 214.643 211.176 214.65C210.979 214.642 210.698 214.645 210.468 214.65C209.985 214.661 209.503 214.697 209.024 214.752C208.063 214.861 207.116 215.069 206.197 215.375C205.739 215.535 205.288 215.674 204.822 215.85C204.377 216.026 203.94 216.227 203.511 216.447L200.832 217.89C200.722 217.949 200.599 217.981 200.474 217.982L200.453 217.982H200.443L200.818 217.892C195.776 220.411 190.688 222.634 185.89 225.408L184.084 226.46C182.188 227.568 180.119 228.348 177.963 228.768C176.534 229.056 175.079 229.197 173.621 229.19C172.142 229.179 170.762 229.004 169.373 228.902L152.673 227.504L135.978 226.039C124.848 225.076 113.717 224.095 102.581 223.243L98.4061 222.969C97.7074 222.921 97.0199 222.899 96.3341 222.879C95.9201 222.887 95.5108 222.791 95.1427 222.602C94.7935 222.401 94.4927 222.126 94.2616 221.796C93.4955 220.557 92.9959 219.171 92.7946 217.728C92.5476 216.34 92.3795 214.938 92.291 213.53C92.0068 207.932 92.1056 202.32 92.5865 196.735L92.8056 197.056C88.9611 195.874 85.1199 194.66 81.3854 193.151C77.6355 191.681 73.9628 190.022 70.3818 188.179C66.8025 186.334 63.315 184.314 59.8546 182.287C56.393 180.281 52.9001 178.27 49.1071 177.236L49.7649 176.737C49.7724 187.801 50.0063 198.864 50.4666 209.927C50.7068 215.453 51.0135 220.975 51.4661 226.481C51.564 227.859 51.7017 229.232 51.8306 230.606C51.9514 231.981 52.0947 233.352 52.2603 234.72C52.4185 236.092 52.5411 237.471 52.7943 238.765C53.0399 240.074 53.4036 241.359 53.8812 242.603C55.8602 247.603 59.4487 251.802 64.0798 254.535C66.3757 255.918 68.8565 256.967 71.4478 257.651C72.7436 257.996 74.0606 258.256 75.3903 258.428C76.7291 258.593 78.1255 258.703 79.4901 258.843L83.6066 259.237L87.7332 259.504C90.4822 259.719 93.2388 259.778 95.9929 259.89C98.747 260.016 101.505 259.965 104.261 260.012C107.016 259.944 109.775 259.954 112.528 259.806C123.551 259.357 134.528 258.12 145.375 256.105C150.789 255.1 156.235 253.953 161.715 253.042C167.192 252.114 172.683 251.336 178.176 250.592C189.159 249.088 200.164 247.811 211.15 246.439C216.638 245.736 222.137 245.048 227.564 244.074L229.582 243.667C230.257 243.534 230.883 243.314 231.539 243.143C232.165 242.897 232.785 242.625 233.399 242.344C234.002 242.039 234.583 241.693 235.138 241.309C236.249 240.567 237.162 239.565 237.798 238.39C238.102 237.825 238.238 237.184 238.19 236.544C238.163 236.243 238.057 235.954 237.884 235.706C237.711 235.457 237.476 235.259 237.203 235.129C237.166 235.112 237.133 235.086 237.109 235.053C237.084 235.021 237.067 234.983 237.061 234.942C237.054 234.902 237.057 234.86 237.07 234.822C237.084 234.783 237.106 234.748 237.136 234.72L237.151 234.705C237.75 234.21 238.322 233.683 238.864 233.126C239.39 232.56 239.827 231.917 240.16 231.219C240.331 230.886 240.436 230.522 240.466 230.148C240.497 229.775 240.454 229.399 240.338 229.042C240.034 228.338 239.502 227.757 238.828 227.393C238.813 227.384 238.8 227.372 238.79 227.359C238.78 227.345 238.773 227.329 238.768 227.313C238.764 227.296 238.764 227.279 238.766 227.262C238.769 227.245 238.774 227.229 238.783 227.214L238.794 227.199L240.191 225.395L240.196 225.388C240.212 225.368 240.235 225.354 240.261 225.35C240.287 225.347 240.314 225.354 240.335 225.37C240.356 225.386 240.369 225.409 240.373 225.435C240.377 225.461 240.371 225.487 240.355 225.509L238.992 227.364L238.958 227.171C239.699 227.551 240.289 228.17 240.634 228.927C240.774 229.323 240.835 229.742 240.813 230.161C240.791 230.58 240.686 230.99 240.505 231.369C240.175 232.113 239.732 232.803 239.193 233.413C238.645 234.007 238.065 234.569 237.454 235.098L237.403 234.674C237.761 234.834 238.072 235.083 238.305 235.398C238.538 235.714 238.686 236.084 238.734 236.473C238.814 237.219 238.678 237.973 238.342 238.645C237.691 239.935 236.733 241.046 235.552 241.879C234.979 242.298 234.378 242.677 233.753 243.013C233.119 243.325 232.475 243.626 231.822 243.901C231.143 244.1 230.463 244.352 229.782 244.504L227.74 244.968C222.28 246.045 216.795 246.828 211.311 247.627L178.409 252.243C172.934 253.044 167.464 253.879 162.031 254.859C159.309 255.317 156.606 255.904 153.898 256.429C151.193 256.988 148.473 257.568 145.741 258.075C134.804 260.133 123.734 261.406 112.615 261.884C101.496 262.386 90.3544 262.049 79.2855 260.877C77.8966 260.726 76.5316 260.612 75.1234 260.43C73.7075 260.238 72.3057 259.953 70.9271 259.577C68.1594 258.828 65.5122 257.69 63.0651 256.195C58.0904 253.215 54.2507 248.661 52.1528 243.255C51.6455 241.909 51.2609 240.52 51.0037 239.104C50.7368 237.677 50.622 236.293 50.4752 234.913C50.3244 233.53 50.1979 232.145 50.0954 230.761C49.9834 229.376 49.8627 227.992 49.7822 226.606C49.3984 221.067 49.1624 215.524 48.9928 209.982C48.6588 198.896 48.5681 187.811 48.7208 176.726L48.7209 176.716C48.7218 176.648 48.7359 176.581 48.7626 176.519C48.7893 176.457 48.828 176.401 48.8764 176.354C48.9249 176.306 48.9821 176.269 49.045 176.244C49.1078 176.219 49.1749 176.206 49.2426 176.207C49.2887 176.208 49.3344 176.215 49.3788 176.227C53.3508 177.373 56.8607 179.476 60.3012 181.529C63.7455 183.6 67.1669 185.68 70.7212 187.526C74.2716 189.376 77.9141 191.044 81.6344 192.523C85.3404 194.043 89.1575 195.271 92.9799 196.467C93.0473 196.488 93.1056 196.531 93.1454 196.589C93.1851 196.648 93.2041 196.718 93.1991 196.788C92.721 202.339 92.6487 207.918 92.9829 213.479C93.0788 214.859 93.2527 216.233 93.5039 217.593C93.697 218.922 94.1584 220.198 94.86 221.343C95.0291 221.587 95.2498 221.789 95.5064 221.937C95.7618 222.066 96.046 222.128 96.3318 222.115C97.0423 222.13 97.7508 222.149 98.446 222.191L102.635 222.426C113.794 223.091 124.94 223.876 136.087 224.659L152.805 225.859L169.514 227.17C170.911 227.266 172.31 227.431 173.626 227.43C174.963 227.43 176.297 227.294 177.607 227.023C178.914 226.753 180.189 226.347 181.411 225.813C182.022 225.546 182.617 225.247 183.195 224.915L185.016 223.87C189.918 221.079 195.102 218.853 200.068 216.411L200.079 216.405C200.193 216.35 200.317 216.322 200.443 216.321H200.453L200.074 216.413L202.764 214.987C203.239 214.746 203.726 214.526 204.226 214.331C204.71 214.152 205.23 213.992 205.73 213.822C206.742 213.496 207.785 213.274 208.843 213.161C209.372 213.103 209.903 213.068 210.435 213.059C210.712 213.056 210.939 213.052 211.249 213.065C211.6 213.068 211.946 213.141 212.269 213.278C212.443 213.354 212.607 213.45 212.758 213.565C212.9 213.671 213.031 213.79 213.15 213.92C213.403 214.201 213.586 214.538 213.685 214.903C213.783 215.259 213.801 215.632 213.738 215.996C213.675 216.36 213.533 216.705 213.321 217.007L211.379 219.417L207.549 224.152L207.169 222.959C208.597 223.332 210.072 223.496 211.548 223.448C213.051 223.37 214.542 223.14 215.999 222.764C218.947 221.951 221.788 220.789 224.461 219.301C225.811 218.569 227.129 217.772 228.418 216.932C229.065 216.519 229.687 216.059 230.323 215.625C230.642 215.406 230.956 215.184 231.259 214.954C231.591 214.693 231.948 214.465 232.325 214.274C233.114 213.875 234.002 213.712 234.882 213.806C235.405 213.842 235.895 214.078 236.25 214.464C236.408 214.678 236.518 214.923 236.572 215.183C236.626 215.443 236.624 215.712 236.565 215.971C236.384 216.791 236.06 217.573 235.607 218.281C235.198 218.961 234.751 219.618 234.269 220.25L234.357 219.982L234.357 219.991L234.356 220.005C234.355 220.098 234.324 220.188 234.268 220.262C232.765 222.193 231.139 224.025 229.401 225.748L229.084 225.133C230.569 224.708 231.986 224.076 233.294 223.255C233.977 222.863 234.654 222.459 235.321 222.034C235.99 221.577 236.708 221.197 237.462 220.9C238.224 220.623 239.011 220.421 239.812 220.297C240.226 220.237 240.646 220.238 241.06 220.301C241.29 220.32 241.511 220.403 241.697 220.539C241.884 220.675 242.03 220.86 242.118 221.074C242.237 221.493 242.222 221.938 242.074 222.347C241.958 222.736 241.805 223.114 241.616 223.473C241.245 224.181 240.823 224.861 240.355 225.508C240.34 225.53 240.317 225.544 240.291 225.549C240.265 225.553 240.238 225.547 240.217 225.533C240.195 225.518 240.18 225.495 240.175 225.469C240.17 225.443 240.176 225.417 240.19 225.395V225.395Z" fill="#18181B"/>
<path d="M229.457 225.95C227.948 226.834 226.426 227.65 224.861 228.398C223.312 229.173 221.69 229.792 220.018 230.246C221.618 229.621 223.151 228.839 224.595 227.91C226.05 227.011 227.472 226.038 228.836 225.028L228.844 225.022C228.962 224.934 229.111 224.897 229.257 224.919C229.403 224.941 229.534 225.02 229.622 225.138C229.71 225.257 229.747 225.406 229.726 225.552C229.704 225.698 229.625 225.829 229.507 225.917C229.491 225.929 229.474 225.94 229.457 225.95ZM239.223 227.734C236.638 229.492 234.021 231.178 231.338 232.769C229.994 233.559 228.64 234.335 227.24 235.026C226.546 235.382 225.833 235.702 225.106 235.986C224.746 236.137 224.375 236.261 223.996 236.357C223.622 236.466 223.235 236.526 222.845 236.535C223.232 236.503 223.612 236.421 223.977 236.29C224.346 236.173 224.706 236.029 225.053 235.858C225.756 235.534 226.442 235.174 227.109 234.781C228.455 234.013 229.753 233.163 231.041 232.299C233.608 230.563 236.116 228.726 238.565 226.837L238.57 226.833C238.687 226.743 238.835 226.703 238.982 226.722C239.128 226.741 239.261 226.817 239.351 226.934C239.441 227.051 239.481 227.199 239.462 227.345C239.443 227.491 239.367 227.624 239.25 227.714L239.223 227.734ZM237.661 235.332C236.652 236.069 235.594 236.736 234.492 237.326C233.408 237.918 232.291 238.447 231.145 238.91C228.872 239.844 226.493 240.498 224.061 240.858C226.438 240.321 228.739 239.496 230.916 238.403C232 237.866 233.052 237.267 234.066 236.608C235.074 235.966 236.037 235.254 236.947 234.479L236.965 234.464C237.02 234.415 237.084 234.379 237.154 234.355C237.223 234.332 237.296 234.322 237.37 234.328C237.443 234.333 237.514 234.352 237.58 234.385C237.645 234.418 237.704 234.463 237.752 234.518C237.8 234.574 237.836 234.638 237.86 234.708C237.883 234.777 237.892 234.851 237.886 234.924C237.881 234.997 237.861 235.068 237.828 235.134C237.795 235.199 237.75 235.258 237.694 235.305C237.684 235.314 237.672 235.324 237.661 235.332ZM210.612 193.531C210.53 193.531 210.448 193.511 210.376 193.472C210.303 193.433 210.241 193.376 210.195 193.308L205.878 186.786C205.841 186.731 205.816 186.67 205.804 186.606C205.791 186.541 205.791 186.475 205.804 186.41C205.817 186.346 205.843 186.285 205.88 186.23C205.916 186.176 205.964 186.129 206.018 186.093C206.073 186.057 206.134 186.031 206.199 186.019C206.263 186.006 206.33 186.006 206.394 186.02C206.459 186.033 206.52 186.058 206.574 186.095C206.629 186.132 206.675 186.179 206.712 186.233L211.029 192.755C211.102 192.866 211.128 193.001 211.102 193.131C211.076 193.261 210.999 193.375 210.888 193.448C210.807 193.503 210.71 193.532 210.612 193.531ZM232.842 177.231C232.759 177.231 232.678 177.211 232.605 177.172C232.532 177.133 232.47 177.077 232.425 177.008L228.106 170.486C228.07 170.432 228.045 170.37 228.032 170.306C228.02 170.241 228.02 170.175 228.033 170.111C228.046 170.046 228.072 169.985 228.108 169.93C228.145 169.876 228.192 169.829 228.247 169.793C228.302 169.757 228.363 169.732 228.427 169.719C228.492 169.706 228.558 169.707 228.623 169.72C228.687 169.733 228.748 169.758 228.803 169.795C228.857 169.832 228.904 169.879 228.94 169.934L233.259 176.455C233.309 176.53 233.337 176.618 233.341 176.708C233.346 176.799 233.325 176.888 233.283 176.968C233.24 177.048 233.176 177.114 233.098 177.161C233.021 177.207 232.932 177.232 232.842 177.231Z" fill="#18181B"/>
</svg>
