<svg width="493" height="249" viewBox="0 0 493 249" fill="none" xmlns="http://www.w3.org/2000/svg">
<path d="M294.323 96.495C293.571 92.6138 292.133 88.8978 290.076 85.522C288.999 83.8943 287.781 82.3925 285.992 81.9287C284.161 81.472 282.25 81.4447 280.407 81.8489C278.488 82.1644 276.561 82.6835 274.563 83.0593C273.543 83.2697 272.508 83.3968 271.467 83.4395C270.325 83.5102 269.185 83.2773 268.163 82.7643C267.128 82.2137 266.283 81.3654 265.736 80.3291C265.238 79.3638 264.897 78.3255 264.725 77.2532C264.632 76.7544 264.566 76.2061 264.482 75.8178C264.372 75.4176 264.203 75.0361 263.98 74.6862C263.489 73.8932 262.906 73.1607 262.244 72.5037L262.723 71.2774C262.72 71.2738 262.715 71.2711 262.71 71.2693C262.705 71.2676 262.7 71.2669 262.695 71.2673C262.69 71.2677 262.685 71.2691 262.68 71.2715C262.676 71.274 262.672 71.2773 262.668 71.2814C262.677 71.2815 262.728 71.2471 262.757 71.2341C262.847 71.1855 262.932 71.1284 263.012 71.0637C263.209 70.9094 263.397 70.7438 263.575 70.5679C263.95 70.2064 264.316 69.8096 264.673 69.4027C265.386 68.5907 266.075 67.7322 266.734 66.871L267.504 67.623C267.383 67.692 267.255 67.7488 267.123 67.7925L266.855 67.8433C266.675 67.8767 266.53 67.8763 266.366 67.8937C266.054 67.909 265.749 67.9155 265.449 67.9112C264.847 67.9054 264.253 67.8802 263.661 67.8443C262.476 67.7772 261.303 67.6673 260.124 67.5582L260.117 67.5576C260.048 67.5512 259.983 67.5255 259.928 67.4837C259.873 67.4418 259.831 67.3854 259.806 67.3208C259.627 66.8421 259.421 66.3739 259.189 65.9186C258.958 65.4894 258.683 64.9888 258.374 64.8676C257.456 64.5161 256.388 64.2866 255.384 64.0055C254.338 63.7512 253.308 63.4367 252.298 63.0635C252.146 62.9843 252.013 62.8725 251.909 62.736C251.805 62.5994 251.733 62.4416 251.697 62.2738C251.637 61.977 251.635 61.6711 251.694 61.3738C251.798 60.831 251.969 60.3034 252.204 59.8032C253.146 57.8962 254.247 56.072 255.496 54.35C256.089 53.5251 256.554 52.6154 256.875 51.6517C257.194 50.7432 257.274 49.768 257.108 48.8197L257.123 48.8648C256.474 47.1526 256.019 45.3733 255.765 43.5601C255.489 41.7715 255.317 39.9683 255.252 38.1596C255.172 36.3562 255.168 34.5538 255.212 32.7536C255.255 30.9493 255.34 29.1626 255.511 27.3471C255.53 27.1512 255.614 26.9673 255.75 26.825C255.885 26.6827 256.065 26.5903 256.26 26.5627C256.455 26.5351 256.653 26.574 256.823 26.673C256.993 26.772 257.125 26.9254 257.197 27.1085L257.211 27.1427C258.266 29.8038 259.518 32.3826 260.956 34.8579C262.373 37.3264 264.028 39.6499 265.899 41.7949C267.688 43.9155 269.906 45.6324 272.408 46.8321C273.627 47.3922 274.942 47.713 276.282 47.7771C277.624 47.8191 278.963 47.6395 280.246 47.2455L279.633 47.9806C279.887 46.5347 280.341 45.1311 280.981 43.8098C281.315 43.1186 281.742 42.4767 282.25 41.9022C282.814 41.2727 283.541 40.8125 284.351 40.5731C284.77 40.4742 285.201 40.4363 285.631 40.4606C286.04 40.5025 286.441 40.5955 286.827 40.7374C287.565 40.9977 288.247 41.3961 288.837 41.9113C289.95 42.9313 290.739 44.2558 291.106 45.7203C291.531 47.0578 291.864 48.4227 292.104 49.8055C292.369 51.2046 292.424 52.6353 292.269 54.0508C292.219 54.7875 292.004 55.5035 291.639 56.1451C291.274 56.7868 290.768 57.3376 290.16 57.7562C288.88 58.41 287.409 58.5883 286.01 58.2592C285.985 58.2552 285.963 58.2415 285.948 58.221C285.933 58.2006 285.927 58.1751 285.931 58.1502C285.936 58.1265 285.949 58.1053 285.968 58.0906C285.987 58.0758 286.01 58.0686 286.034 58.0704C287.363 58.2621 288.718 57.9984 289.878 57.3222C290.379 56.9196 290.783 56.4083 291.059 55.8267C291.334 55.2451 291.473 54.6086 291.466 53.9653C291.477 51.2748 290.954 48.6088 289.928 46.1216C289.569 44.9107 288.865 43.8306 287.902 43.0132C287.44 42.6344 286.91 42.3471 286.34 42.1669C286.078 42.0782 285.806 42.022 285.529 41.9996C285.401 41.9908 285.271 41.9997 285.144 42.0262C285.022 42.0546 284.884 42.0185 284.771 42.0908C284.248 42.3257 283.778 42.665 283.39 43.0879C283.002 43.5108 282.705 44.0084 282.516 44.5502C281.994 45.7286 281.635 46.9723 281.448 48.2475L281.447 48.2525C281.421 48.4185 281.35 48.5743 281.242 48.7031C281.134 48.8318 280.993 48.9285 280.834 48.9828C279.346 49.5026 277.777 49.749 276.201 49.7101C274.622 49.6567 273.067 49.3028 271.619 48.6673C268.825 47.3891 266.352 45.5011 264.383 43.142C262.429 40.8854 260.724 38.4251 259.296 35.8034C257.85 33.2132 256.601 30.5182 255.559 27.7411L257.258 27.5367C257.071 29.2743 256.938 31.0537 256.836 32.8171C256.739 34.5846 256.688 36.3552 256.712 38.1213C256.74 39.8862 256.783 41.6543 256.985 43.3987C257.142 45.1357 257.498 46.8491 258.044 48.5053L258.057 48.5392L258.06 48.551C258.244 49.6898 258.116 50.8573 257.69 51.9294C257.304 52.952 256.766 53.9106 256.095 54.773C254.834 56.4333 253.723 58.2023 252.775 60.059C252.555 60.5084 252.391 60.9834 252.288 61.473C252.19 61.9494 252.248 62.3992 252.582 62.5592C253.047 62.7509 253.526 62.9066 254.015 63.0249L255.536 63.4264C256.562 63.6975 257.559 63.9115 258.624 64.2699C258.784 64.3305 258.931 64.4235 259.054 64.543C259.164 64.6471 259.264 64.7611 259.353 64.8836C259.518 65.1081 259.668 65.3436 259.801 65.5886C260.062 66.0632 260.296 66.5524 260.501 67.0538L260.184 66.8166C261.35 66.8863 262.525 66.9217 263.692 66.9335C264.275 66.9395 264.858 66.9346 265.432 66.9112C265.72 66.9009 266.002 66.8801 266.278 66.8528C266.405 66.832 266.556 66.8226 266.663 66.7938L266.827 66.756C266.845 66.7421 266.835 66.7421 266.851 66.7517L267.549 67.1723C267.575 67.1881 267.598 67.2089 267.616 67.2335C267.634 67.2581 267.648 67.2861 267.655 67.3158C267.662 67.3455 267.664 67.3764 267.659 67.4067C267.655 67.437 267.644 67.466 267.628 67.4923L267.621 67.5041C266.985 68.4284 266.335 69.3254 265.634 70.2065C265.284 70.6472 264.922 71.081 264.523 71.5051C264.319 71.7267 264.102 71.9364 263.874 72.133C263.743 72.2478 263.603 72.3507 263.455 72.4406C263.367 72.4963 263.275 72.5457 263.18 72.5885C263.032 72.6385 262.879 72.6729 262.724 72.6911L263.203 71.465C263.995 72.1755 264.7 72.9785 265.3 73.8569C265.628 74.34 265.877 74.8722 266.037 75.4336C266.177 76.0164 266.233 76.4604 266.337 76.939C266.509 77.8344 266.806 78.7011 267.22 79.5138C267.609 80.2536 268.213 80.8583 268.953 81.2482C270.405 82.0327 272.36 81.7911 274.28 81.4731C276.209 81.15 278.151 80.6654 280.175 80.3701C282.251 79.9454 284.4 80.0513 286.424 80.678C286.937 80.8662 287.43 81.1058 287.895 81.3932L288.542 81.8957C288.764 82.0531 288.963 82.2393 289.136 82.4493L289.676 83.0508C289.841 83.256 289.979 83.4704 290.131 83.6797C290.44 84.0931 290.697 84.5368 290.963 84.9743C291.98 86.7334 292.774 88.6129 293.324 90.5689C293.904 92.4945 294.301 94.4704 294.511 96.4705C294.513 96.4829 294.511 96.4954 294.508 96.5074C294.504 96.5193 294.498 96.5305 294.49 96.5401C294.482 96.5498 294.473 96.5578 294.462 96.5637C294.451 96.5696 294.438 96.5732 294.426 96.5745C294.402 96.5758 294.379 96.5685 294.36 96.5539C294.341 96.5393 294.328 96.5184 294.323 96.495Z" fill="#18181B"/>
<path d="M287.507 59.0783C285.962 61.9428 285.515 65.2731 286.251 68.4437C287.507 73.6974 285.438 81.07 285.438 81.07C285.438 81.07 280.198 99.7376 295.616 96.4826C311.035 93.2276 335.362 84.833 339.645 67.8726C339.645 67.8726 334.948 55.8247 332.278 51.9401C326.268 43.1937 316.175 20.2464 311.206 16.82C310.095 15.0936 308.648 13.6086 306.951 12.4535C301.808 8.70888 295.46 7.00082 289.132 7.65855C279.817 8.52535 264.817 12.3756 256.385 27.4417C256.385 27.4417 264.547 52.846 280.541 48.114C280.541 48.114 281.801 39.1289 287.298 41.8302C288.731 42.5736 289.831 43.8299 290.378 45.3485C291.833 49.1485 294.141 57.4133 287.507 59.0783Z" fill="#18181B"/>
<path d="M258.44 48.1711C258.79 47.6101 259.23 47.1102 259.741 46.6914C260.244 46.2622 260.799 45.8974 261.393 45.6053C261.997 45.3117 262.644 45.1135 263.309 45.0179C263.98 44.9212 264.665 45.0043 265.293 45.2587C264.08 45.4916 262.906 45.8967 261.807 46.4615C260.701 46.9883 259.64 47.6116 258.44 48.1711ZM262.723 53.1964C263.093 53.1836 263.444 53.0276 263.701 52.7613C263.959 52.4949 264.102 52.1391 264.102 51.7688C264.102 51.3985 263.959 51.0426 263.701 50.7763C263.444 50.51 263.093 50.3539 262.723 50.3411C262.353 50.3539 262.003 50.51 261.745 50.7763C261.488 51.0426 261.344 51.3985 261.344 51.7688C261.344 52.1391 261.488 52.4949 261.745 52.7613C262.003 53.0276 262.353 53.1836 262.723 53.1964ZM339.648 67.7368C342.943 67.8038 346.223 68.2041 349.437 68.9316C352.663 69.6297 355.834 70.5671 358.921 71.736C362.021 72.8876 365.046 74.2332 367.978 75.7649C369.418 76.5773 370.894 77.3349 372.284 78.2335L374.398 79.5377L376.445 80.9429C381.883 84.7312 386.866 89.1324 391.298 94.0597C395.667 99.0068 399.566 104.351 402.942 110.022C409.542 121.374 414.93 133.387 419.02 145.864C419.586 147.405 420.059 148.974 420.524 150.547L421.953 155.257C422.83 158.422 423.646 161.617 424.453 164.811C425.571 171.258 426.711 177.706 427.771 184.168C427.814 184.436 427.772 184.71 427.649 184.951C427.526 185.193 427.33 185.389 427.088 185.511L427.071 185.52C421.035 188.57 414.844 191.301 408.522 193.703C405.354 194.884 402.157 195.985 398.931 197.004C395.692 197.978 392.444 198.921 389.161 199.731C382.601 201.356 375.958 202.627 369.261 203.538C362.575 204.437 355.844 204.966 349.099 205.123L349.062 205.124C348.916 205.128 348.774 205.073 348.667 204.973C345.631 202.091 342.564 199.244 339.555 196.331C339.53 196.307 339.515 196.274 339.514 196.239C339.512 196.204 339.525 196.17 339.548 196.144C339.571 196.117 339.603 196.101 339.638 196.098C339.673 196.095 339.707 196.105 339.735 196.127C343.007 198.74 346.222 201.42 349.467 204.064L349.036 203.914C355.715 203.41 362.346 202.49 368.932 201.393C375.517 200.28 382.031 198.8 388.467 197.062C394.904 195.325 401.253 193.302 407.513 190.993C413.767 188.69 419.929 186.123 425.935 183.218L425.235 184.569C424.256 178.118 423.357 171.652 422.436 165.186C421.765 162.014 421.128 158.833 420.402 155.663L419.19 150.93C418.792 149.35 418.386 147.771 417.886 146.221L416.457 141.545C415.985 139.984 415.358 138.478 414.816 136.941C413.738 133.863 412.478 130.856 411.165 127.873C408.496 121.929 405.323 116.226 401.679 110.825C398.053 105.453 394.001 100.38 389.562 95.6572C385.168 90.9258 380.327 86.6292 375.109 82.8268C369.887 79.0156 364.257 75.7982 358.323 73.234C352.372 70.6258 346.083 68.8668 339.642 68.0086L339.632 68.0073C339.598 68.0034 339.566 67.9864 339.544 67.9598C339.522 67.9333 339.51 67.8993 339.512 67.8647C339.514 67.8301 339.529 67.7976 339.555 67.7739C339.58 67.7501 339.613 67.7368 339.648 67.7368L339.648 67.7368Z" fill="#18181B"/>
<path d="M421.905 185.499C422.719 186.943 423.381 188.468 423.882 190.049C424.384 191.589 424.791 193.158 425.102 194.747C425.417 196.336 425.634 197.942 425.75 199.558C425.884 201.211 425.845 202.873 425.634 204.518C424.817 203.075 424.153 201.55 423.653 199.969C423.151 198.429 422.745 196.86 422.437 195.27C422.124 193.681 421.909 192.074 421.793 190.458C421.66 188.806 421.697 187.144 421.905 185.499ZM343.855 114.057C344.849 111.261 346.216 108.612 347.919 106.181C349.603 103.703 351.603 101.455 353.869 99.4943C355.024 98.5186 356.255 97.6361 357.549 96.8551C358.861 96.0872 360.246 95.4541 361.686 94.9657C363.129 94.5013 364.623 94.2138 366.136 94.1094C367.63 94.0398 369.126 94.1802 370.58 94.5266C369.132 94.5999 367.692 94.7918 366.275 95.1003C364.898 95.4327 363.553 95.8843 362.256 96.4501C359.694 97.6399 357.315 99.1871 355.189 101.045C354.096 101.957 353.056 102.931 352.075 103.962C351.063 104.972 350.126 106.057 349.178 107.142C347.319 109.345 345.557 111.65 343.855 114.057ZM378.657 99.087C380.364 100.265 381.87 101.71 383.117 103.368C384.395 105.016 385.456 106.821 386.276 108.739C387.114 110.661 387.657 112.699 387.887 114.784C388.145 116.853 388.01 118.951 387.491 120.97C387.21 118.985 386.82 117.017 386.324 115.075C385.823 113.183 385.181 111.332 384.402 109.537C383.629 107.728 382.76 105.962 381.799 104.245C380.82 102.518 379.776 100.818 378.657 99.087ZM267.585 126.808C266.635 130.478 265.615 134.178 264.385 137.788C263.164 141.398 261.845 144.958 260.695 148.568C260.155 150.268 259.635 151.978 259.175 153.698C258.945 153.508 258.715 153.308 258.485 153.118C258.915 151.508 259.385 149.908 259.855 148.308C260.925 144.658 261.985 141.018 262.935 137.358C263.915 133.708 264.645 130.028 265.374 126.308C266.895 118.888 268.535 111.488 270.225 104.098C271.905 96.698 273.675 89.328 275.624 81.978C275.636 81.944 275.66 81.9157 275.692 81.8989C275.723 81.8822 275.76 81.8783 275.795 81.888C275.828 81.8946 275.857 81.9141 275.876 81.9422C275.895 81.9704 275.902 82.0048 275.895 82.0379C274.895 89.5679 273.665 97.0579 272.285 104.518C270.895 111.988 269.414 119.428 267.585 126.808ZM304.435 176.938C303.68 177.162 302.888 177.233 302.105 177.148C301.525 174.908 301.008 172.651 300.555 170.378C299.965 167.478 299.495 164.568 299.105 161.628C298.765 159.008 298.505 156.368 298.425 153.688C294.922 153.148 291.375 152.96 287.835 153.128C283.854 153.28 279.923 154.073 276.195 155.478C273.081 156.681 270.162 158.339 267.535 160.398C266.925 159.948 266.305 159.468 265.675 158.978C268.505 156.486 271.733 154.485 275.225 153.058C279.19 151.446 283.392 150.494 287.664 150.238C291.221 150.04 294.788 150.224 298.305 150.788C297.775 148.038 297.285 145.288 296.855 142.528C296.315 139.098 295.805 135.658 295.365 132.208C294.975 128.748 294.624 125.298 294.405 121.818C294.165 118.347 294.125 114.864 294.285 111.388C294.285 111.37 294.289 111.353 294.297 111.337C294.304 111.321 294.315 111.306 294.328 111.294C294.341 111.282 294.356 111.272 294.373 111.266C294.389 111.26 294.407 111.257 294.425 111.258C294.458 111.262 294.489 111.277 294.512 111.301C294.536 111.324 294.551 111.355 294.555 111.388C294.785 114.838 295.204 118.268 295.695 121.688C296.164 125.108 296.755 128.508 297.385 131.908C297.965 135.308 298.615 138.698 299.305 142.088L301.445 152.208C301.484 152.389 301.488 152.575 301.455 152.757C301.422 152.939 301.354 153.113 301.253 153.268C301.153 153.424 301.022 153.558 300.87 153.662C300.717 153.767 300.546 153.84 300.365 153.878C300.194 153.914 300.018 153.921 299.845 153.898L299.825 153.888C299.475 153.838 299.124 153.798 298.785 153.738C299.707 156.189 300.505 158.686 301.175 161.218C301.955 164.068 302.635 166.948 303.215 169.838C303.695 172.198 304.101 174.565 304.435 176.938ZM268.975 202.528C270.285 203.858 271.615 205.198 272.955 206.518L246.615 206.448C232.435 206.338 218.245 206.298 204.065 206.108C189.885 205.968 175.705 205.771 161.525 205.518L140.245 205.058L129.615 204.828L118.975 204.518L129.615 204.208L140.245 203.978L161.525 203.518C175.705 203.278 189.885 203.081 204.065 202.928C218.245 202.738 232.435 202.698 246.615 202.588L268.975 202.528Z" fill="#18181B"/>
<path d="M459.345 204.518L448.705 204.828L438.075 205.058L416.795 205.508C402.615 205.748 388.435 205.945 374.255 206.098C360.065 206.288 345.885 206.328 331.704 206.438L329.664 206.448C330.985 205.228 332.305 203.948 333.605 202.608C347.155 202.708 360.695 202.758 374.255 202.938C388.435 203.068 402.615 203.265 416.795 203.528L438.075 203.978L448.705 204.208L459.345 204.518ZM147.24 87.5736C146.672 87.2634 145.881 87.0426 145.481 87.4003C145.307 87.632 145.185 87.898 145.123 88.1806C145.06 88.4632 145.058 88.7559 145.118 89.0392C145.265 90.3418 145.554 91.6243 145.981 92.8637C146.771 95.4023 147.782 97.8925 148.784 100.382C149.836 102.867 150.809 105.397 151.839 107.896L154.819 115.436L160.677 130.53C161.681 133.028 162.659 135.54 163.771 137.973C164.289 139.19 164.903 140.364 165.607 141.485C165.937 141.981 166.454 142.599 166.768 142.433C167.003 142.254 167.172 142.002 167.247 141.717C167.362 141.399 167.452 141.073 167.517 140.742C167.533 141.086 167.522 141.432 167.485 141.775C167.471 142.166 167.319 142.539 167.056 142.829C166.962 142.91 166.85 142.968 166.729 142.999C166.608 143.029 166.482 143.03 166.361 143.003C166.153 142.96 165.956 142.879 165.777 142.765C165.467 142.561 165.179 142.325 164.918 142.061C163.97 141.034 163.119 139.921 162.377 138.737C160.917 136.417 159.579 134.022 158.37 131.562C157.119 129.133 156.031 126.636 154.912 124.155C153.835 121.656 152.817 119.135 151.804 116.613C150.845 114.071 149.881 111.532 148.976 108.971C148.104 106.396 147.194 103.844 146.413 101.231C145.571 98.6092 144.912 95.9323 144.44 93.2195C144.194 91.8303 144.122 90.416 144.225 89.009C144.266 88.6388 144.35 88.2747 144.476 87.9243C144.598 87.5274 144.866 87.1917 145.226 86.9857C145.407 86.9053 145.602 86.8653 145.8 86.8685C145.997 86.8716 146.192 86.918 146.369 87.0042C146.69 87.1435 146.984 87.336 147.24 87.5736Z" fill="#18181B"/>
<path d="M144.666 89.1616C147.859 89.5841 151.085 89.7092 154.302 89.5353C157.513 89.4221 160.719 89.1694 163.904 88.7529C170.28 87.9437 176.605 86.7703 182.846 85.2384C189.12 83.8212 195.281 81.9536 201.462 80.137L210.653 77.1346C213.705 76.0912 216.74 74.9949 219.818 73.9943C216.878 75.3352 213.895 76.5807 210.93 77.8789L201.854 81.3195C200.323 81.8422 198.788 82.3575 197.246 82.8531C195.702 83.3387 194.179 83.896 192.614 84.3161C189.492 85.1841 186.385 86.1094 183.218 86.8137C180.07 87.59 176.879 88.182 173.69 88.775C170.48 89.2561 167.272 89.7549 164.031 89.9866C157.584 90.4845 150.986 90.6659 144.666 89.1616ZM230.35 102.473C227.242 103.213 224.202 104.212 221.262 105.461C219.786 106.06 218.317 106.68 216.864 107.332C215.428 108.026 213.965 108.653 212.556 109.401C206.861 112.263 201.32 115.421 195.955 118.863C190.526 122.21 185.332 125.922 180.103 129.59L172.407 135.308C169.864 137.247 167.355 139.231 164.774 141.138C167.116 138.952 169.529 136.843 171.909 134.69L179.354 128.594C180.625 127.616 181.905 126.648 183.192 125.689C184.484 124.736 185.746 123.742 187.078 122.845C189.725 121.025 192.354 119.179 195.092 117.493C197.794 115.753 200.596 114.173 203.386 112.575C206.236 111.083 209.074 109.569 212.025 108.28C217.887 105.682 223.969 103.317 230.35 102.473Z" fill="#18181B"/>
<path d="M217.406 72.496L231.207 104.431L243.873 90.136L236.497 73.068L217.406 72.496Z" fill="#0073A8"/>
<path d="M349.181 182.538C342.972 194.318 334.331 204.644 323.831 212.833C318.572 217.034 312.549 220.179 306.096 222.095C302.828 223.047 299.413 223.391 296.021 223.109C295.172 223.004 294.331 222.85 293.499 222.649C292.671 222.426 291.86 222.143 291.072 221.803C289.554 221.08 288.107 220.216 286.75 219.223C284.083 217.264 281.526 215.162 279.088 212.925C276.644 210.711 274.242 208.456 271.882 206.159L257.611 192.543C252.792 187.989 248.33 183.072 244.264 177.835C240.158 172.698 235.995 167.605 231.945 162.425L233.041 162.977C230.111 162.863 227.208 162.366 224.406 161.501C221.637 160.669 218.946 159.597 216.364 158.297C213.759 156.995 211.307 155.407 209.055 153.562C208.445 153.052 207.891 152.479 207.402 151.852C206.86 151.105 206.535 150.224 206.462 149.305C206.422 148.386 206.651 147.476 207.122 146.686C207.547 145.951 208.109 145.304 208.777 144.779L208.652 146.324L207.723 145.195C207.442 144.787 207.175 144.365 206.918 143.94C206.414 143.031 206.09 142.034 205.965 141.003C205.865 139.933 206.066 138.857 206.544 137.895C207.017 136.954 207.716 136.147 208.579 135.545L209.015 136.899C208.264 136.849 207.534 136.634 206.877 136.269C206.219 135.904 205.651 135.398 205.212 134.788C204.781 134.211 204.476 133.549 204.317 132.846C204.158 132.143 204.148 131.415 204.287 130.708C204.524 129.331 205.264 128.091 206.365 127.23C206.894 126.813 207.501 126.505 208.149 126.323C208.798 126.142 209.476 126.09 210.145 126.172L210.165 126.175C210.2 126.179 210.231 126.197 210.253 126.224C210.275 126.25 210.285 126.285 210.283 126.319C210.28 126.354 210.264 126.386 210.238 126.409C210.213 126.432 210.179 126.445 210.145 126.444C208.899 126.413 207.691 126.87 206.777 127.716C205.89 128.529 205.337 129.644 205.228 130.842C205.16 131.408 205.21 131.981 205.376 132.526C205.542 133.071 205.82 133.575 206.192 134.007C206.53 134.425 206.952 134.766 207.432 135.01C207.912 135.253 208.437 135.392 208.974 135.417C209.128 135.405 209.282 135.442 209.414 135.523C209.546 135.604 209.648 135.726 209.706 135.869C209.764 136.012 209.775 136.17 209.737 136.32C209.699 136.47 209.614 136.604 209.495 136.702L209.41 136.771C208.812 137.261 208.339 137.886 208.031 138.594C207.737 139.286 207.642 140.046 207.757 140.789C207.904 141.557 208.196 142.29 208.616 142.95C208.85 143.286 209.094 143.618 209.34 143.948L210.177 144.892C210.27 144.997 210.342 145.12 210.388 145.254C210.434 145.387 210.454 145.528 210.445 145.669C210.437 145.809 210.401 145.947 210.339 146.074C210.277 146.201 210.191 146.314 210.086 146.408L210.08 146.413L210.052 146.437C209.633 146.806 209.282 147.246 209.018 147.738C208.775 148.167 208.665 148.658 208.701 149.149C208.769 149.632 208.965 150.089 209.268 150.471C209.667 150.932 210.112 151.351 210.594 151.724C212.755 153.359 215.09 154.75 217.557 155.871C220.016 157.05 222.571 158.017 225.195 158.763C227.78 159.505 230.442 159.946 233.128 160.079L233.134 160.079C233.345 160.087 233.551 160.141 233.739 160.236C233.927 160.332 234.093 160.467 234.224 160.631C238.307 165.787 242.277 171.031 246.304 176.231C250.212 181.462 254.455 186.433 259.006 191.115L272.594 205.441C274.881 207.8 277.22 210.103 279.644 212.31C282.04 214.535 284.597 216.58 287.294 218.43C288.618 219.345 290.037 220.115 291.527 220.726C292.267 220.994 293.025 221.209 293.795 221.37C294.571 221.51 295.355 221.606 296.142 221.658C299.331 221.732 302.507 221.226 305.515 220.164C308.55 219.111 311.482 217.782 314.275 216.193C317.097 214.619 319.811 212.859 322.4 210.924C332.784 203.148 341.552 193.249 348.948 182.398C348.968 182.369 348.998 182.348 349.032 182.341C349.066 182.333 349.102 182.339 349.132 182.357C349.162 182.375 349.183 182.404 349.193 182.438C349.202 182.472 349.198 182.508 349.181 182.538L349.181 182.538Z" fill="#18181B"/>
<path d="M210.155 126.444L210.135 126.445H210.133L210.097 126.44C208.547 126.26 207.039 125.817 205.638 125.131C204.863 124.755 204.211 124.165 203.759 123.43C203.543 123.015 203.423 122.555 203.408 122.087C203.393 121.618 203.484 121.152 203.673 120.724C204.304 119.108 205.541 117.803 207.121 117.087C207.883 116.731 208.687 116.476 209.514 116.327C210.399 116.123 211.32 116.124 212.205 116.33C215.135 117.15 218.071 117.953 220.989 118.813C223.909 119.668 226.832 120.511 229.735 121.422L228.276 123.059C227.705 121.754 227.182 120.429 226.637 119.113L226.616 119.063C226.503 118.789 226.503 118.48 226.617 118.205C226.73 117.93 226.949 117.712 227.224 117.598C227.398 117.527 227.586 117.5 227.773 117.519C229.943 117.754 232.093 118.142 234.208 118.679C235.299 118.944 236.362 119.307 237.387 119.764C237.66 119.889 237.923 120.034 238.175 120.196L238.566 120.459C238.699 120.571 238.827 120.691 238.948 120.817C239.076 120.93 239.184 121.066 239.265 121.217C239.352 121.35 239.431 121.487 239.503 121.628L239.868 122.374C241.611 126.322 243.228 130.248 244.875 134.196C245.701 136.183 246.529 138.094 247.225 140.222L247.327 140.645C247.345 140.752 247.374 140.858 247.412 140.96C247.49 141.184 247.589 141.4 247.709 141.604C247.959 142.045 248.248 142.461 248.573 142.849C249.239 143.654 249.95 144.42 250.703 145.144C253.791 148.043 257.029 150.781 260.401 153.345C263.752 155.979 267.08 158.573 270.54 161.005C273.985 163.439 277.591 165.616 281.263 167.715L284.026 169.279C284.938 169.786 285.849 170.254 286.788 170.713C288.653 171.637 290.57 172.483 292.52 173.237C294.473 173.975 296.439 174.694 298.431 175.242C299.411 175.514 300.405 175.732 301.409 175.896C302.279 176.07 303.176 176.074 304.048 175.906L304.167 175.868C304.156 175.859 304.056 175.911 304.129 175.88L304.29 175.811L304.612 175.673L305.257 175.398L306.523 174.836C307.355 174.451 308.193 174.082 308.995 173.658C310.612 172.851 312.133 171.862 313.526 170.711C316.225 168.185 318.697 165.428 320.914 162.47C320.936 162.443 320.967 162.426 321.001 162.421C321.035 162.416 321.07 162.425 321.098 162.444C321.126 162.464 321.146 162.494 321.153 162.528C321.16 162.562 321.154 162.597 321.136 162.626C320.167 164.227 319.166 165.805 318.099 167.356C317.046 168.944 315.839 170.424 314.496 171.775C313.109 173.117 311.573 174.297 309.919 175.291C309.103 175.796 308.276 176.273 307.429 176.699C307.007 176.913 306.583 177.137 306.166 177.334L305.537 177.639L305.223 177.791L305.066 177.867C304.948 177.922 304.827 177.969 304.703 178.008L304.822 177.971C304.195 178.192 303.536 178.307 302.871 178.31C302.288 178.322 301.704 178.297 301.123 178.237C300.015 178.112 298.914 177.925 297.826 177.679C295.697 177.194 293.601 176.574 291.551 175.823C289.506 175.084 287.498 174.252 285.524 173.326C284.539 172.865 283.563 172.341 282.611 171.814L279.814 170.219C272.396 165.85 265.441 160.738 259.057 154.962C255.811 152.147 252.717 149.162 249.787 146.019C249.05 145.218 248.36 144.375 247.719 143.494C247.391 143.04 247.094 142.563 246.832 142.068C246.693 141.807 246.579 141.532 246.493 141.249C246.445 141.099 246.41 140.945 246.388 140.789C246.362 140.628 246.337 140.555 246.313 140.433C245.686 138.421 244.954 136.444 244.12 134.51C242.496 130.582 240.67 126.74 238.65 123L238.26 122.336C238.204 122.244 238.143 122.154 238.078 122.068C238.032 121.984 237.965 121.913 237.883 121.862C237.808 121.807 237.756 121.745 237.669 121.69L237.38 121.53C237.175 121.42 236.962 121.324 236.743 121.244C235.789 120.907 234.807 120.653 233.808 120.487C231.752 120.143 229.678 119.912 227.596 119.797L228.733 118.204C229.321 119.501 229.931 120.789 230.493 122.097C230.584 122.308 230.613 122.54 230.576 122.767C230.54 122.993 230.44 123.205 230.288 123.377C230.136 123.549 229.938 123.674 229.718 123.738C229.497 123.801 229.263 123.801 229.043 123.737L229.034 123.734C226.114 122.881 223.213 121.959 220.31 121.049C217.405 120.145 214.517 119.183 211.624 118.239C211.027 118.078 210.402 118.051 209.794 118.16C209.115 118.239 208.45 118.405 207.814 118.654C206.546 119.109 205.506 120.041 204.913 121.25C204.764 121.502 204.672 121.784 204.645 122.076C204.618 122.368 204.656 122.662 204.756 122.937C205.052 123.539 205.512 124.045 206.082 124.397C207.355 125.179 208.732 125.778 210.172 126.176L210.135 126.171L210.155 126.172C210.189 126.175 210.221 126.19 210.245 126.215C210.268 126.241 210.281 126.274 210.281 126.308C210.281 126.342 210.268 126.376 210.245 126.401C210.221 126.426 210.189 126.441 210.155 126.444L210.155 126.444Z" fill="#18181B"/>
<path d="M209.383 125.714L214.732 126.531L209.336 126.927L209.383 125.714Z" fill="#18181B"/>
<path d="M209.043 135.552L217.031 136.819L208.944 136.762L209.043 135.552Z" fill="#18181B"/>
<path d="M209.578 145.021L215.428 147.252L209.257 146.193L209.578 145.021Z" fill="#18181B"/>
<path d="M203.717 113.264C204.883 113.126 206.062 113.135 207.226 113.291C208.372 113.42 209.505 113.646 210.612 113.969L210.963 114.071L211.038 114.305C211.367 115.249 211.589 116.227 211.697 117.221C211.031 116.476 210.452 115.657 209.971 114.78L210.396 115.117C209.247 115.014 208.11 114.813 206.995 114.516C205.855 114.238 204.753 113.817 203.717 113.264ZM223.526 104.243C224.167 105.277 224.749 106.336 225.311 107.405C225.877 108.471 226.41 109.552 226.932 110.637L227.041 110.864L226.921 111.129C226.575 111.89 226.252 112.661 225.887 113.413L225.899 112.866C227.311 115.996 228.609 119.175 229.726 122.433L229.504 122.227C230.57 122.69 231.632 123.168 232.672 123.708C231.519 123.497 230.387 123.225 229.26 122.937L229.128 122.903L229.037 122.731C227.43 119.685 226.004 116.561 224.693 113.387L224.576 113.104L224.705 112.839C225.07 112.088 225.476 111.356 225.861 110.614L225.85 111.105C225.417 109.981 224.995 108.852 224.607 107.709C224.214 106.568 223.841 105.418 223.526 104.243Z" fill="#18181B"/>
<path d="M210.504 114.543C211.697 114.163 212.916 113.869 214.152 113.663C215.375 113.446 216.602 113.276 217.835 113.159C219.067 113.037 220.305 112.973 221.547 112.953C222.799 112.92 224.052 112.978 225.295 113.126C224.102 113.508 222.883 113.803 221.648 114.008C220.425 114.224 219.197 114.396 217.964 114.511C216.732 114.63 215.494 114.695 214.252 114.714C213 114.747 211.748 114.689 210.504 114.543ZM114.015 100.721C104.941 101.965 95.8548 103.054 86.7551 103.989C77.6582 104.958 68.5493 105.785 59.438 106.585C50.323 107.339 41.2053 108.063 32.0757 108.646C22.9487 109.264 13.8086 109.725 4.65527 110.029C13.7285 108.783 22.815 107.692 31.9148 106.757C41.0117 105.789 50.1206 104.962 59.2322 104.165C68.3474 103.414 77.4651 102.69 86.595 102.107C95.7217 101.491 104.862 101.029 114.015 100.721ZM133.808 146.523C128.433 151.561 122.907 156.413 117.327 161.2C111.757 165.999 106.097 170.687 100.419 175.355C94.7129 179.987 88.9873 184.595 83.1723 189.094C77.3671 193.605 71.507 198.049 65.4946 202.306C70.8674 197.266 76.393 192.413 81.9734 187.626C87.5439 182.828 93.2041 178.139 98.8833 173.474C104.592 168.844 110.317 164.236 116.132 159.737C121.938 155.227 127.797 150.782 133.808 146.523ZM92.0295 129.218C88.1431 130.717 84.1982 131.983 80.2327 133.168C76.2708 134.367 72.2742 135.429 68.2708 136.464C64.2564 137.454 60.2344 138.416 56.178 139.24C52.125 140.079 48.0513 140.834 43.9182 141.355C47.8037 139.853 51.7485 138.585 55.7141 137.402C59.6763 136.203 63.6729 135.141 67.677 134.109C71.6921 133.121 75.7141 132.16 79.7708 131.337C83.8237 130.499 87.8972 129.742 92.0295 129.218ZM80.5281 154.416C75.8841 157.903 71.1131 161.187 66.2976 164.4C61.49 167.625 56.6072 170.73 51.71 173.811C46.7886 176.854 41.8513 179.871 36.8389 182.768C31.8347 185.677 26.7849 188.514 21.6072 191.146C26.2498 187.656 31.02 184.371 35.836 181.159C40.6441 177.934 45.5266 174.829 50.4256 171.751C55.3484 168.71 60.2859 165.693 65.2984 162.797C70.303 159.888 75.3523 157.05 80.5281 154.416ZM339.731 120.962C338.333 124.412 336.912 127.851 335.417 131.255C333.936 134.666 332.465 138.082 330.909 141.458C329.364 144.839 327.864 148.241 326.282 151.605C324.721 154.978 323.064 158.307 321.398 161.632L321.191 160.822C324.093 163.081 326.954 165.397 329.883 167.62C332.802 169.857 335.793 171.995 338.779 174.141C341.78 176.266 344.81 178.352 347.839 180.44C350.872 182.522 353.866 184.656 356.865 186.784L355.734 186.868C359.35 183.037 362.732 178.992 365.86 174.754C369.031 170.545 371.966 166.164 374.652 161.631C375.99 159.363 377.244 157.05 378.417 154.692C379.567 152.324 380.6 149.904 381.574 147.457C382.508 144.993 383.308 142.481 383.972 139.931C384.615 137.365 385.093 134.761 385.404 132.135C385.406 132.123 385.409 132.11 385.415 132.099C385.421 132.088 385.429 132.079 385.439 132.071C385.449 132.063 385.46 132.057 385.472 132.053C385.484 132.05 385.496 132.049 385.509 132.05C385.532 132.053 385.554 132.064 385.57 132.082C385.586 132.1 385.594 132.123 385.594 132.147C385.522 134.817 385.251 137.478 384.783 140.109C384.262 142.736 383.593 145.331 382.78 147.883C381.068 152.965 378.893 157.878 376.281 162.561C373.665 167.233 370.723 171.716 367.477 175.974C364.233 180.237 360.721 184.289 356.963 188.105L356.958 188.111C356.812 188.258 356.617 188.348 356.41 188.362C356.202 188.376 355.997 188.315 355.832 188.189C352.906 185.962 349.976 183.74 347.084 181.467C344.187 179.199 341.293 176.929 338.369 174.699C335.43 172.489 332.497 170.272 329.491 168.153C326.496 166.021 323.432 163.981 320.409 161.885C320.289 161.801 320.2 161.678 320.16 161.536C320.119 161.395 320.129 161.244 320.187 161.109L320.202 161.074C321.677 157.661 323.161 154.251 324.74 150.886C326.299 147.511 327.94 144.175 329.536 140.817C331.121 137.455 332.79 134.132 334.451 130.805C336.096 127.47 337.816 124.171 339.559 120.882C339.57 120.86 339.59 120.844 339.613 120.836C339.636 120.828 339.661 120.83 339.683 120.84C339.705 120.851 339.723 120.869 339.732 120.892C339.741 120.914 339.74 120.94 339.731 120.962L339.731 120.962ZM287.366 55.097C287.762 55.0833 288.137 54.9163 288.413 54.6312C288.688 54.3461 288.842 53.9652 288.842 53.5688C288.842 53.1724 288.688 52.7915 288.413 52.5064C288.137 52.2213 287.762 52.0542 287.366 52.0405C286.97 52.0542 286.594 52.2213 286.319 52.5064C286.043 52.7915 285.89 53.1724 285.89 53.5688C285.89 53.9652 286.043 54.3461 286.319 54.6312C286.594 54.9163 286.97 55.0833 287.366 55.097Z" fill="#18181B"/>
</svg>
