<svg width="309" height="334" viewBox="0 0 309 334" fill="none" xmlns="http://www.w3.org/2000/svg">
<path d="M79.7397 140.573C79.79 138.293 79.81 136.023 79.6997 133.723C79.5771 131.353 79.2492 128.997 78.7197 126.683C78.4579 125.513 78.1206 124.36 77.7099 123.233C77.0783 121.447 76.0433 119.83 74.6853 118.508C73.3273 117.187 71.6829 116.196 69.8799 115.613C68.6837 115.225 67.4371 115.012 66.1797 114.983C64.9097 114.983 63.81 115.043 62.6196 115.083C60.29 115.183 57.9497 115.213 55.6196 115.253C53.29 115.283 50.9497 115.283 48.6196 115.203C46.2826 115.212 43.9507 114.984 41.6596 114.523C42.7552 114.969 43.8951 115.298 45.06 115.503C46.2197 115.723 47.3798 115.923 48.5497 116.073C50.8901 116.363 53.2499 116.553 55.6 116.653C57.9496 116.773 60.2998 116.773 62.6596 116.773C63.81 116.783 65.06 116.713 66.1298 116.743C67.7613 116.798 69.3618 117.204 70.8219 117.934C72.282 118.664 73.5672 119.701 74.5898 120.973C75.2802 121.824 75.8366 122.775 76.2397 123.793C76.6596 124.853 77.04 125.933 77.3696 127.033C78.5182 131.475 79.3009 136.004 79.7099 140.573C72.79 139.743 59.1699 138.703 38.1299 139.563C37.58 131.243 37.1997 125.233 37 123.163C36.1299 114.263 43.7397 113.413 43.7397 113.413L81.98 110.093C80.06 112.943 80.29 114.793 80.98 116.333C81.3594 117.464 81.3311 118.692 80.8999 119.803C78.6699 122.803 79.8999 125.193 80.4497 125.583C81 125.963 80.98 127.963 80.98 127.963C79.44 131.823 81.6001 133.053 83.21 134.203C83.3891 134.331 83.5916 134.423 83.8061 134.473C84.0206 134.523 84.2428 134.53 84.46 134.493L85.1596 141.383C85.1596 141.383 83.3901 141.013 79.7397 140.573ZM156.721 25.6274C156.721 25.6274 157.337 19.6707 162.267 21.3139C167.196 22.9571 173.975 21.1514 176.85 21.0273C176.85 21.0273 178.699 27.8868 180.137 27.8868C181.575 27.8868 181.369 44.5242 173.975 45.962C173.975 45.962 170.681 45.619 169.086 43.9796C168.597 43.4738 167.982 43.1078 167.304 42.9196C166.626 42.7314 165.91 42.7279 165.231 42.9093C164.117 43.1947 163.105 43.7856 162.309 44.6153C161.513 45.445 160.965 46.4806 160.726 47.6053C160.726 47.6053 164.321 64.7562 177.364 48.5296C177.364 48.5296 180.239 45.0378 182.191 37.438C182.191 37.438 181.472 27.7841 186.196 26.5517C186.196 26.5517 188.045 26.449 187.942 28.6057C187.942 28.6057 188.98 27.4942 188.321 17.8012C188.232 16.4727 187.769 15.1964 186.986 14.1194C186.203 13.0425 185.131 12.2087 183.895 11.7142C181.48 10.7521 178.74 9.62953 177.98 9.19533C176.542 8.37373 163.397 8.27103 159.083 11.9682C154.77 15.6655 156.721 25.6274 156.721 25.6274Z" fill="#18181B"/>
<path d="M156.721 25.6274L156.854 31.2923C156.887 32.2323 156.906 33.1718 156.981 34.1009C157.001 34.9919 157.141 35.8762 157.398 36.7295C158.203 38.4572 158.859 40.2501 159.36 42.0889C159.9 43.9046 160.365 45.7423 160.726 47.6052C160.046 45.8364 159.37 44.0713 158.727 42.2991C158.118 40.5271 157.416 38.7885 156.623 37.0907C156.323 36.1378 156.171 35.1442 156.174 34.1451C156.144 33.1879 156.143 32.2373 156.189 31.2885C156.261 29.3931 156.438 27.5031 156.721 25.6274Z" fill="#0073A8"/>
<path d="M157.62 33.4583C158.094 33.0674 158.643 32.776 159.232 32.6015C159.825 32.4149 160.444 32.3256 161.065 32.337C161.696 32.3521 162.318 32.495 162.892 32.757C163.462 33.0124 163.955 33.4137 164.321 33.9204C163.786 33.7022 163.235 33.5243 162.673 33.3879C162.137 33.2686 161.59 33.2029 161.04 33.1919C159.895 33.1909 158.751 33.2799 157.62 33.4583ZM168.095 33.3393C168.63 32.8522 169.265 32.4879 169.955 32.2719C170.645 32.0375 171.37 31.92 172.098 31.9242C173.558 31.9156 174.975 32.416 176.106 33.3393C175.398 33.2037 174.744 33.0276 174.077 32.938C173.422 32.8315 172.759 32.7785 172.096 32.7796C170.743 32.7832 169.397 32.9715 168.095 33.3393ZM161.317 37.3609C161.65 37.3494 161.965 37.2091 162.196 36.9696C162.428 36.7301 162.557 36.4101 162.557 36.0771C162.557 35.7441 162.428 35.4241 162.196 35.1846C161.965 34.9451 161.65 34.8049 161.317 34.7934C160.984 34.8049 160.669 34.9451 160.437 35.1846C160.206 35.4241 160.077 35.7441 160.077 36.0771C160.077 36.4101 160.206 36.7301 160.437 36.9696C160.669 37.2091 160.984 37.3494 161.317 37.3609ZM170.252 37.2068C170.585 37.1953 170.9 37.0551 171.131 36.8156C171.363 36.5761 171.492 36.2561 171.492 35.9231C171.492 35.5901 171.363 35.2701 171.131 35.0306C170.9 34.7911 170.585 34.6508 170.252 34.6393C169.919 34.6508 169.604 34.7911 169.372 35.0306C169.141 35.2701 169.012 35.5901 169.012 35.9231C169.012 36.2561 169.141 36.5761 169.372 36.8156C169.604 37.0551 169.919 37.1953 170.252 37.2068ZM162.703 40.4676C163.403 41.1996 164.287 41.7288 165.263 41.999C165.723 42.0784 166.195 42.0362 166.634 41.8764C166.876 41.8204 167.098 41.6838 167.35 41.5974C167.588 41.4804 167.822 41.3452 168.095 41.2378C167.949 41.4837 167.784 41.7172 167.599 41.9357C167.394 42.1453 167.164 42.3289 166.914 42.4825C166.381 42.8197 165.741 42.9477 165.119 42.842C164.51 42.7266 163.954 42.4189 163.533 41.9642C163.126 41.5491 162.84 41.032 162.703 40.4676ZM156.3 139.053C156.302 139.066 156.302 139.079 156.3 139.092C156.297 139.104 156.292 139.116 156.284 139.126C156.277 139.137 156.267 139.145 156.256 139.152C156.245 139.158 156.232 139.162 156.22 139.163L149.16 140.493H149.08C145.32 140.023 141.54 139.623 137.76 139.213C133.98 138.803 130.2 138.44 126.42 138.123C122.64 137.813 118.85 137.563 115.08 137.383C112.112 137.225 109.137 137.232 106.17 137.403C106.226 136.811 106.137 136.214 105.91 135.663C108.993 135.545 112.081 135.591 115.16 135.803C118.97 136.033 122.76 136.403 126.55 136.833C134.1 137.693 141.62 138.723 149.12 139.983L156.19 138.973C156.202 138.97 156.216 138.97 156.228 138.973C156.241 138.975 156.253 138.98 156.263 138.988C156.274 138.996 156.283 139.005 156.289 139.017C156.295 139.028 156.299 139.041 156.3 139.053ZM200.72 90.3735C200.91 91.1935 201.1 92.0235 201.28 92.8435C200.81 92.8835 200.31 92.9035 199.8 92.9135C199.43 91.4235 199.06 89.9435 198.7 88.4535L194.01 68.6635C192.52 62.3435 191.17 55.9935 189.78 49.6535L160.42 57.5435L145.35 61.7135L130.32 66.0235C130.288 66.0359 130.254 66.0427 130.22 66.0435C125.88 66.0435 121.53 66.1235 117.18 66.1635L104.14 66.3335C95.8696 66.4535 87.6196 66.5035 79.3501 66.5735C83.52 78.0035 87.77 89.4035 91.8799 100.853L91.9697 101.113C91.31 101.283 90.6196 101.453 89.9199 101.623L89.8999 101.573C85.6001 89.7335 81.4399 77.8435 77.1997 65.9935V65.9835C77.1176 65.7581 77.1283 65.5092 77.2296 65.2917C77.3308 65.0742 77.5143 64.9058 77.7397 64.8235C77.8402 64.7923 77.9446 64.7755 78.0498 64.7735C86.75 64.8535 95.4399 64.8935 104.14 65.0335L117.18 65.1935C121.51 65.2335 125.85 65.3135 130.17 65.3235L145.19 61.1235L160.21 56.7735L190.18 47.8335C190.388 47.7724 190.612 47.7958 190.803 47.8988C190.994 48.0018 191.136 48.176 191.2 48.3835L191.21 48.4335V48.4535L200.2 88.0935C200.38 88.8535 200.55 89.6135 200.72 90.3735ZM209.8 127.573C209.81 127.591 209.813 127.612 209.809 127.632C209.806 127.652 209.795 127.67 209.78 127.683C209.771 127.693 209.76 127.7 209.748 127.706C209.736 127.711 209.723 127.713 209.71 127.713C209.697 127.713 209.684 127.711 209.672 127.706C209.66 127.7 209.649 127.693 209.64 127.683C209.63 127.673 209.62 127.653 209.61 127.643C208.49 124.663 207.54 121.623 206.66 118.563C206.89 118.563 207.11 118.553 207.33 118.543C208.08 121.563 208.89 124.573 209.79 127.543C209.79 127.553 209.8 127.563 209.8 127.573Z" fill="#18181B"/>
<path d="M94.2584 142.832C88.7501 142.071 83.2342 141.382 77.6942 140.944C72.1595 140.457 66.6092 140.173 61.0579 140.03C55.5067 139.879 49.9525 139.893 44.4044 140.033C38.8617 140.183 33.3001 140.466 27.8106 141.013L27.9 140.998C24.5981 141.736 21.4482 143.038 18.5885 144.846C17.1979 145.77 15.9158 146.848 14.7665 148.058C13.6378 149.281 12.6552 150.631 11.8385 152.081C10.2505 155.036 9.26549 158.278 8.94076 161.617C8.57688 164.962 8.72979 168.343 9.39412 171.641L9.39513 171.646C9.40099 171.674 9.40759 171.71 9.41222 171.738C10.1908 176.513 12.1647 181.186 14.2396 185.712C16.35 190.247 18.7208 194.678 21.1957 199.049C26.1559 207.791 31.5611 216.292 37.0741 224.718C42.588 233.146 48.2598 241.472 54.0895 249.696L62.8776 261.996L65.0939 265.057L66.2035 266.574C66.5328 267.015 66.9154 267.414 67.3426 267.761C68.2014 268.461 69.2235 268.932 70.3137 269.131C70.89 269.222 71.4728 269.267 72.0563 269.264L73.9421 269.316C78.9704 269.435 84.0041 269.467 89.0173 269.275C90.2704 269.227 91.5209 269.159 92.7687 269.07C93.3971 269.026 94.0273 268.978 94.5541 268.888C95.1013 268.775 95.6303 268.586 96.1259 268.328C97.1275 267.804 97.9593 267.007 98.5241 266.028C99.0889 265.049 99.3634 263.929 99.3154 262.8C99.2885 262.233 99.1864 261.673 99.0117 261.134L98.4125 259.339L97.2143 255.751L94.8156 248.576L90.0002 234.23C83.5007 215.129 77.0759 195.999 70.4565 176.942C70.4332 176.875 70.4269 176.803 70.4383 176.733C70.4496 176.662 70.4782 176.596 70.5215 176.54C70.5647 176.484 70.6213 176.439 70.6861 176.41C70.7509 176.381 70.8219 176.368 70.8928 176.373L70.9008 176.374C78.1066 176.931 85.3452 177.25 92.5771 177.403C99.8112 177.528 107.049 177.451 114.268 177.095C121.48 176.786 128.666 176.039 135.788 174.858C139.33 174.273 142.827 173.446 146.256 172.381C149.653 171.386 152.877 169.876 155.816 167.904C155.94 167.815 156.086 167.762 156.238 167.75C156.39 167.737 156.542 167.766 156.679 167.833C156.816 167.9 156.932 168.003 157.015 168.13C157.099 168.258 157.146 168.406 157.152 168.558L158.542 198.546L158.886 206.002L159.304 213.49C159.591 218.482 159.832 223.473 160.197 228.457L161.204 243.416C161.384 245.908 161.512 248.407 161.735 250.891L162.493 258.325L162.872 262.042L162.967 262.971C163.006 263.269 163.055 263.509 163.106 263.778C163.413 265.086 164.067 266.286 164.998 267.253C165.93 268.221 167.105 268.919 168.399 269.275C168.926 269.415 169.466 269.503 170.01 269.538L171.88 269.683L175.619 269.972L183.097 270.551L190.576 271.13L194.315 271.419L194.782 271.455L195.162 271.462C195.913 271.476 196.658 271.324 197.343 271.015C198.261 270.611 199.049 269.96 199.619 269.135C200.188 268.309 200.517 267.341 200.569 266.339C200.584 265.891 200.543 265.215 200.511 264.597L200.417 262.724L200.229 258.978L198.725 229.006C197.735 209.024 196.679 189.045 195.78 169.058C195.773 168.9 195.797 168.742 195.851 168.593C195.905 168.444 195.988 168.307 196.095 168.19C196.202 168.073 196.331 167.978 196.474 167.911C196.618 167.844 196.773 167.805 196.932 167.798C196.973 167.796 197.014 167.797 197.054 167.799L197.083 167.801C200.126 167.954 203.174 167.631 206.117 166.843C209.059 166.085 211.823 164.753 214.247 162.921C216.626 161.053 218.543 158.662 219.849 155.934C221.133 153.149 221.944 150.17 222.248 147.119L222.277 147.486C219.717 139.199 214.343 131.432 206.897 126.771C205.933 126.257 204.99 125.669 204.007 125.211C203.021 124.75 202 124.367 200.954 124.063C198.834 123.447 196.662 123.029 194.464 122.816C190.021 122.394 185.545 122.482 181.123 123.08C176.685 123.622 172.322 124.662 168.116 126.18C166.024 126.929 164.013 127.888 162.114 129.042C161.179 129.618 160.305 130.286 159.504 131.037C158.702 131.755 158.048 132.623 157.577 133.591C157.352 134.068 157.19 134.573 157.098 135.093L156.844 136.755C156.702 137.868 156.559 138.982 156.463 140.103C156.251 142.341 156.112 144.59 156.031 146.841C155.865 151.343 155.864 155.851 156.028 160.363C156.029 160.397 156.017 160.431 155.994 160.456C155.972 160.481 155.94 160.496 155.906 160.498C155.872 160.499 155.839 160.487 155.814 160.465C155.789 160.442 155.773 160.411 155.771 160.377C155.513 155.865 155.418 151.348 155.485 146.826C155.517 144.565 155.609 142.304 155.774 140.045C155.847 138.915 155.966 137.787 156.086 136.658L156.307 134.969C156.399 134.375 156.57 133.796 156.814 133.247C157.307 132.169 158.006 131.197 158.87 130.385C159.699 129.573 160.607 128.847 161.581 128.216C163.516 126.982 165.571 125.947 167.714 125.127C176.298 121.923 185.474 120.613 194.612 121.284C196.912 121.474 199.19 121.878 201.415 122.491C202.542 122.801 203.644 123.197 204.71 123.676C205.779 124.156 206.767 124.75 207.799 125.285C211.76 127.715 215.215 130.885 217.976 134.623C220.745 138.357 222.871 142.528 224.265 146.963C224.297 147.067 224.308 147.176 224.298 147.284L224.293 147.33C223.993 150.624 223.144 153.843 221.782 156.857C220.356 159.901 218.249 162.576 215.623 164.674C212.978 166.715 209.954 168.211 206.727 169.076C203.523 169.968 200.198 170.345 196.876 170.193L198.179 168.936C199.325 188.91 200.315 208.892 201.37 228.87L202.933 258.839L203.128 262.585L203.226 264.458C203.255 265.09 203.307 265.661 203.288 266.464C203.22 267.976 202.728 269.437 201.867 270.681C201.006 271.925 199.812 272.901 198.422 273.497C197.386 273.953 196.264 274.177 195.133 274.153L194.575 274.137L194.108 274.098L190.368 273.79L182.89 273.173L175.411 272.556L171.672 272.247L169.802 272.093C169.098 272.041 168.401 271.922 167.72 271.737C165.985 271.253 164.414 270.309 163.172 269.006C161.93 267.703 161.062 266.088 160.662 264.333C160.594 263.99 160.525 263.614 160.486 263.292L160.395 262.355L160.031 258.606L159.304 251.109C159.093 248.611 158.978 246.113 158.81 243.615L157.877 228.627C157.53 223.633 157.369 218.627 157.129 213.63L156.793 206.132L156.527 198.596L155.468 168.615L156.804 169.269C153.7 171.314 150.299 172.868 146.721 173.876C143.217 174.923 139.645 175.727 136.03 176.284C128.841 177.394 121.591 178.063 114.32 178.289C107.065 178.567 99.806 178.542 92.5557 178.356C85.3037 178.171 78.0633 177.822 70.8263 177.231L71.2701 176.663C77.7252 195.782 84.3499 214.837 90.9442 233.905L95.9288 248.193L98.4318 255.334L99.6822 258.905L100.307 260.69C100.532 261.348 100.668 262.033 100.71 262.727C100.789 264.131 100.466 265.529 99.7796 266.756C99.0929 267.984 98.0709 268.991 96.8331 269.659C96.2141 269.993 95.5517 270.239 94.8648 270.391C94.1488 270.524 93.5213 270.572 92.8924 270.627C91.6256 270.736 90.3589 270.823 89.0924 270.888C84.0269 271.154 78.9671 271.192 73.9095 271.143L72.013 271.118C71.3352 271.128 70.6577 271.083 69.9872 270.983C68.5797 270.746 67.2549 270.157 66.1358 269.272C65.5768 268.831 65.0746 268.322 64.6407 267.758L63.4957 266.237L61.2316 263.201C58.2118 259.154 55.2621 255.055 52.3297 250.944C46.4703 242.719 40.7465 234.396 35.1581 225.976C29.6031 217.535 24.2726 208.938 19.3077 200.112C16.8377 195.692 14.4684 191.207 12.3475 186.584C10.2652 181.949 8.25915 177.225 7.43078 172.007L7.44884 172.104C6.74822 168.581 6.60038 164.969 7.01061 161.4C7.3791 157.808 8.47865 154.329 10.2416 151.177C11.1508 149.612 12.2398 148.157 13.4865 146.844C14.7461 145.551 16.148 144.405 17.6652 143.426C20.7112 141.552 24.058 140.219 27.558 139.484L27.5749 139.48L27.6481 139.469C33.2375 138.988 38.7987 138.782 44.3781 138.706C49.9531 138.625 55.5255 138.722 61.0954 138.997C66.6618 139.258 72.2214 139.661 77.7587 140.266C83.3034 140.806 88.8105 141.666 94.2997 142.579C94.3163 142.582 94.3323 142.588 94.3465 142.597C94.3608 142.606 94.3733 142.617 94.383 142.631C94.3928 142.645 94.3998 142.66 94.4036 142.677C94.4074 142.693 94.408 142.71 94.4052 142.727C94.399 142.76 94.3804 142.789 94.353 142.809C94.3257 142.829 94.2918 142.837 94.2584 142.832Z" fill="#18181B"/>
<path d="M45.3936 159.138L51.4709 164.075C53.5066 165.701 55.5256 167.342 57.5925 168.917C59.6477 170.508 61.7468 172.035 63.9004 173.475C64.975 174.195 66.0894 174.854 67.2383 175.449C68.3692 176.085 69.5921 176.542 70.8633 176.802C68.2039 176.696 65.7764 175.383 63.4973 174.13C61.2325 172.8 59.0567 171.323 56.9836 169.71C54.9143 168.101 52.8979 166.428 50.9724 164.656C49.0403 162.891 47.1538 161.077 45.3936 159.138ZM107.425 143.117C112.116 143.633 116.754 144.56 121.283 145.886C125.826 147.204 130.26 148.869 134.547 150.867C138.811 152.936 142.854 155.429 146.616 158.31C150.325 161.252 153.59 164.713 156.31 168.586C154.81 166.78 153.202 165.066 151.497 163.452L150.223 162.245C149.812 161.828 149.371 161.443 148.904 161.091L146.149 158.921C142.366 156.172 138.338 153.777 134.115 151.768C129.886 149.757 125.524 148.036 121.061 146.619C118.832 145.893 116.579 145.243 114.301 144.67C112.034 144.053 109.737 143.558 107.425 143.117ZM180.547 150.511C181.628 150.59 182.683 150.879 183.655 151.359C184.624 151.846 185.546 152.422 186.408 153.08C188.121 154.406 189.649 155.955 190.951 157.687C191.625 158.53 192.194 159.445 192.812 160.326C193.344 161.26 193.929 162.162 194.411 163.12C194.876 164.087 195.373 165.035 195.81 166.011C196.2 167.01 196.62 167.992 196.979 168.997C195.883 167.158 194.861 165.301 193.744 163.503L192.021 160.846C191.392 160.002 190.829 159.108 190.16 158.299C188.901 156.624 187.482 155.075 185.924 153.674C185.149 152.971 184.311 152.34 183.422 151.788C182.541 151.206 181.569 150.775 180.547 150.511ZM130.224 65.6805C132.173 71.7989 133.999 77.9486 135.702 84.1296C137.431 90.3038 139.047 96.5067 140.641 102.715C142.199 108.933 143.732 115.157 145.153 121.409C146.601 127.655 147.924 133.932 149.121 140.241C147.169 134.123 145.343 127.974 143.64 121.793C141.911 115.618 140.295 109.415 138.704 103.206C137.148 96.988 135.615 90.7641 134.195 84.5116C132.748 78.2659 131.424 71.9888 130.224 65.6805ZM106.212 137.407C106.117 138.163 105.808 138.876 105.323 139.464C104.837 140.051 104.194 140.488 103.47 140.723C102.977 140.853 102.47 140.922 101.96 140.926C99.9688 140.889 97.9972 140.529 96.1216 139.86C94.2342 139.256 92.4258 138.428 90.7346 137.395C89.8867 136.866 89.0957 136.251 88.3742 135.56C88.0062 135.209 87.6839 134.813 87.415 134.381C87.1179 133.941 86.959 133.421 86.9587 132.89L87.2712 133.017C86.5633 133.765 85.668 134.31 84.6784 134.595C84.4187 134.659 84.1486 134.667 83.8854 134.62C83.6222 134.574 83.3716 134.472 83.1499 134.323C82.7429 134.039 82.3274 133.764 81.9333 133.446C81.0873 132.832 80.5046 131.921 80.3017 130.896C80.1944 129.866 80.3437 128.825 80.7363 127.867L80.7177 127.961C80.7282 127.279 80.606 126.602 80.3579 125.967C80.3344 125.925 80.3041 125.888 80.2683 125.857C80.1779 125.787 80.0946 125.708 80.0195 125.621C79.8842 125.459 79.7679 125.283 79.6729 125.095C79.4949 124.734 79.372 124.349 79.3086 123.952C79.1812 123.168 79.2472 122.365 79.5009 121.612C79.7478 120.876 80.1072 120.182 80.5664 119.556L80.5142 119.65C80.7785 118.914 80.8755 118.129 80.7981 117.351C80.774 117.167 80.7341 116.985 80.6787 116.808C80.6223 116.642 80.55 116.476 80.4529 116.252C79.9137 114.961 79.8924 113.512 80.3935 112.206C80.7015 111.373 81.1145 110.582 81.6225 109.853C81.6427 109.823 81.6664 109.796 81.6931 109.772L81.7009 109.766C81.8645 109.612 82.0117 109.442 82.1401 109.258C82.272 109.072 82.3805 108.87 82.4629 108.657C82.6253 108.239 82.6531 107.782 82.5425 107.348L82.5581 107.393C82.1652 106.475 81.9928 105.478 82.0547 104.482C82.0898 104.195 82.2001 103.923 82.3742 103.692C82.5578 103.466 82.8066 103.302 83.0866 103.222C83.5481 103.061 83.9966 102.944 84.4504 102.823C86.259 102.343 88.0847 101.968 89.9089 101.582C89.9144 101.581 89.9201 101.581 89.9256 101.582C89.9312 101.583 89.9364 101.585 89.9412 101.588C89.9459 101.591 89.9499 101.595 89.9531 101.6C89.9563 101.604 89.9585 101.61 89.9597 101.615C89.9618 101.626 89.9599 101.637 89.9544 101.646C89.9489 101.655 89.9402 101.662 89.9299 101.665L84.5947 103.311C84.157 103.456 83.7112 103.603 83.3022 103.774C83.1316 103.823 82.9827 103.929 82.8796 104.074C82.7823 104.223 82.7241 104.395 82.7102 104.572C82.7019 105.444 82.8901 106.306 83.2607 107.094L83.2766 107.14C83.4495 107.727 83.4351 108.354 83.2354 108.933C83.1384 109.215 83.0067 109.484 82.8435 109.733C82.6787 109.987 82.482 110.218 82.2583 110.421L82.3362 110.334C81.347 111.6 80.8629 113.189 80.9775 114.792C81.0392 115.177 81.1455 115.553 81.2942 115.913C81.3628 116.081 81.4582 116.306 81.5329 116.544C81.6003 116.773 81.6472 117.009 81.6731 117.247C81.7521 118.168 81.6193 119.095 81.2849 119.957C81.2736 119.988 81.258 120.017 81.2385 120.043L81.2324 120.051C80.35 121.11 79.9148 122.47 80.019 123.844C80.0593 124.173 80.1485 124.494 80.2837 124.796C80.3489 124.938 80.4294 125.071 80.5239 125.195C80.5656 125.249 80.6132 125.298 80.6658 125.342C80.7696 125.43 80.8555 125.536 80.9187 125.656C81.1883 126.395 81.2983 127.182 81.2412 127.966C81.2415 127.998 81.2352 128.031 81.2226 128.061C80.8098 128.928 80.6215 129.885 80.675 130.844C80.7458 131.316 80.9097 131.769 81.1572 132.177C81.4048 132.586 81.731 132.941 82.1169 133.222C82.894 133.78 83.6577 134.647 84.6194 134.32C85.542 134.031 86.3678 133.495 87.0075 132.77C87.0321 132.745 87.0636 132.727 87.0981 132.719C87.1327 132.711 87.1687 132.713 87.2019 132.726C87.2351 132.738 87.2639 132.76 87.2848 132.789C87.3057 132.817 87.3178 132.851 87.3195 132.887L87.32 132.897C87.4786 133.812 87.9872 134.628 88.738 135.173C89.465 135.794 90.2541 136.339 91.0928 136.798C92.7719 137.746 94.5327 138.54 96.354 139.173C98.1567 139.839 100.044 140.25 101.96 140.393C102.895 140.488 103.832 140.24 104.596 139.694C104.998 139.441 105.342 139.106 105.606 138.711C105.87 138.315 106.047 137.869 106.127 137.4C106.128 137.389 106.134 137.378 106.143 137.372C106.152 137.365 106.164 137.362 106.175 137.363C106.185 137.365 106.195 137.37 106.202 137.378C106.209 137.386 106.212 137.397 106.212 137.407ZM105.87 135.679L105.637 135.25C105.632 135.242 105.629 135.233 105.628 135.223C105.627 135.213 105.628 135.203 105.631 135.194C105.634 135.185 105.638 135.176 105.644 135.169C105.65 135.161 105.658 135.155 105.667 135.15L105.691 135.142L105.7 135.141C106.095 135.085 106.491 135.069 106.877 135.002C107.257 134.925 107.627 134.805 107.979 134.643C108.682 134.364 109.253 133.83 109.578 133.147C109.882 132.456 110.019 131.704 109.979 130.95C109.959 130.185 109.833 129.426 109.604 128.695C109.575 128.605 109.583 128.507 109.627 128.423C109.67 128.338 109.746 128.275 109.836 128.246C109.862 128.238 109.888 128.233 109.915 128.23C110.864 128.175 111.79 127.916 112.63 127.471C113.034 127.263 113.393 126.976 113.686 126.628C113.979 126.281 114.2 125.878 114.336 125.444C114.479 125.016 114.519 124.56 114.454 124.113C114.359 123.675 114.132 123.276 113.804 122.969C113.115 122.27 112.333 121.669 111.48 121.183L111.469 121.177C111.438 121.158 111.414 121.13 111.4 121.097C111.386 121.063 111.383 121.026 111.392 120.991C111.401 120.956 111.421 120.925 111.449 120.902C111.477 120.879 111.512 120.866 111.548 120.865C112.117 120.856 112.677 120.713 113.18 120.447C113.684 120.181 114.117 119.8 114.445 119.334C115.053 118.352 115.308 117.193 115.167 116.046C115.138 115.772 115.068 115.504 114.961 115.25C114.901 115.134 114.839 115.054 114.796 115.062C114.637 115.015 114.483 114.953 114.336 114.876C113.797 114.592 113.299 114.272 112.8 113.951C111.805 113.303 110.839 112.625 109.886 111.921C109.83 111.879 109.788 111.821 109.765 111.755C109.742 111.689 109.739 111.618 109.758 111.55C109.776 111.483 109.814 111.423 109.868 111.377C109.921 111.332 109.987 111.304 110.056 111.297L110.076 111.295C110.462 111.279 110.831 111.133 111.125 110.883C111.367 110.592 111.501 110.226 111.505 109.848C111.522 109.411 111.487 108.974 111.402 108.546C111.352 108.133 111.249 107.728 111.094 107.341C110.925 107.046 110.629 106.93 110.154 106.714C109.728 106.515 109.299 106.319 108.877 106.103C108.024 105.675 107.197 105.196 106.4 104.67C104.848 103.596 103.327 102.557 101.715 101.641C100.92 101.18 100.09 100.785 99.2307 100.461C98.8121 100.299 98.3796 100.176 97.9387 100.093C97.7274 100.058 97.513 100.043 97.2988 100.048C97.1266 100.053 96.9571 100.092 96.8008 100.164L96.7114 100.224C96.7003 100.231 96.6879 100.237 96.6748 100.239C95.116 100.57 93.5459 100.854 91.9795 101.155C91.974 101.156 91.9683 101.156 91.9628 101.155C91.9573 101.154 91.952 101.152 91.9474 101.149C91.9427 101.146 91.9387 101.142 91.9356 101.137C91.9325 101.132 91.9303 101.127 91.9292 101.121C91.9272 101.111 91.9292 101.1 91.9348 101.091C91.9404 101.082 91.9492 101.075 91.9595 101.072C93.4929 100.634 95.0227 100.177 96.564 99.7676L96.4385 99.8425C96.6678 99.6508 96.9528 99.538 97.2512 99.5209C97.5044 99.4965 97.7594 99.4975 98.0125 99.5237C98.4984 99.5784 98.9773 99.6844 99.4409 99.84C100.349 100.142 101.23 100.519 102.075 100.966C103.745 101.846 105.354 102.838 106.89 103.934C107.661 104.435 108.462 104.888 109.287 105.294L110.535 105.917C111.061 106.1 111.515 106.448 111.829 106.908C111.963 107.156 112.051 107.427 112.089 107.706L112.213 108.413C112.299 108.906 112.327 109.409 112.294 109.909C112.27 110.475 112.041 111.014 111.649 111.424C111.221 111.783 110.682 111.984 110.123 111.992L110.313 111.367C111.233 112.092 112.159 112.821 113.099 113.519C113.57 113.865 114.048 114.21 114.539 114.5C114.65 114.564 114.767 114.62 114.887 114.666C114.986 114.699 115.076 114.755 115.15 114.829C115.224 114.903 115.279 114.993 115.311 115.093C115.42 115.388 115.486 115.697 115.504 116.012C115.618 117.23 115.322 118.451 114.662 119.481C114.315 119.988 113.855 120.407 113.319 120.705C112.783 121.004 112.184 121.174 111.571 121.202L111.639 120.884C112.558 121.34 113.412 121.919 114.177 122.603C114.604 122.967 114.911 123.451 115.056 123.993C115.171 124.537 115.157 125.1 115.014 125.637C114.86 126.165 114.603 126.658 114.258 127.086C113.914 127.515 113.488 127.871 113.005 128.135C112.066 128.632 111.026 128.906 109.964 128.937L110.275 128.472C110.51 129.275 110.629 130.108 110.63 130.945C110.643 131.797 110.441 132.639 110.043 133.393C109.632 134.153 108.943 134.725 108.121 134.99C107.731 135.127 107.327 135.219 106.916 135.263C106.509 135.294 106.101 135.285 105.699 135.286L105.762 135.177L105.949 135.648C105.953 135.658 105.953 135.669 105.949 135.679C105.945 135.689 105.938 135.698 105.928 135.702C105.918 135.707 105.907 135.708 105.896 135.704C105.886 135.701 105.878 135.694 105.872 135.684L105.87 135.679Z" fill="#0073A8"/>
<path d="M89.3752 106.093L100.563 106.172C102.483 106.222 104.357 106.77 106.001 107.762C106.806 108.27 107.562 108.85 108.26 109.497L110.38 111.32C110.423 111.356 110.458 111.401 110.483 111.451C110.508 111.501 110.524 111.556 110.528 111.612C110.532 111.668 110.525 111.725 110.508 111.778C110.49 111.831 110.462 111.881 110.426 111.923C110.389 111.966 110.344 112.001 110.294 112.026C110.244 112.052 110.189 112.067 110.133 112.071C110.077 112.075 110.021 112.069 109.967 112.051C109.914 112.033 109.865 112.006 109.822 111.969L109.81 111.958L107.761 110.056C107.116 109.408 106.412 108.823 105.659 108.306C104.131 107.303 102.368 106.715 100.544 106.599L89.3752 106.093ZM86.7563 114.874L93.4858 114.155L96.8508 113.795C97.9827 113.625 99.1321 113.605 100.269 113.734C101.415 113.883 102.53 114.211 103.575 114.705C104.604 115.216 105.569 115.848 106.448 116.588L111.824 120.7C111.869 120.734 111.908 120.777 111.937 120.825C111.966 120.874 111.985 120.928 111.992 120.984C112 121.041 111.997 121.098 111.983 121.153C111.968 121.207 111.943 121.259 111.909 121.304C111.874 121.349 111.831 121.387 111.782 121.415C111.733 121.443 111.678 121.462 111.622 121.469C111.566 121.476 111.509 121.472 111.454 121.456C111.399 121.441 111.348 121.415 111.304 121.38L111.293 121.372L106.05 117.092C105.226 116.35 104.316 115.71 103.339 115.185C102.355 114.681 101.299 114.335 100.208 114.158C99.1054 113.997 97.9863 113.983 96.8799 114.115L93.5054 114.368L86.7563 114.874ZM86.2173 124.81L98.7539 123.06C100.392 122.788 102.072 123.13 103.475 124.019L104.814 124.86L110.175 128.226C110.27 128.287 110.338 128.383 110.363 128.493C110.388 128.603 110.368 128.719 110.308 128.815C110.248 128.911 110.152 128.979 110.042 129.004C109.931 129.03 109.816 129.011 109.719 128.951L109.707 128.943L104.464 125.398C103.645 124.769 102.754 124.238 101.811 123.818C100.851 123.463 99.8198 123.349 98.8059 123.484L86.2173 124.81ZM87.1414 132.898L91.9326 132.33C93.5381 132.154 95.1086 131.921 96.7424 131.792C98.3958 131.724 100.043 132.027 101.564 132.679C103.057 133.378 104.455 134.114 105.905 134.83C106.007 134.881 106.084 134.969 106.121 135.077C106.157 135.184 106.149 135.302 106.099 135.404C106.049 135.506 105.96 135.583 105.853 135.62C105.745 135.656 105.627 135.648 105.526 135.598L105.51 135.59L105.504 135.587C104.104 134.815 102.688 133.991 101.299 133.263C99.8799 132.58 98.3259 132.224 96.7509 132.22C95.1748 132.274 93.5508 132.439 91.9531 132.543L87.1414 132.898ZM200.069 90.9839C201.672 89.1538 203.559 87.5933 205.657 86.3622C206.722 85.7173 207.909 85.3005 209.142 85.1382C210.376 84.9759 211.631 85.0717 212.825 85.4194C213.127 85.5214 213.419 85.6488 213.699 85.8003C213.971 85.9625 214.232 86.1419 214.481 86.3373C215.998 87.4578 217.144 89.0082 217.77 90.7876C218.182 91.9698 218.378 93.2166 218.348 94.4682C218.343 94.7802 218.322 95.0921 218.291 95.4026C218.264 95.6803 218.26 95.9598 218.279 96.2382C218.298 96.7481 218.48 97.2385 218.797 97.6384L218.839 97.6816C219.332 98.2761 219.692 98.9695 219.895 99.7151C220.097 100.461 220.138 101.241 220.013 102.003C219.904 102.747 219.699 103.472 219.403 104.162C219.126 104.865 218.662 105.466 218.772 105.985C218.838 106.301 218.947 106.607 219.098 106.893C219.27 107.219 219.426 107.555 219.564 107.897C219.812 108.623 219.903 109.392 219.833 110.156C219.811 110.947 219.539 111.71 219.055 112.336C218.977 112.413 218.893 112.484 218.804 112.549C218.742 112.591 218.683 112.638 218.627 112.689C218.515 112.788 218.422 112.906 218.352 113.037C218.211 113.304 218.153 113.606 218.185 113.906L218.137 113.797C218.602 114.401 218.863 115.136 218.883 115.898C218.869 116.279 218.778 116.653 218.615 116.998C218.453 117.344 218.223 117.653 217.939 117.907C217.392 118.425 216.687 118.744 215.938 118.816C215.574 118.808 215.213 118.757 214.861 118.664C214.526 118.617 214.176 118.6 213.829 118.585C211.031 118.538 208.217 118.646 205.407 118.742C202.596 118.839 199.782 118.903 196.963 118.819C195.54 118.813 194.122 118.656 192.732 118.352C192.001 118.193 191.32 117.856 190.75 117.371C190.597 117.232 190.473 117.063 190.385 116.874C190.298 116.686 190.249 116.482 190.242 116.275C190.234 115.86 190.363 115.453 190.609 115.118L190.766 115.546C189.783 115.358 188.811 115.116 187.854 114.822C186.861 114.54 185.927 114.08 185.098 113.464C184.636 113.112 184.319 112.602 184.209 112.031C184.147 111.447 184.309 110.862 184.663 110.393C185.301 109.557 186.112 108.868 187.041 108.373L187.101 109.079C186.336 108.828 185.584 108.538 184.849 108.21C184.104 107.874 183.395 107.464 182.731 106.988C182.041 106.493 181.46 105.861 181.024 105.132C180.785 104.741 180.629 104.305 180.566 103.851C180.504 103.397 180.537 102.935 180.662 102.494L180.632 102.653C180.648 102.449 180.714 102.251 180.823 102.077C180.933 101.904 181.083 101.76 181.262 101.658C181.514 101.487 181.785 101.344 182.069 101.233C182.595 101.027 183.136 100.86 183.687 100.733C184.759 100.479 185.844 100.281 186.937 100.139C189.11 99.848 191.281 99.6629 193.468 99.5419L193.49 100.426C191.826 100.428 190.172 100.176 188.584 99.6785C187.773 99.421 187.004 99.0442 186.303 98.5604C185.942 98.314 185.616 98.0202 185.333 97.6869C184.998 97.3295 184.773 96.8826 184.687 96.4003C184.669 96.1448 184.703 95.8882 184.787 95.6462C184.87 95.4041 185.003 95.1817 185.175 94.9924C185.47 94.6515 185.826 94.3689 186.225 94.1592C186.964 93.7566 187.755 93.456 188.575 93.2655C190.169 92.8867 191.796 92.6657 193.434 92.6055C196.701 92.4119 199.918 92.9318 203.088 92.4161C206.291 92.0657 209.346 90.8743 211.94 88.9625L211.945 88.9588C211.954 88.9519 211.965 88.9486 211.976 88.9497C211.987 88.9509 211.997 88.9563 212.004 88.9649C212.011 88.9735 212.015 88.9845 212.014 88.9956C212.013 89.0068 212.008 89.0171 211.999 89.0244C209.451 91.0757 206.393 92.3937 203.152 92.8364C201.542 93.0903 199.913 93.1986 198.284 93.1598C196.668 93.1438 195.069 93.1001 193.47 93.2289C191.881 93.3197 190.304 93.5661 188.763 93.9647C188.013 94.1542 187.291 94.4439 186.618 94.8262C185.974 95.1942 185.439 95.7587 185.506 96.3048C185.75 96.9541 186.207 97.5021 186.801 97.8604C187.433 98.2916 188.125 98.6267 188.856 98.8547C190.357 99.3175 191.919 99.549 193.49 99.5413C193.604 99.542 193.715 99.5874 193.797 99.6678C193.879 99.7483 193.926 99.8575 193.929 99.9724C193.932 100.087 193.89 100.199 193.812 100.283C193.734 100.368 193.626 100.419 193.512 100.425C191.359 100.552 189.195 100.744 187.06 101.037C185.994 101.187 184.928 101.351 183.894 101.594C183.384 101.706 182.883 101.855 182.395 102.04C182.171 102.125 181.958 102.233 181.758 102.364C181.563 102.483 181.476 102.632 181.488 102.653C181.492 102.661 181.494 102.669 181.495 102.677C181.496 102.686 181.495 102.694 181.493 102.702L181.457 102.813C181.299 103.466 181.406 104.155 181.755 104.729C182.128 105.359 182.627 105.907 183.22 106.338C183.835 106.787 184.493 107.173 185.184 107.492C185.887 107.814 186.606 108.099 187.339 108.347C187.436 108.381 187.516 108.452 187.561 108.544C187.606 108.637 187.612 108.743 187.579 108.841C187.546 108.931 187.482 109.007 187.399 109.054C186.567 109.478 185.834 110.073 185.247 110.799C184.986 111.119 184.857 111.525 184.885 111.937C184.964 112.348 185.191 112.715 185.523 112.969C186.279 113.545 187.132 113.982 188.042 114.258C188.971 114.564 189.916 114.818 190.873 115.021C190.943 115.037 191.004 115.079 191.043 115.14C191.081 115.201 191.094 115.274 191.079 115.344C191.07 115.382 191.053 115.417 191.03 115.449C190.841 115.673 190.743 115.96 190.757 116.253C190.771 116.546 190.896 116.823 191.105 117.028C191.606 117.459 192.205 117.762 192.85 117.91C194.205 118.225 195.588 118.396 196.979 118.42C199.78 118.542 202.59 118.517 205.399 118.46C208.209 118.424 211.014 118.222 213.839 118.26C214.193 118.272 214.547 118.285 214.908 118.331C215.236 118.417 215.573 118.461 215.912 118.462C216.571 118.379 217.185 118.08 217.656 117.611C217.892 117.391 218.081 117.125 218.212 116.83C218.344 116.535 218.414 116.216 218.419 115.893C218.38 115.24 218.137 114.616 217.723 114.11L217.717 114.102C217.694 114.072 217.68 114.037 217.674 114C217.611 113.584 217.679 113.158 217.868 112.783C217.963 112.595 218.09 112.425 218.244 112.281C218.319 112.209 218.399 112.142 218.483 112.082C218.537 112.038 218.589 111.992 218.638 111.943C219.008 111.405 219.207 110.766 219.206 110.113C219.252 109.441 219.156 108.767 218.925 108.135C218.562 107.488 218.273 106.802 218.065 106.09C218.011 105.664 218.086 105.232 218.281 104.85C218.443 104.492 218.599 104.205 218.728 103.88C218.994 103.248 219.176 102.584 219.27 101.905C219.372 101.246 219.335 100.572 219.161 99.9284C218.988 99.2843 218.681 98.6837 218.261 98.1654L218.303 98.2083C217.229 97.0383 217.587 95.5207 217.63 94.4508C217.67 93.283 217.499 92.1177 217.126 91.0105C216.757 89.9034 216.163 88.8846 215.381 88.0181C214.994 87.5797 214.566 87.1783 214.104 86.8192C213.671 86.4418 213.172 86.1482 212.632 85.9537C211.508 85.6057 210.324 85.4926 209.155 85.6213C207.985 85.75 206.854 86.1179 205.833 86.7021C203.712 87.8348 201.787 89.3003 200.131 91.0429C200.123 91.051 200.112 91.0557 200.101 91.0558C200.089 91.056 200.078 91.0516 200.07 91.0436C200.062 91.0357 200.058 91.0252 200.058 91.014C200.057 91.0029 200.061 90.9922 200.069 90.9839Z" fill="#0073A8"/>
<path d="M193.532 99.5568C196.651 99.9155 199.796 99.9932 202.93 99.789C204.498 99.6941 206.054 99.4514 207.576 99.0642C209.122 98.7322 210.561 98.0247 211.768 97.0042C210.597 98.0868 209.178 98.8648 207.636 99.2697C206.114 99.7307 204.552 100.047 202.971 100.215C199.807 100.565 196.619 100.63 193.443 100.408C193.387 100.405 193.332 100.39 193.282 100.365C193.232 100.34 193.186 100.306 193.149 100.264C193.112 100.221 193.084 100.172 193.066 100.119C193.047 100.066 193.04 100.009 193.044 99.9533C193.047 99.8971 193.062 99.8423 193.087 99.7918C193.111 99.7413 193.146 99.6963 193.188 99.6591C193.231 99.622 193.28 99.5936 193.333 99.5755C193.386 99.5574 193.443 99.55 193.499 99.5536L193.516 99.5551L193.532 99.5568ZM187.269 108.286C191.502 108.778 195.76 109.013 200.022 108.99C202.153 108.979 204.282 108.839 206.396 108.569C208.526 108.374 210.596 107.759 212.487 106.761C210.62 107.826 208.562 108.513 206.429 108.781C204.312 109.123 202.176 109.336 200.034 109.418C195.746 109.584 191.453 109.49 187.177 109.137C187.064 109.128 186.959 109.075 186.885 108.988C186.812 108.902 186.776 108.79 186.785 108.677C186.794 108.563 186.847 108.459 186.934 108.385C187.02 108.311 187.132 108.275 187.245 108.284L187.258 108.285L187.269 108.286ZM190.834 114.857C194.064 115.034 197.314 115.112 200.555 115.062C202.175 115.024 203.797 114.969 205.41 114.811C207.031 114.725 208.625 114.365 210.125 113.744C208.646 114.433 207.06 114.866 205.436 115.023C203.822 115.254 202.197 115.38 200.572 115.489C197.319 115.682 194.065 115.748 190.801 115.712C190.687 115.711 190.579 115.665 190.499 115.584C190.42 115.503 190.376 115.393 190.377 115.28C190.378 115.166 190.425 115.058 190.506 114.978C190.587 114.899 190.696 114.855 190.81 114.856L190.827 114.857L190.834 114.857ZM188.041 28.5948C188.21 29.5197 188.32 30.4542 188.373 31.3928C188.425 32.3471 188.39 33.3042 188.267 34.252C188.133 35.2423 187.806 36.1968 187.305 37.0614C187.039 37.5536 186.67 37.983 186.224 38.3209C185.777 38.6587 185.264 38.8971 184.718 39.0201L185.307 38.2558C185.517 39.2571 185.803 40.2409 186.163 41.1984C186.333 41.651 186.542 42.0883 186.787 42.5056C186.944 42.8152 187.191 43.0704 187.495 43.2381L187.4 43.2108C191.212 43.991 195.023 44.7766 198.81 45.6733C202.595 46.5804 206.358 47.5878 210.133 48.5386C217.68 50.439 225.318 51.9536 233.018 53.0763L234.449 53.2703L235.176 53.3675C235.517 53.4247 235.844 53.5516 236.134 53.7403C237.03 54.4101 237.735 55.3027 238.179 56.3294C239.041 58.1422 239.715 60.0384 240.19 61.9885C241.149 65.8028 241.871 69.6727 242.353 73.576C243.328 81.3489 243.626 89.1916 243.246 97.0161L243.243 97.0611C243.235 97.2298 243.16 97.3884 243.036 97.5026C242.911 97.6169 242.747 97.6776 242.578 97.6716C238.624 97.5301 234.67 97.3671 230.716 97.1041C230.691 97.1024 230.667 97.0911 230.65 97.0726C230.633 97.054 230.623 97.0295 230.623 97.0041C230.623 96.9787 230.633 96.9542 230.65 96.9357C230.667 96.9171 230.691 96.9058 230.716 96.9041C234.67 96.6412 238.624 96.4782 242.578 96.3366L241.911 96.992C241.734 89.2477 241.15 81.5122 240.239 73.8374C239.827 70.0064 239.208 66.2004 238.386 62.436C237.984 60.5916 237.423 58.7856 236.708 57.0385C236.418 56.2543 235.94 55.553 235.316 54.9956C235.205 54.9084 235.08 54.8415 234.945 54.798C234.735 54.746 234.469 54.7004 234.234 54.6512L232.788 54.3507L221.391 51.7303C217.59 50.8897 213.776 50.1137 209.94 49.4399C206.106 48.7539 202.262 48.1112 198.442 47.3573C194.625 46.5939 190.834 45.7108 187.046 44.8107L187.001 44.8001L186.95 44.7833C186.289 44.4808 185.752 43.959 185.431 43.3063C185.155 42.7942 184.924 42.259 184.741 41.7069C184.405 40.65 184.158 39.5669 184.003 38.4688C183.977 38.293 184.022 38.1141 184.128 37.9713C184.234 37.8285 184.392 37.7337 184.567 37.7075L184.593 37.7043C184.934 37.6419 185.255 37.5002 185.531 37.2907C185.857 37.0568 186.141 36.7694 186.371 36.4407C186.855 35.7213 187.207 34.9216 187.411 34.0789C187.626 33.1964 187.759 32.296 187.809 31.3892C187.864 30.472 187.852 29.5479 187.842 28.6166C187.842 28.6035 187.843 28.5903 187.848 28.5779C187.852 28.5655 187.859 28.554 187.867 28.5442C187.876 28.5344 187.887 28.5264 187.899 28.5206C187.91 28.5149 187.923 28.5115 187.936 28.5108C187.961 28.5103 187.985 28.5185 188.004 28.5338C188.023 28.5492 188.036 28.5707 188.041 28.5948ZM111.558 65.6805C111.105 64.5687 111.003 63.3449 111.265 62.1734C111.42 61.5665 111.694 60.9968 112.073 60.4979C112.464 60.0014 112.941 59.579 113.481 59.2507C115.576 58.0657 117.675 57.1575 119.803 56.2033C124.044 54.3177 128.341 52.5918 132.603 50.8116C134.741 49.9436 136.875 49.0577 138.951 48.1134C141.085 47.1004 143.31 46.291 145.596 45.696C150.076 44.5106 154.576 43.3932 159.134 42.4662C154.815 44.1909 150.439 45.7252 146.043 47.1914C143.884 47.9026 141.784 48.783 139.762 49.8244C137.646 50.8509 135.507 51.7544 133.366 52.6592C129.064 54.4125 124.734 56.0598 120.386 57.6446C118.237 58.4604 115.997 59.2038 113.957 60.1037C112.967 60.5327 112.188 61.3372 111.791 62.3405C111.403 63.4102 111.322 64.5673 111.558 65.6805Z" fill="#18181B"/>
<path d="M216.881 89.5007C219.251 89.6472 221.563 90.2886 223.67 91.3837C225.804 92.4058 227.844 93.6115 229.769 94.9872C231.686 96.3611 233.519 97.8495 235.257 99.4441C236.988 101.037 238.642 102.699 240.268 104.399C239.334 103.683 238.438 102.926 237.523 102.192C236.62 101.445 235.748 100.654 234.824 99.9402C233.011 98.4716 231.172 97.0342 229.274 95.6849C227.382 94.3333 225.413 93.0927 223.376 91.9695C222.36 91.4066 221.308 90.9087 220.229 90.4785C219.159 90.0112 218.034 89.6825 216.881 89.5007Z" fill="#0073A8"/>
<path d="M216.913 118.349C220.279 121.661 224.006 124.586 228.024 127.068C229.026 127.666 230.09 128.152 231.197 128.52C232.295 128.904 233.479 128.974 234.615 128.722C236.92 128.182 238.93 126.78 240.234 124.803C241.456 122.817 242.202 120.575 242.413 118.252C242.634 115.92 242.59 113.571 242.283 111.249C241.996 108.898 241.918 106.509 241.756 104.138C241.623 101.763 241.523 99.3861 241.457 97.0076C241.457 97.002 241.458 96.9964 241.46 96.9912C241.462 96.9859 241.465 96.9811 241.469 96.977C241.473 96.9729 241.477 96.9696 241.483 96.9673C241.488 96.965 241.493 96.9638 241.499 96.9636C241.509 96.9634 241.52 96.967 241.528 96.9738C241.536 96.9806 241.541 96.9901 241.543 97.0006C242.219 101.712 242.669 106.425 243.16 111.152C243.508 113.539 243.526 115.963 243.211 118.355C242.933 120.78 242.039 123.093 240.615 125.076C239.864 126.026 238.975 126.859 237.976 127.545C236.953 128.18 235.847 128.672 234.691 129.009C233.501 129.295 232.258 129.285 231.073 128.98C229.898 128.683 228.761 128.251 227.686 127.692C225.578 126.54 223.612 125.146 221.826 123.539C220.031 121.965 218.367 120.249 216.849 118.406C216.842 118.398 216.839 118.386 216.84 118.375C216.841 118.364 216.847 118.353 216.856 118.346C216.864 118.34 216.874 118.336 216.885 118.337C216.895 118.337 216.905 118.342 216.913 118.349ZM219.698 83.7558C219.365 81.6106 219.172 79.4459 219.122 77.2756C219.049 75.1001 219.118 72.9221 219.328 70.7556C219.515 68.5673 219.969 66.4103 220.682 64.3328C221.049 63.2817 221.573 62.2916 222.234 61.3955C222.563 60.9455 222.978 60.5657 223.456 60.2786C223.934 59.9915 224.465 59.803 225.016 59.7239C224.003 60.0519 223.152 60.7509 222.632 61.6806C222.086 62.5798 221.675 63.5543 221.412 64.5729C220.87 66.6325 220.505 68.7348 220.323 70.8568C220.095 72.9848 219.994 75.1306 219.888 77.2803C219.835 78.3557 219.806 79.433 219.786 80.5116L219.698 83.7558ZM183.478 51.023C183.375 51.0229 183.275 50.9855 183.197 50.9177C183.119 50.8499 183.069 50.7561 183.054 50.6539C183.04 50.5516 183.063 50.4476 183.12 50.3611C183.176 50.2746 183.262 50.2114 183.361 50.1832C185.373 49.6134 186.526 45.48 186.801 43.9356C186.821 43.8239 186.885 43.7246 186.978 43.6597C187.071 43.5947 187.186 43.5695 187.298 43.5894C187.41 43.6094 187.509 43.6729 187.574 43.766C187.639 43.8591 187.664 43.9742 187.644 44.086C187.6 44.334 186.528 50.1754 183.595 51.0064C183.557 51.0174 183.518 51.023 183.478 51.023Z" fill="#18181B"/>
<path d="M239.079 126.471C239.229 128.903 239.319 131.335 239.377 133.767C239.454 136.199 239.488 138.631 239.497 141.062C239.497 141.122 239.484 141.181 239.46 141.235C239.435 141.289 239.399 141.337 239.354 141.377C236.985 143.456 234.424 145.306 231.704 146.899C230.33 147.699 228.861 148.323 227.332 148.757C226.55 148.98 225.724 149.003 224.931 148.825C224.539 148.724 224.181 148.524 223.89 148.243C223.599 147.963 223.386 147.612 223.271 147.225C223.422 147.575 223.658 147.881 223.958 148.118C224.257 148.354 224.61 148.513 224.986 148.58C225.738 148.669 226.501 148.58 227.213 148.321C228.668 147.816 230.054 147.131 231.339 146.282C233.954 144.616 236.449 142.767 238.803 140.749L238.661 141.062C238.67 138.631 238.704 136.199 238.78 133.767C238.839 131.335 238.929 128.903 239.079 126.471ZM71.4868 270.178C72.012 271.125 72.3936 272.145 72.6191 273.204C72.8792 274.256 72.9798 275.34 72.9174 276.422C72.3905 275.475 72.0088 274.455 71.7854 273.395C71.5269 272.344 71.4263 271.259 71.4868 270.178ZM97.113 269.379C97.6664 270.084 98.0889 270.882 98.3606 271.736C98.6643 272.58 98.8125 273.471 98.7978 274.368C98.2428 273.664 97.8201 272.865 97.5503 272.01C97.2482 271.166 97.1001 270.275 97.113 269.379Z" fill="#18181B"/>
<path d="M105.369 293.883C105.369 293.883 89.9694 296.343 86.6793 298.193C83.3898 300.043 50.1193 303.743 41.8995 304.153C34.8279 304.295 27.7542 303.998 20.7194 303.263C19.7257 303.139 18.7941 302.713 18.0494 302.043C16.4493 300.553 15.9093 297.733 28.7594 294.903C34.8834 293.463 40.8645 291.472 46.6296 288.953C48.1096 289.993 49.5695 290.693 50.9294 291.513C51.6083 291.892 52.2631 292.313 52.8898 292.773C53.541 293.273 54.1286 293.851 54.6398 294.493C54.717 293.55 54.4387 292.612 53.8596 291.863C53.3125 291.109 52.6058 290.484 51.7897 290.033C51.0181 289.579 50.1767 289.254 49.2995 289.073C48.4329 288.858 47.5321 288.817 46.6496 288.953C50.0895 287.493 53.4494 285.933 56.5695 284.393C57.0998 284.933 57.5197 285.413 57.9494 285.893L59.1398 287.333L60.3195 288.823C60.7487 289.379 61.2165 289.904 61.7194 290.393C61.8175 289.657 61.7456 288.908 61.5094 288.203C61.2881 287.497 60.9352 286.839 60.4694 286.263C60.0059 285.672 59.4233 285.185 58.7594 284.833C58.0979 284.449 57.328 284.295 56.5695 284.393C65.3497 280.053 72.3693 275.833 74.7697 274.363C79.4894 271.493 81.9596 271.693 84.2096 274.363C85.3989 275.653 87.0263 276.453 88.7739 276.606C90.5215 276.76 92.2635 276.256 93.6593 275.193C99.2096 271.493 103.11 274.983 103.319 276.423C103.52 277.863 108.04 286.283 105.369 293.883ZM170.809 270.964C171.527 272.607 172.021 274.34 172.277 276.115C172.414 276.993 172.507 277.877 172.555 278.764C172.614 279.666 172.588 280.571 172.477 281.468C172.094 280.65 171.789 279.797 171.565 278.921C171.336 278.063 171.15 277.194 171.01 276.317C170.702 274.55 170.635 272.749 170.809 270.964ZM195.639 272.941C196.088 274.261 196.305 275.648 196.281 277.041C196.279 277.727 196.232 278.412 196.14 279.092C196.055 279.793 195.887 280.481 195.639 281.142C195.391 280.481 195.223 279.793 195.138 279.092C195.046 278.412 194.999 277.727 194.998 277.041C194.973 275.648 195.19 274.261 195.639 272.941Z" fill="#0073A8"/>
<path d="M200.17 308.593C200.17 308.593 185.48 312.173 178.13 316.313C170.78 320.463 155.52 326.393 138.01 321.313C138.01 321.313 134.33 321.023 158.07 299.833C158.07 299.833 158.69 298.963 159.7 297.573C162.61 297.543 165.45 297.373 168.26 297.493C169.651 297.532 171.034 297.71 172.39 298.023C173.761 298.285 174.995 299.026 175.869 300.113C175.656 299.383 175.236 298.73 174.659 298.233C174.076 297.74 173.413 297.347 172.699 297.073C171.297 296.547 169.817 296.257 168.32 296.213C166.851 296.163 165.381 296.253 163.929 296.483C162.484 296.691 161.065 297.056 159.699 297.573C161.179 295.543 163.52 292.413 166 289.343C169.11 288.907 172.25 288.726 175.39 288.803C176.928 288.885 178.456 289.092 179.96 289.423C181.476 289.821 182.947 290.374 184.35 291.073C183.185 289.923 181.787 289.036 180.25 288.473C178.702 287.933 177.086 287.613 175.449 287.523C173.825 287.468 172.199 287.588 170.6 287.883C169.013 288.163 167.469 288.65 166.01 289.333C169.94 284.473 174.24 279.773 176.15 279.773C179.69 279.773 183.679 282.263 188.32 285.813C189.105 286.45 189.837 287.149 190.51 287.903C191.29 288.743 190.72 289.603 194.23 281.463C194.23 281.463 198.76 273.843 200.17 308.593ZM160.487 250.669C155.48 250.789 150.473 250.852 145.467 250.858C138.235 250.892 131.012 250.832 123.788 250.746C116.565 250.627 109.342 250.49 102.119 250.25C100.056 250.19 98.0019 250.122 95.9395 250.036L95.5713 248.966C97.7623 248.941 99.9447 248.924 102.136 248.924C109.359 248.889 116.591 248.949 123.814 249.035C131.037 249.146 138.261 249.283 145.484 249.523C150.465 249.668 155.449 249.871 160.435 250.13L160.487 250.669Z" fill="#0073A8"/>
<path d="M160.44 250.133L95.5698 248.963L87.3598 224.983C89.6796 225.043 92.0097 225.083 94.3398 225.123C102.43 225.263 110.51 225.293 118.61 225.313C126.7 225.293 134.79 225.263 142.87 225.123C148.18 225.043 153.486 224.92 158.79 224.753C158.78 224.553 158.77 224.363 158.75 224.153C153.46 223.983 148.166 223.86 142.87 223.783C134.79 223.653 126.7 223.613 118.61 223.603C110.51 223.613 102.43 223.653 94.3398 223.783C91.8901 223.823 89.4399 223.863 87 223.923L80.4199 204.733C83.3696 204.873 86.3101 204.993 89.2598 205.083C96.2798 205.343 103.31 205.493 110.33 205.633C117.36 205.733 124.39 205.823 131.41 205.803C137.17 205.803 149.63 205.733 157.82 205.603C157.81 205.493 157.81 205.383 157.81 205.263C149.64 204.913 137.19 204.663 131.43 204.473C124.41 204.213 117.39 204.063 110.36 203.923C103.33 203.823 96.3101 203.743 89.2798 203.763C86.23 203.763 83.1699 203.773 80.1196 203.823L80.31 204.403L70.8599 176.803C70.8599 176.803 136.84 182.433 156.31 168.583L160.44 250.133Z" fill="#18181B"/>
<path d="M213.599 225.737C216.724 225.776 219.822 225.785 222.88 225.583C224.393 225.492 225.898 225.304 227.387 225.022C228.81 224.801 230.177 224.312 231.417 223.58C231.955 223.256 232.404 222.802 232.721 222.259C232.861 221.992 232.963 221.706 233.024 221.411L233.233 220.288C233.519 218.787 233.702 217.262 233.909 215.735C234.279 212.675 234.553 209.588 234.844 206.475C235.282 209.578 235.436 212.715 235.304 215.846C235.262 217.417 235.106 218.984 234.911 220.553L234.727 221.727C234.64 222.195 234.487 222.648 234.273 223.073C233.83 223.892 233.184 224.583 232.397 225.081C231.673 225.537 230.89 225.891 230.07 226.135C229.29 226.383 228.492 226.569 227.683 226.69C226.105 226.922 224.51 227.018 222.915 226.978C219.772 226.925 216.646 226.509 213.599 225.737Z" fill="white"/>
<path d="M290.27 149.723C290.91 153.383 266.15 216.043 263.56 226.293C260.98 236.553 243.97 249.893 243.97 249.893C234.06 257.683 201.33 253.923 201.33 253.923L197.02 169.843C201.62 169.923 206.23 169.953 210.83 169.993C213.15 169.983 215.4 170.033 217.77 169.963C220.172 169.871 222.537 169.342 224.75 168.403C229.244 166.488 232.9 163.02 235.05 158.633C235.563 157.56 236.014 156.458 236.4 155.333L237.61 152.113C238.42 149.963 239.23 147.823 240.08 145.693C241.78 141.443 243.53 137.203 245.57 133.173C246.09 132.173 246.63 131.193 247.21 130.263C247.728 129.375 248.356 128.555 249.08 127.823C249.207 127.7 249.348 127.593 249.5 127.503C249.55 127.494 249.6 127.443 249.61 127.463C249.63 127.463 249.63 127.453 249.65 127.443L249.89 127.423L251.59 127.293L255.01 127.073C259.58 126.843 264.16 126.733 268.7 126.943C270.952 127.024 273.196 127.248 275.42 127.613C276.492 127.793 277.546 128.068 278.57 128.433C279.447 128.685 280.213 129.228 280.74 129.973L280.76 130.003C280.826 130.139 280.922 130.259 281.04 130.353C282.016 131.188 282.836 132.191 283.46 133.313C284.12 134.473 284.595 135.728 284.87 137.033C285.435 139.707 285.404 142.473 284.78 145.133C284.61 145.803 284.48 146.483 284.28 147.153C284.07 147.813 283.88 148.483 283.65 149.143C283.2 150.473 282.73 151.793 282.23 153.113C281.25 155.743 280.21 158.363 279.15 160.973C277.03 166.183 274.79 171.353 272.49 176.493L265.46 191.863C263.08 196.973 260.76 202.107 258.5 207.263C256.24 212.413 253.99 217.603 251.92 222.853C249.81 228.083 247.9 233.423 246.01 238.703C245.048 241.325 243.916 243.88 242.62 246.353C241.961 247.577 241.198 248.741 240.34 249.833C239.51 250.94 238.458 251.86 237.25 252.533C237.236 252.539 237.223 252.547 237.212 252.558C237.201 252.568 237.192 252.581 237.187 252.595C237.181 252.609 237.179 252.624 237.179 252.64C237.18 252.655 237.183 252.67 237.19 252.683C237.201 252.712 237.223 252.736 237.251 252.749C237.279 252.762 237.311 252.764 237.34 252.753C238.664 252.173 239.843 251.306 240.79 250.213C241.742 249.149 242.602 248.005 243.36 246.793C244.866 244.374 246.164 241.832 247.24 239.193C249.36 233.943 251.51 228.773 253.7 223.593C255.91 218.413 258.17 213.273 260.46 208.123C262.73 202.963 264.927 197.773 267.05 192.553L273.39 176.883L279.83 161.253L283.03 153.423C284.153 150.81 285.108 148.128 285.89 145.393C286.653 142.575 286.8 139.624 286.32 136.743C286.064 135.277 285.589 133.858 284.91 132.533C284.259 131.233 283.378 130.061 282.31 129.073C281.999 128.482 281.55 127.974 281 127.593C280.47 127.215 279.896 126.902 279.29 126.663C278.258 126.256 277.195 125.934 276.11 125.703C276.61 121.766 276.881 117.802 276.92 113.833C277.01 111.763 276.87 109.693 276.79 107.623C276.73 105.543 276.44 103.483 276.21 101.413C276.11 100.373 275.9 99.3534 275.7 98.3234C275.48 97.3034 275.34 96.2734 275.06 95.2634L274.2 92.2334C273.87 91.2434 273.46 90.2634 273.08 89.2934C272.67 88.3234 272.15 87.3934 271.68 86.4534L270.8 85.1334L270.36 84.4734L269.84 83.8734C269.169 83.0507 268.388 82.324 267.52 81.7134C266.677 81.078 265.686 80.6684 264.64 80.5234C265.132 80.666 265.597 80.8854 266.02 81.1734L266.65 81.6034L267.22 82.1034C267.955 82.7853 268.6 83.5582 269.14 84.4034L269.57 85.0134L269.93 85.6835L270.65 87.0034C271.01 87.9534 271.46 88.8534 271.79 89.8034C273.072 93.653 273.957 97.6237 274.43 101.653C274.69 103.683 274.99 105.693 275.09 107.743C275.27 109.773 275.44 111.813 275.52 113.863C275.77 117.793 275.8 121.733 276.03 125.693C275.954 125.672 275.877 125.655 275.8 125.643C273.496 125.193 271.164 124.899 268.82 124.763C264.17 124.483 259.53 124.513 254.9 124.683L251.43 124.843L249.69 124.953L249.5 124.963C249.38 124.983 249.24 125.003 249.11 125.023C248.867 125.072 248.631 125.152 248.41 125.263C248.055 125.443 247.726 125.668 247.43 125.934C246.498 126.808 245.697 127.812 245.05 128.914C244.41 129.934 243.85 130.964 243.31 132.004C241.229 136.161 239.379 140.431 237.77 144.794C236.95 146.964 236.15 149.124 235.39 151.304L234.26 154.574C233.933 155.636 233.542 156.678 233.09 157.694C232.18 159.682 230.923 161.494 229.38 163.044C227.824 164.591 226.01 165.857 224.02 166.784C222.025 167.74 219.874 168.326 217.67 168.514C215.44 168.684 213.09 168.734 210.81 168.854C206.21 169.084 201.61 169.314 197.01 169.604L196.98 168.994C196.98 168.994 222.27 169.383 223.27 147.224C223.27 147.224 222.64 154.204 239.08 141.064V126.474C239.08 126.474 244.8 123.504 242.6 110.254L241.5 97.0035H242.58C242.58 97.0035 242.6 77.6736 241.56 75.6736C273.69 78.1036 276.7 82.5536 276.7 82.5536C289.19 96.9736 287.25 129.634 287.25 129.634C296.29 130.853 290.27 149.723 290.27 149.723Z" fill="#18181B"/>
<path d="M197.02 169.844C196.987 169.841 196.957 169.826 196.935 169.802C196.912 169.778 196.9 169.746 196.9 169.714C196.9 169.684 196.912 169.657 196.932 169.636C196.953 169.615 196.981 169.604 197.01 169.604L197.02 169.844Z" fill="white"/>
<path d="M229.453 253.911C230.114 258.351 230.645 262.795 231.186 267.239L231.933 273.906L232.579 280.576C232.787 282.799 233.119 285.019 233.412 287.24C233.696 289.456 233.771 291.693 233.634 293.922C233.5 296.173 233.231 298.414 232.828 300.633C232.431 302.937 231.805 305.195 230.96 307.374C230.933 307.441 230.888 307.498 230.828 307.539C230.769 307.581 230.7 307.603 230.628 307.606C230.556 307.608 230.485 307.589 230.423 307.551C230.362 307.513 230.313 307.458 230.282 307.393C229.316 305.265 228.564 303.046 228.037 300.768C227.511 298.576 227.116 296.353 226.855 294.113C226.593 291.895 226.541 289.657 226.7 287.43C226.867 285.195 227.074 282.96 227.156 280.729L227.425 274.033L227.796 267.334C228.086 262.867 228.365 258.401 228.775 253.93C228.783 253.847 228.821 253.77 228.882 253.712C228.942 253.655 229.022 253.622 229.106 253.62C229.189 253.618 229.271 253.646 229.335 253.7C229.399 253.753 229.441 253.828 229.453 253.911V253.911ZM259.216 234.451C259.712 238.603 260.077 242.753 260.452 246.902L260.952 253.123L261.35 259.343C261.475 261.416 261.725 263.489 261.934 265.562C262.136 267.629 262.127 269.712 261.908 271.777C261.69 273.869 261.338 275.945 260.854 277.991C260.367 280.132 259.658 282.215 258.736 284.208L258.734 284.213C258.703 284.277 258.655 284.331 258.595 284.369C258.535 284.406 258.465 284.426 258.394 284.425C258.323 284.425 258.254 284.404 258.195 284.365C258.135 284.327 258.088 284.272 258.058 284.208C257.174 282.21 256.504 280.124 256.061 277.984C255.616 275.931 255.304 273.851 255.126 271.758C254.947 269.685 254.979 267.599 255.22 265.533C255.47 263.459 255.76 261.385 255.924 259.312L256.442 253.091L257.062 246.872C257.517 242.728 257.962 238.584 258.538 234.443C258.549 234.361 258.591 234.285 258.654 234.231C258.717 234.177 258.797 234.147 258.881 234.148C258.964 234.149 259.044 234.18 259.106 234.236C259.167 234.292 259.207 234.368 259.216 234.451L259.216 234.451Z" fill="#18181B"/>
<path d="M79.7397 140.573V140.793C79.73 140.723 79.7197 140.643 79.71 140.573H79.7397Z" fill="white"/>
<path d="M165.355 68.6354C166.779 68.1014 168.225 67.5569 169.708 67.0274C171.193 66.5022 172.664 65.9435 174.188 65.4334L178.744 63.8748C180.283 63.387 181.816 62.887 183.358 62.4346L183.381 62.4281C183.477 62.3999 183.58 62.4111 183.668 62.4591C183.756 62.5072 183.822 62.5883 183.85 62.6845L183.859 62.7245L184.655 67.1847C184.906 68.6744 185.219 70.1511 185.507 71.633C186.113 74.5905 186.804 77.5301 187.523 80.4638C187.54 80.5365 187.53 80.6133 187.493 80.6787C187.457 80.744 187.397 80.7931 187.325 80.8159L187.305 80.8222C184.503 81.7092 181.687 82.5443 178.867 83.3668C176.049 84.1951 173.229 85.0217 170.394 85.7885L170.387 85.7903C170.254 85.8261 170.113 85.8083 169.993 85.7407C169.873 85.6731 169.784 85.561 169.746 85.4287C168.931 82.5941 168.192 79.7452 167.443 76.9311L165.355 68.6354ZM165.443 68.6822L168.207 77.0088C169.077 79.7355 169.955 82.4273 170.757 85.1335L170.11 84.7739C172.931 83.956 175.769 83.198 178.608 82.4416C181.444 81.6795 184.285 80.9299 187.14 80.2323L186.923 80.5905C186.394 77.6168 185.836 74.6489 185.194 71.6991C184.859 70.2272 184.547 68.7502 184.174 67.2862L183.098 62.8854L183.598 63.1751C182.127 63.6983 180.647 64.174 179.173 64.6619L174.689 66.0302C173.2 66.4958 171.658 66.9127 170.13 67.3632L165.443 68.6822Z" fill="#0073A8"/>
<path d="M118.966 113.744L135.212 113.029L138.132 127.656H120.878L118.966 113.744Z" fill="#0073A8"/>
<path d="M89.4143 74.0737L91.1675 79.739C91.7036 81.5644 92.2185 83.35 92.6514 85.173L92.2251 84.8413C94.4714 84.8861 96.718 85.0467 98.9646 85.1077C101.211 85.1625 103.458 85.0983 105.704 85.0096L105.44 85.3445C104.904 83.4923 104.393 81.6341 103.908 79.7697C103.437 77.9018 102.929 76.043 102.489 74.1677L103.008 74.5771C100.808 74.5843 98.6157 74.5034 96.3701 74.4081L89.4143 74.0737ZM89.3354 74.0123C91.4729 73.9008 93.7117 73.7708 96.0132 73.6779C98.312 73.5827 100.664 73.5017 103.008 73.5089C103.128 73.5096 103.244 73.5503 103.338 73.6245C103.433 73.6987 103.499 73.8022 103.528 73.9185C103.987 75.7892 104.377 77.6764 104.805 79.5545C105.22 81.4356 105.608 83.3233 105.968 85.2177L105.973 85.2407C105.979 85.2746 105.979 85.3095 105.972 85.3433C105.965 85.3771 105.951 85.4092 105.932 85.4377C105.913 85.4663 105.888 85.4908 105.859 85.5097C105.83 85.5287 105.798 85.5418 105.764 85.5483C105.744 85.5519 105.724 85.5534 105.704 85.5528C103.458 85.4641 101.211 85.3999 98.9646 85.4548C96.718 85.5158 94.4714 85.6763 92.2251 85.7211C92.1294 85.723 92.0357 85.6929 91.9591 85.6354C91.8825 85.578 91.8273 85.4966 91.8022 85.4041L91.7983 85.3893C91.2812 83.4663 90.8462 81.5058 90.4323 79.5851C90.0452 77.6691 89.6663 75.7848 89.3354 74.0123ZM109.941 75.6766C112.208 75.3226 114.501 75.1555 116.796 75.1769C119.091 75.1533 121.384 75.3204 123.651 75.6766C121.384 76.0328 119.091 76.2 116.796 76.1763C114.501 76.1978 112.208 76.0307 109.941 75.6766ZM111.289 83.7557C113.33 83.402 115.399 83.2347 117.47 83.256C119.541 83.2325 121.611 83.3998 123.651 83.7557C121.611 84.1116 119.541 84.2789 117.47 84.2554C115.399 84.2767 113.33 84.1095 111.289 83.7557ZM94.2788 91.561C96.8977 91.3547 99.5166 91.2581 102.135 91.1781C104.754 91.0867 107.373 91.0738 109.992 91.0613C112.611 91.0725 115.23 91.0857 117.849 91.1764L121.777 91.3159C123.086 91.3989 124.396 91.4476 125.705 91.561C124.396 91.6744 123.086 91.723 121.777 91.8061L117.849 91.9456C115.23 92.0362 112.611 92.0494 109.992 92.0607C107.373 92.0481 104.754 92.0352 102.135 91.9438C99.5166 91.8638 96.8977 91.7672 94.2788 91.561ZM96.4229 97.0041C98.863 96.7978 101.303 96.7012 103.743 96.6212C106.184 96.5298 108.624 96.5169 111.064 96.5043C113.504 96.5156 115.944 96.5288 118.385 96.6194L122.045 96.7589C123.265 96.842 124.485 96.8907 125.705 97.0041C124.485 97.1174 123.265 97.1661 122.045 97.2492L118.385 97.3887C115.944 97.4793 113.504 97.4925 111.064 97.5038C108.624 97.4912 106.184 97.4783 103.743 97.3869C101.303 97.3069 98.863 97.2103 96.4229 97.0041ZM109.941 102.961C113.447 102.606 116.969 102.439 120.493 102.461C124.017 102.437 127.54 102.604 131.046 102.961C127.54 103.317 124.017 103.484 120.493 103.46C116.969 103.482 113.447 103.315 109.941 102.961ZM116.796 108.866C119.852 108.512 122.927 108.345 126.004 108.366C129.08 108.342 132.155 108.509 135.211 108.866C132.155 109.223 129.08 109.389 126.004 109.366C122.927 109.387 119.852 109.22 116.796 108.866ZM138.132 74.043C144.83 72.1771 151.691 70.9587 158.622 70.4047C155.283 71.3601 151.894 72.1313 148.471 72.7147C145.051 73.344 141.6 73.7875 138.132 74.043ZM139.672 81.4963C143.102 80.4658 146.584 79.6164 150.104 78.9518C153.614 78.2425 157.16 77.7206 160.726 77.3883C157.297 78.421 153.815 79.2703 150.295 79.9328C146.784 80.6399 143.238 81.1618 139.672 81.4963ZM143.883 89.5006C147.031 88.4536 150.236 87.5862 153.482 86.9026C156.719 86.1746 159.995 85.6332 163.293 85.2812C160.146 86.3304 156.941 87.1978 153.695 87.8792C150.457 88.605 147.182 89.1464 143.883 89.5006ZM146.04 96.9495C149.659 95.9515 153.302 95.0605 156.948 94.1858C160.591 93.2999 164.251 92.4908 167.912 91.6819C171.577 90.8964 175.243 90.1127 178.925 89.4047L184.449 88.3462C186.298 88.0291 188.14 87.6784 189.996 87.3909C188.188 87.9 186.367 88.3458 184.553 88.8253L179.088 90.1564C175.445 91.0415 171.784 91.851 168.124 92.6585C164.458 93.4428 160.792 94.2268 157.11 94.934C153.43 95.6524 149.747 96.3545 146.04 96.9495ZM148.377 104.398C151.26 103.58 154.165 102.87 157.073 102.175C159.98 101.47 162.902 100.841 165.825 100.212C168.752 99.6071 171.68 99.0039 174.624 98.4763L179.04 97.6885C180.52 97.4617 181.992 97.2012 183.478 97.004C182.039 97.423 180.586 97.7788 179.141 98.1682L174.782 99.229C171.876 99.9339 168.953 100.563 166.031 101.19C163.103 101.794 160.175 102.398 157.231 102.924C154.29 103.462 151.345 103.984 148.377 104.398ZM150.199 111.639C152.691 110.974 155.203 110.417 157.717 109.876C160.23 109.324 162.757 108.849 165.283 108.374C167.814 107.923 170.346 107.474 172.891 107.101L176.71 106.545C177.989 106.396 179.262 106.213 180.547 106.093C179.303 106.436 178.047 106.715 176.798 107.027L173.029 107.858C170.517 108.409 167.99 108.884 165.463 109.357C162.932 109.807 160.4 110.257 157.855 110.629C155.312 111.012 152.765 111.38 150.199 111.639ZM151.586 117.435C154.31 116.809 157.052 116.291 159.795 115.79C162.537 115.278 165.291 114.843 168.045 114.409C170.802 113.998 173.56 113.589 176.33 113.256L180.484 112.761C181.875 112.632 183.26 112.469 184.655 112.37C183.294 112.693 181.924 112.952 180.559 113.246L176.446 114.017C173.704 114.528 170.95 114.963 168.196 115.396C165.438 115.806 162.681 116.215 159.911 116.547C157.143 116.89 154.373 117.217 151.586 117.435ZM153.588 124.832C156.588 124.116 159.606 123.508 162.626 122.916C165.645 122.313 168.677 121.788 171.709 121.263C174.745 120.761 177.781 120.262 180.83 119.838L185.404 119.207C186.935 119.033 188.46 118.824 189.996 118.68C188.498 119.048 186.989 119.352 185.486 119.69L180.958 120.597C177.939 121.199 174.907 121.725 171.875 122.248C168.839 122.749 165.803 123.249 162.754 123.671C159.707 124.105 156.657 124.522 153.588 124.832Z" fill="#0073A8"/>
</svg>
