<svg width="478" height="325" viewBox="0 0 478 325" fill="none" xmlns="http://www.w3.org/2000/svg">
<path fill-rule="evenodd" clip-rule="evenodd" d="M241.211 122.496C240.001 119.996 237.831 120.266 235.181 114.976C232.641 109.636 234.191 108.096 232.981 105.596C232.191 103.996 228.511 102.066 220.341 104.386C215.681 105.706 208.871 107.996 209.071 110.356C209.311 113.296 212.111 112.966 215.461 114.686C218.851 116.446 219.981 117.526 221.891 121.456C223.121 123.986 223.631 125.536 223.641 127.326C224.501 130.356 226.801 136.786 230.191 134.296C233.371 131.946 238.761 126.466 241.461 123.676C241.462 123.269 241.377 122.867 241.211 122.496ZM227.951 114.726C227.348 115.02 226.672 115.129 226.007 115.039C225.342 114.948 224.719 114.663 224.217 114.218C223.714 113.774 223.355 113.191 223.184 112.542C223.013 111.894 223.038 111.209 223.256 110.575C223.474 109.94 223.875 109.385 224.409 108.978C224.942 108.572 225.584 108.333 226.254 108.291C226.923 108.25 227.59 108.408 228.17 108.745C228.75 109.082 229.216 109.584 229.511 110.186C229.904 110.995 229.961 111.927 229.669 112.778C229.376 113.629 228.759 114.33 227.951 114.726L227.951 114.726ZM230.891 124.626C230.589 124.775 230.249 124.83 229.915 124.786C229.581 124.741 229.268 124.599 229.015 124.376C228.762 124.153 228.581 123.86 228.495 123.535C228.408 123.209 228.421 122.865 228.53 122.546C228.64 122.228 228.841 121.949 229.11 121.745C229.378 121.541 229.701 121.421 230.037 121.4C230.373 121.38 230.708 121.46 230.999 121.63C231.29 121.8 231.524 122.053 231.671 122.356C231.864 122.761 231.891 123.226 231.745 123.65C231.599 124.075 231.292 124.425 230.891 124.626H230.891ZM235.421 126.186C235.119 126.331 234.781 126.383 234.449 126.336C234.118 126.29 233.808 126.145 233.558 125.922C233.308 125.699 233.13 125.407 233.046 125.083C232.962 124.759 232.976 124.417 233.086 124.101C233.196 123.785 233.397 123.508 233.664 123.306C233.932 123.104 234.252 122.986 234.587 122.966C234.921 122.946 235.254 123.026 235.543 123.195C235.832 123.364 236.064 123.615 236.211 123.916C236.309 124.117 236.367 124.335 236.381 124.558C236.394 124.781 236.364 125.005 236.29 125.216C236.217 125.427 236.102 125.622 235.953 125.788C235.804 125.955 235.623 126.09 235.421 126.186H235.421Z" fill="#0073A8"/>
<path d="M135.505 40.2214C136.3 41.5687 136.986 42.9777 137.556 44.4349C138.14 45.9069 138.577 47.4333 138.859 48.9916C138.997 49.8016 139.049 50.624 139.013 51.4449L138.979 51.9967C138.974 52.1524 138.981 52.3083 139.001 52.4628C139.035 52.7811 139.114 53.0931 139.236 53.3891C139.831 54.6907 140.848 55.7528 142.123 56.4028L142.171 56.4271C142.238 56.4611 142.292 56.5166 142.324 56.5846C142.356 56.6527 142.364 56.7295 142.348 56.8028C142.242 57.2306 142.081 57.6428 141.869 58.0289C141.664 58.4137 141.398 58.7621 141.08 59.06C140.767 59.3688 140.389 59.6043 139.974 59.7496C139.566 59.8946 139.137 59.9728 138.704 59.9813L138.947 59.6996C139.279 61.8175 139.502 63.9511 139.614 66.0919C139.661 67.1849 139.609 68.2799 139.46 69.3636C139.332 70.5312 138.94 71.6542 138.314 72.6475C137.56 73.6199 136.52 74.3324 135.342 74.6854C134.283 75.0411 133.191 75.2878 132.083 75.4215C129.922 75.6651 127.741 75.6747 125.578 75.45L126.205 75.0774C125.958 75.5962 125.76 76.1369 125.613 76.6924C125.46 77.2514 125.386 77.8293 125.394 78.4089C125.413 78.9824 125.545 79.5466 125.781 80.0693C126.062 80.5974 126.454 81.0584 126.93 81.4208L126.937 81.4265C126.952 81.439 126.961 81.4564 126.964 81.4755C126.967 81.4945 126.963 81.514 126.952 81.5301C126.941 81.5462 126.925 81.5578 126.907 81.5628C126.888 81.5678 126.868 81.5658 126.851 81.5572C126.252 81.2862 125.73 80.8709 125.331 80.3484C124.935 79.7983 124.674 79.1623 124.57 78.4922C124.471 77.83 124.466 77.1572 124.556 76.4936C124.634 75.825 124.796 75.1689 125.038 74.5405C125.08 74.4312 125.154 74.3372 125.25 74.2706C125.347 74.2041 125.461 74.1683 125.578 74.1677H125.665C127.736 74.181 129.805 74.045 131.857 73.761C132.852 73.6241 133.834 73.4044 134.793 73.1044C135.674 72.8974 136.471 72.4252 137.076 71.7514C137.6 70.9548 137.958 70.0605 138.127 69.1222C138.334 68.1135 138.477 67.0927 138.555 66.0659C138.737 63.9702 138.706 61.8613 138.461 59.7719C138.457 59.739 138.46 59.7058 138.468 59.6739C138.477 59.6421 138.492 59.6123 138.513 59.5862C138.533 59.5602 138.559 59.5385 138.587 59.5223C138.616 59.506 138.648 59.4957 138.681 59.4917L138.698 59.4902L138.704 59.49C139.079 59.4957 139.452 59.4306 139.803 59.2979C140.149 59.167 140.462 58.9601 140.718 58.6924C140.97 58.4181 141.175 58.103 141.322 57.7604C141.469 57.422 141.563 57.0631 141.601 56.6962L141.826 57.096C141.047 56.8168 140.321 56.407 139.68 55.884C139.004 55.3551 138.444 54.6947 138.031 53.9428C137.827 53.5365 137.686 53.1013 137.613 52.6524C137.58 52.4238 137.566 52.1928 137.571 51.9619L137.598 51.3557C137.636 50.631 137.608 49.9043 137.516 49.1845C137.018 46.1695 136.298 43.1955 135.361 40.2869C135.358 40.277 135.357 40.2665 135.358 40.2561C135.358 40.2457 135.361 40.2355 135.366 40.2262C135.371 40.2169 135.377 40.2086 135.385 40.2018C135.393 40.195 135.402 40.1898 135.412 40.1865C135.429 40.1815 135.448 40.1821 135.465 40.1884C135.481 40.1947 135.496 40.2063 135.505 40.2214Z" fill="#18181B"/>
<path d="M137.141 72.8162C134.011 75.3761 125.621 74.8062 125.621 74.8062C120.031 71.5961 118.601 65.4761 118.291 63.5762C117.801 64.4661 116.561 64.8362 115.811 65.9961C113.681 69.2661 109.081 71.8262 106.851 71.5361C101.411 70.8361 98.6611 62.0461 99.0313 55.8961C99.6011 46.5061 99.461 41.3961 110.831 35.1361C112.713 34.0764 114.727 33.2726 116.821 32.7461C115.751 37.0662 115.761 43.7661 116.141 49.7861H116.271C114.688 50.2642 113.337 51.308 112.474 52.7186C111.611 54.1292 111.298 55.8079 111.593 57.4348C111.888 59.0617 112.772 60.523 114.076 61.5402C115.379 62.5574 117.012 63.0594 118.662 62.9505C120.311 62.8416 121.864 62.1293 123.022 60.9496C124.181 59.7699 124.865 58.2051 124.944 56.5535C125.023 54.9019 124.491 53.279 123.451 51.994C122.41 50.7091 120.933 49.852 119.301 49.5861C118.871 42.896 119.061 35.626 119.721 32.246C120.141 32.206 120.561 32.1859 120.971 32.1759C122.303 32.1399 123.634 32.2506 124.941 32.506C129.425 33.4743 133.465 35.8964 136.431 39.396C136.431 39.396 134.811 41.1859 132.451 43.526C129.827 46.194 127.046 48.7019 124.121 51.036C124.121 51.036 127.681 62.016 138.951 62.016C139.221 65.2561 139.351 71.0161 137.141 72.8162ZM60.0195 103.391C60.0195 103.391 76.7044 81.0183 89.7868 80.0703L137.202 81.8832C142.249 82.0762 147.126 83.7608 151.216 86.7243C155.306 89.6877 158.425 93.797 160.181 98.5328L170.858 127.339C171.336 128.63 172.174 129.757 173.273 130.587C174.372 131.417 175.685 131.915 177.057 132.023C186.39 132.756 207.349 134.201 215.634 133.111C215.634 133.111 217.483 144.061 214.639 147.331L162.593 152.877C162.593 152.877 140.837 102.965 135.575 101.685C135.575 101.685 74.3344 100.547 60.0195 103.391Z" fill="#18181B"/>
<path d="M60.0205 103.47L46.9263 103.761C44.7801 103.654 42.6643 104.302 40.9448 105.59C39.2551 106.879 38.088 108.735 37.6587 110.817C37.4966 111.88 37.3923 112.952 37.3465 114.027C37.2461 115.12 37.1328 116.21 36.9969 117.297C36.7263 119.471 36.4038 121.635 36.0532 123.794C35.3391 128.111 34.5318 132.41 33.6311 136.69C33.6122 136.781 33.5692 136.865 33.5066 136.934L33.4993 136.942L24.8223 146.463C24.8033 146.484 24.7829 146.503 24.7613 146.521L24.7544 146.526C23.4181 147.601 22.1833 148.796 21.0655 150.097C19.9365 151.364 18.9891 152.781 18.2503 154.309C16.8316 157.401 16.4318 160.865 17.1084 164.199L20.5264 184.931C21.6744 191.841 22.8622 198.743 24.0899 205.638C25.3169 212.532 26.5472 219.427 27.8912 226.298C29.2352 233.169 30.6463 240.029 32.3111 246.824C33.1602 250.215 34.0374 253.606 35.1966 256.892C35.4957 257.708 35.7982 258.525 36.1592 259.309C36.4828 260.088 36.9159 260.817 37.4454 261.473C37.5684 261.604 37.7117 261.713 37.8697 261.798C38.0499 261.863 38.2662 261.906 38.4622 261.962C38.8772 262.068 39.298 262.149 39.7225 262.205C40.5726 262.362 41.4493 262.433 42.3116 262.551C49.2674 263.263 56.2676 263.677 63.2616 264.027C70.2579 264.375 77.2568 264.677 84.2582 264.931C98.2613 265.414 112.267 265.806 126.276 266.108L147.287 266.521L157.792 266.662L163.041 266.702C164.776 266.692 166.57 266.751 168.211 266.602C171.635 266.067 175.023 265.322 178.356 264.372C181.726 263.466 185.075 262.47 188.406 261.417C195.068 259.311 201.643 256.958 208.132 254.357C214.623 251.81 220.95 248.863 227.077 245.533C230.119 243.876 233.038 242.001 235.811 239.923C238.574 237.955 240.901 235.439 242.647 232.53L242.568 232.792C243.65 223.291 244.522 213.758 245.184 204.193C245.823 194.639 246.231 185.066 246.155 175.496C246.13 170.711 245.928 165.935 245.549 161.167C245.492 159.971 245.299 158.793 245.173 157.606C245.023 156.422 244.909 155.231 244.729 154.053L244.071 150.54C243.951 149.972 243.874 149.328 243.719 148.823C243.546 148.309 243.251 147.845 242.859 147.471C242.467 147.096 241.991 146.822 241.47 146.671C240.925 146.532 240.359 146.493 239.8 146.554L236.206 146.676L229.018 146.921L214.643 147.41C214.622 147.411 214.602 147.403 214.586 147.389C214.571 147.375 214.562 147.355 214.561 147.335C214.56 147.314 214.568 147.293 214.582 147.278C214.595 147.263 214.615 147.253 214.636 147.252L228.998 146.461L236.179 146.065L239.769 145.867C240.403 145.788 241.046 145.825 241.667 145.978C242.304 146.155 242.89 146.484 243.373 146.937C243.855 147.39 244.222 147.952 244.44 148.577C244.64 149.218 244.698 149.773 244.834 150.375L245.54 153.923C245.735 155.111 245.863 156.308 246.028 157.5C246.17 158.695 246.377 159.884 246.447 161.085C246.883 165.874 247.141 170.673 247.22 175.48C247.404 185.088 247.103 194.693 246.57 204.279C246.033 213.867 245.264 223.433 244.159 232.985L244.157 233.003C244.147 233.088 244.121 233.171 244.08 233.247C242.235 236.379 239.755 239.091 236.8 241.209C233.969 243.341 230.987 245.265 227.878 246.967C221.699 250.349 215.311 253.335 208.753 255.906C202.215 258.492 195.588 260.827 188.874 262.909C185.519 263.952 182.146 264.937 178.745 265.833C175.334 266.787 171.867 267.529 168.364 268.054C166.513 268.209 164.797 268.131 163.031 268.135L157.771 268.051L147.26 267.797L126.247 267.157C112.239 266.691 98.2353 266.144 84.2348 265.517C77.2338 265.222 70.2342 264.891 63.2358 264.525C56.2395 264.111 49.239 263.802 42.2512 263.108C41.3776 262.993 40.5051 262.928 39.6306 262.773C39.1866 262.716 38.7463 262.633 38.312 262.525C38.0881 262.462 37.8698 262.421 37.6413 262.338C37.4086 262.224 37.1979 262.069 37.0193 261.881C36.4385 261.181 35.9634 260.399 35.6093 259.56C35.2329 258.755 34.9218 257.929 34.6137 257.102C33.4265 253.784 32.4758 250.403 31.5817 247.009C29.8156 240.217 28.3015 233.368 26.8627 226.506C23.977 212.783 21.4946 198.983 19.1415 185.165C17.9589 178.256 16.8771 171.331 15.7949 164.406C15.0978 160.811 15.5539 157.088 17.0981 153.768C17.8942 152.141 18.9123 150.632 20.1232 149.284C21.2977 147.933 22.5937 146.691 23.9951 145.577L23.9274 145.64L32.6933 136.201L32.5617 136.453C33.5119 132.205 34.373 127.934 35.145 123.64C35.5224 121.494 35.872 119.345 36.1691 117.19C36.3188 116.112 36.4453 115.033 36.5588 113.954L36.697 112.334C36.7319 111.77 36.8101 111.209 36.9311 110.657C37.4412 108.428 38.7399 106.458 40.5878 105.11C42.4262 103.793 44.6652 103.157 46.9213 103.309L60.019 103.312C60.0399 103.312 60.0601 103.32 60.0751 103.335C60.0901 103.349 60.0986 103.369 60.0988 103.39C60.0991 103.411 60.091 103.432 60.0763 103.446C60.0616 103.461 60.0416 103.47 60.0207 103.47L60.0205 103.47Z" fill="#18181B"/>
<path d="M43.145 110.975L52.459 110.783L61.773 110.673L80.402 110.581L99.03 110.671L108.344 110.782L117.658 110.975L108.344 111.169L99.03 111.279L80.402 111.37L61.773 111.278L52.459 111.167L43.145 110.975Z" fill="#18181B"/>
<path d="M167.902 158.755L176.869 157.632L185.844 156.585L203.803 154.598L221.777 152.748L239.761 150.981C236.782 151.431 233.796 151.832 230.811 152.24L221.844 153.352C215.863 154.074 209.873 154.713 203.887 155.383C197.894 155.987 191.904 156.625 185.906 157.186L176.909 158.014L167.902 158.755ZM124.294 113.061C126.175 116.142 127.98 119.265 129.773 122.395C131.568 125.524 133.301 128.687 135.068 131.831C136.779 135.006 138.52 138.164 140.202 141.354C141.885 144.545 143.556 147.742 145.15 150.981C143.268 147.9 141.464 144.777 139.67 141.647C137.877 138.518 136.141 135.356 134.376 132.211C132.667 129.035 130.924 125.878 129.243 122.687C127.56 119.496 125.889 116.299 124.294 113.061ZM124.294 108.51C125.932 107.68 127.635 106.984 129.385 106.429C131.125 105.84 132.91 105.395 134.722 105.098C133.085 105.929 131.382 106.626 129.631 107.179C127.891 107.766 126.106 108.212 124.294 108.51ZM33.0959 136.571C32.9912 137.961 32.8015 139.335 32.5989 140.706C32.4053 142.078 32.1506 143.439 31.8958 144.8C31.6223 146.157 31.3474 147.514 31.0125 148.859C30.6853 150.205 30.3462 151.55 29.9204 152.877C30.024 151.487 30.2139 150.113 30.416 148.742C30.6104 147.37 30.8648 146.009 31.1206 144.649C31.3951 143.292 31.6697 141.935 32.0052 140.59C32.3318 139.243 32.6714 137.899 33.0959 136.571ZM17.3857 154.287C19.8709 153.554 22.4237 153.072 25.0054 152.851C26.307 152.73 27.6192 152.8 28.9006 153.058C29.5576 153.195 30.1776 153.471 30.7185 153.868C31.2624 154.293 31.637 154.898 31.7751 155.575C32.9033 160.648 33.7512 165.737 34.6697 170.831C36.4502 181.02 38.0625 191.236 39.627 201.46C41.1243 211.694 42.5781 221.935 43.7771 232.211C44.3679 237.349 44.9199 242.493 45.3398 247.65C45.5371 250.23 45.7031 252.812 45.7888 255.399C45.8176 256.692 45.8655 257.986 45.8155 259.28C45.8037 259.927 45.7847 260.573 45.7097 261.217C45.6612 261.862 45.5561 262.502 45.3955 263.129C45.5402 262.499 45.6292 261.858 45.6617 261.213C45.7202 260.57 45.7232 259.924 45.719 259.278C45.7368 257.988 45.6568 256.696 45.5957 255.407C45.4458 252.828 45.2159 250.255 44.9549 247.685C44.4561 242.542 43.8379 237.41 43.1741 232.285C41.8511 222.033 40.4086 211.797 38.8467 201.577C37.3482 191.347 35.7246 181.137 34.0733 170.931C33.2305 165.837 32.4402 160.71 31.4036 155.672C31.3019 155.067 30.9837 154.519 30.5083 154.13C30.0122 153.749 29.4401 153.479 28.8306 153.338C27.5801 153.055 26.2952 152.956 25.0161 153.043C22.4373 153.2 19.8809 153.617 17.3857 154.287ZM162.207 267.413C162.534 267.395 162.724 267.08 162.87 266.826C163.013 266.552 163.13 266.265 163.222 265.969C163.408 265.379 163.561 264.779 163.678 264.172C163.923 262.959 164.1 261.733 164.253 260.505C164.556 258.048 164.764 255.58 164.94 253.111C165.286 248.171 165.497 243.222 165.661 238.273C166.012 228.375 166.17 218.47 166.22 208.565C166.263 198.66 166.209 188.754 165.971 178.854C165.819 173.914 165.743 168.935 165.235 164.053C165.019 161.646 164 159.382 162.342 157.624C161.489 156.793 160.481 156.139 159.374 155.699C158.268 155.26 157.086 155.043 155.895 155.061C153.489 155.114 151.19 156.066 149.449 157.728C147.695 159.394 146.593 161.631 146.341 164.037C145.681 168.93 145.393 173.866 145.48 178.803C145.501 188.718 145.277 198.622 145.191 208.528C145.096 218.433 145.07 228.34 145.395 238.237C145.546 243.185 145.781 248.134 146.287 253.058C146.522 255.522 146.88 257.972 147.36 260.4C147.898 262.784 148.441 265.316 150.076 267.218C148.414 265.336 147.835 262.802 147.265 260.421C146.753 257.994 146.362 255.544 146.095 253.079C145.524 248.154 145.224 243.202 145.009 238.251C144.628 228.345 144.617 218.432 144.666 208.524C144.708 198.616 144.887 188.707 144.822 178.808C144.712 173.835 144.98 168.861 145.624 163.928C145.891 161.358 147.062 158.966 148.928 157.178C150.801 155.373 153.283 154.336 155.883 154.273C157.176 154.258 158.46 154.499 159.659 154.982C160.859 155.465 161.951 156.18 162.873 157.087C164.641 158.968 165.725 161.389 165.951 163.961C166.235 166.455 166.315 168.926 166.42 171.406C166.513 173.884 166.577 176.362 166.627 178.839C166.821 188.75 166.831 198.66 166.744 208.569C166.646 218.477 166.454 228.386 166.045 238.288C165.817 243.238 165.542 248.187 165.132 253.126C164.923 255.594 164.684 258.062 164.349 260.518C164.179 261.745 163.986 262.97 163.726 264.182C163.6 264.789 163.439 265.388 163.245 265.977C163.149 266.272 163.027 266.558 162.881 266.832C162.73 267.085 162.535 267.399 162.207 267.413ZM147.425 267.413C148.231 271.108 148.985 274.809 149.824 278.492C150.616 282.184 151.431 285.87 152.313 289.537C153.212 293.199 154.084 296.867 155.131 300.475C155.654 302.277 156.19 304.075 156.825 305.822C157.141 306.695 157.484 307.554 157.872 308.372C158.06 308.771 158.271 309.158 158.504 309.532C158.686 309.853 158.924 310.139 159.207 310.375C159.257 310.407 159.291 310.418 159.317 310.437C159.323 310.424 159.332 310.451 159.315 310.436C159.285 310.462 159.341 310.421 159.432 310.343C159.658 310.044 159.837 309.711 159.961 309.357C160.256 308.496 160.494 307.617 160.674 306.725C161.132 304.919 161.433 303.068 161.752 301.224C162.384 297.529 162.714 293.779 163.041 290.031C163.345 286.279 163.522 282.512 163.611 278.741C163.748 274.969 163.75 271.194 163.731 267.413C164.108 271.177 164.26 274.959 164.385 278.743C164.453 282.528 164.41 286.315 164.254 290.105C164.111 293.903 163.769 297.69 163.23 301.452C163.125 302.398 162.914 303.331 162.759 304.271C162.608 305.213 162.396 306.145 162.177 307.077C161.989 308.038 161.737 308.986 161.421 309.913C161.234 310.453 160.955 310.955 160.596 311.399C160.464 311.535 160.319 311.658 160.163 311.766C159.965 311.891 159.741 311.971 159.509 312C159.276 312.029 159.04 312.007 158.817 311.935C158.635 311.867 158.463 311.778 158.302 311.669C157.846 311.314 157.464 310.873 157.177 310.371C156.913 309.942 156.674 309.498 156.462 309.041C156.046 308.149 155.695 307.249 155.374 306.344C154.736 304.534 154.186 302.711 153.694 300.875C152.723 297.201 151.861 293.512 151.132 289.797C150.39 286.085 149.702 282.365 149.068 278.637C148.484 274.9 147.88 271.168 147.425 267.413ZM56.7793 263.129C56.3245 266.884 55.7209 270.616 55.1365 274.353C54.5005 278.081 53.8126 281.8 53.0728 285.512C52.3438 289.228 51.4819 292.917 50.5107 296.59C50.0187 298.426 49.4687 300.249 48.8303 302.06C48.5093 302.965 48.1584 303.864 47.7427 304.757C47.5303 305.213 47.2915 305.658 47.0273 306.087C46.7405 306.589 46.3582 307.03 45.9021 307.385C45.742 307.494 45.5693 307.583 45.3877 307.651C45.1646 307.723 44.9284 307.745 44.6958 307.715C44.4632 307.686 44.2399 307.606 44.0415 307.481C43.8858 307.373 43.741 307.251 43.6089 307.115C43.25 306.671 42.9708 306.168 42.7837 305.629C42.4678 304.702 42.2153 303.754 42.0278 302.793C41.8088 301.861 41.5972 300.928 41.4458 299.987C41.2906 299.047 41.0794 298.113 40.9744 297.167C40.4353 293.406 40.0935 289.618 39.9505 285.821C39.792 282.032 39.7483 278.244 39.8194 274.458C39.9451 270.675 40.097 266.893 40.4737 263.129C40.4549 266.91 40.4571 270.685 40.594 274.457C40.6829 278.227 40.8594 281.994 41.1634 285.747C41.4908 289.495 41.8211 293.244 42.4532 296.94C42.7718 298.783 43.073 300.635 43.531 302.441C43.7105 303.333 43.9485 304.212 44.2437 305.072C44.368 305.427 44.5467 305.759 44.7732 306.059C44.864 306.137 44.9197 306.178 44.8902 306.151C44.8726 306.167 44.8816 306.14 44.8882 306.153C44.9134 306.134 44.948 306.123 44.9976 306.091C45.2806 305.854 45.5187 305.569 45.7005 305.248C45.9334 304.874 46.1445 304.486 46.3326 304.088C46.7205 303.27 47.0636 302.41 47.3794 301.537C48.0144 299.79 48.5503 297.993 49.0735 296.19C50.1209 292.582 50.9925 288.915 51.8914 285.252C52.774 281.585 53.5887 277.899 54.3804 274.207C55.2197 270.524 55.9736 266.823 56.7793 263.129ZM230.794 244.321L232.639 252.284C233.235 254.939 233.845 257.59 234.511 260.223C235.196 262.849 235.834 265.491 236.665 268.046C237.027 269.291 237.514 270.496 238.118 271.644C238.185 271.748 238.259 271.847 238.34 271.94C238.404 272.021 238.468 272.032 238.373 272C238.298 271.983 238.221 271.988 238.149 272.014C238.097 272.024 238.065 272.067 238.076 272.05C238.124 271.983 238.166 271.911 238.199 271.835C238.415 271.263 238.566 270.669 238.649 270.063C238.874 268.773 238.983 267.432 239.091 266.075C239.206 264.723 239.309 263.37 239.4 262.016C239.625 259.311 239.726 256.6 239.878 253.889C240.006 251.177 240.06 248.463 240.041 245.747C240.066 243.029 239.985 240.312 239.761 237.595C240.717 242.98 241.163 248.443 241.093 253.912C241.12 256.646 241.025 259.379 240.894 262.108C240.835 263.473 240.729 264.835 240.63 266.198C240.533 267.555 240.439 268.934 240.206 270.329C240.097 271.073 239.898 271.8 239.613 272.496C239.507 272.731 239.365 272.947 239.19 273.137C239.054 273.279 238.889 273.391 238.706 273.465C238.475 273.554 238.222 273.567 237.983 273.501C237.676 273.408 237.402 273.228 237.196 272.982C237.053 272.818 236.924 272.643 236.81 272.459C236.137 271.199 235.611 269.866 235.24 268.487C234.474 265.833 233.848 263.173 233.33 260.489C232.805 257.807 232.322 255.121 231.883 252.43C231.494 249.73 231.077 247.036 230.794 244.321ZM130.598 49.9238C131.461 49.3312 132.469 48.9847 133.514 48.9216C134.045 48.8785 134.58 48.9289 135.094 49.0705C135.619 49.2026 136.088 49.5021 136.428 49.9238C135.961 49.7786 135.477 49.6959 134.988 49.678C134.514 49.6581 134.039 49.6685 133.567 49.7093C132.606 49.7622 131.645 49.9049 130.598 49.9238ZM135.006 54.095C135.314 54.0843 135.605 53.9547 135.818 53.7337C136.032 53.5126 136.151 53.2173 136.151 52.91C136.151 52.6027 136.032 52.3074 135.818 52.0863C135.605 51.8652 135.314 51.7357 135.006 51.725C134.699 51.7357 134.408 51.8652 134.195 52.0863C133.981 52.3074 133.862 52.6027 133.862 52.91C133.862 53.2173 133.981 53.5126 134.195 53.7337C134.408 53.9547 134.699 54.0843 135.006 54.095ZM105.892 66.8506C106.024 68.122 106.062 69.4016 106.004 70.6786C105.962 71.9597 105.829 73.2362 105.608 74.4989C105.399 75.7795 105.024 77.0274 104.493 78.2114C104.219 78.8157 103.847 79.3704 103.391 79.8528C103.162 80.0947 102.88 80.2808 102.567 80.3968C102.255 80.5127 101.92 80.5554 101.588 80.5216C101.892 80.4837 102.185 80.3814 102.446 80.2215C102.707 80.0616 102.931 79.8477 103.103 79.5942C103.465 79.1029 103.745 78.5562 103.933 77.9753C104.329 76.7957 104.629 75.5863 104.832 74.3586C105.061 73.1266 105.222 71.8782 105.402 70.6274L105.892 66.8506ZM241.461 123.676C241.669 123.371 241.98 123.151 242.337 123.057C242.694 122.962 243.073 122.999 243.405 123.161C243.756 123.33 244.036 123.619 244.192 123.976C244.322 124.327 244.388 124.699 244.385 125.074C244.383 126.546 243.904 127.978 243.019 129.154L242.947 128.669C243.503 129.096 243.957 129.644 244.273 130.27C244.59 130.893 244.77 131.576 244.801 132.274C244.814 132.963 244.705 133.65 244.478 134.301C244.369 134.623 244.214 134.923 244.083 135.234L243.584 136.103L243.617 135.776C243.884 136.543 244.06 137.338 244.143 138.145C244.278 138.993 244.126 139.862 243.711 140.613L243.756 140.446C243.736 141.016 243.653 141.583 243.508 142.134C243.369 142.679 243.17 143.207 242.914 143.708C242.406 144.702 241.651 145.549 240.721 146.166C241.126 145.804 241.491 145.399 241.809 144.959C242.124 144.525 242.381 144.052 242.575 143.552C242.984 142.575 243.185 141.525 243.166 140.466C243.165 140.416 243.176 140.366 243.2 140.321L243.211 140.299C243.493 139.643 243.579 138.92 243.457 138.217C243.363 137.472 243.184 136.74 242.925 136.036C242.906 135.986 242.899 135.933 242.903 135.879C242.907 135.826 242.922 135.774 242.948 135.728L242.958 135.709L243.401 134.898C243.511 134.614 243.649 134.338 243.738 134.05C243.929 133.484 244.031 132.892 244.042 132.295C244.028 131.705 243.888 131.125 243.631 130.593C243.376 130.064 243.009 129.597 242.555 129.223L242.536 129.208C242.467 129.152 242.423 129.072 242.413 128.984C242.403 128.896 242.428 128.808 242.483 128.738C243.338 127.696 243.849 126.415 243.947 125.071C243.966 124.746 243.936 124.42 243.858 124.103C243.761 123.802 243.558 123.545 243.287 123.38C242.996 123.21 242.654 123.146 242.321 123.2C241.988 123.254 241.684 123.423 241.461 123.676ZM216.031 136.286C217.037 135.854 217.903 135.15 218.531 134.254C218.823 133.822 219.032 133.341 219.15 132.833C219.211 132.581 219.251 132.325 219.271 132.066C219.309 131.798 219.329 131.489 219.38 131.206C219.573 130.053 219.993 128.95 220.614 127.96C220.921 127.465 221.282 127.005 221.692 126.591C221.898 126.378 222.127 126.188 222.373 126.024C222.627 125.824 222.938 125.709 223.261 125.696L223.273 125.696C223.308 125.697 223.342 125.71 223.368 125.733C223.395 125.756 223.412 125.787 223.417 125.822C223.494 126.32 223.584 126.817 223.641 127.326C223.445 126.856 223.281 126.373 223.104 125.891L223.261 126.016C222.795 126.22 222.396 126.55 222.109 126.969C221.776 127.392 221.479 127.843 221.222 128.316C220.711 129.263 220.347 130.283 220.143 131.339C220.09 131.607 220.07 131.857 220.025 132.143C219.989 132.441 219.926 132.736 219.836 133.023C219.67 133.603 219.382 134.141 218.992 134.601C218.233 135.492 217.185 136.088 216.031 136.286ZM232.271 137.33C232.63 137.627 232.958 137.96 233.248 138.324C233.509 138.668 233.819 138.971 234.167 139.226C234.043 139.3 233.904 139.345 233.76 139.36C233.616 139.375 233.471 139.357 233.334 139.31C233.066 139.216 232.828 139.052 232.645 138.834C232.468 138.63 232.342 138.388 232.277 138.127C232.212 137.865 232.21 137.592 232.271 137.33ZM235.779 141.027C236.113 141.498 236.308 141.872 236.536 142.229C236.747 142.6 236.978 142.903 237.296 143.397C237.009 143.424 236.72 143.366 236.466 143.232C236.211 143.097 236.001 142.891 235.861 142.639C235.707 142.401 235.619 142.127 235.604 141.844C235.59 141.561 235.65 141.279 235.779 141.027Z" fill="#18181B"/>
<path d="M235.21 136.856L242.793 128.335C242.863 128.258 242.961 128.211 243.065 128.205C243.169 128.199 243.272 128.234 243.35 128.304C243.428 128.373 243.476 128.471 243.482 128.576C243.488 128.68 243.453 128.783 243.384 128.861L243.365 128.881L235.21 136.856ZM239.145 139.226L243.021 135.6C243.097 135.528 243.2 135.49 243.305 135.493C243.41 135.497 243.509 135.542 243.581 135.619C243.652 135.695 243.691 135.797 243.687 135.902C243.684 136.007 243.639 136.107 243.562 136.179C243.548 136.192 243.532 136.204 243.516 136.215L239.145 139.226ZM240.804 142.212C241.061 141.719 241.443 141.303 241.913 141.006C242.37 140.688 242.903 140.499 243.458 140.458C243.203 140.952 242.819 141.369 242.348 141.664C241.891 141.98 241.358 142.169 240.804 142.212ZM243.738 139.219C243.784 139.036 243.951 139.06 244.044 139.074L244.281 139.186C244.428 139.273 244.55 139.378 244.686 139.473C244.94 139.68 245.173 139.903 245.414 140.122C245.863 140.584 246.313 141.048 246.73 141.537C247.592 142.494 248.396 143.495 249.206 144.492C250.802 146.503 252.329 148.565 253.837 150.639C256.885 154.766 259.71 159.043 262.586 163.284C264.018 165.408 265.403 167.564 266.778 169.725C268.162 171.88 269.521 174.052 270.854 176.239C273.548 180.594 276.156 185.004 278.913 189.319C281.611 193.672 284.43 197.946 287.186 202.266C288.58 204.416 289.947 206.586 291.288 208.777C291.927 209.896 292.615 210.98 293.192 212.149C293.507 212.722 293.791 213.311 294.043 213.914C294.171 214.219 294.311 214.517 294.428 214.829L294.717 215.806C294.814 216.143 294.875 216.488 294.9 216.838C294.928 217.014 294.944 217.192 294.95 217.37L294.905 217.92C294.88 218.285 294.802 218.645 294.672 218.987C294.566 219.322 294.427 219.647 294.259 219.956C293.645 221.159 292.846 222.26 291.89 223.216C290.017 225.019 288.013 226.68 285.893 228.185C281.725 231.227 277.419 234.02 272.977 236.63L273.368 235.768C273.698 237.592 273.963 239.401 274.149 241.246C274.233 242.17 274.312 243.094 274.314 244.045C274.322 244.531 274.3 245.017 274.25 245.5C274.213 246.071 274.059 246.628 273.798 247.137C273.655 247.351 273.455 247.521 273.22 247.629C273.083 247.697 272.941 247.754 272.795 247.8C272.551 247.877 272.302 247.94 272.051 247.989C271.571 248.086 271.105 248.151 270.641 248.209C269.714 248.32 268.796 248.392 267.879 248.45C266.045 248.566 264.219 248.628 262.393 248.672C258.741 248.771 255.093 248.715 251.448 248.671C247.803 248.627 244.16 248.47 240.518 248.325C240.508 248.325 240.498 248.322 240.488 248.318C240.479 248.314 240.47 248.307 240.463 248.3C240.456 248.292 240.451 248.283 240.447 248.273C240.443 248.264 240.442 248.253 240.442 248.243C240.443 248.223 240.452 248.204 240.466 248.19C240.481 248.176 240.5 248.168 240.52 248.167L251.442 247.849C255.081 247.748 258.717 247.576 262.346 247.409C264.159 247.315 265.971 247.204 267.769 247.04C268.668 246.958 269.564 246.862 270.442 246.732C270.879 246.666 271.314 246.592 271.724 246.497C271.919 246.453 272.111 246.4 272.3 246.335C272.37 246.311 272.439 246.282 272.505 246.247C272.573 246.227 272.546 246.185 272.46 246.325C272.579 246.006 272.651 245.671 272.674 245.331C272.715 244.909 272.73 244.484 272.721 244.06C272.715 243.189 272.634 242.296 272.548 241.407C272.359 239.63 272.084 237.834 271.755 236.076C271.725 235.912 271.745 235.742 271.813 235.588C271.881 235.435 271.994 235.307 272.137 235.219L272.146 235.214C276.496 232.574 280.836 229.863 284.991 226.938C287.07 225.509 289.041 223.93 290.888 222.211C291.77 221.379 292.515 220.412 293.093 219.346C293.382 218.86 293.571 218.32 293.647 217.76C293.723 217.2 293.686 216.63 293.538 216.084C292.787 213.692 291.767 211.393 290.495 209.232C289.258 207.001 287.96 204.797 286.648 202.601C283.986 198.231 281.249 193.905 278.437 189.624C275.661 185.322 272.734 181.117 269.896 176.854C268.455 174.737 267.037 172.607 265.643 170.462C264.247 168.317 262.801 166.206 261.435 164.043L257.238 157.618L252.991 151.23C251.58 149.097 250.122 146.998 248.65 144.911C247.91 143.871 247.174 142.824 246.385 141.824C246.004 141.311 245.587 140.834 245.181 140.343C244.967 140.112 244.755 139.873 244.531 139.655C244.413 139.557 244.299 139.442 244.178 139.356L243.99 139.244L243.895 139.232C243.895 139.243 243.892 139.253 243.887 139.262C243.882 139.271 243.876 139.279 243.868 139.286C243.86 139.293 243.851 139.298 243.841 139.301C243.831 139.304 243.82 139.305 243.81 139.304C243.8 139.304 243.79 139.301 243.78 139.296C243.771 139.291 243.763 139.285 243.756 139.277C243.75 139.269 243.745 139.26 243.741 139.25C243.738 139.24 243.737 139.229 243.738 139.219L243.738 139.219Z" fill="#18181B"/>
<path d="M244.917 217.328C249.056 223.134 252.781 229.18 256.405 235.286L259.072 239.897L259.703 241.02C259.656 240.938 259.584 240.873 259.497 240.835C259.395 240.801 259.45 240.811 259.417 240.801C259.381 240.794 259.362 240.804 259.409 240.798C259.481 240.798 259.553 240.791 259.624 240.777C259.818 240.745 260.01 240.701 260.199 240.647C261.004 240.423 261.837 240.122 262.661 239.824C265.951 238.57 269.243 237.216 272.562 235.922C269.523 237.793 266.372 239.478 263.128 240.965C262.302 241.351 261.454 241.689 260.589 241.976C260.354 242.053 260.115 242.117 259.873 242.167C259.727 242.2 259.578 242.219 259.429 242.224C259.315 242.233 259.201 242.223 259.091 242.197C259.008 242.186 258.927 242.159 258.853 242.12C258.722 242.048 258.607 241.951 258.514 241.833L257.788 240.667L255.05 236.096C251.467 229.961 247.985 223.764 244.917 217.328ZM255.621 278.986C257.035 280.278 258.107 281.899 258.741 283.706C255.121 284.836 241.581 285.236 240.521 277.636C240.246 275.388 240.246 273.114 240.521 270.866C242.351 271.536 244.131 272.276 245.901 273.046C247.657 273.812 249.37 274.673 251.031 275.626C252.687 276.564 254.227 277.692 255.621 278.986Z" fill="#18181B"/>
<path d="M306.511 276.076H306.501C305.731 276.306 304.971 276.456 304.211 276.676C303.471 276.926 302.711 277.096 301.991 277.386C299.063 278.361 296.39 279.981 294.171 282.126C293.053 283.213 292.094 284.452 291.321 285.806C295.771 286.016 299.781 285.826 301.761 284.836C305.541 282.946 314.251 280.096 306.511 276.076ZM297.291 278.466C298.689 277.653 300.194 277.037 301.761 276.636C302.54 276.447 303.327 276.296 304.121 276.186C304.921 276.136 305.701 276.086 306.501 276.076C303.465 274.646 300.287 273.537 297.021 272.766C275.031 266.956 264.401 247.956 264.401 247.956H241.851C242.661 258.016 241.091 264.956 240.521 270.866C242.451 271.174 244.349 271.66 246.191 272.316C248.041 272.97 249.829 273.79 251.531 274.766C253.26 275.748 254.828 276.989 256.181 278.446C257.561 279.89 258.456 281.729 258.741 283.706C262.361 282.566 270.591 283.166 275.971 284.076C281.05 284.951 286.175 285.528 291.321 285.806C291.764 284.256 292.542 282.822 293.601 281.606C294.656 280.369 295.901 279.309 297.291 278.466ZM243.931 259.056C243.577 257.502 243.409 255.91 243.431 254.316C243.414 252.722 243.582 251.132 243.931 249.576C244.285 251.131 244.453 252.722 244.431 254.316C244.458 255.911 244.29 257.502 243.931 259.056ZM246.731 260.936C246.064 257.811 246.064 254.581 246.731 251.456C247.398 254.581 247.398 257.811 246.731 260.936ZM249.631 259.926C249.272 258.372 249.104 256.78 249.131 255.186C249.109 253.592 249.277 252.001 249.631 250.446C250.297 253.571 250.297 256.801 249.631 259.926ZM253.321 260.936C252.655 257.811 252.655 254.581 253.321 251.456C253.988 254.581 253.988 257.811 253.321 260.936ZM256.301 259.056C255.634 255.931 255.634 252.701 256.301 249.576C256.967 252.701 256.967 255.931 256.301 259.056ZM260.001 259.926C259.642 258.372 259.474 256.78 259.501 255.186C259.484 253.592 259.652 252.001 260.001 250.446C260.35 252.001 260.518 253.592 260.501 255.186C260.523 256.78 260.355 258.371 260.001 259.926V259.926ZM263.551 259.926C262.898 256.8 262.898 253.572 263.551 250.446C264.217 253.571 264.217 256.801 263.551 259.926ZM300.981 252.296C299.157 252.058 297.312 252.024 295.481 252.196C293.635 252.364 291.799 252.631 289.981 252.996C288.151 253.376 286.341 253.776 284.511 254.266C285.543 256.198 286.806 257.998 288.271 259.626C293.341 265.056 303.851 257.206 306.081 254.286C304.569 253.216 302.818 252.533 300.981 252.296ZM339.681 221.656C339.211 222.276 338.681 222.816 338.211 223.406C337.761 224.026 337.251 224.586 336.841 225.216C336.409 225.826 336.009 226.456 335.641 227.106C335.26 227.743 334.916 228.4 334.611 229.076C334.017 230.437 333.574 231.859 333.291 233.316C333.007 234.798 332.933 236.313 333.071 237.816C332.548 236.343 332.36 234.771 332.521 233.216C332.668 231.649 333.066 230.116 333.701 228.676C334.356 227.251 335.208 225.925 336.231 224.736C336.738 224.151 337.279 223.597 337.851 223.076C338.451 222.586 339.061 222.106 339.681 221.656C336.481 222.22 333.348 223.111 330.331 224.316C309.671 231.956 290.671 222.816 290.671 222.816L272.801 235.366C279.051 242.896 281.671 249.256 284.501 254.266H284.511C286.205 253.423 287.976 252.746 289.801 252.246C291.631 251.724 293.506 251.376 295.401 251.206C297.316 251.021 299.249 251.133 301.131 251.536C303.028 251.913 304.759 252.874 306.081 254.286C308.321 251.376 315.171 247.266 319.951 244.996C326.001 242.116 338.541 235.446 340.801 231.246C342.741 227.646 348.061 220.536 339.681 221.656V221.656ZM277.581 239.536C276.679 238.28 275.93 236.92 275.351 235.486C276.506 236.513 277.531 237.679 278.401 238.956C279.311 240.208 280.06 241.568 280.631 243.006C279.481 241.974 278.457 240.809 277.581 239.536ZM280.851 239.466C279.947 238.211 279.198 236.851 278.621 235.416C279.771 236.449 280.795 237.613 281.671 238.886C282.573 240.139 283.322 241.495 283.901 242.926C282.744 241.905 281.719 240.742 280.851 239.466ZM282.581 237.056C281.681 235.799 280.932 234.439 280.351 233.006C281.503 234.036 282.527 235.201 283.401 236.476C284.307 237.726 285.056 239.083 285.631 240.516C284.476 239.492 283.452 238.33 282.581 237.056ZM286.061 235.796C285.158 234.545 284.413 233.189 283.841 231.756C286.118 233.851 287.915 236.413 289.111 239.266C287.959 238.236 286.935 237.071 286.061 235.796H286.061ZM287.391 232.646C286.481 231.398 285.732 230.041 285.161 228.606C287.438 230.701 289.235 233.263 290.431 236.116C289.279 235.088 288.258 233.923 287.391 232.646L287.391 232.646ZM290.801 231.276C289.895 230.026 289.146 228.669 288.571 227.236C290.855 229.327 292.657 231.89 293.851 234.746C292.691 233.724 291.666 232.558 290.801 231.276L290.801 231.276ZM293.621 229.296C292.711 228.048 291.962 226.691 291.391 225.256C292.54 226.286 293.561 227.451 294.431 228.726C295.34 229.974 296.09 231.332 296.661 232.766C295.507 231.741 294.486 230.575 293.621 229.296H293.621ZM118.211 63.3804C116.535 63.3825 114.912 62.7949 113.626 61.7205C112.341 60.6462 111.474 59.1536 111.178 57.5043C110.882 55.8549 111.176 54.1541 112.009 52.6998C112.841 51.2456 114.159 50.1306 115.73 49.5503C115.412 44.3491 115.288 37.2915 116.437 32.6518C116.45 32.6015 116.472 32.5541 116.503 32.5124C116.534 32.4706 116.572 32.4353 116.617 32.4085C116.661 32.3818 116.71 32.364 116.762 32.3562C116.813 32.3484 116.865 32.3508 116.916 32.3633C116.966 32.3757 117.013 32.3979 117.055 32.4287C117.097 32.4594 117.132 32.4981 117.159 32.5425C117.186 32.5869 117.203 32.6361 117.211 32.6874C117.219 32.7387 117.217 32.791 117.204 32.8413C116.081 37.3784 116.204 44.3354 116.518 49.478C116.574 49.5231 116.617 49.5827 116.642 49.6505C116.666 49.7182 116.672 49.7914 116.658 49.8622C116.645 49.933 116.612 49.9987 116.563 50.0521C116.515 50.1056 116.453 50.1448 116.384 50.1655C114.894 50.6162 113.623 51.5992 112.812 52.9271C112 54.255 111.706 55.835 111.985 57.3659C112.263 58.8969 113.096 60.2717 114.323 61.2285C115.55 62.1853 117.086 62.6571 118.639 62.5539C120.192 62.4508 121.652 61.78 122.742 60.6693C123.832 59.5586 124.475 58.0858 124.549 56.5314C124.623 54.977 124.122 53.4499 123.142 52.2409C122.163 51.032 120.772 50.2258 119.236 49.976C119.148 49.9615 119.068 49.9175 119.008 49.8514C118.948 49.7853 118.912 49.7008 118.907 49.6118C118.479 42.9604 118.659 35.6255 119.333 32.1714C119.343 32.1204 119.363 32.0719 119.391 32.0286C119.42 31.9853 119.457 31.9481 119.5 31.919C119.543 31.89 119.591 31.8697 119.642 31.8593C119.693 31.8489 119.745 31.8487 119.796 31.8585C119.847 31.8684 119.895 31.8882 119.939 31.9169C119.982 31.9455 120.019 31.9824 120.048 32.0254C120.077 32.0684 120.097 32.1167 120.108 32.1676C120.118 32.2184 120.118 32.2708 120.108 32.3218C119.456 35.6665 119.277 42.7456 119.676 49.2554C121.403 49.6185 122.935 50.6087 123.975 52.0349C125.015 53.4611 125.49 55.2221 125.308 56.9779C125.126 58.7337 124.3 60.3598 122.989 61.5422C121.678 62.7246 119.976 63.3795 118.211 63.3804H118.211Z" fill="#18181B"/>
<path d="M116.822 33.1421C116.789 33.142 116.757 33.1381 116.726 33.1304C116.625 33.105 116.537 33.0405 116.483 32.9508C116.429 32.8611 116.413 32.7536 116.438 32.6518C117.052 30.1577 117.946 28.6567 119.168 28.061C121.947 26.7153 124.098 30.3276 125.017 31.8726C125.113 32.0317 125.192 32.1665 125.256 32.2651C125.314 32.3359 125.346 32.4245 125.346 32.5161C125.346 32.6208 125.305 32.7212 125.231 32.7952C125.157 32.8692 125.056 32.9107 124.951 32.9107H121.151C121.084 32.9107 121.019 32.8939 120.961 32.8618C120.902 32.8297 120.853 32.7834 120.817 32.7271C120.729 32.5991 120.657 32.4611 120.601 32.3159C120.557 32.2085 120.525 32.1304 120.461 31.9878C120.447 31.9589 120.425 31.9349 120.397 31.919C120.369 31.9031 120.337 31.8961 120.305 31.8989C120.271 31.9014 120.239 31.9152 120.214 31.938C120.188 31.9609 120.172 31.9914 120.166 32.0249L120.11 32.3169C120.09 32.4195 120.031 32.5103 119.945 32.5698C119.859 32.6293 119.754 32.6528 119.651 32.6353C119.6 32.6261 119.551 32.6069 119.507 32.5789C119.464 32.5508 119.426 32.5144 119.396 32.4718C119.367 32.4292 119.346 32.3811 119.335 32.3304C119.324 32.2797 119.323 32.2273 119.332 32.1763L119.388 31.8843C119.425 31.6862 119.523 31.5048 119.669 31.3664C119.816 31.2281 120.003 31.1402 120.202 31.1153C120.402 31.0905 120.605 31.1301 120.781 31.2283C120.956 31.3266 121.096 31.4784 121.18 31.6616C121.251 31.8179 121.286 31.9038 121.312 31.9683C121.337 32.0308 121.356 32.0757 121.378 32.1216H124.246C123.393 30.6929 121.565 27.7759 119.513 28.772C118.529 29.2505 117.752 30.6197 117.204 32.8413C117.183 32.927 117.134 33.0031 117.065 33.0576C116.995 33.1121 116.91 33.1419 116.822 33.1421ZM253.317 12.3783V105.098H370.677V12.3783H253.317ZM364.737 98.5582H259.257V18.9282H364.737V98.5582Z" fill="#0073A8"/>
<path d="M270.147 26.8873L270.312 40.8229L270.097 40.6085L289.721 40.4619L289.36 40.8229L289.319 29.1626C289.319 29.11 289.329 29.0579 289.349 29.0092C289.369 28.9606 289.398 28.9163 289.435 28.879C289.472 28.8417 289.516 28.812 289.565 28.7917C289.613 28.7714 289.666 28.7609 289.718 28.7608H289.721L303.088 28.7225C303.204 28.7223 303.316 28.7682 303.398 28.8503C303.481 28.9324 303.527 29.0438 303.528 29.1602V29.1626L303.499 49.3549C303.5 49.4086 303.49 49.4618 303.469 49.5116C303.449 49.5613 303.42 49.6066 303.382 49.6448C303.344 49.6831 303.299 49.7135 303.25 49.7344C303.2 49.7553 303.147 49.7662 303.094 49.7666H303.088L281.474 49.6083L281.727 49.3551L281.666 58.7401L281.474 58.5472L297.115 58.5854C297.156 58.5857 297.194 58.6016 297.223 58.6298C297.252 58.6579 297.269 58.6962 297.27 58.7366L297.601 70.3956L297.4 70.1995L310.198 70.1485C310.265 70.1486 310.329 70.1753 310.376 70.2225C310.423 70.2698 310.45 70.3339 310.45 70.4008L310.509 82.3455C310.509 82.3861 310.501 82.4264 310.486 82.464C310.47 82.5016 310.448 82.5359 310.419 82.5647C310.391 82.5936 310.357 82.6166 310.319 82.6323C310.282 82.648 310.241 82.6562 310.201 82.6564H310.198L270.097 82.8363C269.968 82.8369 269.843 82.786 269.751 82.6947C269.659 82.6035 269.607 82.4795 269.607 82.3499V82.3455C269.567 72.0122 269.558 61.6791 269.582 51.346C269.582 51.2092 269.636 51.0781 269.733 50.9814C269.829 50.8847 269.961 50.8303 270.097 50.8302L275.785 50.836C275.852 50.8359 275.919 50.8491 275.98 50.8747C276.042 50.9003 276.099 50.9379 276.146 50.9853C276.193 51.0326 276.231 51.0889 276.257 51.1508C276.282 51.2126 276.295 51.279 276.295 51.346C276.303 59.3091 276.253 67.2722 276.202 75.2354L275.786 74.8187L286.592 74.8828L286.24 75.2354L286.296 65.8504C286.296 65.7717 286.327 65.6963 286.383 65.6406C286.439 65.585 286.514 65.5536 286.593 65.5532L292.849 65.5902C292.918 65.5897 292.984 65.6163 293.032 65.6643C293.081 65.7123 293.109 65.7777 293.109 65.8461V65.8504L293.019 76.6574L292.849 76.4878L303.657 76.6076C303.67 76.6076 303.683 76.6128 303.692 76.6222C303.701 76.6316 303.707 76.6443 303.707 76.6576C303.707 76.6708 303.701 76.6835 303.692 76.6929C303.683 76.7023 303.67 76.7076 303.657 76.7076L292.849 76.8272C292.827 76.8275 292.806 76.8234 292.785 76.8152C292.765 76.807 292.746 76.7948 292.73 76.7794C292.714 76.764 292.702 76.7456 292.693 76.7253C292.685 76.705 292.68 76.6832 292.68 76.6612V76.6574L292.589 65.8504L292.849 66.1103L286.593 66.1474L286.89 65.8504L286.945 75.2354C286.945 75.3289 286.907 75.4184 286.841 75.4845C286.775 75.5506 286.686 75.5879 286.592 75.5883L275.785 75.6523C275.731 75.6527 275.677 75.6423 275.627 75.6218C275.576 75.6012 275.53 75.571 275.492 75.5328C275.453 75.4945 275.422 75.449 275.401 75.3989C275.38 75.3487 275.369 75.2949 275.368 75.2405V75.2355C275.317 67.2723 275.268 59.3092 275.276 51.3461L275.785 51.8558L270.097 51.8616L270.613 51.3461C270.636 61.6792 270.628 72.0124 270.588 82.3456L270.097 81.8548L310.198 82.0348L309.887 82.3456L309.946 70.4009L310.198 70.6531L297.4 70.6021C297.347 70.6018 297.297 70.5812 297.259 70.5445C297.222 70.5079 297.2 70.4581 297.199 70.4057L296.961 58.7443L297.115 58.8952L281.474 58.9334C281.422 58.9333 281.373 58.9129 281.337 58.8767C281.301 58.8405 281.28 58.7914 281.28 58.7402L281.22 49.3552C281.22 49.2881 281.247 49.2238 281.295 49.1764C281.342 49.1289 281.406 49.1021 281.474 49.1018L303.088 48.9435L302.676 49.355L302.648 29.1627L303.088 29.6027L289.721 29.5645L290.123 29.1627L290.082 40.823C290.083 40.9181 290.046 41.0096 289.979 41.0773C289.912 41.1451 289.821 41.1835 289.726 41.1842H289.721L270.097 41.0376C270.041 41.0382 269.987 41.0165 269.947 40.9772C269.906 40.9379 269.883 40.8843 269.883 40.828L269.883 40.823L270.047 26.8875C270.047 26.8742 270.052 26.8615 270.062 26.8521C270.071 26.8427 270.084 26.8374 270.097 26.8374C270.111 26.8374 270.123 26.8427 270.133 26.8521C270.142 26.8615 270.147 26.8742 270.147 26.8875L270.147 26.8873Z" fill="#18181B"/>
<path d="M279.432 35.5615C279.34 33.6182 279.269 31.6748 279.22 29.7314C279.182 27.7879 279.117 25.8446 279.099 23.9012C279.099 23.8514 279.108 23.8019 279.127 23.7557C279.145 23.7094 279.173 23.6673 279.208 23.6317C279.243 23.5961 279.284 23.5678 279.33 23.5483C279.376 23.5288 279.425 23.5185 279.475 23.5181H279.482L286.948 23.4541C289.436 23.4727 291.925 23.4803 294.413 23.5571C296.902 23.6055 299.39 23.7043 301.879 23.7172C304.367 23.7574 306.856 23.7493 309.344 23.7214C309.391 23.7209 309.436 23.7389 309.47 23.7716C309.504 23.8043 309.523 23.8489 309.524 23.8958V23.9012L309.798 39.0455L309.864 46.6174C309.888 49.1415 309.856 51.6656 309.855 54.1896C309.855 54.2567 309.842 54.3231 309.816 54.385C309.79 54.447 309.753 54.5033 309.705 54.5507C309.658 54.5981 309.602 54.6357 309.54 54.6614C309.478 54.687 309.411 54.7002 309.344 54.7002C305.694 54.7091 302.045 54.6151 298.395 54.5689C294.745 54.489 291.095 54.3881 287.445 54.2398C287.433 54.2392 287.42 54.2337 287.411 54.2243C287.403 54.215 287.398 54.2026 287.398 54.1897C287.398 54.1768 287.403 54.1644 287.411 54.1551C287.42 54.1458 287.433 54.1402 287.445 54.1397C291.095 53.9914 294.745 53.8905 298.395 53.8106C302.045 53.7643 305.694 53.6703 309.344 53.6792L308.834 54.1896C308.833 51.6656 308.801 49.1415 308.825 46.6174L308.89 39.0455L309.165 23.9012L309.344 24.0807C306.856 24.0527 304.367 24.0447 301.879 24.0849C299.39 24.0978 296.902 24.1966 294.413 24.245C291.925 24.3218 289.436 24.3294 286.948 24.348L279.482 24.284L279.865 23.9011C279.847 25.8445 279.783 27.7878 279.744 29.7313C279.694 31.6746 279.624 33.618 279.532 35.5614C279.532 35.5742 279.526 35.5863 279.517 35.5952C279.508 35.6041 279.495 35.609 279.482 35.609C279.469 35.609 279.457 35.6041 279.448 35.5952C279.438 35.5863 279.433 35.5742 279.432 35.5614L279.432 35.5615Z" fill="#18181B"/>
<path d="M270.097 45.3734C272.242 45.2463 274.387 45.1387 276.532 45.0826C278.677 45.03 280.821 44.9426 282.966 44.9258C287.256 44.8594 291.546 44.8579 295.835 44.9215L295.384 45.3733C295.402 43.1929 295.484 41.0125 295.541 38.8321C295.594 36.6517 295.707 34.4713 295.835 32.2909C295.964 34.4713 296.077 36.6517 296.13 38.8321C296.188 41.0125 296.269 43.1929 296.287 45.3733C296.288 45.4917 296.243 45.6057 296.16 45.6903C296.077 45.775 295.964 45.8235 295.846 45.8252L295.835 45.8253C291.546 45.8866 287.256 45.8852 282.966 45.821C280.821 45.804 278.677 45.7168 276.532 45.664C274.387 45.6081 272.242 45.5005 270.097 45.3734ZM281.047 71.5383C280.694 69.9995 280.526 68.4242 280.547 66.8457C280.524 65.2671 280.692 63.6915 281.047 62.1531C281.401 63.6915 281.569 65.2671 281.546 66.8457C281.567 68.4242 281.399 69.9995 281.047 71.5383Z" fill="#18181B"/>
<path d="M272.657 23.9512L264.694 24.1212L264.914 23.9012C264.985 29.2218 265.079 34.5424 265.09 39.8631C265.114 45.1838 265.164 50.5044 265.12 55.8251C265.115 61.1456 265 66.4663 264.941 71.787C264.868 77.1076 264.84 82.4283 264.856 87.7489L264.694 87.5862C272.578 87.5811 280.462 87.4372 288.347 87.3757C296.231 87.2747 304.115 87.2666 311.999 87.2223C312.068 87.2219 312.136 87.235 312.2 87.261C312.264 87.287 312.322 87.3252 312.371 87.3736C312.42 87.422 312.459 87.4795 312.485 87.543C312.512 87.6064 312.526 87.6745 312.526 87.7433V87.7491L312.523 92.8681C312.524 93.0068 312.469 93.1399 312.371 93.2381C312.273 93.3363 312.14 93.3917 312.001 93.3919H311.999L300.173 93.3703L288.347 93.2539L276.52 93.1272C272.578 93.103 268.636 92.9857 264.694 92.9183C264.68 92.9183 264.668 92.9131 264.658 92.9037C264.649 92.8943 264.644 92.8816 264.644 92.8683C264.644 92.8551 264.649 92.8423 264.658 92.833C264.668 92.8236 264.68 92.8183 264.694 92.8183C268.636 92.7509 272.578 92.6336 276.52 92.6095L288.347 92.4826L300.173 92.3662L312 92.3447L311.476 92.8683L311.473 87.7493L312 88.2759C304.115 88.2316 296.231 88.2234 288.347 88.1224C280.462 88.061 272.578 87.9171 264.694 87.912C264.651 87.9121 264.609 87.8951 264.579 87.8648C264.548 87.8344 264.531 87.7932 264.531 87.7501V87.749C264.549 82.4283 264.521 77.1077 264.446 71.7871C264.387 66.4664 264.272 61.1457 264.267 55.8252C264.223 50.5045 264.273 45.1838 264.297 39.8632C264.309 34.5425 264.402 29.222 264.473 23.9013L264.474 23.8936C264.474 23.8653 264.48 23.8374 264.491 23.8114C264.502 23.7854 264.518 23.7618 264.539 23.7421C264.559 23.7223 264.583 23.7068 264.609 23.6963C264.636 23.6859 264.664 23.6807 264.692 23.6811H264.694L272.657 23.851C272.67 23.8513 272.682 23.8567 272.692 23.8661C272.701 23.8754 272.706 23.888 272.706 23.9011C272.706 23.9142 272.701 23.9268 272.692 23.9361C272.682 23.9455 272.67 23.9509 272.657 23.9512H272.657Z" fill="#18181B"/>
<path d="M274.837 33.9805C275.226 33.9671 275.594 33.8031 275.864 33.5233C276.135 33.2435 276.286 32.8696 276.286 32.4805C276.286 32.0915 276.135 31.7176 275.864 31.4378C275.594 31.1579 275.226 30.994 274.837 30.9805C274.448 30.994 274.08 31.1579 273.809 31.4378C273.539 31.7176 273.388 32.0915 273.388 32.4805C273.388 32.8696 273.539 33.2435 273.809 33.5233C274.08 33.8031 274.448 33.9671 274.837 33.9805ZM299.485 45.9254C299.874 45.9119 300.242 45.748 300.513 45.4681C300.783 45.1883 300.934 44.8144 300.934 44.4254C300.934 44.0363 300.783 43.6624 300.513 43.3826C300.242 43.1028 299.874 42.9388 299.485 42.9254C299.096 42.9388 298.728 43.1028 298.457 43.3826C298.187 43.6624 298.036 44.0363 298.036 44.4254C298.036 44.8144 298.187 45.1883 298.457 45.4681C298.728 45.748 299.096 45.9119 299.485 45.9254ZM274.837 80.4327C275.226 80.4192 275.594 80.2553 275.864 79.9755C276.135 79.6956 276.286 79.3218 276.286 78.9327C276.286 78.5436 276.135 78.1698 275.864 77.8899C275.594 77.6101 275.226 77.4462 274.837 77.4327C274.448 77.4462 274.08 77.6101 273.809 77.8899C273.539 78.1698 273.388 78.5436 273.388 78.9327C273.388 79.3218 273.539 79.6956 273.809 79.9755C274.08 80.2553 274.448 80.4192 274.837 80.4327ZM280.146 80.4327C280.535 80.4192 280.903 80.2553 281.173 79.9755C281.444 79.6956 281.595 79.3218 281.595 78.9327C281.595 78.5436 281.444 78.1698 281.173 77.8899C280.903 77.6101 280.535 77.4462 280.146 77.4327C279.757 77.4462 279.388 77.6101 279.118 77.8899C278.848 78.1698 278.697 78.5436 278.697 78.9327C278.697 79.3218 278.848 79.6956 279.118 79.9755C279.388 80.2553 279.757 80.4192 280.146 80.4327ZM261.944 36.2557C262.333 36.2423 262.701 36.0783 262.972 35.7985C263.242 35.5187 263.393 35.1448 263.393 34.7557C263.393 34.3667 263.242 33.9928 262.972 33.713C262.701 33.4331 262.333 33.2692 261.944 33.2557C261.555 33.2692 261.187 33.4331 260.917 33.713C260.646 33.9928 260.495 34.3667 260.495 34.7557C260.495 35.1448 260.646 35.5187 260.917 35.7985C261.187 36.0783 261.555 36.2423 261.944 36.2557ZM311.999 56.9222C312.388 56.9087 312.757 56.7448 313.027 56.465C313.297 56.1851 313.448 55.8113 313.448 55.4222C313.448 55.0331 313.297 54.6593 313.027 54.3795C312.757 54.0996 312.388 53.9357 311.999 53.9222C311.611 53.9357 311.242 54.0996 310.972 54.3795C310.702 54.6593 310.551 55.0331 310.551 55.4222C310.551 55.8113 310.702 56.1851 310.972 56.465C311.242 56.7448 311.611 56.9087 311.999 56.9222ZM312.473 85.7415C312.861 85.728 313.23 85.5641 313.5 85.2843C313.77 85.0045 313.922 84.6306 313.922 84.2415C313.922 83.8525 313.77 83.4786 313.5 83.1988C313.23 82.9189 312.861 82.755 312.473 82.7415C312.084 82.755 311.715 82.9189 311.445 83.1988C311.175 83.4786 311.024 83.8525 311.024 84.2415C311.024 84.6306 311.175 85.0045 311.445 85.2843C311.715 85.5641 312.084 85.728 312.473 85.7415ZM283.938 27.7405C284.29 29.1668 284.458 30.6323 284.437 32.1013C284.46 33.5704 284.292 35.0362 283.938 36.4621C283.583 35.0362 283.415 33.5704 283.438 32.1013C283.418 30.6323 283.586 29.1668 283.938 27.7405Z" fill="#18181B"/>
<path d="M302 58.7402C302.174 61.1102 302.245 63.4802 302.324 65.8502L301.95 65.4763C304.162 65.4553 306.374 65.3901 308.586 65.4055C310.798 65.4182 313.01 65.531 315.222 65.6057L314.977 65.8502C315.12 62.3544 315.081 58.8586 314.957 55.3629C314.819 51.8672 314.759 48.3714 314.72 44.8756C314.659 41.3799 314.675 37.8841 314.768 34.3884C314.84 30.8926 314.955 27.3968 315.172 23.9011C315.173 23.8884 315.178 23.8764 315.188 23.8677C315.197 23.859 315.209 23.8541 315.222 23.8541C315.235 23.8541 315.247 23.859 315.256 23.8677C315.266 23.8764 315.271 23.8884 315.272 23.9011C315.489 27.3968 315.604 30.8926 315.676 34.3884C315.765 37.8841 315.781 41.3799 315.723 44.8756C315.685 48.3714 315.625 51.8672 315.487 55.3629C315.362 58.8586 315.324 62.3544 315.467 65.8502C315.469 65.9124 315.447 65.973 315.405 66.0187C315.362 66.0644 315.304 66.0916 315.242 66.0941L315.24 66.0942L315.222 66.0948C313.01 66.1695 310.798 66.2822 308.586 66.295C306.374 66.3103 304.162 66.2452 301.95 66.2242L301.934 66.224C301.887 66.2235 301.84 66.2137 301.796 66.1951C301.752 66.1765 301.713 66.1495 301.679 66.1156C301.646 66.0817 301.62 66.0415 301.602 65.9975C301.584 65.9534 301.575 65.9063 301.576 65.8588L301.576 65.8502C301.655 63.4802 301.726 61.1102 301.9 58.7402C301.901 58.7276 301.907 58.7158 301.916 58.7072C301.925 58.6986 301.937 58.6938 301.95 58.6938C301.963 58.6938 301.975 58.6986 301.984 58.7072C301.993 58.7158 301.999 58.7276 302 58.7402H302Z" fill="#18181B"/>
<path d="M305.363 60.3518C306.434 60.0018 307.555 59.833 308.681 59.8522C309.808 59.8308 310.93 59.9997 312 60.3518C310.93 60.7039 309.808 60.8728 308.681 60.8515C307.555 60.8707 306.433 60.7018 305.363 60.3518ZM315.222 69.263C315.615 73.1972 315.706 77.1314 315.722 81.0656C315.708 84.9998 315.618 88.9341 315.222 92.8683C314.827 88.9341 314.737 84.9998 314.722 81.0656C314.739 77.1315 314.829 73.1972 315.222 69.263ZM358.866 48.2528C353.145 48.4156 347.275 48.5522 341.356 48.6012C338.405 48.6482 335.432 48.6566 332.46 48.6304C329.488 48.6133 326.517 48.5293 323.565 48.4741L323.554 48.4739C323.521 48.4733 323.488 48.4662 323.458 48.453C323.428 48.4399 323.401 48.4209 323.378 48.3972C323.355 48.3735 323.337 48.3455 323.325 48.3149C323.313 48.2842 323.307 48.2515 323.308 48.2186V48.2173C323.347 46.5899 323.377 44.9625 323.384 43.335C323.389 41.7077 323.428 40.0803 323.407 38.453C323.399 35.1982 323.36 31.9434 323.291 28.6886C323.289 28.6175 323.316 28.5487 323.366 28.4974C323.415 28.4461 323.482 28.4165 323.553 28.415L323.565 28.4148C329.442 28.2799 335.32 28.2284 341.198 28.1891C344.136 28.1568 347.075 28.1505 350.014 28.1701C352.953 28.1871 355.891 28.1664 358.83 28.2202L358.846 28.2204C358.906 28.2213 358.966 28.2342 359.021 28.2582C359.077 28.2822 359.127 28.317 359.169 28.3605C359.211 28.404 359.244 28.4553 359.267 28.5116C359.289 28.5679 359.3 28.628 359.299 28.6885C359.249 31.9957 359.218 35.3085 359.122 38.5739L358.866 48.2528ZM358.795 48.182L358.538 38.332C358.443 35.0878 358.411 31.8912 358.362 28.6885L358.83 29.1568C355.891 29.2106 352.953 29.1899 350.014 29.2068C347.075 29.2241 344.136 29.2178 341.197 29.1879C335.32 29.1486 329.442 29.0971 323.565 28.9622L323.838 28.6885C323.773 31.9433 323.734 35.1981 323.722 38.4529C323.701 40.0802 323.74 41.7077 323.746 43.335C323.752 44.9624 323.782 46.5899 323.821 48.2172L323.565 47.9606C326.49 47.9054 329.396 47.8214 332.302 47.8043C335.207 47.7781 338.112 47.7865 341.039 47.8335C346.875 47.8825 352.761 48.0192 358.795 48.182V48.182ZM323.564 54.1898C326.503 53.9836 329.442 53.8869 332.381 53.807C335.32 53.7156 338.259 53.7026 341.198 53.6902C344.136 53.7013 347.075 53.7146 350.014 53.8052L354.422 53.9447C355.891 54.0278 357.361 54.0764 358.83 54.1898C357.361 54.3032 355.891 54.3519 354.422 54.4349L350.014 54.5744C347.075 54.665 344.136 54.6783 341.198 54.6896C338.259 54.677 335.32 54.664 332.381 54.5726C329.442 54.4927 326.503 54.3961 323.564 54.1898ZM323.564 61.1102C326.503 60.904 329.442 60.8073 332.381 60.7274C335.32 60.636 338.259 60.6231 341.198 60.6106C344.136 60.6218 347.075 60.635 350.014 60.7256L354.422 60.8651C355.891 60.9482 357.361 60.9968 358.83 61.1102C357.361 61.2236 355.891 61.2723 354.422 61.3553L350.014 61.4949C347.075 61.5854 344.136 61.5988 341.198 61.61C338.259 61.5974 335.32 61.5845 332.381 61.4931C329.442 61.4131 326.503 61.3165 323.564 61.1102ZM323.564 68.1255C326.503 67.9192 329.442 67.8226 332.381 67.7427C335.32 67.6512 338.259 67.6383 341.198 67.6257C344.136 67.6369 347.075 67.6502 350.014 67.7408L354.422 67.8803C355.891 67.9633 357.361 68.012 358.83 68.1254C357.361 68.2388 355.891 68.2874 354.422 68.3705L350.014 68.5101C347.075 68.6006 344.136 68.6139 341.198 68.6251C338.259 68.6126 335.32 68.5997 332.381 68.5082C329.442 68.4283 326.503 68.3316 323.564 68.1255ZM344.456 92.9037L339.643 93.0912C338.008 93.1332 336.378 93.212 334.71 93.2282L329.716 93.3082C328.042 93.2998 326.369 93.3017 324.702 93.2584L324.682 93.258C324.581 93.2554 324.486 93.2128 324.416 93.1398C324.347 93.0667 324.309 92.9691 324.312 92.8683C324.388 89.9137 324.525 86.9591 324.535 84.0045C324.568 82.5272 324.532 81.0499 324.524 79.5726C324.518 78.0954 324.459 76.6181 324.428 75.1408C324.427 75.0702 324.454 75.0019 324.502 74.9507C324.551 74.8995 324.618 74.8696 324.688 74.8674L324.702 74.867C327.989 74.7669 331.275 74.691 334.561 74.6651C337.848 74.6262 341.134 74.5836 344.42 74.6162L344.428 74.6163C344.566 74.6178 344.698 74.6737 344.794 74.7719C344.891 74.8702 344.946 75.0028 344.945 75.1408C344.934 78.1596 344.841 81.1702 344.773 84.1505L344.456 92.9037ZM344.385 92.833L344.068 83.8586C344 80.9298 343.908 78.0312 343.896 75.1407L344.42 75.6651C341.134 75.6977 337.848 75.6551 334.561 75.6164C331.275 75.5906 327.989 75.5146 324.702 75.4144L324.976 75.1408C324.946 76.618 324.887 78.0954 324.88 79.5726C324.872 81.0499 324.836 82.5272 324.869 84.0045C324.879 86.9591 325.016 89.9137 325.092 92.8683L324.702 92.4783C326.322 92.4351 327.936 92.4369 329.548 92.4286L334.412 92.5086C336.031 92.5247 337.687 92.6036 339.34 92.6456L344.385 92.833ZM358.866 92.9037C357.283 93.0046 355.624 93.0967 353.929 93.1666C352.242 93.2635 350.503 93.264 348.781 93.3014C348.726 93.3026 348.671 93.2928 348.619 93.2727C348.567 93.2525 348.52 93.2223 348.479 93.1839C348.439 93.1454 348.407 93.0994 348.385 93.0484C348.362 92.9975 348.35 92.9427 348.349 92.8871L348.348 92.8683C348.276 89.9137 348.451 86.9591 348.568 84.0045C348.616 82.5272 348.65 81.0499 348.617 79.5726C348.611 78.0953 348.562 76.618 348.508 75.1407C348.505 75.0712 348.53 75.0034 348.578 74.9523C348.625 74.9012 348.69 74.8708 348.76 74.8679L348.782 74.8669C350.456 74.795 352.131 74.7408 353.806 74.7043L358.83 74.625C358.897 74.6239 358.963 74.636 359.025 74.6605C359.087 74.6851 359.143 74.7216 359.191 74.768C359.239 74.8144 359.278 74.8698 359.304 74.931C359.33 74.9921 359.345 75.058 359.346 75.1246L359.346 75.1265V75.1407C359.383 78.1544 359.352 81.1986 359.238 84.1735C359.155 87.1599 359.012 90.0896 358.866 92.9037ZM358.795 92.833C358.648 89.7379 358.505 86.7585 358.423 83.8357C358.309 80.9013 358.278 78.0364 358.314 75.1407L358.83 75.6564L353.806 75.5771C352.131 75.5419 350.456 75.4876 348.781 75.4144L349.055 75.1407C349.001 76.618 348.951 78.0953 348.945 79.5726C348.913 81.0499 348.947 82.5272 348.995 84.0045C349.112 86.9591 349.287 89.9137 349.215 92.8683L348.782 92.4353C350.41 92.4726 352.02 92.4731 353.682 92.57C355.337 92.6401 357.028 92.732 358.795 92.833ZM235.177 114.979C239.086 113.882 243.113 113.257 247.171 113.116C249.213 113.041 251.256 113.178 253.269 113.524C255.319 113.855 257.282 114.592 259.043 115.692C260.817 116.865 262.165 118.58 262.886 120.58C263.551 122.553 264.065 124.463 264.689 126.399C265.892 130.256 267.161 134.091 268.495 137.904C271.194 145.515 274.036 153.082 277.423 160.395C279.093 164.053 280.951 167.622 282.99 171.089C284.963 174.55 287.356 177.755 290.114 180.631C291.453 182.025 293.028 183.173 294.767 184.019C296.445 184.842 298.373 184.996 300.161 184.451C301.997 183.943 303.668 182.966 305.011 181.615C306.372 180.224 307.504 178.626 308.364 176.88C309.225 175.094 309.948 173.245 310.525 171.348C311.072 169.43 311.578 167.494 311.943 165.52C312.71 161.583 313.225 157.585 313.613 153.573C314.372 145.542 314.622 137.454 314.793 129.37C315.008 121.283 315.041 113.19 315.222 105.098C315.497 121.277 315.999 137.473 314.824 153.677C314.543 157.738 314.029 161.779 313.284 165.781C312.924 167.79 312.419 169.776 311.868 171.751C311.279 173.73 310.537 175.66 309.649 177.525C308.729 179.419 307.512 181.154 306.045 182.665C304.53 184.202 302.64 185.319 300.563 185.906C299.51 186.242 298.402 186.366 297.301 186.272C296.207 186.169 295.138 185.885 294.138 185.431C292.221 184.521 290.483 183.275 289.004 181.753C286.169 178.768 283.713 175.444 281.693 171.856C279.649 168.334 277.789 164.708 276.119 160.994C272.791 153.59 269.863 146.013 267.35 138.294C266.077 134.445 264.873 130.576 263.737 126.686C263.155 124.761 262.647 122.75 262.053 120.88C261.421 119.033 260.214 117.438 258.608 116.328C256.956 115.232 255.102 114.476 253.154 114.106C251.187 113.709 249.184 113.517 247.177 113.533C245.16 113.536 243.145 113.668 241.145 113.926C239.137 114.164 237.145 114.515 235.177 114.979Z" fill="#0073A8"/>
<path d="M325.224 105.098H298.775V115.071H325.224V105.098Z" fill="#0073A8"/>
<path d="M394.058 142.218C394.058 142.878 394.048 143.538 394.038 144.198H392.078C392.068 143.538 392.058 142.878 392.058 142.218C392.058 140.138 392.138 138.068 392.278 135.988C392.409 133.894 392.67 131.81 393.058 129.748C393.455 131.809 393.716 133.893 393.837 135.988C393.988 138.068 394.068 140.138 394.058 142.218ZM375.328 159.428C375.308 161.568 375.258 163.708 375.107 165.848C374.975 168.005 374.715 170.152 374.328 172.278C373.935 170.153 373.675 168.006 373.548 165.848C373.388 163.708 373.348 161.568 373.328 159.428C373.337 158.878 373.337 158.318 373.348 157.768H375.308C375.318 158.318 375.318 158.878 375.328 159.428ZM385.428 152.148C385.418 154.018 385.398 155.898 385.357 157.768H383.498C383.458 155.898 383.438 154.018 383.428 152.148C383.448 149.498 383.468 146.848 383.568 144.198H385.288C385.388 146.848 385.408 149.498 385.428 152.148ZM362.748 152.148C362.738 154.018 362.718 155.898 362.677 157.768H360.818C360.778 155.898 360.758 154.018 360.748 152.148C360.768 149.498 360.788 146.848 360.888 144.198H362.607C362.708 146.848 362.728 149.498 362.748 152.148ZM354.808 159.428C354.788 161.568 354.738 163.708 354.587 165.848C354.455 168.005 354.195 170.152 353.808 172.278C353.415 170.153 353.155 168.006 353.028 165.848C352.868 163.708 352.828 161.568 352.808 159.428C352.818 158.878 352.818 158.318 352.828 157.768H354.788C354.798 158.318 354.798 158.878 354.808 159.428ZM397.288 159.428C397.268 161.568 397.218 163.708 397.068 165.848C396.935 168.005 396.675 170.152 396.288 172.278C395.895 170.153 395.635 168.006 395.508 165.848C395.348 163.708 395.308 161.568 395.288 159.428C395.298 158.878 395.298 158.318 395.308 157.768H397.268C397.278 158.318 397.278 158.878 397.288 159.428ZM374.708 142.068C374.708 142.778 374.698 143.488 374.678 144.198H372.738C372.718 143.488 372.708 142.778 372.708 142.068C372.698 139.998 372.778 137.918 372.928 135.838C373.054 133.747 373.314 131.666 373.708 129.608C374.101 131.666 374.361 133.747 374.488 135.838C374.627 137.918 374.708 139.998 374.708 142.068Z" fill="#18181B"/>
<path d="M353.808 144.198C357.979 143.784 362.151 143.568 366.323 143.421C370.494 143.261 374.666 143.219 378.838 143.199C383.009 143.216 387.181 143.259 391.353 143.418C395.524 143.564 399.696 143.782 403.867 144.198C399.696 144.615 395.524 144.832 391.353 144.979C387.181 145.138 383.009 145.18 378.838 145.198C374.666 145.178 370.494 145.135 366.323 144.976C362.151 144.828 357.979 144.612 353.808 144.198ZM399.867 157.768C395.696 158.182 391.524 158.399 387.353 158.546C383.181 158.705 379.009 158.748 374.838 158.768C370.666 158.75 366.494 158.708 362.323 158.549C358.151 158.402 353.979 158.185 349.808 157.768C353.979 157.352 358.151 157.134 362.323 156.988C366.494 156.829 370.666 156.786 374.838 156.769C379.009 156.789 383.181 156.831 387.353 156.991C391.524 157.138 395.696 157.354 399.867 157.768ZM195.454 23.3763C195.454 24.0363 195.444 24.6964 195.434 25.3564H193.474C193.464 24.6964 193.454 24.0364 193.454 23.3763C193.454 21.2964 193.534 19.2264 193.674 17.1463C193.805 15.0522 194.066 12.9683 194.454 10.9062C194.851 12.9667 195.112 15.0513 195.233 17.1463C195.384 19.2263 195.464 21.2964 195.454 23.3763ZM176.724 40.5863C176.704 42.7263 176.654 44.8663 176.503 47.0063C176.371 49.1632 176.111 51.3103 175.724 53.4362C175.331 51.3111 175.071 49.1637 174.944 47.0063C174.784 44.8663 174.744 42.7263 174.724 40.5863C174.733 40.0364 174.733 39.4763 174.744 38.9263H176.704C176.714 39.4763 176.714 40.0364 176.724 40.5863ZM186.823 33.3064C186.813 35.1763 186.793 37.0564 186.753 38.9263H184.894C184.854 37.0564 184.833 35.1763 184.823 33.3064C184.843 30.6563 184.863 28.0064 184.964 25.3563H186.684C186.784 28.0064 186.803 30.6563 186.823 33.3064ZM164.144 33.3064C164.134 35.1763 164.114 37.0564 164.073 38.9263H162.214C162.174 37.0564 162.154 35.1763 162.144 33.3064C162.164 30.6563 162.184 28.0064 162.284 25.3563H164.003C164.104 28.0064 164.124 30.6563 164.144 33.3064ZM156.204 40.5863C156.184 42.7263 156.134 44.8663 155.983 47.0063C155.851 49.1632 155.591 51.3103 155.204 53.4362C154.811 51.3111 154.551 49.1637 154.424 47.0063C154.264 44.8663 154.224 42.7263 154.204 40.5863C154.214 40.0364 154.214 39.4763 154.224 38.9263H156.184C156.194 39.4763 156.194 40.0364 156.204 40.5863ZM198.684 40.5863C198.664 42.7263 198.614 44.8663 198.464 47.0063C198.331 49.1632 198.071 51.3103 197.684 53.4362C197.291 51.3111 197.031 49.1637 196.904 47.0063C196.744 44.8663 196.704 42.7263 196.684 40.5863C196.694 40.0364 196.694 39.4763 196.704 38.9263H198.664C198.674 39.4763 198.674 40.0364 198.684 40.5863ZM176.104 23.2263C176.104 23.9363 176.094 24.6463 176.074 25.3563H174.134C174.114 24.6462 174.104 23.9362 174.104 23.2263C174.094 21.1563 174.174 19.0763 174.324 16.9963C174.45 14.9051 174.71 12.8241 175.104 10.7663C175.497 12.8241 175.757 14.9051 175.884 16.9963C176.023 19.0763 176.104 21.1563 176.104 23.2263Z" fill="#18181B"/>
<path d="M155.204 25.3563C159.375 24.9425 163.547 24.7261 167.719 24.579C171.89 24.4195 176.062 24.3768 180.234 24.357C184.405 24.3744 188.577 24.417 192.749 24.576C196.92 24.7226 201.092 24.9401 205.263 25.3564C201.092 25.7726 196.92 25.9903 192.749 26.1368C188.577 26.2957 184.405 26.3383 180.234 26.3558C176.062 26.3359 171.89 26.2933 167.719 26.1338C163.547 25.9866 159.375 25.7701 155.204 25.3563ZM201.263 38.9263C197.092 39.3401 192.92 39.5567 188.749 39.7038C184.577 39.8633 180.405 39.9058 176.234 39.9258C172.062 39.9082 167.89 39.8657 163.719 39.7066C159.547 39.5601 155.375 39.3426 151.204 38.9262C155.375 38.51 159.547 38.2924 163.719 38.146C167.89 37.9869 172.062 37.9443 176.234 37.9268C180.405 37.9468 184.577 37.9893 188.749 38.1489C192.92 38.296 197.092 38.5126 201.263 38.9263Z" fill="#18181B"/>
</svg>
