<svg xmlns="http://www.w3.org/2000/svg" viewBox="0 0 455 455" fill="#9AA5B1"><path d="M425.17 67.167H29.83C13.382 67.167 0 80.549 0 96.997v152.67a7.5 7.5 0 0 0 7.5 7.5h440a7.5 7.5 0 0 0 7.5-7.5V96.997c0-16.448-13.382-29.83-29.83-29.83zm-392.67 15h390v9.51c0 4.957-4.033 8.99-8.99 8.99H41.49c-4.957 0-8.99-4.033-8.99-8.99v-9.51zm390 122.5h-390v-1.01c0-4.957 4.033-8.99 8.99-8.99h372.02c4.957 0 8.99 4.033 8.99 8.99v1.01zm-390 10h390v10h-390v-10zm0 20h390v7.5h-390v-7.5zm407.5 7.5h-7.5v-38.51c0-10.471-8.519-18.99-18.99-18.99H41.49c-10.472 0-18.99 8.519-18.99 18.99v38.51H15V96.997c0-5.51 3.027-10.319 7.5-12.875v7.555c0 10.471 8.519 18.99 18.99 18.99h372.02c10.472 0 18.99-8.519 18.99-18.99v-7.555c4.473 2.556 7.5 7.365 7.5 12.875v145.17z"/><path d="M250.5 164.667h-46a5 5 0 1 0 0 10h46a5 5 0 1 0 0-10zM401.503 164.668c-1.32 0-2.61.53-3.54 1.46s-1.46 2.22-1.46 3.54.53 2.61 1.46 3.53c.93.94 2.22 1.47 3.54 1.47 1.31 0 2.6-.53 3.53-1.47.93-.93 1.47-2.22 1.47-3.53s-.54-2.6-1.47-3.54a5.03 5.03 0 0 0-3.53-1.46zM378.503 164.668c-1.32 0-2.61.53-3.54 1.46s-1.46 2.22-1.46 3.54.53 2.6 1.46 3.53c.93.93 2.22 1.47 3.54 1.47 1.31 0 2.6-.54 3.53-1.47a5.04 5.04 0 0 0 1.47-3.53c0-1.32-.54-2.61-1.47-3.54a5.03 5.03 0 0 0-3.53-1.46zM186.319 289.942a5 5 0 1 0-8.723-4.892c-9.09 16.21-9.091 36.35-.001 52.561 7.396 13.192 7.396 29.583 0 42.776a5 5 0 0 0 8.722 4.891c9.088-16.209 9.088-36.348 0-52.557-7.397-13.195-7.396-29.586.002-42.779zM231.862 289.942a5 5 0 1 0-8.723-4.892c-9.09 16.21-9.091 36.35-.001 52.561 7.396 13.192 7.396 29.583 0 42.776a5 5 0 0 0 8.722 4.891c9.088-16.209 9.088-36.348 0-52.557-7.397-13.195-7.396-29.586.002-42.779zM277.406 289.942a5 5 0 1 0-8.723-4.892c-9.091 16.21-9.091 36.35-.002 52.561 7.397 13.193 7.397 29.583 0 42.776a5 5 0 0 0 8.722 4.891c9.089-16.209 9.089-36.348 0-52.557-7.396-13.194-7.396-29.586.003-42.779z"/></svg>
