<svg xmlns="http://www.w3.org/2000/svg" viewBox="0 0 512 512" style="enable-background:new 0 0 512 512" xml:space="preserve" fill="#9AA5B1"><path d="M472 280H40c-13 0-24 11-24 24a8 8 0 0 0 16 0c0-4 4-8 8-8h7L28 407c-3 17 0 35 9 49l11 18v29c0 5 4 9 9 9h398c5 0 9-4 9-9v-29l11-18c9-14 12-32 9-49l-19-111h7c4 0 8 4 8 8a8 8 0 0 0 16 0c0-13-11-24-24-24zm-51 168-10 16h-23l5-14c5-11 6-23 5-35l-13-119h24l19 114c2 13 0 27-7 38zm-74 16 5-19c2-8 3-17 2-25l-9-124h24l13 121c1 9 0 18-3 27l-8 20h-24zm-43 0 2-29v-5l-2-134h25l10 125-2 20-7 23h-26zm-40 0V296h24l2 134v4l-2 30h-24zm-40 0-2-30v-4l2-134h24v168h-24zm-123 0-10-16c-7-11-9-25-7-38l19-114h24l-13 119c-1 12 0 24 5 35l5 14h-23zm40 0-8-20c-3-9-4-18-3-27l13-121h24l-10 124c0 8 1 17 3 25l5 19h-24zm41 0-7-23-2-20 10-125h25l-2 133v6l1 29h-25zM44 410l19-114h24L68 407c-3 17 0 35 9 49l5 8H61l-10-16c-7-11-9-25-7-38zm404 86H64v-16h384v16zm13-48-10 16h-21l5-8c9-14 12-32 9-49l-19-111h24l19 114c2 13 0 27-7 38zM104 264c4 0 8-4 8-8V16h288v240a8 8 0 0 0 16 0V16c0-9-7-16-16-16H112c-9 0-16 7-16 16v240c0 4 4 8 8 8z"/><path d="M376 264c4 0 8-4 8-8V40c0-4-4-8-8-8H136c-4 0-8 4-8 8v216a8 8 0 0 0 16 0V136h80a8 8 0 0 0 0-16h-80V48h104v208a8 8 0 0 0 16 0V136h104v120c0 4 4 8 8 8zM264 120V48h104v72H264z"/></svg>
