<svg xmlns="http://www.w3.org/2000/svg" viewBox="0 0 512 512" style="enable-background:new 0 0 512 512" xml:space="preserve" fill="#9AA5B1"><path d="M463 0H49C22 0 0 22 0 49v329a9 9 0 1 0 19 0V49c0-17 13-30 30-30h414c17 0 30 13 30 30v414c0 17-13 30-30 30H49c-17 0-30-13-30-30v-53a9 9 0 1 0-19 0v53c0 27 22 49 49 49h414c27 0 49-22 49-49V49c0-27-22-49-49-49z"/><path d="M451 51h-67a9 9 0 1 0 0 19h58v372H70V70h282a9 9 0 1 0 0-19H61c-6 0-10 4-10 10v390c0 6 4 10 10 10h390c6 0 10-4 10-10V61c0-6-4-10-10-10z"/><path d="M264 101h-80c-5 0-9 4-9 9v207a9 9 0 1 0 18 0V120h71a95 95 0 0 1 0 189h-15c-5 0-10 4-10 9v74h-46v-43a9 9 0 0 0-18 0v53c0 5 4 9 9 9h65c5 0 9-4 9-9v-75h6a113 113 0 0 0 0-226z"/><path d="M261 158h-12c-5 0-10 4-10 9v94c0 5 5 10 10 10h12a56 56 0 0 0 0-113zm0 94h-3v-76h3a38 38 0 0 1 0 76z"/></svg>
