<svg xmlns="http://www.w3.org/2000/svg" viewBox="0 0 463.1 463.1" style="enable-background:new 0 0 463.057 463.057" xml:space="preserve" fill="#9AA5B1"><path d="M343 312v-17h9a8 8 0 0 0 0-15h-14l3-9h3a8 8 0 0 0 0-15h-64a8 8 0 0 0 0 15h2l3 9h-46V111h213c5 0 10-4 11-9 1-6-2-11-7-13L234 1V0h-5v1L7 89c-5 2-8 7-7 13 1 5 6 9 11 9h213v169h-46l3-9h3a8 8 0 0 0 0-15h-64a8 8 0 0 0 0 15h2l3 9h-13a8 8 0 0 0 0 15h8v17c0 8 7 15 16 15h88v82c-9 3-16 12-16 23v16h-16a8 8 0 0 0 0 15h80a8 8 0 0 0 0-15h-17v-16c0-11-7-20-16-23v-82h89c8 0 15-7 15-15zm-18-41-3 9h-21l-3-9h27zM433 96H331l-68-68 170 68zM30 96l170-68-68 68H30zm124 0 78-78 77 78H154zm11 175-3 9h-21l-3-9h27zm75 161v16h-17v-16a9 9 0 0 1 17 0zm88-120H135v-17h193v17zM104 344H30L15 223a8 8 0 0 0-15 1l16 128v104a8 8 0 0 0 15 0v-33h65v33a8 8 0 0 0 15 0v-66a24 24 0 0 0-7-46zm-8 64H31v-17h65v17zm8-32H31v-17h73a9 9 0 0 1 0 17zM456 216c-4 0-7 2-8 7l-15 121h-73a24 24 0 0 0-8 46v66a8 8 0 0 0 15 0v-33h65v33a8 8 0 0 0 15 0V352l16-128c0-4-2-7-7-8zm-24 192h-65v-17h65v17zm0-32h-72a9 9 0 0 1 0-17h72v17z"/></svg>
