<svg xmlns="http://www.w3.org/2000/svg" viewBox="0 0 456 456" style="enable-background:new 0 0 456 456" xml:space="preserve" fill="#9AA5B1"><path d="M390 138h-32a158 158 0 0 0-260 0H66c-36 0-66 29-66 66v49c0 36 30 66 66 66h32a158 158 0 0 0 260 0h32c36 0 66-30 66-66v-49c0-37-30-66-66-66zM95 302l-3 1H66c-28 0-50-23-50-50v-49c0-28 22-50 50-50h37c2 0 5-2 6-4a142 142 0 0 1 229-12h-67c-25 0-44 20-44 44v92c0 16-13 28-29 28H95zm345-49c0 27-22 50-50 50h-37c-2 0-5 1-6 3a142 142 0 0 1-229 12h81c24 0 44-20 44-44v-92c0-15 12-28 28-28h119c28 0 50 22 50 50v49z"/><path d="M369 215c-5 0-8 4-8 8v48a8 8 0 1 0 16 0v-48c0-4-4-8-8-8zM369 190c-5 0-8 4-8 8v2a8 8 0 1 0 16 0v-2c0-4-4-8-8-8zM332 204a8 8 0 1 0 0-16h-39c-4 0-7 2-8 5l-1 5v72a8 8 0 1 0 16 0v-29h32a8 8 0 1 0 0-16h-32v-21h32zM145 190c-4-1-8 2-9 6l-10 40-9-40a8 8 0 0 0-15 0l-9 40-10-40a8 8 0 0 0-15 4l17 73a8 8 0 0 0 15 0l10-40 9 40a8 8 0 0 0 15 0l17-73c1-4-1-9-6-10zM178 215c-4 0-8 4-8 8v48a8 8 0 0 0 16 0v-48c0-4-3-8-8-8zM178 190c-4 0-8 4-8 8v2a8 8 0 0 0 16 0v-2c0-4-3-8-8-8z"/></svg>
